<?xml version="1.0" encoding="UTF-8"?>
<svg id="droite" xmlns="http://www.w3.org/2000/svg" viewBox="0 0 800 600">
  <defs>
    <style>
      .cls-1 {
        fill: #9e3a28;
      }

      .cls-2 {
        fill: #27555c;
      }

      .cls-3 {
        fill: #2c4e5e;
      }

      .cls-4 {
        fill: #603813;
      }

      .cls-5 {
        fill: #fff;
        opacity: .75;
      }

      .cls-6 {
        fill: #325442;
      }
    </style>
  </defs>
  <rect class="cls-5" x="133.78" y="45.26" width="532.45" height="474.53" rx="40" ry="40"/>
  <rect class="cls-4" x="133.78" y="45.26" width="532.45" height="377.42" rx="40" ry="40"/>
  <g>
    <path d="M263.72,458.79l-6.3-6.77v-.1l7.35-7,.6,.68-5.48,6.42v.05l4.55,6.07-.73,.65Zm3.6-2.1l-4.58-4.75v-.08l5.3-4.85,.62,.62-3.42,4.18v.05l2.8,4.17-.72,.65Z"/>
    <path d="M283.8,441.06c1.93,0,3.41,.34,4.44,1.02,1.03,.68,1.49,1.77,1.39,3.25-.03,.53-.21,1.07-.53,1.6s-.78,1-1.4,1.41c-.62,.41-1.39,.7-2.33,.86v.05c1.83,0,3.18,.42,4.05,1.26,.87,.84,1.26,1.9,1.17,3.19-.05,1.02-.35,1.89-.89,2.62-.54,.73-1.26,1.3-2.15,1.69s-1.9,.59-3.04,.59h-7.22l.05-.83c.63-.02,1.08-.16,1.33-.44,.25-.27,.4-.65,.45-1.12,.05-.47,.09-1.02,.12-1.64l.55-10.5c.02-.45,.04-.84,.08-1.16,.03-.33,.07-.6,.1-.81-.3,.02-.6,.03-.91,.05-.31,.02-.61,.03-.91,.05l.08-1.1c.92,0,1.83,0,2.73-.02,.9-.02,1.85-.02,2.85-.02Zm.35,8.88c-.5,0-.95,0-1.36,.01-.41,0-.81,.03-1.21,.06l-.3,5.62c-.02,.45-.04,.83-.07,1.15-.03,.32-.07,.58-.1,.8,.27,.02,.59,.03,.96,.04s.72,.01,1.05,.01h.64c1.28,0,2.34-.32,3.16-.95s1.27-1.58,1.34-2.83c.05-.98-.11-1.76-.49-2.34-.38-.58-.88-.98-1.51-1.23-.63-.24-1.33-.36-2.1-.36Zm-.27-7.98c-.53,0-.94,.07-1.21,.23-.27,.15-.47,.4-.58,.75-.11,.35-.18,.83-.21,1.45l-.25,4.65c.32,0,.63,0,.95-.01,.32,0,.61-.02,.88-.04,.95-.05,1.71-.26,2.29-.62,.58-.37,1-.83,1.26-1.39,.27-.56,.41-1.15,.42-1.76,.03-.9-.13-1.58-.5-2.05-.37-.47-.83-.78-1.39-.95s-1.11-.25-1.66-.25Z"/>
    <path d="M298.82,445.84c.6,0,1.17,.09,1.7,.27,.53,.18,.97,.48,1.3,.9,.33,.42,.5,.98,.5,1.7s-.23,1.27-.7,1.77-1.07,.91-1.82,1.24c-.75,.33-1.55,.59-2.4,.79-.85,.2-1.67,.34-2.45,.43,0,1.03,.1,1.9,.31,2.6,.21,.7,.52,1.23,.94,1.58s.95,.52,1.6,.52c.48,0,.97-.11,1.46-.32s.96-.55,1.41-.99c.45-.44,.86-1.01,1.22-1.71l.83,.48c-.47,.87-.97,1.58-1.5,2.15-.53,.57-1.12,.98-1.75,1.25-.63,.27-1.33,.4-2.1,.4-1.58,0-2.75-.5-3.5-1.49s-1.12-2.3-1.12-3.91c0-.97,.12-1.91,.38-2.83,.25-.92,.62-1.74,1.12-2.46s1.13-1.3,1.9-1.73c.77-.42,1.66-.64,2.67-.64Zm-.35,.85c-.77,0-1.4,.26-1.89,.77-.49,.52-.87,1.18-1.12,2-.26,.82-.42,1.67-.49,2.57,.88-.12,1.72-.32,2.52-.62,.8-.3,1.46-.69,1.98-1.16,.52-.48,.77-1.03,.77-1.66,0-.53-.15-.98-.44-1.35-.29-.37-.74-.55-1.34-.55Z"/>
    <path d="M311.29,458.61l.05-.83c.63-.03,1.08-.18,1.33-.44,.25-.26,.4-.62,.45-1.07,.05-.46,.08-.98,.1-1.56l.58-10.8c.03-.33,.06-.65,.09-.96,.03-.31,.05-.59,.09-.84-.3,.02-.6,.03-.9,.05-.3,.02-.6,.03-.9,.05l.05-1.1h5.52l-.05,.83c-.53,.02-.93,.14-1.19,.36s-.43,.54-.51,.95c-.08,.41-.14,.91-.17,1.51l-.22,4.35h1.95l3.32-4.92c.23-.33,.51-.7,.84-1.09,.33-.39,.69-.73,1.09-1.01-.27,.02-.53,.02-.79,.02s-.52,0-.79,.02l.05-1.02h5.38l-.05,.83c-.7,.05-1.33,.17-1.89,.35-.56,.18-1.1,.5-1.62,.96s-1.1,1.15-1.71,2.06l-2.65,3.9c.47,.28,.84,.61,1.12,.99,.28,.38,.56,.75,.83,1.14l2.62,3.73c.58,.83,1.07,1.45,1.46,1.84s.75,.64,1.06,.74,.65,.15,1,.15l-.05,.83h-2.95c-.17,0-.38-.12-.64-.35-.26-.23-.54-.54-.84-.91s-.61-.77-.92-1.19l-2.78-4.05c-.27-.42-.56-.81-.88-1.19s-.62-.65-.9-.84c-.22,0-.43,0-.65,.01-.22,0-.44,.01-.67,.01l-.3,5.52c-.02,.45-.04,.84-.07,1.16-.03,.33-.07,.6-.1,.81,.3-.02,.6-.03,.9-.05s.6-.03,.9-.05l-.05,1.1h-5.52Z"/>
    <path d="M329.74,445.84c.7,0,1.22,.24,1.58,.71,.35,.48,.52,1.1,.52,1.89,0,.5-.05,1.07-.14,1.71s-.2,1.33-.34,2.06c-.13,.73-.25,1.47-.34,2.21-.09,.74-.14,1.46-.14,2.16,0,.33,.06,.59,.19,.77,.12,.18,.32,.27,.59,.27,.28,0,.6-.18,.94-.55s.64-.99,.89-1.88l.7,.15c-.07,.35-.18,.73-.34,1.14s-.36,.79-.61,1.15-.55,.65-.91,.89c-.36,.23-.77,.35-1.24,.35-.77,0-1.33-.2-1.7-.6-.37-.4-.55-.98-.55-1.75s.05-1.45,.15-2.14c.1-.69,.21-1.38,.34-2.05,.12-.67,.24-1.35,.34-2.04s.15-1.38,.15-2.1c0-.22-.05-.46-.14-.73-.09-.27-.28-.4-.56-.4-.27,0-.58,.18-.92,.55-.35,.37-.65,.99-.9,1.88l-.7-.15c.05-.3,.15-.65,.3-1.04,.15-.39,.35-.78,.61-1.16,.26-.38,.57-.7,.94-.95,.37-.25,.8-.38,1.3-.38Zm1.42-5.4c.38,0,.7,.13,.95,.39,.25,.26,.38,.6,.38,1.04s-.13,.75-.4,1.01-.58,.39-.95,.39-.68-.13-.94-.39c-.26-.26-.39-.6-.39-1.01s.13-.78,.4-1.04c.27-.26,.58-.39,.95-.39Z"/>
    <path d="M346.34,458.89c-.78,0-1.32-.21-1.6-.62s-.42-1.01-.42-1.77c0-.47,.04-1.02,.11-1.65,.08-.63,.17-1.31,.28-2.02s.2-1.44,.28-2.18c.07-.73,.11-1.43,.11-2.1,0-.2-.03-.42-.09-.65-.06-.23-.17-.44-.34-.61-.17-.18-.42-.26-.75-.26-.47,0-.93,.22-1.4,.65-.47,.43-.91,1.02-1.33,1.75-.42,.73-.79,1.55-1.12,2.44-.33,.89-.6,1.81-.79,2.75-.19,.94-.29,1.84-.29,2.69,0,.25,0,.48,.01,.69,0,.21,.02,.42,.04,.64h-2.1c-.02-.12-.02-.22-.02-.31v-.34c0-.28,.02-.61,.05-.99,.03-.38,.09-.88,.16-1.5s.17-1.46,.29-2.51c.12-.98,.2-1.75,.26-2.3,.06-.55,.1-.97,.14-1.26s.05-.52,.06-.68c0-.16,.01-.33,.01-.51,0-.3-.04-.56-.12-.79-.08-.23-.27-.34-.55-.34-.27,0-.58,.18-.92,.55-.35,.37-.65,.99-.9,1.88l-.7-.15c.05-.3,.15-.65,.31-1.04,.16-.39,.37-.78,.64-1.16,.27-.38,.59-.7,.97-.95,.38-.25,.83-.38,1.33-.38,.57,0,.99,.15,1.26,.46,.28,.31,.45,.7,.53,1.19,.07,.48,.1,1,.06,1.55-.03,.47-.09,.92-.16,1.35-.08,.43-.15,.82-.21,1.15h.07c.57-1.52,1.12-2.69,1.68-3.51,.55-.83,1.1-1.4,1.64-1.71,.54-.32,1.08-.48,1.61-.48,.67,0,1.2,.15,1.6,.45,.4,.3,.69,.7,.86,1.19,.17,.49,.26,1.03,.26,1.61,0,.92-.06,1.85-.19,2.81s-.25,1.84-.38,2.65c-.12,.81-.19,1.45-.19,1.94,0,.3,.04,.57,.11,.8,.08,.23,.26,.35,.56,.35,.28,0,.6-.18,.94-.54,.34-.36,.64-.99,.89-1.89l.7,.17c-.05,.28-.15,.62-.31,1.02-.16,.4-.37,.79-.64,1.16s-.59,.69-.97,.94c-.38,.25-.83,.38-1.33,.38Z"/>
    <path d="M353.94,465.39c-.3,0-.65-.03-1.06-.1s-.81-.18-1.21-.34c-.4-.16-.73-.38-1-.65-.27-.27-.41-.61-.43-1.01,0-.23,.05-.45,.15-.64,.1-.19,.24-.35,.42-.46,.18-.12,.38-.18,.6-.18,.3,0,.56,.1,.79,.29,.22,.19,.34,.48,.34,.86,0,.2-.05,.42-.15,.65,.17,.25,.42,.43,.76,.54,.34,.11,.66,.16,.96,.16,.95,0,1.7-.25,2.26-.75s.99-1.16,1.29-1.99c.3-.83,.52-1.72,.65-2.69,.15-.98,.26-1.99,.33-3.01s.16-1.95,.28-2.79h-.08c-.35,1.2-.72,2.17-1.1,2.91-.38,.74-.77,1.31-1.17,1.7-.4,.39-.8,.65-1.19,.79-.39,.13-.78,.2-1.16,.2-.77,0-1.4-.21-1.9-.64-.5-.43-.87-1-1.11-1.74-.24-.73-.36-1.56-.36-2.48,0-1.08,.15-2.11,.44-3.09,.29-.98,.73-1.85,1.33-2.62,.59-.77,1.35-1.38,2.27-1.82s2.01-.66,3.26-.66c.57,0,1.14,.04,1.71,.11,.57,.08,1.06,.18,1.46,.31-.07,1-.14,2.02-.21,3.05-.08,1.03-.16,2.06-.25,3.07-.09,1.02-.18,2.02-.26,3-.08,.98-.17,1.94-.25,2.88-.13,1.62-.47,2.95-1.01,4-.54,1.05-1.27,1.83-2.17,2.35-.91,.52-1.98,.77-3.21,.77Zm.8-7.67c.47,0,.92-.23,1.36-.69,.44-.46,.85-1.07,1.22-1.83,.38-.76,.71-1.6,1-2.54,.29-.93,.53-1.89,.71-2.86,.18-.98,.3-1.89,.35-2.74-.22-.12-.47-.2-.76-.25-.29-.05-.59-.08-.89-.08-.92,0-1.68,.22-2.3,.66-.62,.44-1.11,1.02-1.47,1.73-.37,.71-.63,1.46-.79,2.25s-.24,1.54-.24,2.24c0,.77,.05,1.46,.16,2.08,.11,.62,.29,1.11,.56,1.47,.27,.37,.62,.55,1.07,.55Z"/>
    <path d="M377.32,439.61c.62-.02,1.09,.09,1.42,.31,.33,.23,.5,.55,.5,.99,0,.12-.03,.26-.09,.43s-.16,.3-.31,.41c-.15,.11-.35,.16-.6,.16-.32,0-.57-.12-.75-.35-.18-.23-.27-.53-.25-.9-.05-.03-.15-.06-.3-.09-.15-.02-.29-.03-.43-.01-.4,.03-.73,.2-.99,.49-.26,.29-.47,.68-.64,1.17-.17,.49-.3,1.07-.4,1.73-.1,.66-.18,1.38-.25,2.16h3.55l-.08,.98-3.55,.05c-.02,.43-.04,.88-.06,1.33-.03,.45-.05,.91-.08,1.39-.02,.48-.05,.95-.09,1.43-.03,.48-.08,.95-.12,1.44-.12,1.22-.23,2.43-.33,3.64-.1,1.21-.25,2.35-.44,3.44-.19,1.08-.47,2.05-.84,2.89-.37,.84-.87,1.5-1.51,1.99s-1.46,.73-2.46,.73c-.63,0-1.12-.11-1.45-.34-.33-.23-.5-.55-.5-.96,0-.13,.03-.28,.1-.44,.07-.16,.18-.3,.33-.43,.15-.12,.35-.18,.6-.16,.3,.02,.54,.13,.71,.34,.17,.21,.26,.48,.26,.81,.18,.13,.42,.2,.72,.2,.58,0,1.03-.31,1.34-.92,.31-.62,.54-1.47,.69-2.56,.15-1.09,.27-2.36,.36-3.8s.21-2.99,.36-4.64c.03-.45,.07-.9,.1-1.35,.03-.45,.07-.9,.1-1.35,.03-.45,.07-.9,.11-1.34,.04-.44,.09-.87,.14-1.29l-2.2,.03,.12-1.08h2.2c.18-1.22,.45-2.31,.8-3.27,.35-.97,.86-1.74,1.53-2.33,.67-.58,1.55-.88,2.65-.9Z"/>
    <path d="M384.39,445.84c.9,0,1.71,.21,2.42,.64,.72,.43,1.28,1.05,1.7,1.86,.42,.82,.62,1.81,.62,2.98,0,1.33-.24,2.58-.73,3.74-.48,1.16-1.18,2.09-2.09,2.79-.91,.7-2.01,1.05-3.31,1.05-1.1,0-2-.25-2.71-.75-.71-.5-1.23-1.17-1.58-2.02s-.51-1.79-.51-2.83c0-1.35,.25-2.59,.74-3.72,.49-1.13,1.2-2.04,2.12-2.71,.92-.67,2.03-1.01,3.31-1.01Zm-.38,.92c-.73-.02-1.37,.23-1.9,.74s-.95,1.2-1.24,2.06c-.29,.87-.45,1.83-.46,2.9-.02,.57,.02,1.17,.1,1.8,.08,.63,.23,1.23,.44,1.77,.21,.55,.5,1,.88,1.35s.85,.53,1.41,.55c.67,.02,1.23-.16,1.7-.54,.47-.38,.84-.86,1.12-1.46,.28-.6,.5-1.24,.64-1.93,.14-.68,.22-1.32,.24-1.92,.02-.58-.01-1.18-.09-1.8-.08-.62-.22-1.19-.44-1.72s-.52-.96-.9-1.29c-.38-.33-.88-.5-1.5-.51Z"/>
    <path d="M392.79,458.61c-.02-.12-.03-.22-.03-.31v-.34c0-.28,0-.62,.03-1.01,.02-.39,.05-.91,.11-1.56,.06-.65,.15-1.5,.26-2.55,.12-1.08,.21-1.9,.27-2.45,.07-.55,.12-.95,.15-1.21,.03-.26,.05-.47,.05-.64,.02-.33,0-.66-.06-.97s-.26-.48-.61-.48c-.27,0-.58,.18-.92,.55-.35,.37-.65,.99-.9,1.88l-.7-.15c.05-.3,.15-.65,.31-1.04,.16-.39,.37-.78,.64-1.16,.27-.38,.59-.7,.97-.95,.38-.25,.83-.38,1.33-.38,.75,0,1.25,.26,1.5,.77s.36,1.21,.33,2.08c-.02,.37-.06,.77-.14,1.21-.08,.44-.15,.9-.24,1.39h.08c.48-1.45,.99-2.57,1.51-3.35,.52-.78,1.06-1.33,1.6-1.64,.54-.31,1.08-.46,1.61-.46,.5,0,.92,.13,1.25,.39,.33,.26,.5,.61,.5,1.06,0,.3-.1,.58-.31,.83s-.49,.38-.84,.38c-.3,0-.56-.09-.78-.27-.22-.18-.34-.44-.38-.77-.47-.1-.92,.05-1.36,.45-.44,.4-.86,.97-1.25,1.71-.39,.74-.73,1.57-1.03,2.49s-.52,1.85-.69,2.8c-.17,.95-.25,1.83-.25,2.65,0,.25,0,.44,.01,.56,0,.12,.02,.3,.04,.51h-2.07Z"/>
    <path d="M415.94,441.09c1.45,0,2.77,.16,3.95,.48s2.2,.81,3.05,1.49c.85,.67,1.5,1.52,1.96,2.54,.46,1.02,.69,2.23,.69,3.62,0,1.22-.2,2.39-.61,3.51-.41,1.12-1.03,2.13-1.85,3.01-.82,.88-1.86,1.58-3.1,2.1-1.24,.52-2.69,.77-4.34,.77h-6.47l.05-.83c.63-.03,1.08-.18,1.33-.44,.25-.26,.4-.62,.45-1.07s.08-.98,.1-1.56l.6-10.8c.03-.33,.06-.65,.09-.96,.03-.31,.05-.59,.09-.84-.32,.02-.62,.03-.92,.05-.3,.02-.61,.03-.93,.05l.08-1.1,5.8-.02Zm-.15,.92c-.63,0-1.09,.1-1.36,.3-.28,.2-.45,.51-.53,.92-.08,.42-.13,.95-.16,1.6l-.58,10.82c-.02,.45-.04,.83-.08,1.15s-.07,.58-.1,.8c.37,.02,.7,.03,1,.04,.3,0,.59,.01,.86,.01h.81c1.52,0,2.84-.38,3.97-1.14s2.02-1.78,2.66-3.08c.64-1.29,.96-2.74,.96-4.34,0-2.15-.61-3.87-1.83-5.16-1.22-1.29-3.1-1.94-5.65-1.94Z"/>
    <path d="M431.87,458.89c-.67,0-1.2-.15-1.6-.45-.4-.3-.69-.7-.86-1.2s-.26-1.03-.26-1.6c0-.93,.07-1.88,.2-2.82,.13-.95,.27-1.83,.4-2.64,.13-.81,.2-1.45,.2-1.91,0-.32-.04-.59-.11-.82-.07-.23-.26-.35-.56-.35-.27,0-.56,.18-.89,.55-.33,.37-.61,.99-.86,1.88l-.7-.15c.05-.3,.15-.65,.3-1.04,.15-.39,.35-.78,.61-1.16,.26-.38,.58-.7,.95-.95s.81-.38,1.31-.38c.67,0,1.17,.21,1.51,.62,.34,.42,.51,1.02,.51,1.8,0,.47-.04,1.04-.12,1.73-.08,.68-.18,1.4-.29,2.14s-.2,1.46-.29,2.16c-.08,.7-.12,1.32-.12,1.85,0,.18,.03,.4,.09,.65s.17,.47,.35,.65c.17,.18,.42,.27,.74,.27,.47,0,.92-.22,1.38-.65s.88-1.02,1.27-1.75c.4-.73,.76-1.55,1.08-2.44s.56-1.81,.74-2.75c.18-.94,.26-1.84,.26-2.69,0-.25,0-.48-.01-.69,0-.21-.02-.42-.04-.64h2.1c.02,.12,.03,.22,.03,.31v.34c0,.28-.02,.62-.05,1.01-.03,.39-.08,.91-.15,1.55-.07,.64-.17,1.49-.3,2.54-.12,.97-.2,1.73-.26,2.27-.06,.55-.1,.96-.14,1.24-.03,.27-.05,.49-.06,.64,0,.15-.01,.32-.01,.5,0,.3,.04,.56,.14,.77,.09,.22,.27,.33,.54,.33,.28,0,.6-.18,.94-.54,.34-.36,.64-.98,.89-1.86l.7,.15c-.05,.3-.15,.65-.31,1.04s-.37,.78-.64,1.16c-.27,.38-.59,.7-.98,.95s-.83,.38-1.33,.38c-.67,0-1.15-.21-1.46-.62-.31-.42-.46-.96-.46-1.62,0-.48,.05-1.01,.14-1.57s.2-1.16,.31-1.78h-.08c-.57,1.52-1.11,2.68-1.62,3.49-.52,.81-1.02,1.36-1.52,1.66-.5,.3-1.03,.45-1.58,.45Z"/>
    <path d="M459.82,458.89c-.78,0-1.31-.21-1.59-.62-.27-.42-.41-1.01-.41-1.77,0-.47,.05-1.02,.14-1.65,.09-.63,.2-1.31,.31-2.02,.12-.72,.22-1.44,.31-2.18,.09-.73,.14-1.43,.14-2.1,0-.2-.03-.42-.1-.65-.07-.23-.18-.44-.35-.61-.17-.18-.42-.26-.75-.26-.47,0-.93,.22-1.38,.65-.45,.43-.87,1.02-1.25,1.75-.38,.73-.72,1.55-1.01,2.44-.29,.89-.52,1.81-.69,2.75-.17,.94-.25,1.84-.25,2.69,0,.25,0,.48,.01,.69,0,.21,.02,.42,.04,.64h-2.1c-.02-.12-.03-.22-.03-.31v-.34c0-.63,.05-1.38,.14-2.25,.09-.87,.2-1.76,.33-2.68,.12-.92,.23-1.78,.32-2.6s.13-1.48,.11-2c-.02-.28-.1-.59-.25-.93-.15-.33-.47-.5-.95-.5s-.92,.22-1.36,.65c-.44,.43-.85,1.02-1.24,1.75-.38,.73-.72,1.55-1.02,2.44-.3,.89-.53,1.81-.7,2.75-.17,.94-.25,1.84-.25,2.69,0,.25,0,.48,.01,.69,0,.21,.02,.42,.04,.64h-2.1c-.02-.12-.03-.22-.03-.31v-.34c0-.28,.01-.61,.04-.99,.02-.38,.07-.88,.15-1.5s.17-1.46,.29-2.51c.12-.98,.21-1.75,.27-2.3,.07-.55,.12-.97,.15-1.26,.03-.29,.05-.52,.06-.68,0-.16,.01-.33,.01-.51,0-.3-.04-.56-.12-.79-.08-.23-.27-.34-.55-.34-.27,0-.57,.18-.92,.55-.35,.37-.65,.99-.9,1.88l-.7-.15c.05-.3,.15-.65,.31-1.04,.16-.39,.37-.78,.64-1.16,.27-.38,.59-.7,.97-.95,.38-.25,.83-.38,1.33-.38,.55,0,.96,.14,1.22,.41,.27,.27,.45,.63,.54,1.07,.09,.44,.12,.92,.09,1.44-.02,.47-.07,.94-.15,1.41-.08,.48-.16,.89-.23,1.24h.08c.53-1.52,1.06-2.67,1.59-3.47,.52-.8,1.04-1.35,1.55-1.65,.51-.3,.99-.45,1.44-.45,.67,0,1.2,.15,1.59,.46,.39,.31,.67,.68,.84,1.11,.17,.43,.25,.86,.25,1.28,0,.47-.03,.87-.1,1.2-.07,.33-.18,.82-.33,1.45h.08c.55-1.52,1.1-2.67,1.64-3.46,.54-.79,1.07-1.33,1.59-1.61,.52-.28,1-.42,1.45-.42,.67,0,1.19,.15,1.58,.45,.38,.3,.65,.7,.81,1.19,.16,.49,.24,1.03,.24,1.61,0,.92-.07,1.85-.2,2.81-.13,.96-.27,1.84-.41,2.65-.14,.81-.21,1.45-.21,1.94,0,.3,.04,.57,.11,.8,.08,.23,.26,.35,.56,.35,.28,0,.6-.18,.95-.54,.35-.36,.65-.99,.9-1.89l.7,.17c-.05,.28-.16,.62-.32,1.02-.17,.4-.38,.79-.65,1.16s-.59,.69-.97,.94c-.38,.25-.83,.38-1.33,.38Z"/>
    <path d="M481.72,458.89c-.78,0-1.31-.21-1.59-.62-.27-.42-.41-1.01-.41-1.77,0-.47,.05-1.02,.14-1.65,.09-.63,.2-1.31,.31-2.02,.12-.72,.22-1.44,.31-2.18,.09-.73,.14-1.43,.14-2.1,0-.2-.03-.42-.1-.65-.07-.23-.18-.44-.35-.61-.17-.18-.42-.26-.75-.26-.47,0-.93,.22-1.38,.65-.45,.43-.87,1.02-1.25,1.75-.38,.73-.72,1.55-1.01,2.44-.29,.89-.52,1.81-.69,2.75-.17,.94-.25,1.84-.25,2.69,0,.25,0,.48,.01,.69,0,.21,.02,.42,.04,.64h-2.1c-.02-.12-.03-.22-.03-.31v-.34c0-.63,.05-1.38,.14-2.25,.09-.87,.2-1.76,.33-2.68,.12-.92,.23-1.78,.32-2.6s.13-1.48,.11-2c-.02-.28-.1-.59-.25-.93-.15-.33-.47-.5-.95-.5s-.92,.22-1.36,.65c-.44,.43-.85,1.02-1.24,1.75-.38,.73-.72,1.55-1.02,2.44-.3,.89-.53,1.81-.7,2.75-.17,.94-.25,1.84-.25,2.69,0,.25,0,.48,.01,.69,0,.21,.02,.42,.04,.64h-2.1c-.02-.12-.03-.22-.03-.31v-.34c0-.28,.01-.61,.04-.99,.02-.38,.07-.88,.15-1.5s.17-1.46,.29-2.51c.12-.98,.21-1.75,.27-2.3,.07-.55,.12-.97,.15-1.26,.03-.29,.05-.52,.06-.68,0-.16,.01-.33,.01-.51,0-.3-.04-.56-.12-.79-.08-.23-.27-.34-.55-.34-.27,0-.57,.18-.92,.55-.35,.37-.65,.99-.9,1.88l-.7-.15c.05-.3,.15-.65,.31-1.04,.16-.39,.37-.78,.64-1.16,.27-.38,.59-.7,.97-.95,.38-.25,.83-.38,1.33-.38,.55,0,.96,.14,1.22,.41,.27,.27,.45,.63,.54,1.07,.09,.44,.12,.92,.09,1.44-.02,.47-.07,.94-.15,1.41-.08,.48-.16,.89-.23,1.24h.08c.53-1.52,1.06-2.67,1.59-3.47,.52-.8,1.04-1.35,1.55-1.65,.51-.3,.99-.45,1.44-.45,.67,0,1.2,.15,1.59,.46,.39,.31,.67,.68,.84,1.11,.17,.43,.25,.86,.25,1.28,0,.47-.03,.87-.1,1.2-.07,.33-.18,.82-.33,1.45h.08c.55-1.52,1.1-2.67,1.64-3.46,.54-.79,1.07-1.33,1.59-1.61,.52-.28,1-.42,1.45-.42,.67,0,1.19,.15,1.58,.45,.38,.3,.65,.7,.81,1.19,.16,.49,.24,1.03,.24,1.61,0,.92-.07,1.85-.2,2.81-.13,.96-.27,1.84-.41,2.65-.14,.81-.21,1.45-.21,1.94,0,.3,.04,.57,.11,.8,.08,.23,.26,.35,.56,.35,.28,0,.6-.18,.95-.54,.35-.36,.65-.99,.9-1.89l.7,.17c-.05,.28-.16,.62-.32,1.02-.17,.4-.38,.79-.65,1.16s-.59,.69-.97,.94c-.38,.25-.83,.38-1.33,.38Z"/>
    <path d="M488.62,445.84c.7,0,1.22,.24,1.58,.71,.35,.48,.52,1.1,.52,1.89,0,.5-.05,1.07-.14,1.71s-.2,1.33-.34,2.06c-.13,.73-.25,1.47-.34,2.21-.09,.74-.14,1.46-.14,2.16,0,.33,.06,.59,.19,.77,.12,.18,.32,.27,.59,.27,.28,0,.6-.18,.94-.55s.64-.99,.89-1.88l.7,.15c-.07,.35-.18,.73-.34,1.14s-.36,.79-.61,1.15-.55,.65-.91,.89c-.36,.23-.77,.35-1.24,.35-.77,0-1.33-.2-1.7-.6-.37-.4-.55-.98-.55-1.75s.05-1.45,.15-2.14c.1-.69,.21-1.38,.34-2.05,.12-.67,.24-1.35,.34-2.04s.15-1.38,.15-2.1c0-.22-.05-.46-.14-.73-.09-.27-.28-.4-.56-.4-.27,0-.58,.18-.92,.55-.35,.37-.65,.99-.9,1.88l-.7-.15c.05-.3,.15-.65,.3-1.04,.15-.39,.35-.78,.61-1.16,.26-.38,.57-.7,.94-.95,.37-.25,.8-.38,1.3-.38Zm1.42-5.4c.38,0,.7,.13,.95,.39,.25,.26,.38,.6,.38,1.04s-.13,.75-.4,1.01-.58,.39-.95,.39-.68-.13-.94-.39c-.26-.26-.39-.6-.39-1.01s.13-.78,.4-1.04c.27-.26,.58-.39,.95-.39Z"/>
    <path d="M500.44,445.84c.6,0,1.17,.09,1.7,.27,.53,.18,.97,.48,1.3,.9,.33,.42,.5,.98,.5,1.7s-.23,1.27-.7,1.77-1.07,.91-1.82,1.24c-.75,.33-1.55,.59-2.4,.79-.85,.2-1.67,.34-2.45,.43,0,1.03,.1,1.9,.31,2.6,.21,.7,.52,1.23,.94,1.58s.95,.52,1.6,.52c.48,0,.97-.11,1.46-.32s.96-.55,1.41-.99c.45-.44,.86-1.01,1.22-1.71l.83,.48c-.47,.87-.97,1.58-1.5,2.15-.53,.57-1.12,.98-1.75,1.25-.63,.27-1.33,.4-2.1,.4-1.58,0-2.75-.5-3.5-1.49s-1.12-2.3-1.12-3.91c0-.97,.12-1.91,.38-2.83,.25-.92,.62-1.74,1.12-2.46s1.13-1.3,1.9-1.73c.77-.42,1.66-.64,2.67-.64Zm-.35,.85c-.77,0-1.4,.26-1.89,.77-.49,.52-.87,1.18-1.12,2-.26,.82-.42,1.67-.49,2.57,.88-.12,1.72-.32,2.52-.62,.8-.3,1.46-.69,1.98-1.16,.52-.48,.77-1.03,.77-1.66,0-.53-.15-.98-.44-1.35-.29-.37-.74-.55-1.34-.55Z"/>
    <path d="M510.06,458.89c-.67,0-1.31-.1-1.92-.31-.62-.21-1.12-.51-1.5-.91-.38-.4-.58-.88-.58-1.45,0-.37,.1-.66,.31-.89,.21-.23,.46-.34,.76-.34,.33,0,.59,.11,.76,.33,.17,.22,.26,.46,.26,.72,0,.12-.02,.24-.05,.38-.03,.13-.09,.27-.17,.4,.13,.37,.4,.65,.8,.85s.83,.3,1.28,.3c.9,0,1.58-.21,2.02-.62,.45-.42,.68-1,.68-1.75,0-.45-.16-.85-.48-1.2s-.72-.68-1.2-.99c-.48-.31-.98-.61-1.5-.91-.48-.3-.95-.61-1.39-.92-.44-.32-.8-.67-1.08-1.05-.28-.38-.41-.82-.41-1.3,0-.62,.18-1.18,.55-1.69,.37-.51,.88-.92,1.52-1.23,.65-.31,1.4-.46,2.25-.46,.63,0,1.23,.1,1.79,.3,.56,.2,1.02,.48,1.38,.85,.36,.37,.54,.8,.54,1.3,0,.35-.1,.63-.3,.84s-.45,.31-.75,.31-.54-.1-.73-.3c-.18-.2-.27-.43-.27-.7,0-.13,.02-.26,.05-.39s.09-.25,.17-.39c-.08-.28-.29-.52-.61-.71-.33-.19-.77-.29-1.34-.29-.37,0-.72,.08-1.07,.25-.35,.17-.64,.4-.88,.69-.23,.29-.35,.64-.35,1.04,0,.32,.1,.61,.29,.88,.19,.27,.45,.52,.76,.75,.32,.23,.66,.47,1.03,.7,.6,.35,1.22,.72,1.85,1.11,.63,.39,1.16,.84,1.59,1.34s.64,1.11,.64,1.83-.2,1.33-.59,1.88-.94,.98-1.65,1.3c-.71,.32-1.53,.48-2.46,.48Z"/>
    <path d="M524.86,447.01l4.57,4.75v.08l-5.3,4.85-.62-.62,3.42-4.18v-.05l-2.8-4.18,.73-.65Zm3.6-2.1l6.3,6.78v.1l-7.35,7-.6-.67,5.48-6.42v-.05l-4.55-6.07,.72-.65Z"/>
    <path d="M538.56,463.09l-.67-.5c.18-.23,.38-.57,.57-1,.2-.43,.36-.91,.49-1.44s.15-1.04,.09-1.54c-.12,.05-.22,.09-.33,.11-.1,.03-.2,.04-.3,.04-.32,0-.59-.12-.81-.35-.22-.23-.34-.52-.34-.88,0-.47,.14-.82,.41-1.07s.6-.38,.96-.38c.58,0,1.02,.22,1.32,.66,.3,.44,.45,.98,.45,1.61,0,.42-.08,.92-.24,1.52s-.38,1.19-.65,1.76c-.27,.57-.6,1.05-.96,1.44Z"/>
    <path d="M293.03,495.39c-1.5,0-2.71-.17-3.62-.5-.92-.33-1.58-.76-2-1.27-.42-.52-.62-1.05-.62-1.6,0-.52,.12-.97,.36-1.36,.24-.39,.54-.73,.9-1.01,.36-.28,.7-.49,1.04-.62-.53-.18-.95-.43-1.26-.74-.31-.31-.46-.72-.46-1.24,0-.58,.23-1.13,.7-1.64,.47-.51,1.07-.82,1.8-.94-.77-.37-1.38-.88-1.84-1.52-.46-.65-.69-1.41-.69-2.28,0-1,.26-1.87,.78-2.61,.52-.74,1.18-1.32,1.99-1.73,.81-.41,1.65-.61,2.51-.61,.55,0,1.1,.08,1.65,.24,.55,.16,1.06,.39,1.53,.69,.17-.47,.4-.88,.71-1.25,.31-.37,.66-.65,1.06-.86,.4-.21,.82-.31,1.25-.31s.76,.11,.99,.34c.22,.23,.34,.53,.34,.91,0,.12-.03,.26-.1,.42-.07,.17-.18,.31-.34,.43s-.37,.17-.64,.17c-.28,0-.52-.08-.7-.25-.18-.17-.3-.38-.35-.62-.42,.07-.74,.26-.97,.59-.23,.33-.39,.68-.47,1.06,.4,.37,.72,.81,.96,1.33s.36,1.07,.36,1.65c0,.93-.25,1.77-.74,2.5s-1.14,1.3-1.94,1.71c-.8,.41-1.67,.61-2.6,.61-.32,0-.59-.02-.83-.06s-.52-.06-.85-.06c-.62,0-1.12,.15-1.5,.45-.38,.3-.52,.66-.4,1.08,.13,.4,.54,.65,1.22,.76,.68,.11,1.6,.19,2.75,.24,1.28,.05,2.38,.2,3.3,.45,.92,.25,1.62,.64,2.11,1.16,.49,.52,.74,1.24,.74,2.14,0,.67-.18,1.26-.54,1.79-.36,.52-.83,.96-1.43,1.31-.59,.35-1.25,.62-1.97,.8-.72,.18-1.45,.27-2.19,.27Zm-.03-.98c1.43,0,2.55-.27,3.35-.8,.8-.53,1.2-1.16,1.2-1.88,0-.62-.21-1.09-.62-1.41-.42-.32-.98-.55-1.7-.67-.72-.12-1.54-.2-2.48-.21-.45-.02-.89-.04-1.32-.06-.43-.03-.85-.07-1.25-.14-.45,.3-.8,.67-1.05,1.1-.25,.43-.38,.89-.38,1.38,0,.82,.39,1.47,1.16,1.96,.77,.49,1.8,.74,3.09,.74Zm-.32-10.25c.62,0,1.13-.15,1.54-.45,.41-.3,.72-.71,.92-1.23s.31-1.1,.31-1.75c0-.73-.11-1.42-.33-2.05s-.54-1.14-.96-1.53c-.42-.38-.96-.57-1.61-.57-.9,0-1.6,.34-2.09,1.01-.49,.68-.74,1.51-.74,2.51,0,.8,.12,1.5,.35,2.11,.23,.61,.57,1.08,1.01,1.43,.44,.34,.97,.51,1.59,.51Z"/>
    <path d="M300.83,487.86c.52,0,.88-.13,1.08-.39,.2-.26,.32-.62,.35-1.07,.03-.46,.05-.99,.05-1.59v-5.7c0-.27,0-.53,.01-.8,0-.27,.04-.54,.09-.83-.3,.02-.6,.03-.89,.04-.29,0-.59,.02-.89,.04v-1.03h.77c.72,0,1.21-.07,1.49-.21,.28-.14,.5-.3,.69-.46h.73c.03,.27,.06,.6,.08,.99,.02,.39,.03,.89,.05,1.49,.25-.42,.59-.83,1.02-1.23s.92-.73,1.46-1c.54-.27,1.11-.4,1.71-.4,.47,0,.88,.12,1.22,.38s.53,.65,.53,1.2c0,.13-.04,.3-.12,.49-.08,.19-.22,.36-.4,.5s-.42,.21-.72,.21c-.37-.02-.66-.16-.88-.44-.22-.27-.3-.6-.25-.96-.42-.02-.85,.09-1.29,.32-.44,.23-.85,.55-1.24,.96-.38,.41-.72,.89-1.03,1.44l.03,6.15c0,.33,0,.63-.01,.89,0,.26-.04,.53-.09,.81,.27-.02,.53-.03,.79-.04,.26,0,.52-.02,.79-.04v1.02h-5.12v-.75Z"/>
    <path d="M317.53,489.01c-1.15,0-2.19-.27-3.11-.81-.92-.54-1.65-1.31-2.19-2.3s-.8-2.16-.8-3.51c0-1.17,.26-2.26,.79-3.27,.52-1.02,1.26-1.84,2.21-2.46s2.05-.94,3.3-.94c.7,0,1.35,.11,1.96,.34s1.15,.57,1.61,1.02c.47,.46,.83,1.03,1.1,1.73,.27,.69,.4,1.5,.4,2.44l-8.8,.15c0,1.27,.14,2.38,.41,3.34,.28,.96,.72,1.7,1.34,2.23,.62,.52,1.41,.79,2.38,.79,.52,0,1.05-.09,1.59-.27,.54-.18,1.04-.43,1.51-.75,.47-.32,.84-.67,1.12-1.05l.6,.5c-.45,.7-.99,1.26-1.62,1.68-.63,.42-1.28,.72-1.95,.9-.67,.18-1.28,.27-1.85,.27Zm-3.45-8.67h6.38c0-.6-.09-1.18-.26-1.74-.17-.56-.46-1.02-.86-1.38-.4-.36-.92-.54-1.58-.54-.97,0-1.77,.29-2.41,.86-.64,.58-1.06,1.5-1.26,2.79Z"/>
    <path d="M332.58,488.61c-.05-.28-.08-.53-.1-.75-.02-.22-.04-.44-.07-.67-.57,.57-1.18,1.01-1.84,1.34-.66,.32-1.35,.49-2.09,.49-1.27,0-2.21-.29-2.82-.86-.62-.58-.93-1.28-.93-2.11,0-.77,.24-1.43,.71-1.99,.47-.56,1.09-1.02,1.85-1.38,.76-.36,1.58-.62,2.48-.8,.89-.18,1.75-.25,2.59-.24v-1.55c0-.58-.05-1.13-.15-1.65-.1-.52-.32-.94-.65-1.28-.33-.33-.87-.51-1.6-.52-.48-.02-.98,.08-1.49,.27-.51,.2-.88,.54-1.11,1.03,.13,.13,.22,.29,.26,.46,.04,.17,.06,.34,.06,.49,0,.2-.08,.43-.25,.69-.17,.26-.46,.38-.88,.36-.35,0-.62-.12-.8-.36-.18-.24-.28-.53-.28-.86,0-.57,.21-1.08,.64-1.52,.42-.45,1.01-.81,1.76-1.08s1.6-.4,2.55-.4c1.4,0,2.43,.37,3.1,1.11,.67,.74,.99,1.91,.97,3.51v1.86c0,.62,0,1.25-.01,1.88s-.01,1.25-.01,1.89c0,.27,0,.53-.02,.8-.02,.27-.04,.57-.08,.9,.3-.02,.6-.03,.89-.05,.29-.02,.59-.03,.89-.05v1.05h-3.58Zm-.23-6.12c-.57,.02-1.16,.09-1.79,.21s-1.2,.31-1.72,.56c-.53,.25-.95,.58-1.28,.99s-.48,.9-.46,1.49c.03,.62,.24,1.08,.61,1.39s.82,.46,1.34,.46c.68,0,1.28-.13,1.79-.39,.51-.26,1.01-.62,1.51-1.09-.02-.18-.02-.38-.02-.6v-.67c0-.08,0-.35,.01-.8,0-.45,.01-.97,.01-1.55Z"/>
    <path d="M342.41,489.01c-.38,0-.77-.05-1.17-.16s-.77-.32-1.11-.64c-.34-.32-.61-.78-.81-1.39-.2-.61-.3-1.41-.3-2.41l.05-7.25-1.92,.03v-1.08c.43-.02,.88-.18,1.32-.49,.45-.31,.85-.73,1.21-1.26,.36-.53,.6-1.12,.74-1.75h.85v3.5h4.2v.98l-4.2,.05-.05,6.95c0,.75,.06,1.39,.19,1.91,.12,.52,.33,.92,.61,1.19,.28,.27,.65,.4,1.1,.4s.9-.13,1.31-.4,.77-.63,1.09-1.1l.67,.55c-.37,.55-.73,.98-1.09,1.3s-.7,.55-1.04,.71c-.33,.16-.64,.26-.92,.3-.28,.04-.53,.06-.73,.06Z"/>
    <path d="M354.76,472.99c0-.27,0-.52,.01-.76,0-.24,.03-.53,.06-.86-.3,.02-.6,.03-.89,.05-.29,.02-.59,.03-.89,.05v-1.05c.73,0,1.3-.03,1.71-.1s.72-.15,.93-.25c.21-.1,.37-.21,.49-.33h.72v7.45c.47-.47,1.02-.83,1.66-1.09,.64-.26,1.35-.39,2.11-.39,1.07,0,2.03,.26,2.89,.77,.86,.52,1.54,1.25,2.04,2.2,.5,.95,.75,2.07,.75,3.38,0,1.42-.31,2.65-.92,3.69-.62,1.04-1.42,1.85-2.4,2.41s-2.04,.85-3.17,.85c-.57,0-1.19-.1-1.86-.31-.67-.21-1.28-.61-1.81-1.21l-.6,1.12h-.88l.05-15.62Zm2.15,11.7c0,.88,.14,1.56,.42,2.04,.28,.48,.65,.8,1.1,.99,.45,.18,.92,.27,1.42,.27,.8,0,1.49-.23,2.08-.67,.58-.45,1.04-1.07,1.36-1.86,.33-.79,.49-1.71,.49-2.76,0-1.13-.14-2.13-.42-2.99-.28-.86-.71-1.53-1.28-2.02-.57-.49-1.28-.74-2.15-.74-.55,0-1.1,.13-1.64,.39-.54,.26-1,.6-1.39,1.04v6.33Z"/>
    <path d="M374.56,489.01c-1.15,0-2.19-.27-3.11-.81-.92-.54-1.65-1.31-2.19-2.3s-.8-2.16-.8-3.51c0-1.17,.26-2.26,.79-3.27,.52-1.02,1.26-1.84,2.21-2.46s2.05-.94,3.3-.94c.7,0,1.35,.11,1.96,.34s1.15,.57,1.61,1.02c.47,.46,.83,1.03,1.1,1.73,.27,.69,.4,1.5,.4,2.44l-8.8,.15c0,1.27,.14,2.38,.41,3.34,.28,.96,.72,1.7,1.34,2.23,.62,.52,1.41,.79,2.38,.79,.52,0,1.05-.09,1.59-.27,.54-.18,1.04-.43,1.51-.75,.47-.32,.84-.67,1.12-1.05l.6,.5c-.45,.7-.99,1.26-1.62,1.68-.63,.42-1.28,.72-1.95,.9-.67,.18-1.28,.27-1.85,.27Zm-3.45-8.67h6.38c0-.6-.09-1.18-.26-1.74-.17-.56-.46-1.02-.86-1.38-.4-.36-.92-.54-1.58-.54-.97,0-1.77,.29-2.41,.86-.64,.58-1.06,1.5-1.26,2.79Z"/>
    <path d="M387.28,489.01c-1.02,0-1.93-.25-2.75-.76-.82-.51-1.46-1.24-1.94-2.19-.48-.95-.71-2.07-.71-3.35,0-1.37,.28-2.58,.83-3.62,.55-1.05,1.31-1.88,2.29-2.48,.98-.6,2.08-.9,3.31-.9,.55,0,1.1,.07,1.64,.21s.97,.3,1.29,.49v-3.42c0-.27,0-.52,.01-.76,0-.24,.03-.53,.06-.86-.3,.02-.6,.03-.89,.05-.29,.02-.59,.03-.89,.05v-1.05c.73,0,1.3-.03,1.7-.1,.4-.07,.7-.15,.91-.25,.21-.1,.37-.21,.49-.33h.73v16.23c0,.27,0,.53-.03,.8-.02,.27-.04,.57-.08,.9,.3-.02,.6-.03,.89-.05,.29-.02,.59-.03,.89-.05v1.05h-3.58c-.05-.25-.09-.48-.11-.69-.03-.21-.05-.41-.06-.61-.47,.52-1.04,.93-1.73,1.24s-1.44,.46-2.27,.46Zm.9-1.23c.55,0,1.1-.16,1.66-.47,.56-.32,1.02-.71,1.39-1.18-.02-.2-.03-.41-.03-.64v-.74l.03-7.2c-.4-.3-.84-.52-1.31-.66-.48-.14-.96-.21-1.46-.21-.83,0-1.56,.24-2.17,.72-.62,.48-1.08,1.16-1.4,2.03s-.46,1.88-.42,3.05c.03,1.02,.2,1.92,.49,2.73,.29,.8,.71,1.43,1.25,1.89,.54,.46,1.2,.69,1.99,.69Z"/>
    <path d="M402.01,489.01c-.83,0-1.57-.11-2.22-.34s-1.18-.48-1.6-.76l.1,.88h-1.05l-.15-4.3h.78c.03,.68,.22,1.3,.58,1.84,.35,.54,.8,.96,1.35,1.26,.55,.3,1.14,.45,1.78,.45,.43,0,.86-.07,1.27-.21,.42-.14,.77-.36,1.05-.65,.28-.29,.43-.66,.43-1.11s-.14-.85-.41-1.16c-.27-.31-.64-.58-1.09-.81-.45-.23-.93-.45-1.45-.65-.5-.2-1-.41-1.5-.62s-.96-.48-1.39-.78c-.42-.3-.76-.67-1.01-1.1s-.38-.97-.38-1.6c0-.35,.07-.73,.2-1.15,.13-.42,.36-.81,.67-1.19s.75-.68,1.3-.93c.55-.24,1.25-.36,2.1-.36,.45,0,.95,.07,1.5,.23,.55,.15,1.08,.43,1.6,.85l-.05-.95h1.05v4.38h-.8c-.03-.58-.17-1.15-.4-1.69s-.57-.99-1.02-1.35-1.03-.54-1.75-.54c-.77,0-1.37,.19-1.8,.58-.43,.38-.65,.82-.65,1.32s.16,.95,.49,1.29c.33,.34,.75,.64,1.26,.89s1.07,.49,1.65,.73c.63,.27,1.25,.56,1.85,.88s1.09,.71,1.47,1.19c.38,.47,.58,1.09,.58,1.84,0,.83-.21,1.52-.64,2.07-.42,.55-.97,.95-1.62,1.21-.66,.26-1.35,.39-2.06,.39Z"/>
    <path d="M408.46,487.86c.52,0,.88-.13,1.08-.39,.2-.26,.32-.62,.35-1.07,.03-.46,.05-.99,.05-1.59v-5.7c0-.27,0-.52,.02-.76,.02-.24,.04-.53,.08-.86-.3,.02-.6,.03-.89,.05-.29,.02-.59,.03-.89,.05v-1.05c.73,0,1.3-.03,1.7-.1,.4-.07,.7-.15,.91-.25,.21-.1,.37-.21,.49-.33h.72v10.1c0,.33,0,.63-.01,.89,0,.26-.04,.53-.09,.81,.27-.02,.53-.03,.79-.04,.26,0,.52-.02,.79-.04v1.02h-5.1v-.75Zm2.43-14.48c-.35,0-.66-.14-.93-.42-.27-.28-.4-.63-.4-1.05s.14-.77,.41-1.06c.28-.29,.59-.44,.94-.44,.38,0,.7,.15,.96,.44,.26,.29,.39,.65,.39,1.06s-.14,.77-.41,1.05c-.27,.28-.6,.42-.96,.42Z"/>
    <path d="M420.83,489.01c-1.02,0-1.93-.25-2.75-.76-.82-.51-1.46-1.24-1.94-2.19-.48-.95-.71-2.07-.71-3.35,0-1.37,.28-2.58,.83-3.62,.55-1.05,1.31-1.88,2.29-2.48,.98-.6,2.08-.9,3.31-.9,.55,0,1.1,.07,1.64,.21s.97,.3,1.29,.49v-3.42c0-.27,0-.52,.01-.76,0-.24,.03-.53,.06-.86-.3,.02-.6,.03-.89,.05-.29,.02-.59,.03-.89,.05v-1.05c.73,0,1.3-.03,1.7-.1,.4-.07,.7-.15,.91-.25,.21-.1,.37-.21,.49-.33h.73v16.23c0,.27,0,.53-.03,.8-.02,.27-.04,.57-.08,.9,.3-.02,.6-.03,.89-.05,.29-.02,.59-.03,.89-.05v1.05h-3.58c-.05-.25-.09-.48-.11-.69-.03-.21-.05-.41-.06-.61-.47,.52-1.04,.93-1.73,1.24s-1.44,.46-2.27,.46Zm.9-1.23c.55,0,1.1-.16,1.66-.47,.56-.32,1.02-.71,1.39-1.18-.02-.2-.03-.41-.03-.64v-.74l.03-7.2c-.4-.3-.84-.52-1.31-.66-.48-.14-.96-.21-1.46-.21-.83,0-1.56,.24-2.17,.72-.62,.48-1.08,1.16-1.4,2.03s-.46,1.88-.42,3.05c.03,1.02,.2,1.92,.49,2.73,.29,.8,.71,1.43,1.25,1.89,.54,.46,1.2,.69,1.99,.69Z"/>
    <path d="M436.48,489.01c-1.15,0-2.19-.27-3.11-.81-.92-.54-1.65-1.31-2.19-2.3s-.8-2.16-.8-3.51c0-1.17,.26-2.26,.79-3.27,.52-1.02,1.26-1.84,2.21-2.46s2.05-.94,3.3-.94c.7,0,1.35,.11,1.96,.34s1.15,.57,1.61,1.02c.47,.46,.83,1.03,1.1,1.73,.27,.69,.4,1.5,.4,2.44l-8.8,.15c0,1.27,.14,2.38,.41,3.34,.28,.96,.72,1.7,1.34,2.23,.62,.52,1.41,.79,2.38,.79,.52,0,1.05-.09,1.59-.27,.54-.18,1.04-.43,1.51-.75,.47-.32,.84-.67,1.12-1.05l.6,.5c-.45,.7-.99,1.26-1.62,1.68-.63,.42-1.28,.72-1.95,.9-.67,.18-1.28,.27-1.85,.27Zm-3.45-8.67h6.38c0-.6-.09-1.18-.26-1.74-.17-.56-.46-1.02-.86-1.38-.4-.36-.92-.54-1.58-.54-.97,0-1.77,.29-2.41,.86-.64,.58-1.06,1.5-1.26,2.79Z"/>
    <path d="M451.36,472.99c0-.27,0-.52,.01-.76,0-.24,.03-.53,.06-.86-.3,.02-.6,.03-.89,.05-.29,.02-.59,.03-.89,.05v-1.05c.73,0,1.3-.03,1.71-.1s.72-.15,.93-.25c.21-.1,.37-.21,.49-.33h.72v7.45c.47-.47,1.02-.83,1.66-1.09,.64-.26,1.35-.39,2.11-.39,1.07,0,2.03,.26,2.89,.77,.86,.52,1.54,1.25,2.04,2.2,.5,.95,.75,2.07,.75,3.38,0,1.42-.31,2.65-.92,3.69-.62,1.04-1.42,1.85-2.4,2.41s-2.04,.85-3.17,.85c-.57,0-1.19-.1-1.86-.31-.67-.21-1.28-.61-1.81-1.21l-.6,1.12h-.88l.05-15.62Zm2.15,11.7c0,.88,.14,1.56,.42,2.04,.28,.48,.65,.8,1.1,.99,.45,.18,.92,.27,1.42,.27,.8,0,1.49-.23,2.08-.67,.58-.45,1.04-1.07,1.36-1.86,.33-.79,.49-1.71,.49-2.76,0-1.13-.14-2.13-.42-2.99-.28-.86-.71-1.53-1.28-2.02-.57-.49-1.28-.74-2.15-.74-.55,0-1.1,.13-1.64,.39-.54,.26-1,.6-1.39,1.04v6.33Z"/>
    <path d="M471.3,489.01c-1.17,0-2.22-.27-3.17-.81s-1.7-1.29-2.26-2.25c-.56-.96-.84-2.05-.84-3.29,0-1.32,.27-2.5,.82-3.55,.55-1.05,1.3-1.88,2.25-2.49,.95-.61,2.02-.91,3.2-.91s2.23,.28,3.17,.84c.95,.56,1.71,1.31,2.28,2.26,.57,.95,.85,2.03,.85,3.25,0,1.28-.28,2.45-.84,3.51-.56,1.06-1.31,1.9-2.26,2.51-.95,.62-2.02,.92-3.2,.92Zm.2-1c.88,0,1.58-.25,2.1-.75s.89-1.15,1.11-1.95c.22-.8,.34-1.64,.34-2.53,0-.75-.07-1.49-.21-2.21-.14-.73-.36-1.38-.66-1.98-.3-.59-.69-1.06-1.16-1.41-.48-.35-1.05-.53-1.71-.53-.87,0-1.58,.25-2.12,.75s-.95,1.15-1.21,1.95c-.26,.8-.39,1.66-.39,2.58,0,1.03,.14,2.01,.42,2.94,.28,.92,.72,1.68,1.3,2.26,.58,.58,1.32,.88,2.2,.88Z"/>
    <path d="M485.93,489.01c-1.17,0-2.22-.27-3.17-.81s-1.7-1.29-2.26-2.25c-.56-.96-.84-2.05-.84-3.29,0-1.32,.27-2.5,.82-3.55,.55-1.05,1.3-1.88,2.25-2.49,.95-.61,2.02-.91,3.2-.91s2.23,.28,3.17,.84c.95,.56,1.71,1.31,2.28,2.26,.57,.95,.85,2.03,.85,3.25,0,1.28-.28,2.45-.84,3.51-.56,1.06-1.31,1.9-2.26,2.51-.95,.62-2.02,.92-3.2,.92Zm.2-1c.88,0,1.58-.25,2.1-.75s.89-1.15,1.11-1.95c.22-.8,.34-1.64,.34-2.53,0-.75-.07-1.49-.21-2.21-.14-.73-.36-1.38-.66-1.98-.3-.59-.69-1.06-1.16-1.41-.48-.35-1.05-.53-1.71-.53-.87,0-1.58,.25-2.12,.75s-.95,1.15-1.21,1.95c-.26,.8-.39,1.66-.39,2.58,0,1.03,.14,2.01,.42,2.94,.28,.92,.72,1.68,1.3,2.26,.58,.58,1.32,.88,2.2,.88Z"/>
    <path d="M494.13,488.61v-.75c.52,0,.87-.13,1.06-.39,.19-.26,.3-.62,.34-1.07,.03-.46,.05-.99,.05-1.59l.02-11.83c0-.27,0-.52,.01-.76,0-.24,.03-.53,.06-.86-.3,.02-.6,.03-.89,.05-.29,.02-.59,.03-.89,.05v-1.05c.73,0,1.3-.03,1.7-.1,.4-.07,.7-.15,.91-.25,.21-.1,.37-.21,.49-.33h.72v11.83h1l3.05-3.2c.28-.28,.54-.54,.77-.76,.23-.22,.47-.41,.7-.56l-1.7,.08v-1h4.55v.75c-.57,.05-1.1,.23-1.59,.54-.49,.31-.94,.65-1.35,1.04s-.76,.73-1.06,1.05l-1.95,2.05c.33,.15,.62,.34,.85,.58s.47,.49,.7,.77l1.77,2.27c.08,.1,.23,.29,.44,.58,.21,.28,.46,.59,.75,.92,.29,.33,.6,.62,.93,.85,.32,.23,.63,.35,.91,.35v.75h-2.28c-.47,0-.91-.24-1.32-.73-.42-.48-.86-1.02-1.33-1.62-.43-.6-.82-1.15-1.16-1.64s-.65-.92-.92-1.29c-.27-.37-.52-.65-.74-.85l-1.03,.05v3.43c0,.33,0,.63-.01,.89,0,.26-.04,.53-.09,.81,.27-.02,.53-.03,.8-.04s.53-.02,.8-.04v1.02h-5.1Z"/>
    <path d="M509.73,489.01c-.38,0-.72-.15-1.01-.46-.29-.31-.44-.69-.44-1.14s.15-.83,.45-1.15c.3-.32,.64-.48,1.03-.48,.42,0,.76,.16,1.04,.48,.28,.32,.41,.7,.41,1.15s-.15,.83-.45,1.14-.64,.46-1.03,.46Z"/>
  </g>
  <rect class="cls-6" x="493.71" y="200.24" width="30.81" height="133.52"/>
  <rect class="cls-1" x="373.02" y="189.97" width="41.08" height="143.79"/>
  <rect class="cls-2" x="447.49" y="164.29" width="41.08" height="169.47"/>
  <rect class="cls-3" x="421.81" y="213.08" width="20.54" height="120.68"/>
  <rect class="cls-6" x="342.21" y="207.94" width="25.68" height="125.82"/>
  <rect class="cls-1" x="303.69" y="189.97" width="33.38" height="143.79"/>
</svg>