<?xml version="1.0" encoding="UTF-8"?>
<svg id="droite" xmlns="http://www.w3.org/2000/svg" viewBox="0 0 800 600">
  <defs>
    <style>
      .cls-1 {
        fill: #471f05;
      }

      .cls-2 {
        fill: #926030;
      }

      .cls-3 {
        fill: #534741;
      }

      .cls-4 {
        fill: #fff;
        opacity: .75;
      }

      .cls-5 {
        fill: #663606;
      }
    </style>
  </defs>
  <rect class="cls-4" x="133.78" y="45.26" width="532.45" height="474.53" rx="40" ry="40"/>
  <rect class="cls-3" x="133.78" y="45.26" width="532.45" height="377.42" rx="40" ry="40"/>
  <g>
    <path class="cls-1" d="M264.69,270.11c19.27-4.87,38.63-9.38,58.06-13.54s38.88-7.95,58.42-11.38c19.5-3.43,39.06-6.5,58.67-9.2s39.18-5.02,58.82-6.98,39.25-3.55,58.91-4.77c2.43-.15,4.86-.3,7.29-.44,1.8-.1,3.34-1.46,3.34-3.34,0-1.73-1.53-3.45-3.34-3.34-19.76,1.14-39.5,2.65-59.2,4.53s-39.47,4.14-59.15,6.76c-19.82,2.64-39.59,5.63-59.3,8.99-19.65,3.35-39.23,7.07-58.74,11.15-19.55,4.09-39.02,8.53-58.4,13.34-2.39,.59-4.78,1.19-7.16,1.79-4.17,1.05-2.4,7.51,1.78,6.45h0Z"/>
    <path class="cls-2" d="M290.96,315.1c16-3.76,32.07-7.23,48.2-10.38,16.1-3.14,32.26-5.98,48.47-8.5s31.96-4.66,48-6.52c16.22-1.88,32.47-3.45,48.75-4.7,16.23-1.25,32.49-2.18,48.76-2.79,2.01-.08,4.02-.15,6.03-.21,1.81-.06,3.34-1.49,3.34-3.34s-1.53-3.4-3.34-3.34c-16.35,.54-32.68,1.39-48.99,2.57s-32.53,2.67-48.75,4.48c-16.48,1.84-32.92,3.99-49.32,6.46-16.22,2.44-32.39,5.19-48.5,8.26s-32.39,6.48-48.48,10.19c-1.98,.46-3.97,.92-5.95,1.39-1.76,.41-2.8,2.42-2.34,4.11,.49,1.8,2.35,2.75,4.11,2.34h0Z"/>
    <path class="cls-2" d="M271.87,307.5c18.71-5.28,37.56-10.06,56.53-14.31s38.15-8,57.37-11.2c18.96-3.16,38-5.8,57.11-7.9,19.14-2.11,38.35-3.68,57.58-4.72s38.33-1.53,57.51-1.48c2.43,0,4.85,.02,7.28,.04,4.31,.04,4.31-6.65,0-6.69-19.26-.18-38.52,.18-57.76,1.08s-38.62,2.36-57.86,4.35-38.79,4.56-58.08,7.63-38.39,6.66-57.43,10.78c-19.09,4.13-38.06,8.79-56.89,13.97-2.38,.65-4.76,1.32-7.13,1.99-4.14,1.17-2.38,7.62,1.78,6.45h0Z"/>
    <path class="cls-5" d="M295.56,270.35c19.22-6.41,38.67-12.08,58.33-16.99,19.59-4.9,39.36-9.04,59.27-12.42,19.62-3.33,39.37-5.9,59.19-7.69,19.91-1.81,39.9-2.84,59.89-3.08s39.74,.3,59.56,1.66c2.43,.17,4.86,.34,7.3,.53,1.8,.14,3.34-1.64,3.34-3.34,0-1.93-1.54-3.2-3.34-3.34-19.88-1.55-39.83-2.3-59.77-2.24s-39.96,.9-59.87,2.52-40.39,4.09-60.43,7.29-39.74,7.13-59.36,11.83-39.39,10.24-58.74,16.5c-2.38,.77-4.75,1.55-7.12,2.34-1.71,.57-2.83,2.31-2.34,4.11,.46,1.67,2.39,2.91,4.11,2.34h0Z"/>
    <path class="cls-1" d="M252.48,281.73c17.43-4.07,34.92-7.88,52.46-11.4,17.52-3.52,35.09-6.77,52.71-9.75s35.22-5.67,52.89-8.08,35.07-4.51,52.66-6.35,35.36-3.42,53.08-4.71c2.2-.16,4.4-.32,6.6-.47,1.8-.12,3.34-1.45,3.34-3.34,0-1.71-1.53-3.47-3.34-3.34-17.81,1.23-35.59,2.74-53.35,4.53-17.8,1.8-35.56,3.87-53.29,6.23-17.8,2.37-35.56,4.99-53.28,7.91s-35.38,6.11-53,9.58c-17.64,3.47-35.23,7.23-52.76,11.25-2.17,.5-4.34,1-6.51,1.51-4.19,.98-2.42,7.43,1.78,6.45h0Z"/>
    <path class="cls-1" d="M220.68,296.59c38.19-6.18,76.53-11.45,114.97-15.77,38.42-4.32,76.95-7.71,115.54-10.16,21.57-1.37,43.16-2.44,64.76-3.22,4.29-.15,4.31-6.85,0-6.69-38.76,1.4-77.48,3.74-116.13,7.03-38.58,3.29-77.08,7.52-115.46,12.67-21.86,2.94-43.69,6.16-65.46,9.69-1.78,.29-2.78,2.51-2.34,4.11,.52,1.9,2.32,2.63,4.11,2.34h0Z"/>
    <path class="cls-2" d="M295.63,267.42c17.31-4.75,34.75-8.99,52.31-12.71,17.59-3.72,35.29-6.92,53.08-9.58,17.51-2.62,35.1-4.71,52.74-6.27s35.42-2.6,53.17-3.1,35.34-.45,53,.14c2.23,.07,4.47,.16,6.7,.25,1.81,.07,3.34-1.59,3.34-3.34,0-1.87-1.53-3.27-3.34-3.34-17.73-.73-35.48-.91-53.22-.54s-35.64,1.28-53.42,2.73c-17.97,1.47-35.9,3.49-53.76,6.02s-35.52,5.58-53.13,9.16c-17.67,3.59-35.22,7.72-52.64,12.36-2.2,.59-4.4,1.18-6.6,1.79-4.15,1.14-2.39,7.59,1.78,6.45h0Z"/>
    <path class="cls-1" d="M243.05,279.44c19.4-5.11,39.01-9.38,58.78-12.76s39.28-5.81,59.07-7.39c19.67-1.57,39.42-2.28,59.16-2.1,19.68,.18,39.36,1.24,58.94,3.2s38.51,4.78,57.55,8.53c2.37,.47,4.74,.95,7.1,1.44,1.77,.37,3.62-.52,4.11-2.34,.46-1.66-.56-3.74-2.34-4.11-19.28-4.03-38.75-7.13-58.32-9.35s-39.55-3.54-59.4-3.95c-19.91-.41-39.83,.08-59.69,1.46s-40.13,3.69-60.03,6.85-39.83,7.24-59.46,12.19c-2.42,.61-4.84,1.24-7.26,1.87-4.16,1.1-2.4,7.55,1.78,6.45h0Z"/>
    <path class="cls-5" d="M282.55,255.27c19.28-2.21,38.57-4.38,57.9-6.19s38.72-3.27,58.13-4.04,38.31-.84,57.45,.13c18.59,.95,37.14,2.89,55.44,6.29s35.84,8.09,53.04,14.52c2.18,.82,4.36,1.66,6.52,2.53,1.68,.67,3.67-.73,4.11-2.34,.52-1.91-.65-3.44-2.34-4.11-17.18-6.91-35.01-12.09-53.14-15.8s-37.17-6.09-55.94-7.34-38.36-1.42-57.54-.85-38.94,1.91-58.36,3.63-38.67,3.83-57.98,6.03c-2.43,.28-4.86,.56-7.29,.83-1.79,.21-3.34,1.39-3.34,3.34,0,1.65,1.54,3.55,3.34,3.34h0Z"/>
    <path class="cls-1" d="M222.92,292.88c18.81-1.23,37.62-2.44,56.45-3.44,18.91-1,37.83-1.79,56.77-2.14s37.43-.27,56.13,.45c18.58,.72,37.15,2.08,55.62,4.33,18.08,2.2,36.05,5.3,53.79,9.44,2.25,.53,4.49,1.07,6.73,1.63,4.18,1.04,5.96-5.41,1.78-6.45-17.86-4.46-35.98-7.81-54.23-10.27s-37.16-4.11-55.83-5.03c-18.85-.92-37.72-1.14-56.59-.91-18.92,.24-37.84,.93-56.74,1.88-18.93,.94-37.84,2.14-56.75,3.36-2.37,.15-4.74,.31-7.11,.46-1.8,.12-3.34,1.45-3.34,3.34,0,1.72,1.53,3.46,3.34,3.34h0Z"/>
    <path class="cls-1" d="M225.15,305.93c21.26-6.12,42.52-12.24,63.97-17.66,21.43-5.42,43.05-10.16,64.91-13.46,20.43-3.08,41.09-4.83,61.76-4.61,19.48,.21,38.97,2.13,57.99,6.41,18.48,4.16,36.49,10.54,53.06,19.77,2.02,1.12,4.01,2.29,5.98,3.49,3.69,2.25,7.05-3.54,3.38-5.78-16.47-10.04-34.57-17.29-53.21-22.14-19.18-4.99-38.99-7.53-58.78-8.25-20.77-.76-41.56,.55-62.16,3.27-22.2,2.93-44.15,7.37-65.9,12.65s-43.18,11.34-64.63,17.51c-2.72,.78-5.43,1.56-8.15,2.34-4.13,1.19-2.37,7.65,1.78,6.45h0Z"/>
    <path class="cls-5" d="M251.27,331.06c18.71-5.28,37.56-10.06,56.53-14.31s38.15-8,57.37-11.2,38-5.8,57.11-7.9c19.14-2.11,38.35-3.68,57.58-4.72s38.33-1.53,57.51-1.48c2.43,0,4.85,.02,7.28,.04,4.31,.04,4.31-6.65,0-6.69-19.26-.18-38.52,.18-57.76,1.08-19.32,.91-38.62,2.36-57.86,4.35s-38.79,4.56-58.08,7.63-38.39,6.66-57.43,10.78c-19.09,4.13-38.06,8.79-56.89,13.97-2.38,.65-4.76,1.32-7.13,1.99-4.14,1.17-2.38,7.62,1.78,6.45h0Z"/>
    <path class="cls-1" d="M268.67,298.89c18.71-5.28,37.56-10.06,56.53-14.31s38.15-8,57.37-11.2,38-5.8,57.11-7.9c19.14-2.11,38.35-3.68,57.58-4.72s38.33-1.53,57.51-1.48c2.43,0,4.85,.02,7.28,.04,4.31,.04,4.31-6.65,0-6.69-19.26-.18-38.52,.18-57.76,1.08-19.32,.91-38.62,2.36-57.86,4.35s-38.79,4.56-58.08,7.63c-19.24,3.06-38.39,6.66-57.43,10.78-19.09,4.13-38.06,8.79-56.89,13.97-2.38,.65-4.76,1.32-7.13,1.99-4.14,1.17-2.38,7.62,1.78,6.45h0Z"/>
    <path class="cls-5" d="M240.24,290.12c18.71-5.28,37.56-10.06,56.53-14.31s38.15-8,57.37-11.2,38-5.8,57.11-7.9c19.14-2.11,38.35-3.68,57.58-4.72,19.15-1.03,38.33-1.53,57.51-1.48,2.43,0,4.85,.02,7.28,.04,4.31,.04,4.31-6.65,0-6.69-19.26-.18-38.52,.18-57.76,1.08s-38.62,2.36-57.86,4.35c-19.42,2.01-38.79,4.56-58.08,7.63s-38.39,6.66-57.43,10.78-38.06,8.79-56.89,13.97c-2.38,.65-4.76,1.32-7.13,1.99-4.14,1.17-2.38,7.62,1.78,6.45h0Z"/>
    <path class="cls-2" d="M288.68,289.58c18.71-5.28,37.56-10.06,56.53-14.31s38.15-8,57.37-11.2c18.96-3.16,38-5.8,57.11-7.9,19.14-2.11,38.35-3.68,57.58-4.72s38.33-1.53,57.51-1.48c2.43,0,4.85,.02,7.28,.04,4.31,.04,4.31-6.65,0-6.69-19.26-.18-38.52,.18-57.76,1.08-19.32,.91-38.62,2.36-57.86,4.35s-38.79,4.56-58.08,7.63-38.39,6.66-57.43,10.78-38.06,8.79-56.89,13.97c-2.38,.65-4.76,1.32-7.13,1.99-4.14,1.17-2.38,7.62,1.78,6.45h0Z"/>
    <path class="cls-5" d="M237.56,317.52c18.71-5.28,37.56-10.06,56.53-14.31s38.15-8,57.37-11.2c18.96-3.16,38-5.8,57.11-7.9,19.14-2.11,38.35-3.68,57.58-4.72,19.15-1.03,38.33-1.53,57.51-1.48,2.43,0,4.85,.02,7.28,.04,4.31,.04,4.31-6.65,0-6.69-19.26-.18-38.52,.18-57.76,1.08-19.32,.91-38.62,2.36-57.86,4.35-19.42,2.01-38.79,4.56-58.08,7.63s-38.39,6.66-57.43,10.78c-19.09,4.13-38.06,8.79-56.89,13.97-2.38,.65-4.76,1.32-7.13,1.99-4.14,1.17-2.38,7.62,1.78,6.45h0Z"/>
    <path class="cls-5" d="M247.06,313.1c18.71-5.28,37.56-10.06,56.53-14.31s38.15-8,57.37-11.2c18.96-3.16,38-5.8,57.11-7.9s38.35-3.68,57.58-4.72,38.33-1.53,57.51-1.48c2.43,0,4.85,.02,7.28,.04,4.31,.04,4.31-6.65,0-6.69-19.26-.18-38.52,.18-57.76,1.08-19.32,.91-38.62,2.36-57.86,4.35-19.42,2.01-38.79,4.56-58.08,7.63-19.24,3.06-38.39,6.66-57.43,10.78s-38.06,8.79-56.89,13.97c-2.38,.65-4.76,1.32-7.13,1.99-4.14,1.17-2.38,7.62,1.78,6.45h0Z"/>
  </g>
  <g>
    <path d="M215.58,458.61v-.83c.63-.03,1.07-.18,1.3-.44,.23-.26,.36-.62,.39-1.07s.04-.98,.04-1.56v-10.8c0-.33,0-.65,.03-.96,.02-.31,.03-.59,.05-.84-.3,.02-.6,.03-.9,.05-.3,.02-.6,.03-.9,.05v-1.1h5.62v.83c-.62,.02-1.05,.16-1.29,.42-.24,.27-.38,.62-.4,1.08-.03,.45-.04,.97-.04,1.57v4.15h8.95v-5.25c0-.33,0-.65,.03-.96,.02-.31,.03-.59,.05-.84-.3,.02-.6,.03-.9,.05-.3,.02-.6,.03-.9,.05v-1.1h5.62v.83c-.62,.02-1.05,.16-1.29,.42-.24,.27-.38,.62-.4,1.08-.03,.45-.04,.97-.04,1.57v10.62c0,.45,0,.84-.01,1.16,0,.33-.03,.6-.06,.81l.9-.05c.3-.02,.6-.03,.9-.05v1.1h-5.62v-.83c.63-.03,1.07-.18,1.3-.44,.23-.26,.36-.62,.39-1.07s.04-.98,.04-1.56v-4.55l-8.95,.1v5.38c0,.45,0,.84-.01,1.16,0,.33-.03,.6-.06,.81l.9-.05c.3-.02,.6-.03,.9-.05v1.1h-5.62Z"/>
    <path d="M240.46,459.01c-1.17,0-2.22-.27-3.17-.81s-1.7-1.29-2.26-2.25c-.56-.96-.84-2.05-.84-3.29,0-1.32,.27-2.5,.82-3.55,.55-1.05,1.3-1.88,2.25-2.49,.95-.61,2.02-.91,3.2-.91s2.23,.28,3.17,.84c.95,.56,1.71,1.31,2.28,2.26,.57,.95,.85,2.03,.85,3.25,0,1.28-.28,2.45-.84,3.51-.56,1.06-1.31,1.9-2.26,2.51-.95,.62-2.02,.92-3.2,.92Zm.2-1c.88,0,1.58-.25,2.1-.75s.89-1.15,1.11-1.95c.22-.8,.34-1.64,.34-2.53,0-.75-.07-1.49-.21-2.21-.14-.73-.36-1.38-.66-1.98-.3-.59-.69-1.06-1.16-1.41-.48-.35-1.05-.53-1.71-.53-.87,0-1.58,.25-2.12,.75s-.95,1.15-1.21,1.95c-.26,.8-.39,1.66-.39,2.58,0,1.03,.14,2.01,.42,2.94,.28,.92,.72,1.68,1.3,2.26,.58,.58,1.32,.88,2.2,.88Z"/>
    <path d="M248.88,457.86c.52,0,.88-.13,1.08-.39,.2-.26,.32-.62,.35-1.07,.03-.46,.05-.99,.05-1.59v-5.7c0-.27,0-.53,.01-.8,0-.27,.04-.54,.09-.83-.3,.02-.6,.03-.89,.04-.29,0-.59,.02-.89,.04v-1.03h.77c.72,0,1.21-.07,1.49-.21,.28-.14,.5-.3,.69-.46h.73c.03,.27,.06,.6,.08,.99,.02,.39,.03,.89,.05,1.49,.25-.42,.59-.83,1.02-1.23s.92-.73,1.46-1c.54-.27,1.11-.4,1.71-.4,.47,0,.88,.12,1.22,.38s.53,.65,.53,1.2c0,.13-.04,.3-.12,.49-.08,.19-.22,.36-.4,.5s-.42,.21-.72,.21c-.37-.02-.66-.16-.88-.44-.22-.27-.3-.6-.25-.96-.42-.02-.85,.09-1.29,.32-.44,.23-.85,.55-1.24,.96-.38,.41-.72,.89-1.03,1.44l.03,6.15c0,.33,0,.63-.01,.89,0,.26-.04,.53-.09,.81,.27-.02,.53-.03,.79-.04,.26,0,.52-.02,.79-.04v1.02h-5.12v-.75Z"/>
    <path d="M264.83,459.01c-.83,0-1.57-.11-2.22-.34s-1.18-.48-1.6-.76l.1,.88h-1.05l-.15-4.3h.78c.03,.68,.22,1.3,.58,1.84,.35,.54,.8,.96,1.35,1.26,.55,.3,1.14,.45,1.78,.45,.43,0,.86-.07,1.27-.21,.42-.14,.77-.36,1.05-.65,.28-.29,.43-.66,.43-1.11s-.14-.85-.41-1.16c-.27-.31-.64-.58-1.09-.81-.45-.23-.93-.45-1.45-.65-.5-.2-1-.41-1.5-.62s-.96-.48-1.39-.78c-.42-.3-.76-.67-1.01-1.1s-.38-.97-.38-1.6c0-.35,.07-.73,.2-1.15,.13-.42,.36-.81,.67-1.19s.75-.68,1.3-.93c.55-.24,1.25-.36,2.1-.36,.45,0,.95,.07,1.5,.23,.55,.15,1.08,.43,1.6,.85l-.05-.95h1.05v4.38h-.8c-.03-.58-.17-1.15-.4-1.69s-.57-.99-1.02-1.35-1.03-.54-1.75-.54c-.77,0-1.37,.19-1.8,.58-.43,.38-.65,.82-.65,1.32s.16,.95,.49,1.29c.33,.34,.75,.64,1.26,.89s1.07,.49,1.65,.73c.63,.27,1.25,.56,1.85,.88s1.09,.71,1.47,1.19c.38,.47,.58,1.09,.58,1.84,0,.83-.21,1.52-.64,2.07-.42,.55-.97,.95-1.62,1.21-.66,.26-1.35,.39-2.06,.39Z"/>
    <path d="M277.33,459.01c-1.15,0-2.19-.27-3.11-.81-.92-.54-1.65-1.31-2.19-2.3s-.8-2.16-.8-3.51c0-1.17,.26-2.26,.79-3.27,.52-1.02,1.26-1.84,2.21-2.46s2.05-.94,3.3-.94c.7,0,1.35,.11,1.96,.34s1.15,.57,1.61,1.02c.47,.46,.83,1.03,1.1,1.73,.27,.69,.4,1.5,.4,2.44l-8.8,.15c0,1.27,.14,2.38,.41,3.34,.28,.96,.72,1.7,1.34,2.23,.62,.52,1.41,.79,2.38,.79,.52,0,1.05-.09,1.59-.27,.54-.18,1.04-.43,1.51-.75,.47-.32,.84-.67,1.12-1.05l.6,.5c-.45,.7-.99,1.26-1.62,1.68-.63,.42-1.28,.72-1.95,.9-.67,.18-1.28,.27-1.85,.27Zm-3.45-8.67h6.38c0-.6-.09-1.18-.26-1.74-.17-.56-.46-1.02-.86-1.38-.4-.36-.92-.54-1.58-.54-.97,0-1.77,.29-2.41,.86-.64,.58-1.06,1.5-1.26,2.79Z"/>
    <path d="M292.86,457.86c.52,0,.88-.13,1.08-.39,.2-.26,.32-.62,.35-1.07s.05-.99,.05-1.59v-3.5c0-1.43-.23-2.51-.69-3.23-.46-.72-1.18-1.07-2.16-1.05-.62,.02-1.22,.17-1.81,.45-.59,.28-1.07,.65-1.44,1.1v7.38c0,.33,0,.63-.03,.89-.02,.26-.05,.53-.1,.81,.27-.02,.53-.03,.79-.04,.26,0,.52-.02,.79-.04v1.02h-5.1v-.75c.52,0,.88-.13,1.08-.39,.2-.26,.32-.62,.36-1.07,.04-.46,.06-.99,.06-1.59v-11.83c0-.27,0-.52,.01-.76,0-.24,.03-.53,.06-.86-.3,.02-.6,.03-.89,.05-.29,.02-.59,.03-.89,.05v-1.05c.73,0,1.3-.03,1.71-.1s.72-.15,.92-.25c.21-.1,.37-.21,.49-.33h.72v7.62c.37-.32,.78-.6,1.24-.84s.93-.44,1.42-.59c.49-.15,.97-.23,1.44-.23,1.45,0,2.5,.45,3.14,1.36,.64,.91,.97,2.32,.99,4.24l.03,4.65c0,.33,0,.63-.01,.89,0,.26-.04,.53-.09,.81,.27-.02,.53-.03,.79-.04,.26,0,.52-.02,.79-.04v1.02h-5.1v-.75Z"/>
    <path d="M307.41,458.61c-.05-.28-.08-.53-.1-.75-.02-.22-.04-.44-.07-.67-.57,.57-1.18,1.01-1.84,1.34-.66,.32-1.35,.49-2.09,.49-1.27,0-2.21-.29-2.82-.86-.62-.58-.93-1.28-.93-2.11,0-.77,.24-1.43,.71-1.99,.47-.56,1.09-1.02,1.85-1.38,.76-.36,1.58-.62,2.48-.8,.89-.18,1.75-.25,2.59-.24v-1.55c0-.58-.05-1.13-.15-1.65-.1-.52-.32-.94-.65-1.28-.33-.33-.87-.51-1.6-.52-.48-.02-.98,.08-1.49,.27-.51,.2-.88,.54-1.11,1.03,.13,.13,.22,.29,.26,.46,.04,.17,.06,.34,.06,.49,0,.2-.08,.43-.25,.69-.17,.26-.46,.38-.88,.36-.35,0-.62-.12-.8-.36-.18-.24-.28-.53-.28-.86,0-.57,.21-1.08,.64-1.52,.42-.45,1.01-.81,1.76-1.08s1.6-.4,2.55-.4c1.4,0,2.43,.37,3.1,1.11,.67,.74,.99,1.91,.97,3.51v1.86c0,.62,0,1.25-.01,1.88s-.01,1.25-.01,1.89c0,.27,0,.53-.02,.8-.02,.27-.04,.57-.08,.9,.3-.02,.6-.03,.89-.05,.29-.02,.59-.03,.89-.05v1.05h-3.58Zm-.23-6.12c-.57,.02-1.16,.09-1.79,.21s-1.2,.31-1.72,.56c-.53,.25-.95,.58-1.28,.99s-.48,.9-.46,1.49c.03,.62,.24,1.08,.61,1.39s.82,.46,1.34,.46c.68,0,1.28-.13,1.79-.39,.51-.26,1.01-.62,1.51-1.09-.02-.18-.02-.38-.02-.6v-.67c0-.08,0-.35,.01-.8,0-.45,.01-.97,.01-1.55Z"/>
    <path d="M312.71,457.86c.52,0,.88-.13,1.08-.39,.2-.26,.32-.62,.35-1.07,.03-.46,.05-.99,.05-1.59v-5.7c0-.27,0-.52,.02-.76,.02-.24,.04-.53,.08-.86-.3,.02-.6,.03-.89,.05-.29,.02-.59,.03-.89,.05v-1.05c.73,0,1.3-.03,1.7-.1,.4-.07,.7-.15,.91-.25,.21-.1,.37-.21,.49-.33h.72v10.1c0,.33,0,.63-.01,.89,0,.26-.04,.53-.09,.81,.27-.02,.53-.03,.79-.04,.26,0,.52-.02,.79-.04v1.02h-5.1v-.75Zm2.43-14.48c-.35,0-.66-.14-.93-.42-.27-.28-.4-.63-.4-1.05s.14-.77,.41-1.06c.28-.29,.59-.44,.94-.44,.38,0,.7,.15,.96,.44,.26,.29,.39,.65,.39,1.06s-.14,.77-.41,1.05c-.27,.28-.6,.42-.96,.42Z"/>
    <path d="M319.73,457.86c.52,0,.88-.13,1.08-.39,.2-.26,.32-.62,.35-1.07,.03-.46,.05-.99,.05-1.59v-5.7c0-.27,0-.53,.01-.8,0-.27,.04-.54,.09-.83-.3,.02-.6,.03-.89,.04-.29,0-.59,.02-.89,.04v-1.03h.77c.72,0,1.21-.07,1.49-.21,.28-.14,.5-.3,.69-.46h.73c.03,.27,.06,.6,.08,.99,.02,.39,.03,.89,.05,1.49,.25-.42,.59-.83,1.02-1.23s.92-.73,1.46-1c.54-.27,1.11-.4,1.71-.4,.47,0,.88,.12,1.22,.38s.53,.65,.53,1.2c0,.13-.04,.3-.12,.49-.08,.19-.22,.36-.4,.5s-.42,.21-.72,.21c-.37-.02-.66-.16-.88-.44-.22-.27-.3-.6-.25-.96-.42-.02-.85,.09-1.29,.32-.44,.23-.85,.55-1.24,.96-.38,.41-.72,.89-1.03,1.44l.03,6.15c0,.33,0,.63-.01,.89,0,.26-.04,.53-.09,.81,.27-.02,.53-.03,.79-.04,.26,0,.52-.02,.79-.04v1.02h-5.12v-.75Z"/>
    <path d="M331.46,459.01c-.38,0-.72-.15-1.01-.46-.29-.31-.44-.69-.44-1.14s.15-.83,.45-1.15c.3-.32,.64-.48,1.03-.48,.42,0,.76,.16,1.04,.48,.28,.32,.41,.7,.41,1.15s-.15,.83-.45,1.14-.64,.46-1.03,.46Z"/>
    <path d="M348.13,441.94c-.62,.02-1.05,.16-1.29,.42-.24,.27-.38,.62-.4,1.08-.03,.45-.04,.97-.04,1.57v10.62c0,.45,0,.84-.01,1.16,0,.33-.03,.6-.06,.81l.9-.05c.3-.02,.6-.03,.9-.05v1.1h-5.62v-.83c.63-.03,1.07-.18,1.3-.44,.23-.26,.36-.62,.39-1.07s.04-.98,.04-1.56v-10.8c0-.33,0-.65,.03-.96,.02-.31,.03-.59,.05-.84-.3,.02-.6,.03-.9,.05-.3,.02-.6,.03-.9,.05v-1.1h5.62v.83Z"/>
    <path d="M354.88,459.01c-.38,0-.77-.05-1.17-.16s-.77-.32-1.11-.64c-.34-.32-.61-.78-.81-1.39-.2-.61-.3-1.41-.3-2.41l.05-7.25-1.92,.03v-1.08c.43-.02,.88-.18,1.32-.49,.45-.31,.85-.73,1.21-1.26,.36-.53,.6-1.12,.74-1.75h.85v3.5h4.2v.98l-4.2,.05-.05,6.95c0,.75,.06,1.39,.19,1.91,.12,.52,.33,.92,.61,1.19,.28,.27,.65,.4,1.1,.4s.9-.13,1.31-.4,.77-.63,1.09-1.1l.67,.55c-.37,.55-.73,.98-1.09,1.3s-.7,.55-1.04,.71c-.33,.16-.64,.26-.92,.3-.28,.04-.53,.06-.73,.06Z"/>
    <path d="M371.78,459.01c-1.02,0-1.93-.25-2.75-.76-.82-.51-1.46-1.24-1.94-2.19-.48-.95-.71-2.07-.71-3.35,0-1.37,.28-2.58,.83-3.62,.55-1.05,1.31-1.88,2.29-2.48,.98-.6,2.08-.9,3.31-.9,.55,0,1.1,.07,1.64,.21s.97,.3,1.29,.49v-3.42c0-.27,0-.52,.01-.76,0-.24,.03-.53,.06-.86-.3,.02-.6,.03-.89,.05-.29,.02-.59,.03-.89,.05v-1.05c.73,0,1.3-.03,1.7-.1,.4-.07,.7-.15,.91-.25,.21-.1,.37-.21,.49-.33h.73v16.23c0,.27,0,.53-.03,.8-.02,.27-.04,.57-.08,.9,.3-.02,.6-.03,.89-.05,.29-.02,.59-.03,.89-.05v1.05h-3.58c-.05-.25-.09-.48-.11-.69-.03-.21-.05-.41-.06-.61-.47,.52-1.04,.93-1.73,1.24s-1.44,.46-2.27,.46Zm.9-1.23c.55,0,1.1-.16,1.66-.47,.56-.32,1.02-.71,1.39-1.18-.02-.2-.03-.41-.03-.64v-.74l.03-7.2c-.4-.3-.84-.52-1.31-.66-.48-.14-.96-.21-1.46-.21-.83,0-1.56,.24-2.17,.72-.62,.48-1.08,1.16-1.4,2.03s-.46,1.88-.42,3.05c.03,1.02,.2,1.92,.49,2.73,.29,.8,.71,1.43,1.25,1.89,.54,.46,1.2,.69,1.99,.69Z"/>
    <path d="M387.43,459.01c-1.15,0-2.19-.27-3.11-.81-.92-.54-1.65-1.31-2.19-2.3s-.8-2.16-.8-3.51c0-1.17,.26-2.26,.79-3.27,.52-1.02,1.26-1.84,2.21-2.46s2.05-.94,3.3-.94c.7,0,1.35,.11,1.96,.34s1.15,.57,1.61,1.02c.47,.46,.83,1.03,1.1,1.73,.27,.69,.4,1.5,.4,2.44l-8.8,.15c0,1.27,.14,2.38,.41,3.34,.28,.96,.72,1.7,1.34,2.23,.62,.52,1.41,.79,2.38,.79,.52,0,1.05-.09,1.59-.27,.54-.18,1.04-.43,1.51-.75,.47-.32,.84-.67,1.12-1.05l.6,.5c-.45,.7-.99,1.26-1.62,1.68-.63,.42-1.28,.72-1.95,.9-.67,.18-1.28,.27-1.85,.27Zm-3.45-8.67h6.38c0-.6-.09-1.18-.26-1.74-.17-.56-.46-1.02-.86-1.38-.4-.36-.92-.54-1.58-.54-.97,0-1.77,.29-2.41,.86-.64,.58-1.06,1.5-1.26,2.79Z"/>
    <path d="M395.08,458.61v-.75c.52,0,.88-.13,1.08-.39,.2-.26,.32-.62,.35-1.07s.05-.99,.05-1.59l-.05-7.62-2.05,.05v-1.12h2.05c0-2.08,.5-3.69,1.51-4.81,1.01-1.12,2.45-1.69,4.31-1.69,.87,0,1.65,.09,2.36,.27,.71,.18,1.28,.44,1.71,.77,.43,.33,.65,.72,.65,1.15,0,.32-.09,.59-.27,.82-.18,.23-.45,.35-.8,.35-.42,.02-.71-.1-.88-.36-.17-.26-.25-.49-.25-.69,0-.12,0-.23,.02-.35s.05-.23,.1-.33c-.28-.22-.63-.39-1.04-.51s-.88-.19-1.41-.19c-.75,0-1.42,.17-2,.5-.58,.33-1.04,.84-1.38,1.52-.33,.68-.5,1.55-.5,2.6v.92h5.72c.38,0,.71-.01,.99-.04,.28-.02,.5-.06,.66-.1,.17-.04,.27-.08,.3-.11h.72v10.1c0,.33,0,.63-.01,.89,0,.26-.04,.53-.09,.81,.27-.02,.53-.03,.79-.04,.26,0,.52-.02,.79-.04v1.02h-5.1v-.75c.52,0,.88-.13,1.08-.39,.2-.26,.32-.62,.35-1.07,.03-.46,.05-.99,.05-1.59v-6.2c0-.27,0-.52,.02-.76,.02-.24,.04-.53,.08-.86l-6.35,.15,.02,8.85c0,.33,0,.62-.01,.88,0,.25-.04,.52-.09,.8,.27-.02,.53-.03,.79-.04,.26,0,.52-.02,.79-.04v1.02h-5.08Z"/>
    <path d="M410.5,458.61v-.75c.52,0,.88-.13,1.08-.39,.2-.26,.32-.62,.35-1.07,.03-.46,.05-.99,.05-1.59l.02-5.7c0-.27,0-.53,.01-.8s.04-.54,.09-.83c-.3,.02-.6,.03-.89,.05-.29,.02-.59,.03-.89,.05v-1.05c.73,0,1.29-.03,1.66-.1s.65-.15,.84-.25c.18-.1,.33-.21,.45-.33h.72c.02,.12,.03,.25,.04,.4,0,.15,.02,.32,.04,.5,.02,.18,.03,.39,.03,.62,.37-.32,.77-.6,1.21-.85s.91-.45,1.4-.6c.49-.15,.98-.23,1.46-.23,1.45,0,2.51,.45,3.17,1.36,.67,.91,1,2.32,1,4.24v4.65c0,.33,0,.63-.01,.89,0,.26-.04,.53-.09,.81,.27-.02,.53-.03,.79-.04,.26,0,.52-.02,.79-.04v1.02h-5.1v-.75c.52,0,.88-.13,1.08-.39,.2-.26,.32-.62,.35-1.07s.05-.99,.05-1.59v-3.5c-.02-1.43-.25-2.52-.71-3.25-.46-.73-1.18-1.09-2.16-1.08-.6,.02-1.19,.17-1.76,.48-.57,.3-1.05,.68-1.44,1.15,.02,.13,.03,.28,.03,.45v.52l-.03,6.38c0,.33,0,.63-.01,.89,0,.26-.04,.53-.09,.81,.27-.02,.53-.03,.79-.04,.26,0,.52-.02,.79-.04v1.02h-5.1Z"/>
    <path d="M425.68,457.86c.52,0,.88-.13,1.08-.39,.2-.26,.32-.62,.35-1.07,.03-.46,.05-.99,.05-1.59v-5.7c0-.27,0-.52,.02-.76,.02-.24,.04-.53,.08-.86-.3,.02-.6,.03-.89,.05-.29,.02-.59,.03-.89,.05v-1.05c.73,0,1.3-.03,1.7-.1,.4-.07,.7-.15,.91-.25,.21-.1,.37-.21,.49-.33h.72v10.1c0,.33,0,.63-.01,.89,0,.26-.04,.53-.09,.81,.27-.02,.53-.03,.79-.04,.26,0,.52-.02,.79-.04v1.02h-5.1v-.75Zm2.43-14.48c-.35,0-.66-.14-.93-.42-.27-.28-.4-.63-.4-1.05s.14-.77,.41-1.06c.28-.29,.59-.44,.94-.44,.38,0,.7,.15,.96,.44,.26,.29,.39,.65,.39,1.06s-.14,.77-.41,1.05c-.27,.28-.6,.42-.96,.42Z"/>
    <path d="M437.8,459.01c-.38,0-.77-.05-1.17-.16s-.77-.32-1.11-.64c-.34-.32-.61-.78-.81-1.39-.2-.61-.3-1.41-.3-2.41l.05-7.25-1.92,.03v-1.08c.43-.02,.88-.18,1.32-.49,.45-.31,.85-.73,1.21-1.26,.36-.53,.6-1.12,.74-1.75h.85v3.5h4.2v.98l-4.2,.05-.05,6.95c0,.75,.06,1.39,.19,1.91,.12,.52,.33,.92,.61,1.19,.28,.27,.65,.4,1.1,.4s.9-.13,1.31-.4,.77-.63,1.09-1.1l.67,.55c-.37,.55-.73,.98-1.09,1.3s-.7,.55-1.04,.71c-.33,.16-.64,.26-.92,.3-.28,.04-.53,.06-.73,.06Z"/>
    <path d="M442.78,457.86c.52,0,.88-.13,1.08-.39,.2-.26,.32-.62,.35-1.07,.03-.46,.05-.99,.05-1.59v-5.7c0-.27,0-.52,.02-.76,.02-.24,.04-.53,.08-.86-.3,.02-.6,.03-.89,.05-.29,.02-.59,.03-.89,.05v-1.05c.73,0,1.3-.03,1.7-.1,.4-.07,.7-.15,.91-.25,.21-.1,.37-.21,.49-.33h.72v10.1c0,.33,0,.63-.01,.89,0,.26-.04,.53-.09,.81,.27-.02,.53-.03,.79-.04,.26,0,.52-.02,.79-.04v1.02h-5.1v-.75Zm2.43-14.48c-.35,0-.66-.14-.93-.42-.27-.28-.4-.63-.4-1.05s.14-.77,.41-1.06c.28-.29,.59-.44,.94-.44,.38,0,.7,.15,.96,.44,.26,.29,.39,.65,.39,1.06s-.14,.77-.41,1.05c-.27,.28-.6,.42-.96,.42Z"/>
    <path d="M454.55,458.69l-3.57-8.15c-.27-.63-.48-1.17-.62-1.62-.15-.45-.25-.82-.31-1.12-.06-.3-.1-.54-.11-.72l-1.07,.07v-1.02h4.6v.75c-.5,0-.82,.13-.96,.39s-.16,.6-.06,1.02c.1,.42,.25,.88,.45,1.36l1.92,4.4c.13,.28,.26,.58,.39,.89,.12,.31,.25,.63,.36,.96h.03c.08-.25,.18-.52,.29-.8,.11-.28,.2-.56,.29-.83l2-5.48c.13-.4,.27-.75,.42-1.05s.26-.52,.33-.67l-1.6,.07v-1.02h3.95v.75c-.37,0-.67,.12-.92,.38s-.49,.62-.71,1.12c-.22,.5-.49,1.12-.79,1.88l-3.28,8.45h-1Z"/>
    <path d="M468.35,459.01c-1.15,0-2.19-.27-3.11-.81-.92-.54-1.65-1.31-2.19-2.3s-.8-2.16-.8-3.51c0-1.17,.26-2.26,.79-3.27,.52-1.02,1.26-1.84,2.21-2.46s2.05-.94,3.3-.94c.7,0,1.35,.11,1.96,.34s1.15,.57,1.61,1.02c.47,.46,.83,1.03,1.1,1.73,.27,.69,.4,1.5,.4,2.44l-8.8,.15c0,1.27,.14,2.38,.41,3.34,.28,.96,.72,1.7,1.34,2.23,.62,.52,1.41,.79,2.38,.79,.52,0,1.05-.09,1.59-.27,.54-.18,1.04-.43,1.51-.75,.47-.32,.84-.67,1.12-1.05l.6,.5c-.45,.7-.99,1.26-1.62,1.68-.63,.42-1.28,.72-1.95,.9-.67,.18-1.28,.27-1.85,.27Zm-3.45-8.67h6.38c0-.6-.09-1.18-.26-1.74-.17-.56-.46-1.02-.86-1.38-.4-.36-.92-.54-1.58-.54-.97,0-1.77,.29-2.41,.86-.64,.58-1.06,1.5-1.26,2.79Z"/>
    <path d="M475.6,457.86c.52,0,.88-.13,1.08-.39,.2-.26,.32-.62,.35-1.07,.03-.46,.05-.99,.05-1.59v-11.83c0-.27,0-.52,.01-.76,0-.24,.03-.53,.06-.86-.3,.02-.6,.03-.89,.05-.29,.02-.59,.03-.89,.05v-1.05c.73,0,1.3-.03,1.71-.1,.41-.07,.72-.15,.92-.25,.21-.1,.37-.21,.49-.33h.72l.03,16.23c0,.33,0,.63-.03,.89-.02,.26-.05,.53-.1,.81,.27-.02,.53-.03,.79-.04,.26,0,.52-.02,.79-.04v1.02h-5.1v-.75Z"/>
    <path d="M484.45,465.39c-.52,0-.96-.12-1.33-.38-.37-.25-.55-.63-.55-1.15,0-.3,.1-.58,.3-.83s.46-.38,.77-.38c.4-.02,.67,.11,.81,.38s.21,.5,.21,.7v.16c0,.06,0,.12-.03,.19,.05,.03,.14,.05,.28,.05,.2,0,.42-.08,.65-.25,.23-.17,.44-.41,.62-.73,.22-.37,.47-.92,.76-1.65,.29-.73,.62-1.61,.99-2.62l-3.9-8.35c-.43-.93-.75-1.67-.94-2.22-.19-.55-.32-.96-.39-1.23l-1.2,.05v-1.02h5.18v.75h-.1c-.7,.05-1.08,.31-1.15,.79-.07,.48,.12,1.2,.57,2.16l2.93,6.27c.38-1.07,.75-2.12,1.1-3.16,.35-1.04,.7-2.08,1.05-3.11,.13-.37,.27-.75,.41-1.14,.14-.39,.28-.74,.42-1.05s.27-.5,.39-.59l-1.73,.1v-1.02h3.92v.75c-.62,.23-1.08,.62-1.39,1.16-.31,.54-.62,1.24-.94,2.09l-3.12,8.73c-.5,1.4-.96,2.59-1.38,3.56-.42,.98-.88,1.72-1.38,2.23-.5,.51-1.12,.76-1.88,.76Z"/>
    <path d="M507.65,459.01c-1.02,0-1.93-.25-2.75-.76-.82-.51-1.46-1.24-1.94-2.19-.48-.95-.71-2.07-.71-3.35,0-1.37,.28-2.58,.83-3.62,.55-1.05,1.31-1.88,2.29-2.48,.98-.6,2.08-.9,3.31-.9,.55,0,1.1,.07,1.64,.21s.97,.3,1.29,.49v-3.42c0-.27,0-.52,.01-.76,0-.24,.03-.53,.06-.86-.3,.02-.6,.03-.89,.05-.29,.02-.59,.03-.89,.05v-1.05c.73,0,1.3-.03,1.7-.1,.4-.07,.7-.15,.91-.25,.21-.1,.37-.21,.49-.33h.73v16.23c0,.27,0,.53-.03,.8-.02,.27-.04,.57-.08,.9,.3-.02,.6-.03,.89-.05,.29-.02,.59-.03,.89-.05v1.05h-3.58c-.05-.25-.09-.48-.11-.69-.03-.21-.05-.41-.06-.61-.47,.52-1.04,.93-1.73,1.24s-1.44,.46-2.27,.46Zm.9-1.23c.55,0,1.1-.16,1.66-.47,.56-.32,1.02-.71,1.39-1.18-.02-.2-.03-.41-.03-.64v-.74l.03-7.2c-.4-.3-.84-.52-1.31-.66-.48-.14-.96-.21-1.46-.21-.83,0-1.56,.24-2.17,.72-.62,.48-1.08,1.16-1.4,2.03s-.46,1.88-.42,3.05c.03,1.02,.2,1.92,.49,2.73,.29,.8,.71,1.43,1.25,1.89,.54,.46,1.2,.69,1.99,.69Z"/>
    <path d="M523.45,459.01c-1.17,0-2.22-.27-3.17-.81s-1.7-1.29-2.26-2.25c-.56-.96-.84-2.05-.84-3.29,0-1.32,.27-2.5,.82-3.55,.55-1.05,1.3-1.88,2.25-2.49,.95-.61,2.02-.91,3.2-.91s2.23,.28,3.17,.84c.95,.56,1.71,1.31,2.28,2.26,.57,.95,.85,2.03,.85,3.25,0,1.28-.28,2.45-.84,3.51-.56,1.06-1.31,1.9-2.26,2.51-.95,.62-2.02,.92-3.2,.92Zm.2-1c.88,0,1.58-.25,2.1-.75s.89-1.15,1.11-1.95c.22-.8,.34-1.64,.34-2.53,0-.75-.07-1.49-.21-2.21-.14-.73-.36-1.38-.66-1.98-.3-.59-.69-1.06-1.16-1.41-.48-.35-1.05-.53-1.71-.53-.87,0-1.58,.25-2.12,.75s-.95,1.15-1.21,1.95c-.26,.8-.39,1.66-.39,2.58,0,1.03,.14,2.01,.42,2.94,.28,.92,.72,1.68,1.3,2.26,.58,.58,1.32,.88,2.2,.88Z"/>
    <path d="M537.93,459.01c-1.15,0-2.19-.27-3.11-.81-.92-.54-1.65-1.31-2.19-2.3s-.8-2.16-.8-3.51c0-1.17,.26-2.26,.79-3.27,.52-1.02,1.26-1.84,2.21-2.46s2.05-.94,3.3-.94c.7,0,1.35,.11,1.96,.34s1.15,.57,1.61,1.02c.47,.46,.83,1.03,1.1,1.73,.27,.69,.4,1.5,.4,2.44l-8.8,.15c0,1.27,.14,2.38,.41,3.34,.28,.96,.72,1.7,1.34,2.23,.62,.52,1.41,.79,2.38,.79,.52,0,1.05-.09,1.59-.27,.54-.18,1.04-.43,1.51-.75,.47-.32,.84-.67,1.12-1.05l.6,.5c-.45,.7-.99,1.26-1.62,1.68-.63,.42-1.28,.72-1.95,.9-.67,.18-1.28,.27-1.85,.27Zm-3.45-8.67h6.38c0-.6-.09-1.18-.26-1.74-.17-.56-.46-1.02-.86-1.38-.4-.36-.92-.54-1.58-.54-.97,0-1.77,.29-2.41,.86-.64,.58-1.06,1.5-1.26,2.79Z"/>
    <path d="M550.55,459.01c-.83,0-1.57-.11-2.22-.34s-1.18-.48-1.6-.76l.1,.88h-1.05l-.15-4.3h.78c.03,.68,.22,1.3,.58,1.84,.35,.54,.8,.96,1.35,1.26,.55,.3,1.14,.45,1.78,.45,.43,0,.86-.07,1.27-.21,.42-.14,.77-.36,1.05-.65,.28-.29,.43-.66,.43-1.11s-.14-.85-.41-1.16c-.27-.31-.64-.58-1.09-.81-.45-.23-.93-.45-1.45-.65-.5-.2-1-.41-1.5-.62s-.96-.48-1.39-.78c-.42-.3-.76-.67-1.01-1.1s-.38-.97-.38-1.6c0-.35,.07-.73,.2-1.15,.13-.42,.36-.81,.67-1.19s.75-.68,1.3-.93c.55-.24,1.25-.36,2.1-.36,.45,0,.95,.07,1.5,.23,.55,.15,1.08,.43,1.6,.85l-.05-.95h1.05v4.38h-.8c-.03-.58-.17-1.15-.4-1.69s-.57-.99-1.02-1.35-1.03-.54-1.75-.54c-.77,0-1.37,.19-1.8,.58-.43,.38-.65,.82-.65,1.32s.16,.95,.49,1.29c.33,.34,.75,.64,1.26,.89s1.07,.49,1.65,.73c.63,.27,1.25,.56,1.85,.88s1.09,.71,1.47,1.19c.38,.47,.58,1.09,.58,1.84,0,.83-.21,1.52-.64,2.07-.42,.55-.97,.95-1.62,1.21-.66,.26-1.35,.39-2.06,.39Z"/>
    <path d="M557,458.61v-.75c.52,0,.88-.13,1.08-.39,.2-.26,.32-.62,.35-1.07,.03-.46,.05-.99,.05-1.59l.02-5.7c0-.27,0-.53,.01-.8s.04-.54,.09-.83c-.3,.02-.6,.03-.89,.05-.29,.02-.59,.03-.89,.05v-1.05c.73,0,1.29-.03,1.66-.1s.65-.15,.84-.25c.18-.1,.33-.21,.45-.33h.72c.02,.12,.03,.25,.04,.4,0,.15,.02,.32,.04,.5,.02,.18,.03,.39,.03,.62,.37-.32,.77-.6,1.21-.85s.91-.45,1.4-.6c.49-.15,.98-.23,1.46-.23,1.45,0,2.51,.45,3.17,1.36,.67,.91,1,2.32,1,4.24v4.65c0,.33,0,.63-.01,.89,0,.26-.04,.53-.09,.81,.27-.02,.53-.03,.79-.04,.26,0,.52-.02,.79-.04v1.02h-5.1v-.75c.52,0,.88-.13,1.08-.39,.2-.26,.32-.62,.35-1.07s.05-.99,.05-1.59v-3.5c-.02-1.43-.25-2.52-.71-3.25-.46-.73-1.18-1.09-2.16-1.08-.6,.02-1.19,.17-1.76,.48-.57,.3-1.05,.68-1.44,1.15,.02,.13,.03,.28,.03,.45v.52l-.03,6.38c0,.33,0,.63-.01,.89,0,.26-.04,.53-.09,.81,.27-.02,.53-.03,.79-.04,.26,0,.52-.02,.79-.04v1.02h-5.1Z"/>
    <path d="M572.43,446.61l-.67-.5c.18-.23,.38-.57,.58-1,.2-.43,.36-.91,.49-1.44s.15-1.04,.09-1.54c-.12,.05-.23,.09-.33,.11-.1,.02-.2,.04-.3,.04-.32,0-.59-.12-.81-.35-.23-.23-.34-.53-.34-.88,0-.47,.14-.83,.41-1.08,.28-.25,.6-.38,.96-.38,.58,0,1.03,.22,1.33,.66,.3,.44,.45,.98,.45,1.61,0,.42-.08,.93-.24,1.52-.16,.6-.38,1.19-.65,1.76-.28,.58-.6,1.05-.96,1.44Z"/>
    <path d="M580.65,459.01c-.38,0-.77-.05-1.17-.16s-.77-.32-1.11-.64c-.34-.32-.61-.78-.81-1.39-.2-.61-.3-1.41-.3-2.41l.05-7.25-1.92,.03v-1.08c.43-.02,.88-.18,1.32-.49,.45-.31,.85-.73,1.21-1.26,.36-.53,.6-1.12,.74-1.75h.85v3.5h4.2v.98l-4.2,.05-.05,6.95c0,.75,.06,1.39,.19,1.91,.12,.52,.33,.92,.61,1.19,.28,.27,.65,.4,1.1,.4s.9-.13,1.31-.4,.77-.63,1.09-1.1l.67,.55c-.37,.55-.73,.98-1.09,1.3s-.7,.55-1.04,.71c-.33,.16-.64,.26-.92,.3-.28,.04-.53,.06-.73,.06Z"/>
    <path d="M329.28,472.99c0-.27,0-.52,.01-.76,0-.24,.03-.53,.06-.86-.3,.02-.6,.03-.89,.05-.29,.02-.59,.03-.89,.05v-1.05c.73,0,1.3-.03,1.71-.1s.72-.15,.93-.25c.21-.1,.37-.21,.49-.33h.72v7.45c.47-.47,1.02-.83,1.66-1.09,.64-.26,1.35-.39,2.11-.39,1.07,0,2.03,.26,2.89,.77,.86,.52,1.54,1.25,2.04,2.2,.5,.95,.75,2.07,.75,3.38,0,1.42-.31,2.65-.92,3.69-.62,1.04-1.42,1.85-2.4,2.41s-2.04,.85-3.17,.85c-.57,0-1.19-.1-1.86-.31-.67-.21-1.28-.61-1.81-1.21l-.6,1.12h-.88l.05-15.62Zm2.15,11.7c0,.88,.14,1.56,.42,2.04,.28,.48,.65,.8,1.1,.99,.45,.18,.92,.27,1.42,.27,.8,0,1.49-.23,2.08-.67,.58-.45,1.04-1.07,1.36-1.86,.33-.79,.49-1.71,.49-2.76,0-1.13-.14-2.13-.42-2.99-.28-.86-.71-1.53-1.28-2.02-.57-.49-1.28-.74-2.15-.74-.55,0-1.1,.13-1.64,.39-.54,.26-1,.6-1.39,1.04v6.33Z"/>
    <path d="M349.08,489.01c-1.15,0-2.19-.27-3.11-.81-.92-.54-1.65-1.31-2.19-2.3s-.8-2.16-.8-3.51c0-1.17,.26-2.26,.79-3.27,.52-1.02,1.26-1.84,2.21-2.46s2.05-.94,3.3-.94c.7,0,1.35,.11,1.96,.34s1.15,.57,1.61,1.02c.47,.46,.83,1.03,1.1,1.73,.27,.69,.4,1.5,.4,2.44l-8.8,.15c0,1.27,.14,2.38,.41,3.34,.28,.96,.72,1.7,1.34,2.23,.62,.52,1.41,.79,2.38,.79,.52,0,1.05-.09,1.59-.27,.54-.18,1.04-.43,1.51-.75,.47-.32,.84-.67,1.12-1.05l.6,.5c-.45,.7-.99,1.26-1.62,1.68-.63,.42-1.28,.72-1.95,.9-.67,.18-1.28,.27-1.85,.27Zm-3.45-8.67h6.38c0-.6-.09-1.18-.26-1.74-.17-.56-.46-1.02-.86-1.38-.4-.36-.92-.54-1.58-.54-.97,0-1.77,.29-2.41,.86-.64,.58-1.06,1.5-1.26,2.79Z"/>
    <path d="M356.33,487.86c.52,0,.88-.13,1.08-.39,.2-.26,.32-.62,.35-1.07,.03-.46,.05-.99,.05-1.59v-11.83c0-.27,0-.52,.01-.76,0-.24,.03-.53,.06-.86-.3,.02-.6,.03-.89,.05-.29,.02-.59,.03-.89,.05v-1.05c.73,0,1.3-.03,1.71-.1,.41-.07,.72-.15,.92-.25,.21-.1,.37-.21,.49-.33h.72l.03,16.23c0,.33,0,.63-.03,.89-.02,.26-.05,.53-.1,.81,.27-.02,.53-.03,.79-.04,.26,0,.52-.02,.79-.04v1.02h-5.1v-.75Z"/>
    <path d="M369.58,489.01c-1.17,0-2.22-.27-3.17-.81s-1.7-1.29-2.26-2.25c-.56-.96-.84-2.05-.84-3.29,0-1.32,.27-2.5,.82-3.55,.55-1.05,1.3-1.88,2.25-2.49,.95-.61,2.02-.91,3.2-.91s2.23,.28,3.17,.84c.95,.56,1.71,1.31,2.28,2.26,.57,.95,.85,2.03,.85,3.25,0,1.28-.28,2.45-.84,3.51-.56,1.06-1.31,1.9-2.26,2.51-.95,.62-2.02,.92-3.2,.92Zm.2-1c.88,0,1.58-.25,2.1-.75s.89-1.15,1.11-1.95c.22-.8,.34-1.64,.34-2.53,0-.75-.07-1.49-.21-2.21-.14-.73-.36-1.38-.66-1.98-.3-.59-.69-1.06-1.16-1.41-.48-.35-1.05-.53-1.71-.53-.87,0-1.58,.25-2.12,.75s-.95,1.15-1.21,1.95c-.26,.8-.39,1.66-.39,2.58,0,1.03,.14,2.01,.42,2.94,.28,.92,.72,1.68,1.3,2.26,.58,.58,1.32,.88,2.2,.88Z"/>
    <path d="M378.01,488.61v-.75c.52,0,.88-.13,1.08-.39,.2-.26,.32-.62,.35-1.07,.03-.46,.05-.99,.05-1.59l.02-5.7c0-.27,0-.53,.01-.8s.04-.54,.09-.83c-.3,.02-.6,.03-.89,.05-.29,.02-.59,.03-.89,.05v-1.05c.73,0,1.29-.03,1.66-.1s.65-.15,.84-.25c.18-.1,.33-.21,.45-.33h.72c.02,.12,.03,.25,.04,.4,0,.15,.02,.32,.04,.5,.02,.18,.03,.39,.03,.62,.37-.32,.77-.6,1.21-.85s.91-.45,1.4-.6c.49-.15,.98-.23,1.46-.23,1.45,0,2.51,.45,3.17,1.36,.67,.91,1,2.32,1,4.24v4.65c0,.33,0,.63-.01,.89,0,.26-.04,.53-.09,.81,.27-.02,.53-.03,.79-.04,.26,0,.52-.02,.79-.04v1.02h-5.1v-.75c.52,0,.88-.13,1.08-.39,.2-.26,.32-.62,.35-1.07s.05-.99,.05-1.59v-3.5c-.02-1.43-.25-2.52-.71-3.25-.46-.73-1.18-1.09-2.16-1.08-.6,.02-1.19,.17-1.76,.48-.57,.3-1.05,.68-1.44,1.15,.02,.13,.03,.28,.03,.45v.52l-.03,6.38c0,.33,0,.63-.01,.89,0,.26-.04,.53-.09,.81,.27-.02,.53-.03,.79-.04,.26,0,.52-.02,.79-.04v1.02h-5.1Z"/>
    <path d="M399.21,495.39c-1.5,0-2.71-.17-3.62-.5-.92-.33-1.58-.76-2-1.27-.42-.52-.62-1.05-.62-1.6,0-.52,.12-.97,.36-1.36,.24-.39,.54-.73,.9-1.01,.36-.28,.7-.49,1.04-.62-.53-.18-.95-.43-1.26-.74-.31-.31-.46-.72-.46-1.24,0-.58,.23-1.13,.7-1.64,.47-.51,1.07-.82,1.8-.94-.77-.37-1.38-.88-1.84-1.52-.46-.65-.69-1.41-.69-2.28,0-1,.26-1.87,.78-2.61,.52-.74,1.18-1.32,1.99-1.73,.81-.41,1.65-.61,2.51-.61,.55,0,1.1,.08,1.65,.24,.55,.16,1.06,.39,1.53,.69,.17-.47,.4-.88,.71-1.25,.31-.37,.66-.65,1.06-.86,.4-.21,.82-.31,1.25-.31s.76,.11,.99,.34c.22,.23,.34,.53,.34,.91,0,.12-.03,.26-.1,.42-.07,.17-.18,.31-.34,.43s-.37,.17-.64,.17c-.28,0-.52-.08-.7-.25-.18-.17-.3-.38-.35-.62-.42,.07-.74,.26-.97,.59-.23,.33-.39,.68-.47,1.06,.4,.37,.72,.81,.96,1.33s.36,1.07,.36,1.65c0,.93-.25,1.77-.74,2.5s-1.14,1.3-1.94,1.71c-.8,.41-1.67,.61-2.6,.61-.32,0-.59-.02-.83-.06s-.52-.06-.85-.06c-.62,0-1.12,.15-1.5,.45-.38,.3-.52,.66-.4,1.08,.13,.4,.54,.65,1.22,.76,.68,.11,1.6,.19,2.75,.24,1.28,.05,2.38,.2,3.3,.45,.92,.25,1.62,.64,2.11,1.16,.49,.52,.74,1.24,.74,2.14,0,.67-.18,1.26-.54,1.79-.36,.52-.83,.96-1.43,1.31-.59,.35-1.25,.62-1.97,.8-.72,.18-1.45,.27-2.19,.27Zm-.03-.98c1.43,0,2.55-.27,3.35-.8,.8-.53,1.2-1.16,1.2-1.88,0-.62-.21-1.09-.62-1.41-.42-.32-.98-.55-1.7-.67-.72-.12-1.54-.2-2.48-.21-.45-.02-.89-.04-1.32-.06-.43-.03-.85-.07-1.25-.14-.45,.3-.8,.67-1.05,1.1-.25,.43-.38,.89-.38,1.38,0,.82,.39,1.47,1.16,1.96,.77,.49,1.8,.74,3.09,.74Zm-.32-10.25c.62,0,1.13-.15,1.54-.45,.41-.3,.72-.71,.92-1.23s.31-1.1,.31-1.75c0-.73-.11-1.42-.33-2.05s-.54-1.14-.96-1.53c-.42-.38-.96-.57-1.61-.57-.9,0-1.6,.34-2.09,1.01-.49,.68-.74,1.51-.74,2.51,0,.8,.12,1.5,.35,2.11,.23,.61,.57,1.08,1.01,1.43,.44,.34,.97,.51,1.59,.51Z"/>
    <path d="M421.61,487.86c.52,0,.88-.13,1.08-.39,.2-.26,.32-.62,.35-1.07s.05-.99,.05-1.59v-3.5c0-1.43-.23-2.51-.69-3.23-.46-.72-1.18-1.07-2.16-1.05-.62,.02-1.22,.17-1.81,.45-.59,.28-1.07,.65-1.44,1.1v7.38c0,.33,0,.63-.03,.89-.02,.26-.05,.53-.1,.81,.27-.02,.53-.03,.79-.04,.26,0,.52-.02,.79-.04v1.02h-5.1v-.75c.52,0,.88-.13,1.08-.39,.2-.26,.32-.62,.36-1.07,.04-.46,.06-.99,.06-1.59v-11.83c0-.27,0-.52,.01-.76,0-.24,.03-.53,.06-.86-.3,.02-.6,.03-.89,.05-.29,.02-.59,.03-.89,.05v-1.05c.73,0,1.3-.03,1.71-.1s.72-.15,.92-.25c.21-.1,.37-.21,.49-.33h.72v7.62c.37-.32,.78-.6,1.24-.84s.93-.44,1.42-.59c.49-.15,.97-.23,1.44-.23,1.45,0,2.5,.45,3.14,1.36,.64,.91,.97,2.32,.99,4.24l.03,4.65c0,.33,0,.63-.01,.89,0,.26-.04,.53-.09,.81,.27-.02,.53-.03,.79-.04,.26,0,.52-.02,.79-.04v1.02h-5.1v-.75Z"/>
    <path d="M434.61,489.01c-1.15,0-2.19-.27-3.11-.81-.92-.54-1.65-1.31-2.19-2.3s-.8-2.16-.8-3.51c0-1.17,.26-2.26,.79-3.27,.52-1.02,1.26-1.84,2.21-2.46s2.05-.94,3.3-.94c.7,0,1.35,.11,1.96,.34s1.15,.57,1.61,1.02c.47,.46,.83,1.03,1.1,1.73,.27,.69,.4,1.5,.4,2.44l-8.8,.15c0,1.27,.14,2.38,.41,3.34,.28,.96,.72,1.7,1.34,2.23,.62,.52,1.41,.79,2.38,.79,.52,0,1.05-.09,1.59-.27,.54-.18,1.04-.43,1.51-.75,.47-.32,.84-.67,1.12-1.05l.6,.5c-.45,.7-.99,1.26-1.62,1.68-.63,.42-1.28,.72-1.95,.9-.67,.18-1.28,.27-1.85,.27Zm-3.45-8.67h6.38c0-.6-.09-1.18-.26-1.74-.17-.56-.46-1.02-.86-1.38-.4-.36-.92-.54-1.58-.54-.97,0-1.77,.29-2.41,.86-.64,.58-1.06,1.5-1.26,2.79Z"/>
    <path d="M442.1,487.86c.52,0,.88-.13,1.08-.39,.2-.26,.32-.62,.35-1.07,.03-.46,.05-.99,.05-1.59v-5.7c0-.27,0-.53,.01-.8,0-.27,.04-.54,.09-.83-.3,.02-.6,.03-.89,.04-.29,0-.59,.02-.89,.04v-1.03h.77c.72,0,1.21-.07,1.49-.21,.28-.14,.5-.3,.69-.46h.73c.03,.27,.06,.6,.08,.99,.02,.39,.03,.89,.05,1.49,.25-.42,.59-.83,1.02-1.23s.92-.73,1.46-1c.54-.27,1.11-.4,1.71-.4,.47,0,.88,.12,1.22,.38s.53,.65,.53,1.2c0,.13-.04,.3-.12,.49-.08,.19-.22,.36-.4,.5s-.42,.21-.72,.21c-.37-.02-.66-.16-.88-.44-.22-.27-.3-.6-.25-.96-.42-.02-.85,.09-1.29,.32-.44,.23-.85,.55-1.24,.96-.38,.41-.72,.89-1.03,1.44l.03,6.15c0,.33,0,.63-.01,.89,0,.26-.04,.53-.09,.81,.27-.02,.53-.03,.79-.04,.26,0,.52-.02,.79-.04v1.02h-5.12v-.75Z"/>
    <path d="M458.81,489.01c-1.15,0-2.19-.27-3.11-.81-.92-.54-1.65-1.31-2.19-2.3s-.8-2.16-.8-3.51c0-1.17,.26-2.26,.79-3.27,.52-1.02,1.26-1.84,2.21-2.46s2.05-.94,3.3-.94c.7,0,1.35,.11,1.96,.34s1.15,.57,1.61,1.02c.47,.46,.83,1.03,1.1,1.73,.27,.69,.4,1.5,.4,2.44l-8.8,.15c0,1.27,.14,2.38,.41,3.34,.28,.96,.72,1.7,1.34,2.23,.62,.52,1.41,.79,2.38,.79,.52,0,1.05-.09,1.59-.27,.54-.18,1.04-.43,1.51-.75,.47-.32,.84-.67,1.12-1.05l.6,.5c-.45,.7-.99,1.26-1.62,1.68-.63,.42-1.28,.72-1.95,.9-.67,.18-1.28,.27-1.85,.27Zm-3.45-8.67h6.38c0-.6-.09-1.18-.26-1.74-.17-.56-.46-1.02-.86-1.38-.4-.36-.92-.54-1.58-.54-.97,0-1.77,.29-2.41,.86-.64,.58-1.06,1.5-1.26,2.79Z"/>
    <path d="M468.25,489.01c-.38,0-.72-.15-1.01-.46-.29-.31-.44-.69-.44-1.14s.15-.83,.45-1.15c.3-.32,.64-.48,1.03-.48,.42,0,.76,.16,1.04,.48,.28,.32,.41,.7,.41,1.15s-.15,.83-.45,1.14-.64,.46-1.03,.46Z"/>
  </g>
</svg>