<?xml version="1.0" encoding="UTF-8"?>
<svg id="lose" xmlns="http://www.w3.org/2000/svg" viewBox="0 0 800 600">
  <defs>
    <style>
      .cls-1 {
        fill: #fff;
        opacity: .85;
      }
    </style>
  </defs>
  <rect class="cls-1" x="136.62" y="120.07" width="532.45" height="334.32" rx="40" ry="40"/>
  <g>
    <path d="M208.69,263.28v-.83c.63-.03,1.06-.18,1.29-.45,.23-.27,.35-.63,.38-1.09,.03-.46,.04-.97,.04-1.54l.02-2.85-4.35-6.88c-.42-.67-.73-1.23-.94-1.68-.21-.45-.35-.83-.41-1.15-.27,.02-.53,.03-.78,.03s-.51,0-.78,.03v-1.1h6.45v.82c-.77,0-1.3,.12-1.6,.35-.3,.23-.41,.55-.34,.96s.28,.88,.61,1.41l2,3.15c.15,.23,.31,.47,.48,.72,.17,.25,.34,.5,.51,.76,.17,.26,.36,.53,.56,.81h.05c.18-.37,.37-.72,.55-1.06s.36-.67,.53-.99l2.12-4.03c.08-.17,.19-.36,.31-.59s.26-.46,.41-.7c.15-.24,.31-.45,.47-.61-.32,.02-.64,.03-.97,.04-.33,0-.67,.02-1,.04v-1.1h5.1v.82c-.82,.05-1.49,.33-2.01,.85-.53,.52-1.08,1.31-1.66,2.38-.57,1.07-1.11,2.09-1.64,3.08-.52,.98-1.03,1.94-1.51,2.88,0,.3,0,.7-.01,1.2,0,.5-.01,1-.01,1.51v1.81c0,.45,0,.84-.01,1.16,0,.32-.03,.6-.06,.81,.35-.02,.7-.03,1.04-.05,.34-.02,.69-.03,1.04-.05v1.1h-5.88Z"/>
    <path d="M224.72,263.68c-1.17,0-2.22-.27-3.17-.81s-1.7-1.29-2.26-2.25-.84-2.05-.84-3.29c0-1.32,.27-2.5,.82-3.55,.55-1.05,1.3-1.88,2.25-2.49,.95-.61,2.02-.91,3.2-.91s2.23,.28,3.17,.84c.95,.56,1.71,1.31,2.28,2.26,.57,.95,.85,2.03,.85,3.25,0,1.28-.28,2.46-.84,3.51-.56,1.06-1.31,1.9-2.26,2.51-.95,.62-2.02,.92-3.2,.92Zm.2-1c.88,0,1.58-.25,2.1-.75s.89-1.15,1.11-1.95c.22-.8,.34-1.64,.34-2.53,0-.75-.07-1.49-.21-2.21-.14-.73-.36-1.38-.66-1.98-.3-.59-.69-1.06-1.16-1.41-.48-.35-1.05-.53-1.71-.53-.87,0-1.58,.25-2.12,.75s-.95,1.15-1.21,1.95c-.26,.8-.39,1.66-.39,2.57,0,1.03,.14,2.01,.42,2.94,.28,.93,.72,1.68,1.3,2.26s1.32,.88,2.2,.88Z"/>
    <path d="M238.42,263.68c-.9,0-1.65-.17-2.26-.5s-1.07-.9-1.38-1.7c-.31-.8-.46-1.88-.46-3.25v-4.45c0-.27,0-.53,.01-.8,0-.27,.04-.54,.09-.82-.28,.02-.57,.03-.86,.04-.29,0-.58,.02-.86,.04v-1.03h.77c.72,0,1.24-.07,1.56-.21s.58-.3,.76-.46h.72v7.62c0,1.43,.2,2.5,.61,3.21,.41,.71,1.1,1.05,2.09,1.04,.63-.02,1.24-.21,1.81-.59s1.04-.82,1.39-1.34v-6.42c0-.4,0-.75,.03-1.04,.02-.29,.05-.58,.1-.86-.3,.02-.6,.03-.9,.04-.3,0-.6,.02-.9,.04v-1.03h.77c.72,0,1.24-.07,1.56-.21,.33-.14,.58-.3,.76-.46h.73l-.03,9.45c0,.27,0,.64-.03,1.12-.02,.48-.04,.89-.07,1.22,.3-.02,.6-.03,.9-.05,.3-.02,.6-.03,.9-.05v1.05h-3.58c-.05-.28-.09-.55-.11-.8-.03-.25-.05-.48-.06-.7-.52,.52-1.14,.96-1.88,1.34s-1.47,.56-2.2,.56Z"/>
    <path d="M259.76,263.68c-.83,0-1.57-.11-2.22-.34-.65-.23-1.18-.48-1.6-.76l.1,.88h-1.05l-.15-4.3h.78c.03,.68,.22,1.29,.58,1.84,.35,.54,.8,.96,1.35,1.26,.55,.3,1.14,.45,1.78,.45,.43,0,.86-.07,1.27-.21s.77-.36,1.05-.65c.28-.29,.43-.66,.43-1.11s-.14-.85-.41-1.16c-.27-.31-.64-.58-1.09-.81-.45-.23-.93-.45-1.45-.65-.5-.2-1-.41-1.5-.62s-.96-.47-1.39-.78c-.42-.3-.76-.67-1.01-1.1s-.38-.97-.38-1.6c0-.35,.07-.73,.2-1.15,.13-.42,.36-.81,.67-1.19s.75-.68,1.3-.92c.55-.24,1.25-.36,2.1-.36,.45,0,.95,.07,1.5,.22s1.08,.43,1.6,.85l-.05-.95h1.05v4.38h-.8c-.03-.58-.17-1.15-.4-1.69s-.57-.99-1.02-1.35c-.45-.36-1.03-.54-1.75-.54-.77,0-1.37,.19-1.8,.58-.43,.38-.65,.82-.65,1.32s.16,.95,.49,1.29c.33,.34,.75,.64,1.26,.89s1.07,.49,1.65,.72c.63,.27,1.25,.56,1.85,.88s1.09,.71,1.47,1.19c.38,.47,.58,1.09,.58,1.84,0,.83-.21,1.53-.64,2.07-.42,.55-.97,.96-1.62,1.21s-1.35,.39-2.06,.39Z"/>
    <path d="M274.24,262.53c.52,0,.88-.13,1.08-.39,.2-.26,.32-.62,.35-1.07s.05-.99,.05-1.59v-3.5c0-1.43-.23-2.51-.69-3.22-.46-.72-1.18-1.07-2.16-1.05-.62,.02-1.22,.17-1.81,.45s-1.07,.65-1.44,1.1v7.38c0,.33,0,.63-.03,.89-.02,.26-.05,.53-.1,.81,.27-.02,.53-.03,.79-.04,.26,0,.52-.02,.79-.04v1.03h-5.1v-.75c.52,0,.88-.13,1.08-.39,.2-.26,.32-.62,.36-1.07,.04-.46,.06-.99,.06-1.59v-11.82c0-.27,0-.52,.01-.76,0-.24,.03-.53,.06-.86-.3,.02-.6,.03-.89,.05-.29,.02-.59,.03-.89,.05v-1.05c.73,0,1.3-.03,1.71-.1s.72-.15,.92-.25c.21-.1,.37-.21,.49-.32h.72v7.62c.37-.32,.78-.6,1.24-.84s.93-.44,1.42-.59c.49-.15,.97-.22,1.44-.22,1.45,0,2.5,.45,3.14,1.36,.64,.91,.97,2.32,.99,4.24l.03,4.65c0,.33,0,.63-.01,.89,0,.26-.04,.53-.09,.81,.27-.02,.53-.03,.79-.04,.26,0,.52-.02,.79-.04v1.03h-5.1v-.75Z"/>
    <path d="M287.39,263.68c-1.17,0-2.22-.27-3.17-.81s-1.7-1.29-2.26-2.25-.84-2.05-.84-3.29c0-1.32,.27-2.5,.82-3.55,.55-1.05,1.3-1.88,2.25-2.49,.95-.61,2.02-.91,3.2-.91s2.23,.28,3.17,.84c.95,.56,1.71,1.31,2.28,2.26,.57,.95,.85,2.03,.85,3.25,0,1.28-.28,2.46-.84,3.51-.56,1.06-1.31,1.9-2.26,2.51-.95,.62-2.02,.92-3.2,.92Zm.2-1c.88,0,1.58-.25,2.1-.75s.89-1.15,1.11-1.95c.22-.8,.34-1.64,.34-2.53,0-.75-.07-1.49-.21-2.21-.14-.73-.36-1.38-.66-1.98-.3-.59-.69-1.06-1.16-1.41-.48-.35-1.05-.53-1.71-.53-.87,0-1.58,.25-2.12,.75s-.95,1.15-1.21,1.95c-.26,.8-.39,1.66-.39,2.57,0,1.03,.14,2.01,.42,2.94,.28,.93,.72,1.68,1.3,2.26s1.32,.88,2.2,.88Z"/>
    <path d="M301.09,263.68c-.9,0-1.65-.17-2.26-.5s-1.07-.9-1.38-1.7c-.31-.8-.46-1.88-.46-3.25v-4.45c0-.27,0-.53,.01-.8,0-.27,.04-.54,.09-.82-.28,.02-.57,.03-.86,.04-.29,0-.58,.02-.86,.04v-1.03h.77c.72,0,1.24-.07,1.56-.21s.58-.3,.76-.46h.72v7.62c0,1.43,.2,2.5,.61,3.21,.41,.71,1.1,1.05,2.09,1.04,.63-.02,1.24-.21,1.81-.59s1.04-.82,1.39-1.34v-6.42c0-.4,0-.75,.03-1.04,.02-.29,.05-.58,.1-.86-.3,.02-.6,.03-.9,.04-.3,0-.6,.02-.9,.04v-1.03h.77c.72,0,1.24-.07,1.56-.21,.33-.14,.58-.3,.76-.46h.73l-.03,9.45c0,.27,0,.64-.03,1.12-.02,.48-.04,.89-.07,1.22,.3-.02,.6-.03,.9-.05,.3-.02,.6-.03,.9-.05v1.05h-3.58c-.05-.28-.09-.55-.11-.8-.03-.25-.05-.48-.06-.7-.52,.52-1.14,.96-1.88,1.34s-1.47,.56-2.2,.56Z"/>
    <path d="M310.49,262.53c.52,0,.88-.13,1.08-.39,.2-.26,.32-.62,.35-1.07,.03-.46,.05-.99,.05-1.59v-11.82c0-.27,0-.52,.01-.76,0-.24,.03-.53,.06-.86-.3,.02-.6,.03-.89,.05-.29,.02-.59,.03-.89,.05v-1.05c.73,0,1.3-.03,1.71-.1,.41-.07,.72-.15,.92-.25,.21-.1,.37-.21,.49-.32h.72l.03,16.22c0,.33,0,.63-.03,.89-.02,.26-.05,.53-.1,.81,.27-.02,.53-.03,.79-.04,.26,0,.52-.02,.79-.04v1.03h-5.1v-.75Z"/>
    <path d="M322.89,263.68c-1.02,0-1.93-.25-2.75-.76-.82-.51-1.46-1.24-1.94-2.19-.48-.95-.71-2.07-.71-3.35,0-1.37,.28-2.58,.83-3.62,.55-1.05,1.31-1.88,2.29-2.47,.98-.6,2.08-.9,3.31-.9,.55,0,1.1,.07,1.64,.21,.54,.14,.97,.3,1.29,.49v-3.42c0-.27,0-.52,.01-.76,0-.24,.03-.53,.06-.86-.3,.02-.6,.03-.89,.05-.29,.02-.59,.03-.89,.05v-1.05c.73,0,1.3-.03,1.7-.1,.4-.07,.7-.15,.91-.25,.21-.1,.37-.21,.49-.32h.73v16.22c0,.27,0,.53-.03,.8s-.04,.57-.08,.9c.3-.02,.6-.03,.89-.05,.29-.02,.59-.03,.89-.05v1.05h-3.58c-.05-.25-.09-.48-.11-.69-.03-.21-.05-.41-.06-.61-.47,.52-1.04,.93-1.73,1.24-.68,.31-1.44,.46-2.27,.46Zm.9-1.23c.55,0,1.1-.16,1.66-.47,.56-.32,1.02-.71,1.39-1.17-.02-.2-.03-.41-.03-.64v-.74l.03-7.2c-.4-.3-.84-.52-1.31-.66-.48-.14-.96-.21-1.46-.21-.83,0-1.56,.24-2.17,.72-.62,.48-1.08,1.16-1.4,2.03-.32,.87-.46,1.88-.42,3.05,.03,1.02,.2,1.92,.49,2.72,.29,.8,.71,1.43,1.25,1.89,.54,.46,1.2,.69,1.99,.69Z"/>
    <path d="M345.16,263.68c-1.12,0-2.15-.25-3.09-.76s-1.69-1.24-2.25-2.2c-.56-.96-.84-2.11-.84-3.46,0-.87,.16-1.71,.47-2.53s.76-1.55,1.34-2.21c.57-.66,1.26-1.18,2.06-1.56,.8-.38,1.68-.57,2.65-.57s1.75,.14,2.44,.42c.69,.28,1.23,.66,1.61,1.12,.38,.47,.58,.98,.58,1.52,0,.37-.1,.68-.3,.94-.2,.26-.49,.39-.88,.39-.42,.02-.71-.11-.89-.39-.17-.27-.26-.52-.26-.74,0-.17,.03-.34,.08-.51,.05-.17,.15-.34,.3-.49-.13-.4-.37-.7-.7-.89-.33-.19-.68-.32-1.04-.38-.36-.06-.65-.09-.89-.09-1.13,0-2.09,.45-2.86,1.36-.77,.91-1.16,2.23-1.16,3.96,0,1.12,.18,2.11,.54,2.97,.36,.87,.86,1.55,1.51,2.04,.65,.49,1.4,.74,2.25,.74,.78,0,1.53-.21,2.25-.62s1.28-.93,1.67-1.53l.65,.5c-.43,.7-.95,1.27-1.56,1.7-.61,.43-1.23,.75-1.88,.95-.64,.2-1.25,.3-1.81,.3Z"/>
    <path d="M358.44,263.68c-1.17,0-2.22-.27-3.17-.81s-1.7-1.29-2.26-2.25-.84-2.05-.84-3.29c0-1.32,.27-2.5,.82-3.55,.55-1.05,1.3-1.88,2.25-2.49,.95-.61,2.02-.91,3.2-.91s2.23,.28,3.17,.84c.95,.56,1.71,1.31,2.28,2.26,.57,.95,.85,2.03,.85,3.25,0,1.28-.28,2.46-.84,3.51-.56,1.06-1.31,1.9-2.26,2.51-.95,.62-2.02,.92-3.2,.92Zm.2-1c.88,0,1.58-.25,2.1-.75s.89-1.15,1.11-1.95c.22-.8,.34-1.64,.34-2.53,0-.75-.07-1.49-.21-2.21-.14-.73-.36-1.38-.66-1.98-.3-.59-.69-1.06-1.16-1.41-.48-.35-1.05-.53-1.71-.53-.87,0-1.58,.25-2.12,.75s-.95,1.15-1.21,1.95c-.26,.8-.39,1.66-.39,2.57,0,1.03,.14,2.01,.42,2.94,.28,.93,.72,1.68,1.3,2.26s1.32,.88,2.2,.88Z"/>
    <path d="M366.86,263.28v-.75c.52,0,.88-.13,1.08-.39,.2-.26,.32-.62,.35-1.07,.03-.46,.05-.99,.05-1.59l.02-5.7c0-.27,0-.53,.01-.8,0-.27,.04-.54,.09-.82-.3,.02-.6,.03-.89,.05-.29,.02-.59,.03-.89,.05v-1.05c.73,0,1.29-.03,1.66-.1s.65-.15,.84-.25,.33-.21,.45-.32h.72c.02,.12,.03,.25,.04,.4,0,.15,.02,.32,.04,.5,.02,.18,.03,.39,.03,.62,.37-.32,.77-.6,1.21-.85s.91-.45,1.4-.6c.49-.15,.98-.22,1.46-.22,1.45,0,2.51,.45,3.17,1.36,.67,.91,1,2.32,1,4.24v4.65c0,.33,0,.63-.01,.89,0,.26-.04,.53-.09,.81,.27-.02,.53-.03,.79-.04,.26,0,.52-.02,.79-.04v1.03h-5.1v-.75c.52,0,.88-.13,1.08-.39,.2-.26,.32-.62,.35-1.07s.05-.99,.05-1.59v-3.5c-.02-1.43-.25-2.52-.71-3.25-.46-.73-1.18-1.09-2.16-1.07-.6,.02-1.19,.17-1.76,.47-.57,.3-1.05,.68-1.44,1.15,.02,.13,.03,.28,.03,.45v.53l-.03,6.38c0,.33,0,.63-.01,.89,0,.26-.04,.53-.09,.81,.27-.02,.53-.03,.79-.04,.26,0,.52-.02,.79-.04v1.03h-5.1Z"/>
    <path d="M386.51,263.68c-.38,0-.77-.05-1.17-.16-.4-.11-.77-.32-1.11-.64-.34-.32-.61-.78-.81-1.39s-.3-1.41-.3-2.41l.05-7.25-1.92,.03v-1.07c.43-.02,.88-.18,1.32-.49,.45-.31,.85-.73,1.21-1.26s.6-1.12,.74-1.75h.85v3.5h4.2v.97l-4.2,.05-.05,6.95c0,.75,.06,1.39,.19,1.91s.33,.92,.61,1.19c.28,.27,.65,.4,1.1,.4s.9-.13,1.31-.4c.41-.27,.77-.63,1.09-1.1l.67,.55c-.37,.55-.73,.98-1.09,1.3s-.7,.55-1.04,.71c-.33,.16-.64,.26-.92,.3-.28,.04-.53,.06-.73,.06Z"/>
    <path d="M391.49,262.53c.52,0,.88-.13,1.08-.39,.2-.26,.32-.62,.35-1.07,.03-.46,.05-.99,.05-1.59v-5.7c0-.27,0-.52,.02-.76,.02-.24,.04-.53,.08-.86-.3,.02-.6,.03-.89,.05-.29,.02-.59,.03-.89,.05v-1.05c.73,0,1.3-.03,1.7-.1,.4-.07,.7-.15,.91-.25,.21-.1,.37-.21,.49-.32h.72v10.1c0,.33,0,.63-.01,.89,0,.26-.04,.53-.09,.81,.27-.02,.53-.03,.79-.04,.26,0,.52-.02,.79-.04v1.03h-5.1v-.75Zm2.43-14.48c-.35,0-.66-.14-.93-.42s-.4-.63-.4-1.05,.14-.77,.41-1.06c.28-.29,.59-.44,.94-.44,.38,0,.7,.15,.96,.44,.26,.29,.39,.65,.39,1.06s-.14,.77-.41,1.05c-.27,.28-.6,.42-.96,.42Z"/>
    <path d="M398.51,263.28v-.75c.52,0,.88-.13,1.08-.39,.2-.26,.32-.62,.35-1.07,.03-.46,.05-.99,.05-1.59l.02-5.7c0-.27,0-.53,.01-.8,0-.27,.04-.54,.09-.82-.3,.02-.6,.03-.89,.05-.29,.02-.59,.03-.89,.05v-1.05c.73,0,1.29-.03,1.66-.1s.65-.15,.84-.25,.33-.21,.45-.32h.72c.02,.12,.03,.25,.04,.4,0,.15,.02,.32,.04,.5,.02,.18,.03,.39,.03,.62,.37-.32,.77-.6,1.21-.85s.91-.45,1.4-.6c.49-.15,.98-.22,1.46-.22,1.45,0,2.51,.45,3.17,1.36,.67,.91,1,2.32,1,4.24v4.65c0,.33,0,.63-.01,.89,0,.26-.04,.53-.09,.81,.27-.02,.53-.03,.79-.04,.26,0,.52-.02,.79-.04v1.03h-5.1v-.75c.52,0,.88-.13,1.08-.39,.2-.26,.32-.62,.35-1.07s.05-.99,.05-1.59v-3.5c-.02-1.43-.25-2.52-.71-3.25-.46-.73-1.18-1.09-2.16-1.07-.6,.02-1.19,.17-1.76,.47-.57,.3-1.05,.68-1.44,1.15,.02,.13,.03,.28,.03,.45v.53l-.03,6.38c0,.33,0,.63-.01,.89,0,.26-.04,.53-.09,.81,.27-.02,.53-.03,.79-.04,.26,0,.52-.02,.79-.04v1.03h-5.1Z"/>
    <path d="M418.96,263.68c-.9,0-1.65-.17-2.26-.5s-1.07-.9-1.38-1.7c-.31-.8-.46-1.88-.46-3.25v-4.45c0-.27,0-.53,.01-.8,0-.27,.04-.54,.09-.82-.28,.02-.57,.03-.86,.04-.29,0-.58,.02-.86,.04v-1.03h.77c.72,0,1.24-.07,1.56-.21s.58-.3,.76-.46h.72v7.62c0,1.43,.2,2.5,.61,3.21,.41,.71,1.1,1.05,2.09,1.04,.63-.02,1.24-.21,1.81-.59s1.04-.82,1.39-1.34v-6.42c0-.4,0-.75,.03-1.04,.02-.29,.05-.58,.1-.86-.3,.02-.6,.03-.9,.04-.3,0-.6,.02-.9,.04v-1.03h.77c.72,0,1.24-.07,1.56-.21,.33-.14,.58-.3,.76-.46h.73l-.03,9.45c0,.27,0,.64-.03,1.12-.02,.48-.04,.89-.07,1.22,.3-.02,.6-.03,.9-.05,.3-.02,.6-.03,.9-.05v1.05h-3.58c-.05-.28-.09-.55-.11-.8-.03-.25-.05-.48-.06-.7-.52,.52-1.14,.96-1.88,1.34s-1.47,.56-2.2,.56Z"/>
    <path d="M434.66,263.68c-1.15,0-2.19-.27-3.11-.81-.92-.54-1.65-1.31-2.19-2.3s-.8-2.16-.8-3.51c0-1.17,.26-2.26,.79-3.27,.52-1.02,1.26-1.84,2.21-2.46s2.05-.94,3.3-.94c.7,0,1.35,.11,1.96,.34,.61,.22,1.15,.57,1.61,1.02s.83,1.03,1.1,1.73c.27,.69,.4,1.5,.4,2.44l-8.8,.15c0,1.27,.14,2.38,.41,3.34,.28,.96,.72,1.7,1.34,2.23,.62,.52,1.41,.79,2.38,.79,.52,0,1.05-.09,1.59-.28,.54-.18,1.04-.43,1.51-.75s.84-.67,1.12-1.05l.6,.5c-.45,.7-.99,1.26-1.62,1.68-.63,.42-1.28,.72-1.95,.9-.67,.18-1.28,.27-1.85,.27Zm-3.45-8.67h6.38c0-.6-.09-1.18-.26-1.74-.17-.56-.46-1.02-.86-1.38-.4-.36-.92-.54-1.58-.54-.97,0-1.77,.29-2.41,.86-.64,.57-1.06,1.5-1.26,2.79Z"/>
    <path d="M448.74,262.53c.52,0,.88-.13,1.08-.39,.2-.26,.32-.62,.35-1.07,.03-.46,.05-.99,.05-1.59v-5.7c0-.27,0-.52,.02-.76,.02-.24,.04-.53,.08-.86-.3,.02-.6,.03-.89,.05-.29,.02-.59,.03-.89,.05v-1.05c.73,0,1.3-.03,1.7-.1,.4-.07,.7-.15,.91-.25,.21-.1,.37-.21,.49-.32h.72v10.1c0,.33,0,.63-.01,.89,0,.26-.04,.53-.09,.81,.27-.02,.53-.03,.79-.04,.26,0,.52-.02,.79-.04v1.03h-5.1v-.75Zm2.43-14.48c-.35,0-.66-.14-.93-.42s-.4-.63-.4-1.05,.14-.77,.41-1.06c.28-.29,.59-.44,.94-.44,.38,0,.7,.15,.96,.44,.26,.29,.39,.65,.39,1.06s-.14,.77-.41,1.05c-.27,.28-.6,.42-.96,.42Z"/>
    <path d="M455.76,263.28v-.75c.52,0,.88-.13,1.08-.39,.2-.26,.32-.62,.35-1.07,.03-.46,.05-.99,.05-1.59l.02-5.7c0-.27,0-.53,.01-.8,0-.27,.04-.54,.09-.82-.3,.02-.6,.03-.89,.05-.29,.02-.59,.03-.89,.05v-1.05c.73,0,1.29-.03,1.66-.1s.65-.15,.84-.25,.33-.21,.45-.32h.72c.02,.12,.03,.25,.04,.4,0,.15,.02,.32,.04,.5,.02,.18,.03,.39,.03,.62,.37-.32,.77-.6,1.21-.85s.91-.45,1.4-.6c.49-.15,.98-.22,1.46-.22,1.45,0,2.51,.45,3.17,1.36,.67,.91,1,2.32,1,4.24v4.65c0,.33,0,.63-.01,.89,0,.26-.04,.53-.09,.81,.27-.02,.53-.03,.79-.04,.26,0,.52-.02,.79-.04v1.03h-5.1v-.75c.52,0,.88-.13,1.08-.39,.2-.26,.32-.62,.35-1.07s.05-.99,.05-1.59v-3.5c-.02-1.43-.25-2.52-.71-3.25-.46-.73-1.18-1.09-2.16-1.07-.6,.02-1.19,.17-1.76,.47-.57,.3-1.05,.68-1.44,1.15,.02,.13,.03,.28,.03,.45v.53l-.03,6.38c0,.33,0,.63-.01,.89,0,.26-.04,.53-.09,.81,.27-.02,.53-.03,.79-.04,.26,0,.52-.02,.79-.04v1.03h-5.1Z"/>
    <path d="M475.31,263.35l-3.57-8.15c-.27-.63-.48-1.17-.62-1.62-.15-.45-.25-.82-.31-1.12-.06-.3-.1-.54-.11-.72l-1.07,.08v-1.02h4.6v.75c-.5,0-.82,.13-.96,.39-.14,.26-.16,.6-.06,1.03,.1,.42,.25,.88,.45,1.36l1.92,4.4c.13,.28,.26,.58,.39,.89s.25,.63,.36,.96h.03c.08-.25,.18-.52,.29-.8s.2-.56,.29-.83l2-5.48c.13-.4,.27-.75,.42-1.05,.15-.3,.26-.53,.33-.68l-1.6,.08v-1.02h3.95v.75c-.37,0-.67,.12-.92,.38s-.49,.62-.71,1.12c-.22,.5-.49,1.12-.79,1.88l-3.28,8.45h-1Z"/>
    <path d="M489.11,263.68c-1.15,0-2.19-.27-3.11-.81-.92-.54-1.65-1.31-2.19-2.3s-.8-2.16-.8-3.51c0-1.17,.26-2.26,.79-3.27,.52-1.02,1.26-1.84,2.21-2.46s2.05-.94,3.3-.94c.7,0,1.35,.11,1.96,.34,.61,.22,1.15,.57,1.61,1.02s.83,1.03,1.1,1.73c.27,.69,.4,1.5,.4,2.44l-8.8,.15c0,1.27,.14,2.38,.41,3.34,.28,.96,.72,1.7,1.34,2.23,.62,.52,1.41,.79,2.38,.79,.52,0,1.05-.09,1.59-.28,.54-.18,1.04-.43,1.51-.75s.84-.67,1.12-1.05l.6,.5c-.45,.7-.99,1.26-1.62,1.68-.63,.42-1.28,.72-1.95,.9-.67,.18-1.28,.27-1.85,.27Zm-3.45-8.67h6.38c0-.6-.09-1.18-.26-1.74-.17-.56-.46-1.02-.86-1.38-.4-.36-.92-.54-1.58-.54-.97,0-1.77,.29-2.41,.86-.64,.57-1.06,1.5-1.26,2.79Z"/>
    <path d="M501.74,263.68c-.83,0-1.57-.11-2.22-.34-.65-.23-1.18-.48-1.6-.76l.1,.88h-1.05l-.15-4.3h.78c.03,.68,.22,1.29,.58,1.84,.35,.54,.8,.96,1.35,1.26,.55,.3,1.14,.45,1.78,.45,.43,0,.86-.07,1.27-.21s.77-.36,1.05-.65c.28-.29,.43-.66,.43-1.11s-.14-.85-.41-1.16c-.27-.31-.64-.58-1.09-.81-.45-.23-.93-.45-1.45-.65-.5-.2-1-.41-1.5-.62s-.96-.47-1.39-.78c-.42-.3-.76-.67-1.01-1.1s-.38-.97-.38-1.6c0-.35,.07-.73,.2-1.15,.13-.42,.36-.81,.67-1.19s.75-.68,1.3-.92c.55-.24,1.25-.36,2.1-.36,.45,0,.95,.07,1.5,.22s1.08,.43,1.6,.85l-.05-.95h1.05v4.38h-.8c-.03-.58-.17-1.15-.4-1.69s-.57-.99-1.02-1.35c-.45-.36-1.03-.54-1.75-.54-.77,0-1.37,.19-1.8,.58-.43,.38-.65,.82-.65,1.32s.16,.95,.49,1.29c.33,.34,.75,.64,1.26,.89s1.07,.49,1.65,.72c.63,.27,1.25,.56,1.85,.88s1.09,.71,1.47,1.19c.38,.47,.58,1.09,.58,1.84,0,.83-.21,1.53-.64,2.07-.42,.55-.97,.96-1.62,1.21s-1.35,.39-2.06,.39Z"/>
    <path d="M512.89,263.68c-.38,0-.77-.05-1.17-.16-.4-.11-.77-.32-1.11-.64-.34-.32-.61-.78-.81-1.39s-.3-1.41-.3-2.41l.05-7.25-1.92,.03v-1.07c.43-.02,.88-.18,1.32-.49,.45-.31,.85-.73,1.21-1.26s.6-1.12,.74-1.75h.85v3.5h4.2v.97l-4.2,.05-.05,6.95c0,.75,.06,1.39,.19,1.91s.33,.92,.61,1.19c.28,.27,.65,.4,1.1,.4s.9-.13,1.31-.4c.41-.27,.77-.63,1.09-1.1l.67,.55c-.37,.55-.73,.98-1.09,1.3s-.7,.55-1.04,.71c-.33,.16-.64,.26-.92,.3-.28,.04-.53,.06-.73,.06Z"/>
    <path d="M517.86,262.53c.52,0,.88-.13,1.08-.39,.2-.26,.32-.62,.35-1.07,.03-.46,.05-.99,.05-1.59v-5.7c0-.27,0-.52,.02-.76,.02-.24,.04-.53,.08-.86-.3,.02-.6,.03-.89,.05-.29,.02-.59,.03-.89,.05v-1.05c.73,0,1.3-.03,1.7-.1,.4-.07,.7-.15,.91-.25,.21-.1,.37-.21,.49-.32h.72v10.1c0,.33,0,.63-.01,.89,0,.26-.04,.53-.09,.81,.27-.02,.53-.03,.79-.04,.26,0,.52-.02,.79-.04v1.03h-5.1v-.75Zm2.43-14.48c-.35,0-.66-.14-.93-.42s-.4-.63-.4-1.05,.14-.77,.41-1.06c.28-.29,.59-.44,.94-.44,.38,0,.7,.15,.96,.44,.26,.29,.39,.65,.39,1.06s-.14,.77-.41,1.05c-.27,.28-.6,.42-.96,.42Z"/>
    <path d="M530.91,270.05c-1.5,0-2.71-.17-3.62-.5-.92-.33-1.58-.76-2-1.27-.42-.52-.62-1.05-.62-1.6,0-.52,.12-.97,.36-1.36,.24-.39,.54-.73,.9-1.01,.36-.28,.7-.49,1.04-.62-.53-.18-.95-.43-1.26-.74s-.46-.72-.46-1.24c0-.58,.23-1.13,.7-1.64,.47-.51,1.07-.82,1.8-.94-.77-.37-1.38-.88-1.84-1.53s-.69-1.41-.69-2.28c0-1,.26-1.87,.78-2.61,.52-.74,1.18-1.32,1.99-1.73,.81-.41,1.65-.61,2.51-.61,.55,0,1.1,.08,1.65,.24,.55,.16,1.06,.39,1.53,.69,.17-.47,.4-.88,.71-1.25,.31-.37,.66-.65,1.06-.86,.4-.21,.82-.31,1.25-.31s.76,.11,.99,.34,.34,.53,.34,.91c0,.12-.03,.26-.1,.42s-.18,.31-.34,.42c-.16,.12-.37,.18-.64,.18-.28,0-.52-.08-.7-.25-.18-.17-.3-.38-.35-.62-.42,.07-.74,.26-.97,.59s-.39,.68-.47,1.06c.4,.37,.72,.81,.96,1.33s.36,1.07,.36,1.65c0,.93-.25,1.77-.74,2.5-.49,.73-1.14,1.3-1.94,1.71-.8,.41-1.67,.61-2.6,.61-.32,0-.59-.02-.83-.06-.23-.04-.52-.06-.85-.06-.62,0-1.12,.15-1.5,.45-.38,.3-.52,.66-.4,1.08,.13,.4,.54,.65,1.22,.76,.68,.11,1.6,.19,2.75,.24,1.28,.05,2.38,.2,3.3,.45,.92,.25,1.62,.64,2.11,1.16,.49,.52,.74,1.24,.74,2.14,0,.67-.18,1.26-.54,1.79-.36,.53-.83,.96-1.43,1.31s-1.25,.62-1.97,.8c-.72,.18-1.45,.27-2.19,.27Zm-.03-.98c1.43,0,2.55-.27,3.35-.8,.8-.53,1.2-1.16,1.2-1.88,0-.62-.21-1.09-.62-1.41-.42-.33-.98-.55-1.7-.67-.72-.12-1.54-.2-2.48-.21-.45-.02-.89-.04-1.32-.06-.43-.03-.85-.07-1.25-.14-.45,.3-.8,.67-1.05,1.1s-.38,.89-.38,1.38c0,.82,.39,1.47,1.16,1.96,.77,.49,1.8,.74,3.09,.74Zm-.32-10.25c.62,0,1.13-.15,1.54-.45,.41-.3,.72-.71,.92-1.22,.21-.52,.31-1.1,.31-1.75,0-.73-.11-1.42-.33-2.05-.22-.63-.54-1.14-.96-1.53-.42-.38-.96-.57-1.61-.57-.9,0-1.6,.34-2.09,1.01-.49,.68-.74,1.51-.74,2.51,0,.8,.12,1.5,.35,2.11,.23,.61,.57,1.08,1.01,1.43s.97,.51,1.59,.51Z"/>
    <path d="M546.31,263.28c-.05-.28-.08-.53-.1-.75s-.04-.44-.07-.68c-.57,.57-1.18,1.01-1.84,1.34-.66,.32-1.35,.49-2.09,.49-1.27,0-2.21-.29-2.82-.86-.62-.58-.93-1.28-.93-2.11,0-.77,.24-1.43,.71-1.99s1.09-1.02,1.85-1.38c.76-.36,1.58-.62,2.48-.8,.89-.17,1.75-.25,2.59-.24v-1.55c0-.58-.05-1.13-.15-1.65-.1-.52-.32-.94-.65-1.28-.33-.33-.87-.51-1.6-.52-.48-.02-.98,.08-1.49,.27-.51,.2-.88,.54-1.11,1.03,.13,.13,.22,.29,.26,.46,.04,.17,.06,.34,.06,.49,0,.2-.08,.43-.25,.69s-.46,.38-.88,.36c-.35,0-.62-.12-.8-.36s-.28-.53-.28-.86c0-.57,.21-1.08,.64-1.53,.42-.45,1.01-.81,1.76-1.07,.75-.27,1.6-.4,2.55-.4,1.4,0,2.43,.37,3.1,1.11,.67,.74,.99,1.91,.97,3.51v1.86c0,.62,0,1.25-.01,1.88s-.01,1.25-.01,1.89c0,.27,0,.53-.02,.8s-.04,.57-.08,.9c.3-.02,.6-.03,.89-.05,.29-.02,.59-.03,.89-.05v1.05h-3.58Zm-.23-6.12c-.57,.02-1.16,.09-1.79,.21s-1.2,.31-1.72,.56c-.53,.25-.95,.58-1.28,.99s-.48,.9-.46,1.49c.03,.62,.24,1.08,.61,1.39s.82,.46,1.34,.46c.68,0,1.28-.13,1.79-.39,.51-.26,1.01-.62,1.51-1.09-.02-.18-.02-.38-.02-.6v-.67c0-.08,0-.35,.01-.8,0-.45,.01-.97,.01-1.55Z"/>
    <path d="M556.14,263.68c-.38,0-.77-.05-1.17-.16-.4-.11-.77-.32-1.11-.64-.34-.32-.61-.78-.81-1.39s-.3-1.41-.3-2.41l.05-7.25-1.92,.03v-1.07c.43-.02,.88-.18,1.32-.49,.45-.31,.85-.73,1.21-1.26s.6-1.12,.74-1.75h.85v3.5h4.2v.97l-4.2,.05-.05,6.95c0,.75,.06,1.39,.19,1.91s.33,.92,.61,1.19c.28,.27,.65,.4,1.1,.4s.9-.13,1.31-.4c.41-.27,.77-.63,1.09-1.1l.67,.55c-.37,.55-.73,.98-1.09,1.3s-.7,.55-1.04,.71c-.33,.16-.64,.26-.92,.3-.28,.04-.53,.06-.73,.06Z"/>
    <path d="M561.11,262.53c.52,0,.88-.13,1.08-.39,.2-.26,.32-.62,.35-1.07,.03-.46,.05-.99,.05-1.59v-5.7c0-.27,0-.52,.02-.76,.02-.24,.04-.53,.08-.86-.3,.02-.6,.03-.89,.05-.29,.02-.59,.03-.89,.05v-1.05c.73,0,1.3-.03,1.7-.1,.4-.07,.7-.15,.91-.25,.21-.1,.37-.21,.49-.32h.72v10.1c0,.33,0,.63-.01,.89,0,.26-.04,.53-.09,.81,.27-.02,.53-.03,.79-.04,.26,0,.52-.02,.79-.04v1.03h-5.1v-.75Zm2.43-14.48c-.35,0-.66-.14-.93-.42s-.4-.63-.4-1.05,.14-.77,.41-1.06c.28-.29,.59-.44,.94-.44,.38,0,.7,.15,.96,.44,.26,.29,.39,.65,.39,1.06s-.14,.77-.41,1.05c-.27,.28-.6,.42-.96,.42Z"/>
    <path d="M568.14,263.28v-.75c.52,0,.88-.13,1.08-.39,.2-.26,.32-.62,.35-1.07,.03-.46,.05-.99,.05-1.59l.02-5.7c0-.27,0-.53,.01-.8,0-.27,.04-.54,.09-.82-.3,.02-.6,.03-.89,.05-.29,.02-.59,.03-.89,.05v-1.05c.73,0,1.29-.03,1.66-.1s.65-.15,.84-.25,.33-.21,.45-.32h.72c.02,.12,.03,.25,.04,.4,0,.15,.02,.32,.04,.5,.02,.18,.03,.39,.03,.62,.37-.32,.77-.6,1.21-.85s.91-.45,1.4-.6c.49-.15,.98-.22,1.46-.22,1.45,0,2.51,.45,3.17,1.36,.67,.91,1,2.32,1,4.24v4.65c0,.33,0,.63-.01,.89,0,.26-.04,.53-.09,.81,.27-.02,.53-.03,.79-.04,.26,0,.52-.02,.79-.04v1.03h-5.1v-.75c.52,0,.88-.13,1.08-.39,.2-.26,.32-.62,.35-1.07s.05-.99,.05-1.59v-3.5c-.02-1.43-.25-2.52-.71-3.25-.46-.73-1.18-1.09-2.16-1.07-.6,.02-1.19,.17-1.76,.47-.57,.3-1.05,.68-1.44,1.15,.02,.13,.03,.28,.03,.45v.53l-.03,6.38c0,.33,0,.63-.01,.89,0,.26-.04,.53-.09,.81,.27-.02,.53-.03,.79-.04,.26,0,.52-.02,.79-.04v1.03h-5.1Z"/>
    <path d="M589.34,270.05c-1.5,0-2.71-.17-3.62-.5-.92-.33-1.58-.76-2-1.27-.42-.52-.62-1.05-.62-1.6,0-.52,.12-.97,.36-1.36,.24-.39,.54-.73,.9-1.01,.36-.28,.7-.49,1.04-.62-.53-.18-.95-.43-1.26-.74s-.46-.72-.46-1.24c0-.58,.23-1.13,.7-1.64,.47-.51,1.07-.82,1.8-.94-.77-.37-1.38-.88-1.84-1.53s-.69-1.41-.69-2.28c0-1,.26-1.87,.78-2.61,.52-.74,1.18-1.32,1.99-1.73,.81-.41,1.65-.61,2.51-.61,.55,0,1.1,.08,1.65,.24,.55,.16,1.06,.39,1.53,.69,.17-.47,.4-.88,.71-1.25,.31-.37,.66-.65,1.06-.86,.4-.21,.82-.31,1.25-.31s.76,.11,.99,.34,.34,.53,.34,.91c0,.12-.03,.26-.1,.42s-.18,.31-.34,.42c-.16,.12-.37,.18-.64,.18-.28,0-.52-.08-.7-.25-.18-.17-.3-.38-.35-.62-.42,.07-.74,.26-.97,.59s-.39,.68-.47,1.06c.4,.37,.72,.81,.96,1.33s.36,1.07,.36,1.65c0,.93-.25,1.77-.74,2.5-.49,.73-1.14,1.3-1.94,1.71-.8,.41-1.67,.61-2.6,.61-.32,0-.59-.02-.83-.06-.23-.04-.52-.06-.85-.06-.62,0-1.12,.15-1.5,.45-.38,.3-.52,.66-.4,1.08,.13,.4,.54,.65,1.22,.76,.68,.11,1.6,.19,2.75,.24,1.28,.05,2.38,.2,3.3,.45,.92,.25,1.62,.64,2.11,1.16,.49,.52,.74,1.24,.74,2.14,0,.67-.18,1.26-.54,1.79-.36,.53-.83,.96-1.43,1.31s-1.25,.62-1.97,.8c-.72,.18-1.45,.27-2.19,.27Zm-.03-.98c1.43,0,2.55-.27,3.35-.8,.8-.53,1.2-1.16,1.2-1.88,0-.62-.21-1.09-.62-1.41-.42-.33-.98-.55-1.7-.67-.72-.12-1.54-.2-2.48-.21-.45-.02-.89-.04-1.32-.06-.43-.03-.85-.07-1.25-.14-.45,.3-.8,.67-1.05,1.1s-.38,.89-.38,1.38c0,.82,.39,1.47,1.16,1.96,.77,.49,1.8,.74,3.09,.74Zm-.32-10.25c.62,0,1.13-.15,1.54-.45,.41-.3,.72-.71,.92-1.22,.21-.52,.31-1.1,.31-1.75,0-.73-.11-1.42-.33-2.05-.22-.63-.54-1.14-.96-1.53-.42-.38-.96-.57-1.61-.57-.9,0-1.6,.34-2.09,1.01-.49,.68-.74,1.51-.74,2.51,0,.8,.12,1.5,.35,2.11,.23,.61,.57,1.08,1.01,1.43s.97,.51,1.59,.51Z"/>
    <path d="M598.99,267.75l-.67-.5c.18-.23,.38-.57,.57-1,.2-.43,.36-.91,.49-1.44s.15-1.04,.09-1.54c-.12,.05-.22,.09-.33,.11-.1,.03-.2,.04-.3,.04-.32,0-.59-.12-.81-.35-.22-.23-.34-.52-.34-.88,0-.47,.14-.82,.41-1.07s.6-.38,.96-.38c.58,0,1.02,.22,1.32,.66,.3,.44,.45,.98,.45,1.61,0,.42-.08,.92-.24,1.52s-.38,1.19-.65,1.76c-.27,.57-.6,1.05-.96,1.44Z"/>
    <path d="M270.4,293.68c-.38,0-.77-.05-1.17-.16-.4-.11-.77-.32-1.11-.64-.34-.32-.61-.78-.81-1.39s-.3-1.41-.3-2.41l.05-7.25-1.92,.03v-1.07c.43-.02,.88-.18,1.32-.49,.45-.31,.85-.73,1.21-1.26s.6-1.12,.74-1.75h.85v3.5h4.2v.97l-4.2,.05-.05,6.95c0,.75,.06,1.39,.19,1.91s.33,.92,.61,1.19c.28,.27,.65,.4,1.1,.4s.9-.13,1.31-.4c.41-.27,.77-.63,1.09-1.1l.67,.55c-.37,.55-.73,.98-1.09,1.3s-.7,.55-1.04,.71c-.33,.16-.64,.26-.92,.3-.28,.04-.53,.06-.73,.06Z"/>
    <path d="M283.4,292.53c.52,0,.88-.13,1.08-.39,.2-.26,.32-.62,.35-1.07s.05-.99,.05-1.59v-3.5c0-1.43-.23-2.51-.69-3.22-.46-.72-1.18-1.07-2.16-1.05-.62,.02-1.22,.17-1.81,.45s-1.07,.65-1.44,1.1v7.38c0,.33,0,.63-.03,.89-.02,.26-.05,.53-.1,.81,.27-.02,.53-.03,.79-.04,.26,0,.52-.02,.79-.04v1.03h-5.1v-.75c.52,0,.88-.13,1.08-.39,.2-.26,.32-.62,.36-1.07,.04-.46,.06-.99,.06-1.59v-11.82c0-.27,0-.52,.01-.76,0-.24,.03-.53,.06-.86-.3,.02-.6,.03-.89,.05-.29,.02-.59,.03-.89,.05v-1.05c.73,0,1.3-.03,1.71-.1s.72-.15,.92-.25c.21-.1,.37-.21,.49-.32h.72v7.62c.37-.32,.78-.6,1.24-.84s.93-.44,1.42-.59c.49-.15,.97-.22,1.44-.22,1.45,0,2.5,.45,3.14,1.36,.64,.91,.97,2.32,.99,4.24l.03,4.65c0,.33,0,.63-.01,.89,0,.26-.04,.53-.09,.81,.27-.02,.53-.03,.79-.04,.26,0,.52-.02,.79-.04v1.03h-5.1v-.75Z"/>
    <path d="M297.95,293.28c-.05-.28-.08-.53-.1-.75s-.04-.44-.07-.68c-.57,.57-1.18,1.01-1.84,1.34-.66,.32-1.35,.49-2.09,.49-1.27,0-2.21-.29-2.82-.86-.62-.58-.93-1.28-.93-2.11,0-.77,.24-1.43,.71-1.99s1.09-1.02,1.85-1.38c.76-.36,1.58-.62,2.48-.8,.89-.17,1.75-.25,2.59-.24v-1.55c0-.58-.05-1.13-.15-1.65-.1-.52-.32-.94-.65-1.28-.33-.33-.87-.51-1.6-.52-.48-.02-.98,.08-1.49,.27-.51,.2-.88,.54-1.11,1.03,.13,.13,.22,.29,.26,.46,.04,.17,.06,.34,.06,.49,0,.2-.08,.43-.25,.69s-.46,.38-.88,.36c-.35,0-.62-.12-.8-.36s-.28-.53-.28-.86c0-.57,.21-1.08,.64-1.53,.42-.45,1.01-.81,1.76-1.07,.75-.27,1.6-.4,2.55-.4,1.4,0,2.43,.37,3.1,1.11,.67,.74,.99,1.91,.97,3.51v1.86c0,.62,0,1.25-.01,1.88s-.01,1.25-.01,1.89c0,.27,0,.53-.02,.8s-.04,.57-.08,.9c.3-.02,.6-.03,.89-.05,.29-.02,.59-.03,.89-.05v1.05h-3.58Zm-.23-6.12c-.57,.02-1.16,.09-1.79,.21s-1.2,.31-1.72,.56c-.53,.25-.95,.58-1.28,.99s-.48,.9-.46,1.49c.03,.62,.24,1.08,.61,1.39s.82,.46,1.34,.46c.68,0,1.28-.13,1.79-.39,.51-.26,1.01-.62,1.51-1.09-.02-.18-.02-.38-.02-.6v-.67c0-.08,0-.35,.01-.8,0-.45,.01-.97,.01-1.55Z"/>
    <path d="M307.78,293.68c-.38,0-.77-.05-1.17-.16-.4-.11-.77-.32-1.11-.64-.34-.32-.61-.78-.81-1.39s-.3-1.41-.3-2.41l.05-7.25-1.92,.03v-1.07c.43-.02,.88-.18,1.32-.49,.45-.31,.85-.73,1.21-1.26s.6-1.12,.74-1.75h.85v3.5h4.2v.97l-4.2,.05-.05,6.95c0,.75,.06,1.39,.19,1.91s.33,.92,.61,1.19c.28,.27,.65,.4,1.1,.4s.9-.13,1.31-.4c.41-.27,.77-.63,1.09-1.1l.67,.55c-.37,.55-.73,.98-1.09,1.3s-.7,.55-1.04,.71c-.33,.16-.64,.26-.92,.3-.28,.04-.53,.06-.73,.06Z"/>
    <path d="M313.58,281.28l-.67-.5c.18-.23,.38-.57,.58-1s.36-.91,.49-1.44c.12-.53,.15-1.04,.09-1.54-.12,.05-.23,.09-.33,.11-.1,.03-.2,.04-.3,.04-.32,0-.59-.12-.81-.35-.23-.23-.34-.53-.34-.88,0-.47,.14-.82,.41-1.07,.28-.25,.6-.38,.96-.38,.58,0,1.03,.22,1.33,.66s.45,.98,.45,1.61c0,.42-.08,.92-.24,1.52-.16,.6-.38,1.19-.65,1.76-.28,.57-.6,1.05-.96,1.44Z"/>
    <path d="M321.78,293.68c-.83,0-1.57-.11-2.22-.34-.65-.23-1.18-.48-1.6-.76l.1,.88h-1.05l-.15-4.3h.78c.03,.68,.22,1.29,.58,1.84,.35,.54,.8,.96,1.35,1.26,.55,.3,1.14,.45,1.78,.45,.43,0,.86-.07,1.27-.21s.77-.36,1.05-.65c.28-.29,.43-.66,.43-1.11s-.14-.85-.41-1.16c-.27-.31-.64-.58-1.09-.81-.45-.23-.93-.45-1.45-.65-.5-.2-1-.41-1.5-.62s-.96-.47-1.39-.78c-.42-.3-.76-.67-1.01-1.1s-.38-.97-.38-1.6c0-.35,.07-.73,.2-1.15,.13-.42,.36-.81,.67-1.19s.75-.68,1.3-.92c.55-.24,1.25-.36,2.1-.36,.45,0,.95,.07,1.5,.22s1.08,.43,1.6,.85l-.05-.95h1.05v4.38h-.8c-.03-.58-.17-1.15-.4-1.69s-.57-.99-1.02-1.35c-.45-.36-1.03-.54-1.75-.54-.77,0-1.37,.19-1.8,.58-.43,.38-.65,.82-.65,1.32s.16,.95,.49,1.29c.33,.34,.75,.64,1.26,.89s1.07,.49,1.65,.72c.63,.27,1.25,.56,1.85,.88s1.09,.71,1.47,1.19c.38,.47,.58,1.09,.58,1.84,0,.83-.21,1.53-.64,2.07-.42,.55-.97,.96-1.62,1.21s-1.35,.39-2.06,.39Z"/>
    <path d="M334.8,293.28v-.75c.52,0,.88-.13,1.08-.39,.2-.26,.32-.62,.35-1.07,.03-.46,.05-.99,.05-1.59l.02-5.7c0-.27,0-.53,.01-.8,0-.27,.04-.54,.09-.82-.3,.02-.6,.03-.89,.05-.29,.02-.59,.03-.89,.05v-1.05c.73,0,1.29-.03,1.66-.1s.65-.15,.84-.25,.33-.21,.45-.32h.72c.02,.12,.03,.25,.04,.4,0,.15,.02,.32,.04,.5,.02,.18,.03,.39,.03,.62,.37-.32,.77-.6,1.21-.85s.91-.45,1.4-.6c.49-.15,.98-.22,1.46-.22,1.45,0,2.51,.45,3.17,1.36,.67,.91,1,2.32,1,4.24v4.65c0,.33,0,.63-.01,.89,0,.26-.04,.53-.09,.81,.27-.02,.53-.03,.79-.04,.26,0,.52-.02,.79-.04v1.03h-5.1v-.75c.52,0,.88-.13,1.08-.39,.2-.26,.32-.62,.35-1.07s.05-.99,.05-1.59v-3.5c-.02-1.43-.25-2.52-.71-3.25-.46-.73-1.18-1.09-2.16-1.07-.6,.02-1.19,.17-1.76,.47-.57,.3-1.05,.68-1.44,1.15,.02,.13,.03,.28,.03,.45v.53l-.03,6.38c0,.33,0,.63-.01,.89,0,.26-.04,.53-.09,.81,.27-.02,.53-.03,.79-.04,.26,0,.52-.02,.79-.04v1.03h-5.1Z"/>
    <path d="M356.18,293.68c-1.17,0-2.22-.27-3.17-.81s-1.7-1.29-2.26-2.25-.84-2.05-.84-3.29c0-1.32,.27-2.5,.82-3.55,.55-1.05,1.3-1.88,2.25-2.49,.95-.61,2.02-.91,3.2-.91s2.23,.28,3.17,.84c.95,.56,1.71,1.31,2.28,2.26,.57,.95,.85,2.03,.85,3.25,0,1.28-.28,2.46-.84,3.51-.56,1.06-1.31,1.9-2.26,2.51-.95,.62-2.02,.92-3.2,.92Zm.2-1c.88,0,1.58-.25,2.1-.75s.89-1.15,1.11-1.95c.22-.8,.34-1.64,.34-2.53,0-.75-.07-1.49-.21-2.21-.14-.73-.36-1.38-.66-1.98-.3-.59-.69-1.06-1.16-1.41-.48-.35-1.05-.53-1.71-.53-.87,0-1.58,.25-2.12,.75s-.95,1.15-1.21,1.95c-.26,.8-.39,1.66-.39,2.57,0,1.03,.14,2.01,.42,2.94,.28,.93,.72,1.68,1.3,2.26s1.32,.88,2.2,.88Z"/>
    <path d="M369.3,293.68c-.38,0-.77-.05-1.17-.16-.4-.11-.77-.32-1.11-.64-.34-.32-.61-.78-.81-1.39s-.3-1.41-.3-2.41l.05-7.25-1.92,.03v-1.07c.43-.02,.88-.18,1.32-.49,.45-.31,.85-.73,1.21-1.26s.6-1.12,.74-1.75h.85v3.5h4.2v.97l-4.2,.05-.05,6.95c0,.75,.06,1.39,.19,1.91s.33,.92,.61,1.19c.28,.27,.65,.4,1.1,.4s.9-.13,1.31-.4c.41-.27,.77-.63,1.09-1.1l.67,.55c-.37,.55-.73,.98-1.09,1.3s-.7,.55-1.04,.71c-.33,.16-.64,.26-.92,.3-.28,.04-.53,.06-.73,.06Z"/>
    <path d="M385.55,293.68c-.38,0-.77-.05-1.17-.16-.4-.11-.77-.32-1.11-.64-.34-.32-.61-.78-.81-1.39s-.3-1.41-.3-2.41l.05-7.25-1.92,.03v-1.07c.43-.02,.88-.18,1.32-.49,.45-.31,.85-.73,1.21-1.26s.6-1.12,.74-1.75h.85v3.5h4.2v.97l-4.2,.05-.05,6.95c0,.75,.06,1.39,.19,1.91s.33,.92,.61,1.19c.28,.27,.65,.4,1.1,.4s.9-.13,1.31-.4c.41-.27,.77-.63,1.09-1.1l.67,.55c-.37,.55-.73,.98-1.09,1.3s-.7,.55-1.04,.71c-.33,.16-.64,.26-.92,.3-.28,.04-.53,.06-.73,.06Z"/>
    <path d="M398.55,292.53c.52,0,.88-.13,1.08-.39,.2-.26,.32-.62,.35-1.07s.05-.99,.05-1.59v-3.5c0-1.43-.23-2.51-.69-3.22-.46-.72-1.18-1.07-2.16-1.05-.62,.02-1.22,.17-1.81,.45s-1.07,.65-1.44,1.1v7.38c0,.33,0,.63-.03,.89-.02,.26-.05,.53-.1,.81,.27-.02,.53-.03,.79-.04,.26,0,.52-.02,.79-.04v1.03h-5.1v-.75c.52,0,.88-.13,1.08-.39,.2-.26,.32-.62,.36-1.07,.04-.46,.06-.99,.06-1.59v-11.82c0-.27,0-.52,.01-.76,0-.24,.03-.53,.06-.86-.3,.02-.6,.03-.89,.05-.29,.02-.59,.03-.89,.05v-1.05c.73,0,1.3-.03,1.71-.1s.72-.15,.92-.25c.21-.1,.37-.21,.49-.32h.72v7.62c.37-.32,.78-.6,1.24-.84s.93-.44,1.42-.59c.49-.15,.97-.22,1.44-.22,1.45,0,2.5,.45,3.14,1.36,.64,.91,.97,2.32,.99,4.24l.03,4.65c0,.33,0,.63-.01,.89,0,.26-.04,.53-.09,.81,.27-.02,.53-.03,.79-.04,.26,0,.52-.02,.79-.04v1.03h-5.1v-.75Z"/>
    <path d="M411.55,293.68c-1.15,0-2.19-.27-3.11-.81-.92-.54-1.65-1.31-2.19-2.3s-.8-2.16-.8-3.51c0-1.17,.26-2.26,.79-3.27,.52-1.02,1.26-1.84,2.21-2.46s2.05-.94,3.3-.94c.7,0,1.35,.11,1.96,.34,.61,.22,1.15,.57,1.61,1.02s.83,1.03,1.1,1.73c.27,.69,.4,1.5,.4,2.44l-8.8,.15c0,1.27,.14,2.38,.41,3.34,.28,.96,.72,1.7,1.34,2.23,.62,.52,1.41,.79,2.38,.79,.52,0,1.05-.09,1.59-.28,.54-.18,1.04-.43,1.51-.75s.84-.67,1.12-1.05l.6,.5c-.45,.7-.99,1.26-1.62,1.68-.63,.42-1.28,.72-1.95,.9-.67,.18-1.28,.27-1.85,.27Zm-3.45-8.67h6.38c0-.6-.09-1.18-.26-1.74-.17-.56-.46-1.02-.86-1.38-.4-.36-.92-.54-1.58-.54-.97,0-1.77,.29-2.41,.86-.64,.57-1.06,1.5-1.26,2.79Z"/>
    <path d="M425.62,293.28v-.75c.52,0,.88-.13,1.08-.39,.2-.26,.32-.62,.35-1.07,.03-.46,.05-.99,.05-1.59v-5.7c0-.27,0-.53,.01-.8,0-.27,.04-.54,.09-.82-.3,.02-.6,.03-.89,.05-.29,.02-.59,.03-.89,.05v-1.05c.73,0,1.29-.03,1.66-.1s.65-.15,.84-.25c.18-.1,.33-.21,.45-.32h.73c.03,.17,.05,.36,.06,.57,0,.22,.02,.47,.04,.75,.5-.43,1.08-.79,1.73-1.06,.65-.28,1.3-.41,1.95-.41,.83,0,1.53,.15,2.1,.45,.57,.3,1.01,.71,1.33,1.23,.57-.47,1.22-.86,1.96-1.19s1.47-.49,2.19-.49c1.45,0,2.52,.44,3.2,1.31s1.01,2.3,.97,4.29l-.02,4.65c0,.33,0,.63-.01,.89,0,.26-.04,.53-.09,.81,.27-.02,.53-.03,.79-.04,.26,0,.52-.02,.79-.04v1.03h-5.1v-.75c.52,0,.88-.13,1.08-.39,.2-.26,.32-.62,.35-1.07s.05-.99,.05-1.59v-3.5c0-1.43-.23-2.51-.69-3.22s-1.18-1.07-2.16-1.05c-.52,0-1.03,.12-1.55,.35-.52,.23-.97,.52-1.35,.88,.08,.27,.15,.55,.19,.86s.06,.63,.06,.96c-.02,.97-.02,1.94-.02,2.92s0,1.97-.03,2.95c0,.33,0,.63-.01,.89,0,.26-.04,.53-.09,.81,.27-.02,.53-.03,.79-.04,.26,0,.52-.02,.79-.04v1.03h-5.1v-.75c.52,0,.87-.13,1.06-.39,.19-.26,.31-.62,.35-1.07,.04-.46,.06-.99,.06-1.59l.03-3.5c.02-1.43-.19-2.52-.62-3.25-.43-.73-1.14-1.09-2.12-1.07-.52,0-1.03,.11-1.53,.34s-.92,.51-1.27,.86c0,.2,0,.41,.01,.64,0,.23,.01,.46,.01,.71v6.43c0,.33,0,.63-.01,.89,0,.26-.04,.53-.09,.81,.27-.02,.53-.03,.79-.04,.26,0,.52-.02,.79-.04v1.03h-5.1Z"/>
    <path d="M453.25,293.68c-.9,0-1.65-.17-2.26-.5s-1.07-.9-1.38-1.7c-.31-.8-.46-1.88-.46-3.25v-4.45c0-.27,0-.53,.01-.8,0-.27,.04-.54,.09-.82-.28,.02-.57,.03-.86,.04-.29,0-.58,.02-.86,.04v-1.03h.77c.72,0,1.24-.07,1.56-.21s.58-.3,.76-.46h.72v7.62c0,1.43,.2,2.5,.61,3.21,.41,.71,1.1,1.05,2.09,1.04,.63-.02,1.24-.21,1.81-.59s1.04-.82,1.39-1.34v-6.42c0-.4,0-.75,.03-1.04,.02-.29,.05-.58,.1-.86-.3,.02-.6,.03-.9,.04-.3,0-.6,.02-.9,.04v-1.03h.77c.72,0,1.24-.07,1.56-.21,.33-.14,.58-.3,.76-.46h.73l-.03,9.45c0,.27,0,.64-.03,1.12-.02,.48-.04,.89-.07,1.22,.3-.02,.6-.03,.9-.05,.3-.02,.6-.03,.9-.05v1.05h-3.58c-.05-.28-.09-.55-.11-.8-.03-.25-.05-.48-.06-.7-.52,.52-1.14,.96-1.88,1.34s-1.47,.56-2.2,.56Z"/>
    <path d="M462.9,292.53c.52,0,.88-.13,1.08-.39,.2-.26,.32-.62,.35-1.07,.03-.46,.05-.99,.05-1.59v-5.7c0-.27,0-.53,.01-.8,0-.27,.04-.54,.09-.82-.3,.02-.6,.03-.89,.04-.29,0-.59,.02-.89,.04v-1.03h.77c.72,0,1.21-.07,1.49-.21,.28-.14,.5-.3,.69-.46h.73c.03,.27,.06,.6,.08,.99,.02,.39,.03,.89,.05,1.49,.25-.42,.59-.83,1.02-1.22,.43-.4,.92-.73,1.46-1,.54-.27,1.11-.4,1.71-.4,.47,0,.88,.12,1.22,.38s.53,.65,.53,1.2c0,.13-.04,.3-.12,.49-.08,.19-.22,.36-.4,.5s-.42,.21-.72,.21c-.37-.02-.66-.16-.88-.44-.22-.28-.3-.6-.25-.96-.42-.02-.85,.09-1.29,.32-.44,.23-.85,.55-1.24,.96-.38,.41-.72,.89-1.03,1.44l.03,6.15c0,.33,0,.63-.01,.89,0,.26-.04,.53-.09,.81,.27-.02,.53-.03,.79-.04,.26,0,.52-.02,.79-.04v1.03h-5.12v-.75Z"/>
    <path d="M478.9,293.68c-1.02,0-1.93-.25-2.75-.76-.82-.51-1.46-1.24-1.94-2.19-.48-.95-.71-2.07-.71-3.35,0-1.37,.28-2.58,.83-3.62,.55-1.05,1.31-1.88,2.29-2.47,.98-.6,2.08-.9,3.31-.9,.55,0,1.1,.07,1.64,.21,.54,.14,.97,.3,1.29,.49v-3.42c0-.27,0-.52,.01-.76,0-.24,.03-.53,.06-.86-.3,.02-.6,.03-.89,.05-.29,.02-.59,.03-.89,.05v-1.05c.73,0,1.3-.03,1.7-.1,.4-.07,.7-.15,.91-.25,.21-.1,.37-.21,.49-.32h.73v16.22c0,.27,0,.53-.03,.8s-.04,.57-.08,.9c.3-.02,.6-.03,.89-.05,.29-.02,.59-.03,.89-.05v1.05h-3.58c-.05-.25-.09-.48-.11-.69-.03-.21-.05-.41-.06-.61-.47,.52-1.04,.93-1.73,1.24-.68,.31-1.44,.46-2.27,.46Zm.9-1.23c.55,0,1.1-.16,1.66-.47,.56-.32,1.02-.71,1.39-1.17-.02-.2-.03-.41-.03-.64v-.74l.03-7.2c-.4-.3-.84-.52-1.31-.66-.48-.14-.96-.21-1.46-.21-.83,0-1.56,.24-2.17,.72-.62,.48-1.08,1.16-1.4,2.03-.32,.87-.46,1.88-.42,3.05,.03,1.02,.2,1.92,.49,2.72,.29,.8,.71,1.43,1.25,1.89,.54,.46,1.2,.69,1.99,.69Z"/>
    <path d="M494.55,293.68c-1.15,0-2.19-.27-3.11-.81-.92-.54-1.65-1.31-2.19-2.3s-.8-2.16-.8-3.51c0-1.17,.26-2.26,.79-3.27,.52-1.02,1.26-1.84,2.21-2.46s2.05-.94,3.3-.94c.7,0,1.35,.11,1.96,.34,.61,.22,1.15,.57,1.61,1.02s.83,1.03,1.1,1.73c.27,.69,.4,1.5,.4,2.44l-8.8,.15c0,1.27,.14,2.38,.41,3.34,.28,.96,.72,1.7,1.34,2.23,.62,.52,1.41,.79,2.38,.79,.52,0,1.05-.09,1.59-.28,.54-.18,1.04-.43,1.51-.75s.84-.67,1.12-1.05l.6,.5c-.45,.7-.99,1.26-1.62,1.68-.63,.42-1.28,.72-1.95,.9-.67,.18-1.28,.27-1.85,.27Zm-3.45-8.67h6.38c0-.6-.09-1.18-.26-1.74-.17-.56-.46-1.02-.86-1.38-.4-.36-.92-.54-1.58-.54-.97,0-1.77,.29-2.41,.86-.64,.57-1.06,1.5-1.26,2.79Z"/>
    <path d="M502.05,292.53c.52,0,.88-.13,1.08-.39,.2-.26,.32-.62,.35-1.07,.03-.46,.05-.99,.05-1.59v-5.7c0-.27,0-.53,.01-.8,0-.27,.04-.54,.09-.82-.3,.02-.6,.03-.89,.04-.29,0-.59,.02-.89,.04v-1.03h.77c.72,0,1.21-.07,1.49-.21,.28-.14,.5-.3,.69-.46h.73c.03,.27,.06,.6,.08,.99,.02,.39,.03,.89,.05,1.49,.25-.42,.59-.83,1.02-1.22,.43-.4,.92-.73,1.46-1,.54-.27,1.11-.4,1.71-.4,.47,0,.88,.12,1.22,.38s.53,.65,.53,1.2c0,.13-.04,.3-.12,.49-.08,.19-.22,.36-.4,.5s-.42,.21-.72,.21c-.37-.02-.66-.16-.88-.44-.22-.28-.3-.6-.25-.96-.42-.02-.85,.09-1.29,.32-.44,.23-.85,.55-1.24,.96-.38,.41-.72,.89-1.03,1.44l.03,6.15c0,.33,0,.63-.01,.89,0,.26-.04,.53-.09,.81,.27-.02,.53-.03,.79-.04,.26,0,.52-.02,.79-.04v1.03h-5.12v-.75Z"/>
    <path d="M518.75,293.68c-1.15,0-2.19-.27-3.11-.81-.92-.54-1.65-1.31-2.19-2.3s-.8-2.16-.8-3.51c0-1.17,.26-2.26,.79-3.27,.52-1.02,1.26-1.84,2.21-2.46s2.05-.94,3.3-.94c.7,0,1.35,.11,1.96,.34,.61,.22,1.15,.57,1.61,1.02s.83,1.03,1.1,1.73c.27,.69,.4,1.5,.4,2.44l-8.8,.15c0,1.27,.14,2.38,.41,3.34,.28,.96,.72,1.7,1.34,2.23,.62,.52,1.41,.79,2.38,.79,.52,0,1.05-.09,1.59-.28,.54-.18,1.04-.43,1.51-.75s.84-.67,1.12-1.05l.6,.5c-.45,.7-.99,1.26-1.62,1.68-.63,.42-1.28,.72-1.95,.9-.67,.18-1.28,.27-1.85,.27Zm-3.45-8.67h6.38c0-.6-.09-1.18-.26-1.74-.17-.56-.46-1.02-.86-1.38-.4-.36-.92-.54-1.58-.54-.97,0-1.77,.29-2.41,.86-.64,.57-1.06,1.5-1.26,2.79Z"/>
    <path d="M526.25,292.53c.52,0,.88-.13,1.08-.39,.2-.26,.32-.62,.35-1.07,.03-.46,.05-.99,.05-1.59v-5.7c0-.27,0-.53,.01-.8,0-.27,.04-.54,.09-.82-.3,.02-.6,.03-.89,.04-.29,0-.59,.02-.89,.04v-1.03h.77c.72,0,1.21-.07,1.49-.21,.28-.14,.5-.3,.69-.46h.73c.03,.27,.06,.6,.08,.99,.02,.39,.03,.89,.05,1.49,.25-.42,.59-.83,1.02-1.22,.43-.4,.92-.73,1.46-1,.54-.27,1.11-.4,1.71-.4,.47,0,.88,.12,1.22,.38s.53,.65,.53,1.2c0,.13-.04,.3-.12,.49-.08,.19-.22,.36-.4,.5s-.42,.21-.72,.21c-.37-.02-.66-.16-.88-.44-.22-.28-.3-.6-.25-.96-.42-.02-.85,.09-1.29,.32-.44,.23-.85,.55-1.24,.96-.38,.41-.72,.89-1.03,1.44l.03,6.15c0,.33,0,.63-.01,.89,0,.26-.04,.53-.09,.81,.27-.02,.53-.03,.79-.04,.26,0,.52-.02,.79-.04v1.03h-5.12v-.75Z"/>
    <path d="M537.97,293.68c-.38,0-.72-.15-1.01-.46-.29-.31-.44-.69-.44-1.14s.15-.83,.45-1.15c.3-.32,.64-.48,1.03-.48,.42,0,.76,.16,1.04,.48,.28,.32,.41,.7,.41,1.15s-.15,.83-.45,1.14c-.3,.31-.64,.46-1.03,.46Z"/>
    <path d="M268.67,304.28l.62,.57c-.52,.68-.98,1.4-1.39,2.16-.41,.76-.76,1.54-1.06,2.35-.3,.81-.55,1.65-.74,2.51-.19,.87-.34,1.75-.44,2.66-.1,.91-.15,1.83-.15,2.76s.05,1.85,.15,2.74c.1,.89,.25,1.75,.44,2.59,.19,.83,.44,1.65,.74,2.44,.3,.79,.65,1.55,1.06,2.29s.87,1.44,1.39,2.12l-.62,.58c-.62-.57-1.26-1.29-1.92-2.16-.67-.88-1.28-1.87-1.85-2.99-.57-1.12-1.02-2.32-1.38-3.6-.35-1.28-.52-2.62-.52-4s.17-2.73,.52-4.05c.35-1.32,.81-2.55,1.38-3.7s1.18-2.17,1.85-3.08c.67-.9,1.31-1.63,1.92-2.2Z"/>
    <path d="M275.09,323.28v-.83c.63-.03,1.06-.18,1.29-.45,.23-.27,.35-.63,.38-1.09,.03-.46,.04-.97,.04-1.54l.02-2.85-4.35-6.88c-.42-.67-.73-1.23-.94-1.68-.21-.45-.35-.83-.41-1.15-.27,.02-.53,.03-.78,.03s-.51,0-.78,.03v-1.1h6.45v.82c-.77,0-1.3,.12-1.6,.35-.3,.23-.41,.55-.34,.96s.28,.88,.61,1.41l2,3.15c.15,.23,.31,.47,.48,.72,.17,.25,.34,.5,.51,.76,.17,.26,.36,.53,.56,.81h.05c.18-.37,.37-.72,.55-1.06s.36-.67,.53-.99l2.12-4.03c.08-.17,.19-.36,.31-.59s.26-.46,.41-.7c.15-.24,.31-.45,.47-.61-.32,.02-.64,.03-.97,.04-.33,0-.67,.02-1,.04v-1.1h5.1v.82c-.82,.05-1.49,.33-2.01,.85-.53,.52-1.08,1.31-1.66,2.38-.57,1.07-1.11,2.09-1.64,3.08-.52,.98-1.03,1.94-1.51,2.88,0,.3,0,.7-.01,1.2,0,.5-.01,1-.01,1.51v1.81c0,.45,0,.84-.01,1.16,0,.32-.03,.6-.06,.81,.35-.02,.7-.03,1.04-.05,.34-.02,.69-.03,1.04-.05v1.1h-5.88Z"/>
    <path d="M291.12,323.68c-1.17,0-2.22-.27-3.17-.81s-1.7-1.29-2.26-2.25-.84-2.05-.84-3.29c0-1.32,.27-2.5,.82-3.55,.55-1.05,1.3-1.88,2.25-2.49,.95-.61,2.02-.91,3.2-.91s2.23,.28,3.17,.84c.95,.56,1.71,1.31,2.28,2.26,.57,.95,.85,2.03,.85,3.25,0,1.28-.28,2.46-.84,3.51-.56,1.06-1.31,1.9-2.26,2.51-.95,.62-2.02,.92-3.2,.92Zm.2-1c.88,0,1.58-.25,2.1-.75s.89-1.15,1.11-1.95c.22-.8,.34-1.64,.34-2.53,0-.75-.07-1.49-.21-2.21-.14-.73-.36-1.38-.66-1.98-.3-.59-.69-1.06-1.16-1.41-.48-.35-1.05-.53-1.71-.53-.87,0-1.58,.25-2.12,.75s-.95,1.15-1.21,1.95c-.26,.8-.39,1.66-.39,2.57,0,1.03,.14,2.01,.42,2.94,.28,.93,.72,1.68,1.3,2.26s1.32,.88,2.2,.88Z"/>
    <path d="M304.82,323.68c-.9,0-1.65-.17-2.26-.5s-1.07-.9-1.38-1.7c-.31-.8-.46-1.88-.46-3.25v-4.45c0-.27,0-.53,.01-.8,0-.27,.04-.54,.09-.82-.28,.02-.57,.03-.86,.04-.29,0-.58,.02-.86,.04v-1.03h.77c.72,0,1.24-.07,1.56-.21s.58-.3,.76-.46h.72v7.62c0,1.43,.2,2.5,.61,3.21,.41,.71,1.1,1.05,2.09,1.04,.63-.02,1.24-.21,1.81-.59s1.04-.82,1.39-1.34v-6.42c0-.4,0-.75,.03-1.04,.02-.29,.05-.58,.1-.86-.3,.02-.6,.03-.9,.04-.3,0-.6,.02-.9,.04v-1.03h.77c.72,0,1.24-.07,1.56-.21,.33-.14,.58-.3,.76-.46h.73l-.03,9.45c0,.27,0,.64-.03,1.12-.02,.48-.04,.89-.07,1.22,.3-.02,.6-.03,.9-.05,.3-.02,.6-.03,.9-.05v1.05h-3.58c-.05-.28-.09-.55-.11-.8-.03-.25-.05-.48-.06-.7-.52,.52-1.14,.96-1.88,1.34s-1.47,.56-2.2,.56Z"/>
    <path d="M321.04,323.28v-.75c.52,0,.88-.13,1.08-.39,.2-.26,.32-.62,.35-1.07,.03-.46,.05-.99,.05-1.59v-5.7c0-.27,0-.53,.01-.8,0-.27,.04-.54,.09-.82-.3,.02-.6,.03-.89,.05-.29,.02-.59,.03-.89,.05v-1.05c.73,0,1.29-.03,1.66-.1s.65-.15,.84-.25c.18-.1,.33-.21,.45-.32h.73c.03,.17,.05,.36,.06,.57,0,.22,.02,.47,.04,.75,.5-.43,1.08-.79,1.73-1.06,.65-.28,1.3-.41,1.95-.41,.83,0,1.53,.15,2.1,.45,.57,.3,1.01,.71,1.33,1.23,.57-.47,1.22-.86,1.96-1.19s1.47-.49,2.19-.49c1.45,0,2.52,.44,3.2,1.31s1.01,2.3,.97,4.29l-.02,4.65c0,.33,0,.63-.01,.89,0,.26-.04,.53-.09,.81,.27-.02,.53-.03,.79-.04,.26,0,.52-.02,.79-.04v1.03h-5.1v-.75c.52,0,.88-.13,1.08-.39,.2-.26,.32-.62,.35-1.07s.05-.99,.05-1.59v-3.5c0-1.43-.23-2.51-.69-3.22s-1.18-1.07-2.16-1.05c-.52,0-1.03,.12-1.55,.35-.52,.23-.97,.52-1.35,.88,.08,.27,.15,.55,.19,.86s.06,.63,.06,.96c-.02,.97-.02,1.94-.02,2.92s0,1.97-.03,2.95c0,.33,0,.63-.01,.89,0,.26-.04,.53-.09,.81,.27-.02,.53-.03,.79-.04,.26,0,.52-.02,.79-.04v1.03h-5.1v-.75c.52,0,.87-.13,1.06-.39,.19-.26,.31-.62,.35-1.07,.04-.46,.06-.99,.06-1.59l.03-3.5c.02-1.43-.19-2.52-.62-3.25-.43-.73-1.14-1.09-2.12-1.07-.52,0-1.03,.11-1.53,.34s-.92,.51-1.27,.86c0,.2,0,.41,.01,.64,0,.23,.01,.46,.01,.71v6.43c0,.33,0,.63-.01,.89,0,.26-.04,.53-.09,.81,.27-.02,.53-.03,.79-.04,.26,0,.52-.02,.79-.04v1.03h-5.1Z"/>
    <path d="M343.39,322.53c.52,0,.88-.13,1.08-.39,.2-.26,.32-.62,.35-1.07,.03-.46,.05-.99,.05-1.59v-5.7c0-.27,0-.52,.02-.76,.02-.24,.04-.53,.08-.86-.3,.02-.6,.03-.89,.05-.29,.02-.59,.03-.89,.05v-1.05c.73,0,1.3-.03,1.7-.1,.4-.07,.7-.15,.91-.25,.21-.1,.37-.21,.49-.32h.72v10.1c0,.33,0,.63-.01,.89,0,.26-.04,.53-.09,.81,.27-.02,.53-.03,.79-.04,.26,0,.52-.02,.79-.04v1.03h-5.1v-.75Zm2.43-14.48c-.35,0-.66-.14-.93-.42s-.4-.63-.4-1.05,.14-.77,.41-1.06c.28-.29,.59-.44,.94-.44,.38,0,.7,.15,.96,.44,.26,.29,.39,.65,.39,1.06s-.14,.77-.41,1.05c-.27,.28-.6,.42-.96,.42Z"/>
    <path d="M355.54,323.68c-.83,0-1.57-.11-2.22-.34-.65-.23-1.18-.48-1.6-.76l.1,.88h-1.05l-.15-4.3h.78c.03,.68,.22,1.29,.58,1.84,.35,.54,.8,.96,1.35,1.26,.55,.3,1.14,.45,1.78,.45,.43,0,.86-.07,1.27-.21s.77-.36,1.05-.65c.28-.29,.43-.66,.43-1.11s-.14-.85-.41-1.16c-.27-.31-.64-.58-1.09-.81-.45-.23-.93-.45-1.45-.65-.5-.2-1-.41-1.5-.62s-.96-.47-1.39-.78c-.42-.3-.76-.67-1.01-1.1s-.38-.97-.38-1.6c0-.35,.07-.73,.2-1.15,.13-.42,.36-.81,.67-1.19s.75-.68,1.3-.92c.55-.24,1.25-.36,2.1-.36,.45,0,.95,.07,1.5,.22s1.08,.43,1.6,.85l-.05-.95h1.05v4.38h-.8c-.03-.58-.17-1.15-.4-1.69s-.57-.99-1.02-1.35c-.45-.36-1.03-.54-1.75-.54-.77,0-1.37,.19-1.8,.58-.43,.38-.65,.82-.65,1.32s.16,.95,.49,1.29c.33,.34,.75,.64,1.26,.89s1.07,.49,1.65,.72c.63,.27,1.25,.56,1.85,.88s1.09,.71,1.47,1.19c.38,.47,.58,1.09,.58,1.84,0,.83-.21,1.53-.64,2.07-.42,.55-.97,.96-1.62,1.21s-1.35,.39-2.06,.39Z"/>
    <path d="M367.11,323.68c-.83,0-1.57-.11-2.22-.34-.65-.23-1.18-.48-1.6-.76l.1,.88h-1.05l-.15-4.3h.78c.03,.68,.22,1.29,.58,1.84,.35,.54,.8,.96,1.35,1.26,.55,.3,1.14,.45,1.78,.45,.43,0,.86-.07,1.27-.21s.77-.36,1.05-.65c.28-.29,.43-.66,.43-1.11s-.14-.85-.41-1.16c-.27-.31-.64-.58-1.09-.81-.45-.23-.93-.45-1.45-.65-.5-.2-1-.41-1.5-.62s-.96-.47-1.39-.78c-.42-.3-.76-.67-1.01-1.1s-.38-.97-.38-1.6c0-.35,.07-.73,.2-1.15,.13-.42,.36-.81,.67-1.19s.75-.68,1.3-.92c.55-.24,1.25-.36,2.1-.36,.45,0,.95,.07,1.5,.22s1.08,.43,1.6,.85l-.05-.95h1.05v4.38h-.8c-.03-.58-.17-1.15-.4-1.69s-.57-.99-1.02-1.35c-.45-.36-1.03-.54-1.75-.54-.77,0-1.37,.19-1.8,.58-.43,.38-.65,.82-.65,1.32s.16,.95,.49,1.29c.33,.34,.75,.64,1.26,.89s1.07,.49,1.65,.72c.63,.27,1.25,.56,1.85,.88s1.09,.71,1.47,1.19c.38,.47,.58,1.09,.58,1.84,0,.83-.21,1.53-.64,2.07-.42,.55-.97,.96-1.62,1.21s-1.35,.39-2.06,.39Z"/>
    <path d="M379.66,323.68c-1.12,0-2.15-.25-3.09-.76s-1.69-1.24-2.25-2.2c-.56-.96-.84-2.11-.84-3.46,0-.87,.16-1.71,.47-2.53s.76-1.55,1.34-2.21c.57-.66,1.26-1.18,2.06-1.56,.8-.38,1.68-.57,2.65-.57s1.75,.14,2.44,.42c.69,.28,1.23,.66,1.61,1.12,.38,.47,.58,.98,.58,1.52,0,.37-.1,.68-.3,.94-.2,.26-.49,.39-.88,.39-.42,.02-.71-.11-.89-.39-.17-.27-.26-.52-.26-.74,0-.17,.03-.34,.08-.51,.05-.17,.15-.34,.3-.49-.13-.4-.37-.7-.7-.89-.33-.19-.68-.32-1.04-.38-.36-.06-.65-.09-.89-.09-1.13,0-2.09,.45-2.86,1.36-.77,.91-1.16,2.23-1.16,3.96,0,1.12,.18,2.11,.54,2.97,.36,.87,.86,1.55,1.51,2.04,.65,.49,1.4,.74,2.25,.74,.78,0,1.53-.21,2.25-.62s1.28-.93,1.67-1.53l.65,.5c-.43,.7-.95,1.27-1.56,1.7-.61,.43-1.23,.75-1.88,.95-.64,.2-1.25,.3-1.81,.3Z"/>
    <path d="M386.61,322.53c.52,0,.88-.13,1.08-.39,.2-.26,.32-.62,.35-1.07,.03-.46,.05-.99,.05-1.59v-11.82c0-.27,0-.52,.01-.76,0-.24,.03-.53,.06-.86-.3,.02-.6,.03-.89,.05-.29,.02-.59,.03-.89,.05v-1.05c.73,0,1.3-.03,1.71-.1,.41-.07,.72-.15,.92-.25,.21-.1,.37-.21,.49-.32h.72l.03,16.22c0,.33,0,.63-.03,.89-.02,.26-.05,.53-.1,.81,.27-.02,.53-.03,.79-.04,.26,0,.52-.02,.79-.04v1.03h-5.1v-.75Z"/>
    <path d="M393.66,322.53c.52,0,.88-.13,1.08-.39,.2-.26,.32-.62,.35-1.07,.03-.46,.05-.99,.05-1.59v-5.7c0-.27,0-.52,.02-.76,.02-.24,.04-.53,.08-.86-.3,.02-.6,.03-.89,.05-.29,.02-.59,.03-.89,.05v-1.05c.73,0,1.3-.03,1.7-.1,.4-.07,.7-.15,.91-.25,.21-.1,.37-.21,.49-.32h.72v10.1c0,.33,0,.63-.01,.89,0,.26-.04,.53-.09,.81,.27-.02,.53-.03,.79-.04,.26,0,.52-.02,.79-.04v1.03h-5.1v-.75Zm2.43-14.48c-.35,0-.66-.14-.93-.42s-.4-.63-.4-1.05,.14-.77,.41-1.06c.28-.29,.59-.44,.94-.44,.38,0,.7,.15,.96,.44,.26,.29,.39,.65,.39,1.06s-.14,.77-.41,1.05c-.27,.28-.6,.42-.96,.42Z"/>
    <path d="M406.79,323.68c-1.12,0-2.15-.25-3.09-.76s-1.69-1.24-2.25-2.2c-.56-.96-.84-2.11-.84-3.46,0-.87,.16-1.71,.47-2.53s.76-1.55,1.34-2.21c.57-.66,1.26-1.18,2.06-1.56,.8-.38,1.68-.57,2.65-.57s1.75,.14,2.44,.42c.69,.28,1.23,.66,1.61,1.12,.38,.47,.58,.98,.58,1.52,0,.37-.1,.68-.3,.94-.2,.26-.49,.39-.88,.39-.42,.02-.71-.11-.89-.39-.17-.27-.26-.52-.26-.74,0-.17,.03-.34,.08-.51,.05-.17,.15-.34,.3-.49-.13-.4-.37-.7-.7-.89-.33-.19-.68-.32-1.04-.38-.36-.06-.65-.09-.89-.09-1.13,0-2.09,.45-2.86,1.36-.77,.91-1.16,2.23-1.16,3.96,0,1.12,.18,2.11,.54,2.97,.36,.87,.86,1.55,1.51,2.04,.65,.49,1.4,.74,2.25,.74,.78,0,1.53-.21,2.25-.62s1.28-.93,1.67-1.53l.65,.5c-.43,.7-.95,1.27-1.56,1.7-.61,.43-1.23,.75-1.88,.95-.64,.2-1.25,.3-1.81,.3Z"/>
    <path d="M413.76,323.28v-.75c.52,0,.87-.13,1.06-.39,.19-.26,.3-.62,.34-1.07,.03-.46,.05-.99,.05-1.59l.02-11.82c0-.27,0-.52,.01-.76,0-.24,.03-.53,.06-.86-.3,.02-.6,.03-.89,.05-.29,.02-.59,.03-.89,.05v-1.05c.73,0,1.3-.03,1.7-.1,.4-.07,.7-.15,.91-.25,.21-.1,.37-.21,.49-.32h.72v11.82h1l3.05-3.2c.28-.28,.54-.54,.77-.76,.23-.22,.47-.41,.7-.56l-1.7,.08v-1h4.55v.75c-.57,.05-1.1,.23-1.59,.54-.49,.31-.94,.65-1.35,1.04-.41,.38-.76,.73-1.06,1.05l-1.95,2.05c.33,.15,.62,.34,.85,.58,.23,.23,.47,.49,.7,.77l1.77,2.27c.08,.1,.23,.29,.44,.58,.21,.28,.46,.59,.75,.92,.29,.33,.6,.62,.93,.85,.32,.23,.63,.35,.91,.35v.75h-2.28c-.47,0-.91-.24-1.32-.73-.42-.48-.86-1.02-1.33-1.62-.43-.6-.82-1.15-1.16-1.64-.34-.49-.65-.92-.92-1.29-.27-.37-.52-.65-.74-.85l-1.03,.05v3.43c0,.33,0,.63-.01,.89,0,.26-.04,.53-.09,.81,.27-.02,.53-.03,.8-.04,.27,0,.53-.02,.8-.04v1.03h-5.1Z"/>
    <path d="M433.29,323.68c-1.15,0-2.19-.27-3.11-.81-.92-.54-1.65-1.31-2.19-2.3s-.8-2.16-.8-3.51c0-1.17,.26-2.26,.79-3.27,.52-1.02,1.26-1.84,2.21-2.46s2.05-.94,3.3-.94c.7,0,1.35,.11,1.96,.34,.61,.22,1.15,.57,1.61,1.02s.83,1.03,1.1,1.73c.27,.69,.4,1.5,.4,2.44l-8.8,.15c0,1.27,.14,2.38,.41,3.34,.28,.96,.72,1.7,1.34,2.23,.62,.52,1.41,.79,2.38,.79,.52,0,1.05-.09,1.59-.28,.54-.18,1.04-.43,1.51-.75s.84-.67,1.12-1.05l.6,.5c-.45,.7-.99,1.26-1.62,1.68-.63,.42-1.28,.72-1.95,.9-.67,.18-1.28,.27-1.85,.27Zm-3.45-8.67h6.38c0-.6-.09-1.18-.26-1.74-.17-.56-.46-1.02-.86-1.38-.4-.36-.92-.54-1.58-.54-.97,0-1.77,.29-2.41,.86-.64,.57-1.06,1.5-1.26,2.79Z"/>
    <path d="M446.01,323.68c-1.02,0-1.93-.25-2.75-.76-.82-.51-1.46-1.24-1.94-2.19-.48-.95-.71-2.07-.71-3.35,0-1.37,.28-2.58,.83-3.62,.55-1.05,1.31-1.88,2.29-2.47,.98-.6,2.08-.9,3.31-.9,.55,0,1.1,.07,1.64,.21,.54,.14,.97,.3,1.29,.49v-3.42c0-.27,0-.52,.01-.76,0-.24,.03-.53,.06-.86-.3,.02-.6,.03-.89,.05-.29,.02-.59,.03-.89,.05v-1.05c.73,0,1.3-.03,1.7-.1,.4-.07,.7-.15,.91-.25,.21-.1,.37-.21,.49-.32h.73v16.22c0,.27,0,.53-.03,.8s-.04,.57-.08,.9c.3-.02,.6-.03,.89-.05,.29-.02,.59-.03,.89-.05v1.05h-3.58c-.05-.25-.09-.48-.11-.69-.03-.21-.05-.41-.06-.61-.47,.52-1.04,.93-1.73,1.24-.68,.31-1.44,.46-2.27,.46Zm.9-1.23c.55,0,1.1-.16,1.66-.47,.56-.32,1.02-.71,1.39-1.17-.02-.2-.03-.41-.03-.64v-.74l.03-7.2c-.4-.3-.84-.52-1.31-.66-.48-.14-.96-.21-1.46-.21-.83,0-1.56,.24-2.17,.72-.62,.48-1.08,1.16-1.4,2.03-.32,.87-.46,1.88-.42,3.05,.03,1.02,.2,1.92,.49,2.72,.29,.8,.71,1.43,1.25,1.89,.54,.46,1.2,.69,1.99,.69Z"/>
    <path d="M457.46,327.75l-.67-.5c.18-.23,.38-.57,.57-1,.2-.43,.36-.91,.49-1.44s.15-1.04,.09-1.54c-.12,.05-.22,.09-.33,.11-.1,.03-.2,.04-.3,.04-.32,0-.59-.12-.81-.35-.22-.23-.34-.52-.34-.88,0-.47,.14-.82,.41-1.07s.6-.38,.96-.38c.58,0,1.02,.22,1.32,.66,.3,.44,.45,.98,.45,1.61,0,.42-.08,.92-.24,1.52s-.38,1.19-.65,1.76c-.27,.57-.6,1.05-.96,1.44Z"/>
    <path d="M468.51,322.53c.52,0,.88-.13,1.08-.39,.2-.26,.32-.62,.35-1.07,.03-.46,.05-.99,.05-1.59v-5.7c0-.27,0-.53,.01-.8,0-.27,.04-.54,.09-.82-.3,.02-.6,.03-.89,.04-.29,0-.59,.02-.89,.04v-1.03h.77c.72,0,1.21-.07,1.49-.21,.28-.14,.5-.3,.69-.46h.73c.03,.27,.06,.6,.08,.99,.02,.39,.03,.89,.05,1.49,.25-.42,.59-.83,1.02-1.22,.43-.4,.92-.73,1.46-1,.54-.27,1.11-.4,1.71-.4,.47,0,.88,.12,1.22,.38s.53,.65,.53,1.2c0,.13-.04,.3-.12,.49-.08,.19-.22,.36-.4,.5s-.42,.21-.72,.21c-.37-.02-.66-.16-.88-.44-.22-.28-.3-.6-.25-.96-.42-.02-.85,.09-1.29,.32-.44,.23-.85,.55-1.24,.96-.38,.41-.72,.89-1.03,1.44l.03,6.15c0,.33,0,.63-.01,.89,0,.26-.04,.53-.09,.81,.27-.02,.53-.03,.79-.04,.26,0,.52-.02,.79-.04v1.03h-5.12v-.75Z"/>
    <path d="M479.34,322.53c.52,0,.88-.13,1.08-.39,.2-.26,.32-.62,.35-1.07,.03-.46,.05-.99,.05-1.59v-5.7c0-.27,0-.52,.02-.76,.02-.24,.04-.53,.08-.86-.3,.02-.6,.03-.89,.05-.29,.02-.59,.03-.89,.05v-1.05c.73,0,1.3-.03,1.7-.1,.4-.07,.7-.15,.91-.25,.21-.1,.37-.21,.49-.32h.72v10.1c0,.33,0,.63-.01,.89,0,.26-.04,.53-.09,.81,.27-.02,.53-.03,.79-.04,.26,0,.52-.02,.79-.04v1.03h-5.1v-.75Zm2.43-14.48c-.35,0-.66-.14-.93-.42s-.4-.63-.4-1.05,.14-.77,.41-1.06c.28-.29,.59-.44,.94-.44,.38,0,.7,.15,.96,.44,.26,.29,.39,.65,.39,1.06s-.14,.77-.41,1.05c-.27,.28-.6,.42-.96,.42Z"/>
    <path d="M492.39,330.05c-1.5,0-2.71-.17-3.62-.5-.92-.33-1.58-.76-2-1.27-.42-.52-.62-1.05-.62-1.6,0-.52,.12-.97,.36-1.36,.24-.39,.54-.73,.9-1.01,.36-.28,.7-.49,1.04-.62-.53-.18-.95-.43-1.26-.74s-.46-.72-.46-1.24c0-.58,.23-1.13,.7-1.64,.47-.51,1.07-.82,1.8-.94-.77-.37-1.38-.88-1.84-1.53s-.69-1.41-.69-2.28c0-1,.26-1.87,.78-2.61,.52-.74,1.18-1.32,1.99-1.73,.81-.41,1.65-.61,2.51-.61,.55,0,1.1,.08,1.65,.24,.55,.16,1.06,.39,1.53,.69,.17-.47,.4-.88,.71-1.25,.31-.37,.66-.65,1.06-.86,.4-.21,.82-.31,1.25-.31s.76,.11,.99,.34,.34,.53,.34,.91c0,.12-.03,.26-.1,.42s-.18,.31-.34,.42c-.16,.12-.37,.18-.64,.18-.28,0-.52-.08-.7-.25-.18-.17-.3-.38-.35-.62-.42,.07-.74,.26-.97,.59s-.39,.68-.47,1.06c.4,.37,.72,.81,.96,1.33s.36,1.07,.36,1.65c0,.93-.25,1.77-.74,2.5-.49,.73-1.14,1.3-1.94,1.71-.8,.41-1.67,.61-2.6,.61-.32,0-.59-.02-.83-.06-.23-.04-.52-.06-.85-.06-.62,0-1.12,.15-1.5,.45-.38,.3-.52,.66-.4,1.08,.13,.4,.54,.65,1.22,.76,.68,.11,1.6,.19,2.75,.24,1.28,.05,2.38,.2,3.3,.45,.92,.25,1.62,.64,2.11,1.16,.49,.52,.74,1.24,.74,2.14,0,.67-.18,1.26-.54,1.79-.36,.53-.83,.96-1.43,1.31s-1.25,.62-1.97,.8c-.72,.18-1.45,.27-2.19,.27Zm-.03-.98c1.43,0,2.55-.27,3.35-.8,.8-.53,1.2-1.16,1.2-1.88,0-.62-.21-1.09-.62-1.41-.42-.33-.98-.55-1.7-.67-.72-.12-1.54-.2-2.48-.21-.45-.02-.89-.04-1.32-.06-.43-.03-.85-.07-1.25-.14-.45,.3-.8,.67-1.05,1.1s-.38,.89-.38,1.38c0,.82,.39,1.47,1.16,1.96,.77,.49,1.8,.74,3.09,.74Zm-.32-10.25c.62,0,1.13-.15,1.54-.45,.41-.3,.72-.71,.92-1.22,.21-.52,.31-1.1,.31-1.75,0-.73-.11-1.42-.33-2.05-.22-.63-.54-1.14-.96-1.53-.42-.38-.96-.57-1.61-.57-.9,0-1.6,.34-2.09,1.01-.49,.68-.74,1.51-.74,2.51,0,.8,.12,1.5,.35,2.11,.23,.61,.57,1.08,1.01,1.43s.97,.51,1.59,.51Z"/>
    <path d="M508.81,322.53c.52,0,.88-.13,1.08-.39,.2-.26,.32-.62,.35-1.07s.05-.99,.05-1.59v-3.5c0-1.43-.23-2.51-.69-3.22-.46-.72-1.18-1.07-2.16-1.05-.62,.02-1.22,.17-1.81,.45s-1.07,.65-1.44,1.1v7.38c0,.33,0,.63-.03,.89-.02,.26-.05,.53-.1,.81,.27-.02,.53-.03,.79-.04,.26,0,.52-.02,.79-.04v1.03h-5.1v-.75c.52,0,.88-.13,1.08-.39,.2-.26,.32-.62,.36-1.07,.04-.46,.06-.99,.06-1.59v-11.82c0-.27,0-.52,.01-.76,0-.24,.03-.53,.06-.86-.3,.02-.6,.03-.89,.05-.29,.02-.59,.03-.89,.05v-1.05c.73,0,1.3-.03,1.71-.1s.72-.15,.92-.25c.21-.1,.37-.21,.49-.32h.72v7.62c.37-.32,.78-.6,1.24-.84s.93-.44,1.42-.59c.49-.15,.97-.22,1.44-.22,1.45,0,2.5,.45,3.14,1.36,.64,.91,.97,2.32,.99,4.24l.03,4.65c0,.33,0,.63-.01,.89,0,.26-.04,.53-.09,.81,.27-.02,.53-.03,.79-.04,.26,0,.52-.02,.79-.04v1.03h-5.1v-.75Z"/>
    <path d="M520.24,323.68c-.38,0-.77-.05-1.17-.16-.4-.11-.77-.32-1.11-.64-.34-.32-.61-.78-.81-1.39s-.3-1.41-.3-2.41l.05-7.25-1.92,.03v-1.07c.43-.02,.88-.18,1.32-.49,.45-.31,.85-.73,1.21-1.26s.6-1.12,.74-1.75h.85v3.5h4.2v.97l-4.2,.05-.05,6.95c0,.75,.06,1.39,.19,1.91s.33,.92,.61,1.19c.28,.27,.65,.4,1.1,.4s.9-.13,1.31-.4c.41-.27,.77-.63,1.09-1.1l.67,.55c-.37,.55-.73,.98-1.09,1.3s-.7,.55-1.04,.71c-.33,.16-.64,.26-.92,.3-.28,.04-.53,.06-.73,.06Z"/>
    <path d="M529.76,318.57c-.48,0-.94-.12-1.36-.38-.42-.25-.64-.68-.64-1.3,0-.37,.11-.71,.32-1.03s.5-.63,.86-.95c.36-.32,.73-.64,1.11-.98,.63-.53,1.22-1.14,1.75-1.81,.53-.67,.82-1.5,.85-2.46,.02-.62-.07-1.17-.25-1.67s-.5-.9-.95-1.2c-.45-.3-1.07-.45-1.85-.45-.47,0-.9,.09-1.31,.28s-.74,.41-.99,.69-.4,.55-.45,.81c.08,.13,.15,.28,.21,.45,.06,.17,.09,.34,.09,.53,0,.13-.04,.29-.12,.46-.08,.17-.21,.32-.38,.44s-.38,.17-.65,.17c-.37-.03-.64-.17-.81-.41-.18-.24-.26-.54-.26-.91,0-.48,.2-1,.61-1.54s.99-1,1.74-1.38,1.65-.56,2.7-.56c1.3,0,2.32,.22,3.06,.65,.74,.43,1.27,.98,1.58,1.65,.31,.67,.45,1.35,.41,2.05-.05,.68-.27,1.3-.66,1.86s-.86,1.07-1.41,1.54c-.55,.47-1.09,.9-1.62,1.3s-.98,.78-1.35,1.14c-.37,.36-.55,.7-.55,1.04,0,.2,.08,.39,.24,.56,.16,.18,.43,.26,.81,.26,.13,0,.28-.01,.45-.04,.17-.02,.33-.07,.47-.14l.3,.88c-.27,.15-.58,.26-.95,.34-.37,.07-.7,.11-1,.11Zm.15,5.1c-.33,0-.64-.13-.92-.39s-.42-.62-.42-1.09c0-.4,.14-.75,.42-1.04,.28-.29,.59-.44,.92-.44,.38,0,.7,.15,.96,.44,.26,.29,.39,.64,.39,1.04s-.13,.77-.39,1.05c-.26,.28-.58,.42-.96,.42Z"/>
    <path d="M537.04,330.05l-.62-.58c.52-.68,.98-1.4,1.39-2.16,.41-.76,.76-1.54,1.06-2.35,.3-.81,.54-1.65,.74-2.51,.19-.87,.34-1.75,.44-2.66,.1-.91,.15-1.83,.15-2.76s-.05-1.85-.15-2.74c-.1-.89-.25-1.75-.44-2.59-.19-.83-.44-1.64-.74-2.44-.3-.79-.65-1.55-1.06-2.29-.41-.73-.87-1.44-1.39-2.12l.62-.57c.62,.57,1.26,1.29,1.92,2.16,.67,.88,1.28,1.87,1.85,2.99s1.03,2.32,1.38,3.6c.35,1.28,.53,2.62,.53,4s-.17,2.73-.53,4.05c-.35,1.32-.81,2.55-1.38,3.7-.57,1.15-1.18,2.17-1.85,3.07-.67,.9-1.31,1.63-1.92,2.2Z"/>
  </g>
</svg>