<?xml version="1.0" encoding="UTF-8"?>
<svg id="droite" xmlns="http://www.w3.org/2000/svg" viewBox="0 0 800 600">
  <defs>
    <style>
      .cls-1 {
        fill: #577365;
      }

      .cls-2 {
        fill: #fff;
        opacity: .75;
      }

      .cls-3 {
        fill: #7c4a1a;
        opacity: .11;
      }

      .cls-4 {
        fill: #1d1d1b;
      }
    </style>
  </defs>
  <rect class="cls-2" x="133.78" y="45.26" width="532.45" height="474.53" rx="40" ry="40"/>
  <g>
    <path class="cls-4" d="M191.19,450.12c-.02-.98-.12-1.8-.3-2.45-.18-.65-.5-1.14-.96-1.46-.46-.32-1.12-.48-1.99-.46h-2.12l-.02,13.62c0,.45,0,.84-.01,1.16,0,.33-.03,.6-.06,.81,.35-.02,.7-.03,1.04-.05s.69-.03,1.04-.05v1.1h-5.88v-.83c.63-.03,1.06-.18,1.29-.45,.23-.27,.35-.63,.38-1.09,.03-.46,.04-.97,.04-1.54l.02-12.68-2.58,.03c-1.05,0-1.79,.35-2.22,1.05s-.65,1.79-.65,3.27h-.92l.15-5.27h14.58l.15,5.27h-.95Z"/>
    <path class="cls-4" d="M201.84,461.6c.52,0,.88-.13,1.08-.39,.2-.26,.32-.62,.35-1.07s.05-.99,.05-1.59v-3.5c0-1.43-.23-2.51-.69-3.23-.46-.72-1.18-1.07-2.16-1.05-.62,.02-1.22,.17-1.81,.45-.59,.28-1.07,.65-1.44,1.1v7.38c0,.33,0,.63-.03,.89-.02,.26-.05,.53-.1,.81,.27-.02,.53-.03,.79-.04,.26,0,.52-.02,.79-.04v1.02h-5.1v-.75c.52,0,.88-.13,1.08-.39,.2-.26,.32-.62,.36-1.07,.04-.46,.06-.99,.06-1.59v-11.83c0-.27,0-.52,.01-.76,0-.24,.03-.53,.06-.86-.3,.02-.6,.03-.89,.05-.29,.02-.59,.03-.89,.05v-1.05c.73,0,1.3-.03,1.71-.1s.72-.15,.92-.25c.21-.1,.37-.21,.49-.33h.72v7.62c.37-.32,.78-.6,1.24-.84s.93-.44,1.42-.59c.49-.15,.97-.23,1.44-.23,1.45,0,2.5,.45,3.14,1.36,.64,.91,.97,2.32,.99,4.24l.03,4.65c0,.33,0,.63-.01,.89,0,.26-.04,.53-.09,.81,.27-.02,.53-.03,.79-.04,.26,0,.52-.02,.79-.04v1.02h-5.1v-.75Z"/>
    <path class="cls-4" d="M214.84,462.75c-1.15,0-2.19-.27-3.11-.81-.92-.54-1.65-1.31-2.19-2.3s-.8-2.16-.8-3.51c0-1.17,.26-2.26,.79-3.27,.52-1.02,1.26-1.84,2.21-2.46s2.05-.94,3.3-.94c.7,0,1.35,.11,1.96,.34s1.15,.57,1.61,1.02c.47,.46,.83,1.03,1.1,1.73,.27,.69,.4,1.5,.4,2.44l-8.8,.15c0,1.27,.14,2.38,.41,3.34,.28,.96,.72,1.7,1.34,2.23,.62,.52,1.41,.79,2.38,.79,.52,0,1.05-.09,1.59-.27,.54-.18,1.04-.43,1.51-.75,.47-.32,.84-.67,1.12-1.05l.6,.5c-.45,.7-.99,1.26-1.62,1.68-.63,.42-1.28,.72-1.95,.9-.67,.18-1.28,.27-1.85,.27Zm-3.45-8.67h6.38c0-.6-.09-1.18-.26-1.74-.17-.56-.46-1.02-.86-1.38-.4-.36-.92-.54-1.58-.54-.97,0-1.77,.29-2.41,.86-.64,.58-1.06,1.5-1.26,2.79Z"/>
    <path class="cls-4" d="M222.34,461.6c.52,0,.88-.13,1.08-.39,.2-.26,.32-.62,.35-1.07,.03-.46,.05-.99,.05-1.59v-5.7c0-.27,0-.53,.01-.8,0-.27,.04-.54,.09-.83-.3,.02-.6,.03-.89,.04-.29,0-.59,.02-.89,.04v-1.03h.77c.72,0,1.21-.07,1.49-.21,.28-.14,.5-.3,.69-.46h.73c.03,.27,.06,.6,.08,.99,.02,.39,.03,.89,.05,1.49,.25-.42,.59-.83,1.02-1.23s.92-.73,1.46-1c.54-.27,1.11-.4,1.71-.4,.47,0,.88,.12,1.22,.38s.53,.65,.53,1.2c0,.13-.04,.3-.12,.49-.08,.19-.22,.36-.4,.5s-.42,.21-.72,.21c-.37-.02-.66-.16-.88-.44-.22-.27-.3-.6-.25-.96-.42-.02-.85,.09-1.29,.32-.44,.23-.85,.55-1.24,.96-.38,.41-.72,.89-1.03,1.44l.03,6.15c0,.33,0,.63-.01,.89,0,.26-.04,.53-.09,.81,.27-.02,.53-.03,.79-.04,.26,0,.52-.02,.79-.04v1.02h-5.12v-.75Z"/>
    <path class="cls-4" d="M239.04,462.75c-1.15,0-2.19-.27-3.11-.81-.92-.54-1.65-1.31-2.19-2.3s-.8-2.16-.8-3.51c0-1.17,.26-2.26,.79-3.27,.52-1.02,1.26-1.84,2.21-2.46s2.05-.94,3.3-.94c.7,0,1.35,.11,1.96,.34s1.15,.57,1.61,1.02c.47,.46,.83,1.03,1.1,1.73,.27,.69,.4,1.5,.4,2.44l-8.8,.15c0,1.27,.14,2.38,.41,3.34,.28,.96,.72,1.7,1.34,2.23,.62,.52,1.41,.79,2.38,.79,.52,0,1.05-.09,1.59-.27,.54-.18,1.04-.43,1.51-.75,.47-.32,.84-.67,1.12-1.05l.6,.5c-.45,.7-.99,1.26-1.62,1.68-.63,.42-1.28,.72-1.95,.9-.67,.18-1.28,.27-1.85,.27Zm-3.45-8.67h6.38c0-.6-.09-1.18-.26-1.74-.17-.56-.46-1.02-.86-1.38-.4-.36-.92-.54-1.58-.54-.97,0-1.77,.29-2.41,.86-.64,.58-1.06,1.5-1.26,2.79Z"/>
    <path class="cls-4" d="M260.72,462.35c-.05-.28-.08-.53-.1-.75-.02-.22-.04-.44-.07-.67-.57,.57-1.18,1.01-1.84,1.34-.66,.32-1.35,.49-2.09,.49-1.27,0-2.21-.29-2.82-.86-.62-.58-.93-1.28-.93-2.11,0-.77,.24-1.43,.71-1.99,.47-.56,1.09-1.02,1.85-1.38,.76-.36,1.58-.62,2.48-.8,.89-.18,1.75-.25,2.59-.24v-1.55c0-.58-.05-1.13-.15-1.65-.1-.52-.32-.94-.65-1.28-.33-.33-.87-.51-1.6-.52-.48-.02-.98,.08-1.49,.27-.51,.2-.88,.54-1.11,1.03,.13,.13,.22,.29,.26,.46,.04,.17,.06,.34,.06,.49,0,.2-.08,.43-.25,.69-.17,.26-.46,.38-.88,.36-.35,0-.62-.12-.8-.36-.18-.24-.28-.53-.28-.86,0-.57,.21-1.08,.64-1.52,.42-.45,1.01-.81,1.76-1.08s1.6-.4,2.55-.4c1.4,0,2.43,.37,3.1,1.11,.67,.74,.99,1.91,.97,3.51v1.86c0,.62,0,1.25-.01,1.88s-.01,1.25-.01,1.89c0,.27,0,.53-.02,.8-.02,.27-.04,.57-.08,.9,.3-.02,.6-.03,.89-.05,.29-.02,.59-.03,.89-.05v1.05h-3.58Zm-.23-6.12c-.57,.02-1.16,.09-1.79,.21s-1.2,.31-1.72,.56c-.53,.25-.95,.58-1.28,.99s-.48,.9-.46,1.49c.03,.62,.24,1.08,.61,1.39s.82,.46,1.34,.46c.68,0,1.28-.13,1.79-.39,.51-.26,1.01-.62,1.51-1.09-.02-.18-.02-.38-.02-.6v-.67c0-.08,0-.35,.01-.8,0-.45,.01-.97,.01-1.55Z"/>
    <path class="cls-4" d="M266.01,461.6c.52,0,.88-.13,1.08-.39,.2-.26,.32-.62,.35-1.07,.03-.46,.05-.99,.05-1.59v-5.7c0-.27,0-.53,.01-.8,0-.27,.04-.54,.09-.83-.3,.02-.6,.03-.89,.04-.29,0-.59,.02-.89,.04v-1.03h.77c.72,0,1.21-.07,1.49-.21,.28-.14,.5-.3,.69-.46h.73c.03,.27,.06,.6,.08,.99,.02,.39,.03,.89,.05,1.49,.25-.42,.59-.83,1.02-1.23s.92-.73,1.46-1c.54-.27,1.11-.4,1.71-.4,.47,0,.88,.12,1.22,.38s.53,.65,.53,1.2c0,.13-.04,.3-.12,.49-.08,.19-.22,.36-.4,.5s-.42,.21-.72,.21c-.37-.02-.66-.16-.88-.44-.22-.27-.3-.6-.25-.96-.42-.02-.85,.09-1.29,.32-.44,.23-.85,.55-1.24,.96-.38,.41-.72,.89-1.03,1.44l.03,6.15c0,.33,0,.63-.01,.89,0,.26-.04,.53-.09,.81,.27-.02,.53-.03,.79-.04,.26,0,.52-.02,.79-.04v1.02h-5.12v-.75Z"/>
    <path class="cls-4" d="M282.72,462.75c-1.15,0-2.19-.27-3.11-.81-.92-.54-1.65-1.31-2.19-2.3s-.8-2.16-.8-3.51c0-1.17,.26-2.26,.79-3.27,.52-1.02,1.26-1.84,2.21-2.46s2.05-.94,3.3-.94c.7,0,1.35,.11,1.96,.34s1.15,.57,1.61,1.02c.47,.46,.83,1.03,1.1,1.73,.27,.69,.4,1.5,.4,2.44l-8.8,.15c0,1.27,.14,2.38,.41,3.34,.28,.96,.72,1.7,1.34,2.23,.62,.52,1.41,.79,2.38,.79,.52,0,1.05-.09,1.59-.27,.54-.18,1.04-.43,1.51-.75,.47-.32,.84-.67,1.12-1.05l.6,.5c-.45,.7-.99,1.26-1.62,1.68-.63,.42-1.28,.72-1.95,.9-.67,.18-1.28,.27-1.85,.27Zm-3.45-8.67h6.38c0-.6-.09-1.18-.26-1.74-.17-.56-.46-1.02-.86-1.38-.4-.36-.92-.54-1.58-.54-.97,0-1.77,.29-2.41,.86-.64,.58-1.06,1.5-1.26,2.79Z"/>
    <path class="cls-4" d="M301.49,462.75c-.38,0-.77-.05-1.17-.16s-.77-.32-1.11-.64c-.34-.32-.61-.78-.81-1.39-.2-.61-.3-1.41-.3-2.41l.05-7.25-1.92,.03v-1.08c.43-.02,.88-.18,1.32-.49,.45-.31,.85-.73,1.21-1.26,.36-.53,.6-1.12,.74-1.75h.85v3.5h4.2v.98l-4.2,.05-.05,6.95c0,.75,.06,1.39,.19,1.91,.12,.52,.33,.92,.61,1.19,.28,.27,.65,.4,1.1,.4s.9-.13,1.31-.4,.77-.63,1.09-1.1l.67,.55c-.37,.55-.73,.98-1.09,1.3s-.7,.55-1.04,.71c-.33,.16-.64,.26-.92,.3-.28,.04-.53,.06-.73,.06Z"/>
    <path class="cls-4" d="M306.46,461.6c.52,0,.88-.13,1.08-.39,.2-.26,.32-.62,.35-1.07,.03-.46,.05-.99,.05-1.59v-5.7c0-.27,0-.53,.01-.8,0-.27,.04-.54,.09-.83-.3,.02-.6,.03-.89,.04-.29,0-.59,.02-.89,.04v-1.03h.77c.72,0,1.21-.07,1.49-.21,.28-.14,.5-.3,.69-.46h.73c.03,.27,.06,.6,.08,.99,.02,.39,.03,.89,.05,1.49,.25-.42,.59-.83,1.02-1.23s.92-.73,1.46-1c.54-.27,1.11-.4,1.71-.4,.47,0,.88,.12,1.22,.38s.53,.65,.53,1.2c0,.13-.04,.3-.12,.49-.08,.19-.22,.36-.4,.5s-.42,.21-.72,.21c-.37-.02-.66-.16-.88-.44-.22-.27-.3-.6-.25-.96-.42-.02-.85,.09-1.29,.32-.44,.23-.85,.55-1.24,.96-.38,.41-.72,.89-1.03,1.44l.03,6.15c0,.33,0,.63-.01,.89,0,.26-.04,.53-.09,.81,.27-.02,.53-.03,.79-.04,.26,0,.52-.02,.79-.04v1.02h-5.12v-.75Z"/>
    <path class="cls-4" d="M324.71,462.35c-.05-.28-.08-.53-.1-.75-.02-.22-.04-.44-.07-.67-.57,.57-1.18,1.01-1.84,1.34-.66,.32-1.35,.49-2.09,.49-1.27,0-2.21-.29-2.82-.86-.62-.58-.93-1.28-.93-2.11,0-.77,.24-1.43,.71-1.99,.47-.56,1.09-1.02,1.85-1.38,.76-.36,1.58-.62,2.48-.8,.89-.18,1.75-.25,2.59-.24v-1.55c0-.58-.05-1.13-.15-1.65-.1-.52-.32-.94-.65-1.28-.33-.33-.87-.51-1.6-.52-.48-.02-.98,.08-1.49,.27-.51,.2-.88,.54-1.11,1.03,.13,.13,.22,.29,.26,.46,.04,.17,.06,.34,.06,.49,0,.2-.08,.43-.25,.69-.17,.26-.46,.38-.88,.36-.35,0-.62-.12-.8-.36-.18-.24-.28-.53-.28-.86,0-.57,.21-1.08,.64-1.52,.42-.45,1.01-.81,1.76-1.08s1.6-.4,2.55-.4c1.4,0,2.43,.37,3.1,1.11,.67,.74,.99,1.91,.97,3.51v1.86c0,.62,0,1.25-.01,1.88s-.01,1.25-.01,1.89c0,.27,0,.53-.02,.8-.02,.27-.04,.57-.08,.9,.3-.02,.6-.03,.89-.05,.29-.02,.59-.03,.89-.05v1.05h-3.58Zm-.23-6.12c-.57,.02-1.16,.09-1.79,.21s-1.2,.31-1.72,.56c-.53,.25-.95,.58-1.28,.99s-.48,.9-.46,1.49c.03,.62,.24,1.08,.61,1.39s.82,.46,1.34,.46c.68,0,1.28-.13,1.79-.39,.51-.26,1.01-.62,1.51-1.09-.02-.18-.02-.38-.02-.6v-.67c0-.08,0-.35,.01-.8,0-.45,.01-.97,.01-1.55Z"/>
    <path class="cls-4" d="M336.11,462.75c-1.12,0-2.15-.25-3.09-.76-.94-.51-1.69-1.24-2.25-2.2-.56-.96-.84-2.11-.84-3.46,0-.87,.16-1.71,.47-2.52s.76-1.55,1.34-2.21c.57-.66,1.26-1.18,2.06-1.56,.8-.38,1.68-.57,2.65-.57s1.75,.14,2.44,.42c.69,.28,1.23,.66,1.61,1.12,.38,.47,.58,.98,.58,1.52,0,.37-.1,.68-.3,.94-.2,.26-.49,.39-.88,.39-.42,.02-.71-.11-.89-.39-.17-.27-.26-.52-.26-.74,0-.17,.03-.34,.08-.51,.05-.17,.15-.34,.3-.49-.13-.4-.37-.7-.7-.89-.33-.19-.68-.32-1.04-.38-.36-.06-.65-.09-.89-.09-1.13,0-2.09,.45-2.86,1.36-.77,.91-1.16,2.23-1.16,3.96,0,1.12,.18,2.11,.54,2.98s.86,1.55,1.51,2.04c.65,.49,1.4,.74,2.25,.74,.78,0,1.53-.21,2.25-.62s1.28-.93,1.67-1.52l.65,.5c-.43,.7-.95,1.27-1.56,1.7-.61,.43-1.23,.75-1.88,.95-.64,.2-1.25,.3-1.81,.3Z"/>
    <path class="cls-4" d="M349.24,462.75c-1.15,0-2.19-.27-3.11-.81-.92-.54-1.65-1.31-2.19-2.3s-.8-2.16-.8-3.51c0-1.17,.26-2.26,.79-3.27,.52-1.02,1.26-1.84,2.21-2.46s2.05-.94,3.3-.94c.7,0,1.35,.11,1.96,.34s1.15,.57,1.61,1.02c.47,.46,.83,1.03,1.1,1.73,.27,.69,.4,1.5,.4,2.44l-8.8,.15c0,1.27,.14,2.38,.41,3.34,.28,.96,.72,1.7,1.34,2.23,.62,.52,1.41,.79,2.38,.79,.52,0,1.05-.09,1.59-.27,.54-.18,1.04-.43,1.51-.75,.47-.32,.84-.67,1.12-1.05l.6,.5c-.45,.7-.99,1.26-1.62,1.68-.63,.42-1.28,.72-1.95,.9-.67,.18-1.28,.27-1.85,.27Zm-3.45-8.67h6.38c0-.6-.09-1.18-.26-1.74-.17-.56-.46-1.02-.86-1.38-.4-.36-.92-.54-1.58-.54-.97,0-1.77,.29-2.41,.86-.64,.58-1.06,1.5-1.26,2.79Z"/>
    <path class="cls-4" d="M361.86,462.75c-.83,0-1.57-.11-2.22-.34s-1.18-.48-1.6-.76l.1,.88h-1.05l-.15-4.3h.78c.03,.68,.22,1.3,.58,1.84,.35,.54,.8,.96,1.35,1.26,.55,.3,1.14,.45,1.78,.45,.43,0,.86-.07,1.27-.21,.42-.14,.77-.36,1.05-.65,.28-.29,.43-.66,.43-1.11s-.14-.85-.41-1.16c-.27-.31-.64-.58-1.09-.81-.45-.23-.93-.45-1.45-.65-.5-.2-1-.41-1.5-.62s-.96-.48-1.39-.78c-.42-.3-.76-.67-1.01-1.1s-.38-.97-.38-1.6c0-.35,.07-.73,.2-1.15,.13-.42,.36-.81,.67-1.19s.75-.68,1.3-.93c.55-.24,1.25-.36,2.1-.36,.45,0,.95,.07,1.5,.23,.55,.15,1.08,.43,1.6,.85l-.05-.95h1.05v4.38h-.8c-.03-.58-.17-1.15-.4-1.69s-.57-.99-1.02-1.35-1.03-.54-1.75-.54c-.77,0-1.37,.19-1.8,.58-.43,.38-.65,.82-.65,1.32s.16,.95,.49,1.29c.33,.34,.75,.64,1.26,.89s1.07,.49,1.65,.73c.63,.27,1.25,.56,1.85,.88s1.09,.71,1.47,1.19c.38,.47,.58,1.09,.58,1.84,0,.83-.21,1.52-.64,2.07-.42,.55-.97,.95-1.62,1.21-.66,.26-1.35,.39-2.06,.39Z"/>
    <path class="cls-4" d="M381.09,462.75c-1.17,0-2.22-.27-3.17-.81s-1.7-1.29-2.26-2.25c-.56-.96-.84-2.05-.84-3.29,0-1.32,.27-2.5,.82-3.55,.55-1.05,1.3-1.88,2.25-2.49,.95-.61,2.02-.91,3.2-.91s2.23,.28,3.17,.84c.95,.56,1.71,1.31,2.28,2.26,.57,.95,.85,2.03,.85,3.25,0,1.28-.28,2.45-.84,3.51-.56,1.06-1.31,1.9-2.26,2.51-.95,.62-2.02,.92-3.2,.92Zm.2-1c.88,0,1.58-.25,2.1-.75s.89-1.15,1.11-1.95c.22-.8,.34-1.64,.34-2.53,0-.75-.07-1.49-.21-2.21-.14-.73-.36-1.38-.66-1.98-.3-.59-.69-1.06-1.16-1.41-.48-.35-1.05-.53-1.71-.53-.87,0-1.58,.25-2.12,.75s-.95,1.15-1.21,1.95c-.26,.8-.39,1.66-.39,2.58,0,1.03,.14,2.01,.42,2.94,.28,.92,.72,1.68,1.3,2.26,.58,.58,1.32,.88,2.2,.88Z"/>
    <path class="cls-4" d="M390.96,449.32c0-1.85,.34-3.31,1.01-4.38,.67-1.07,1.84-1.6,3.49-1.6,.37,0,.75,.06,1.16,.19,.41,.12,.76,.33,1.06,.6,.3,.27,.45,.63,.45,1.06,0,.32-.09,.58-.26,.8-.18,.22-.43,.33-.76,.33-.4,.02-.68-.1-.84-.36-.16-.26-.24-.48-.24-.66,0-.1,0-.2,.03-.3,.02-.1,.05-.21,.1-.32-.12-.15-.28-.26-.49-.33-.21-.07-.4-.1-.59-.1-.52,0-.92,.15-1.2,.45-.28,.3-.48,.67-.6,1.12-.12,.45-.17,.92-.17,1.4v2.62h3.38v.98l-3.38,.07,.02,8.8c0,.33,0,.63-.01,.89,0,.26-.04,.53-.09,.81,.27-.02,.53-.03,.79-.04,.26,0,.52-.02,.79-.04v1.02h-5.1v-.75c.52,0,.88-.13,1.08-.39,.2-.26,.32-.62,.35-1.07,.03-.46,.05-.99,.05-1.59l-.03-7.62-2.05,.05v-1.12h2.05v-.52Z"/>
    <path class="cls-4" d="M404.41,462.35v-.75c.52,0,.88-.13,1.08-.39,.2-.26,.32-.62,.35-1.07,.03-.46,.05-.99,.05-1.59v-5.7c0-.27,0-.53,.01-.8,0-.27,.04-.54,.09-.83-.3,.02-.6,.03-.89,.05-.29,.02-.59,.03-.89,.05v-1.05c.73,0,1.29-.03,1.66-.1s.65-.15,.84-.25c.18-.1,.33-.21,.45-.33h.73c.03,.17,.05,.36,.06,.58,0,.22,.02,.47,.04,.75,.5-.43,1.08-.79,1.73-1.06,.65-.28,1.3-.41,1.95-.41,.83,0,1.53,.15,2.1,.45,.57,.3,1.01,.71,1.33,1.23,.57-.47,1.22-.86,1.96-1.19,.74-.32,1.47-.49,2.19-.49,1.45,0,2.52,.44,3.2,1.31s1.01,2.3,.97,4.29l-.02,4.65c0,.33,0,.63-.01,.89,0,.26-.04,.53-.09,.81,.27-.02,.53-.03,.79-.04,.26,0,.52-.02,.79-.04v1.02h-5.1v-.75c.52,0,.88-.13,1.08-.39,.2-.26,.32-.62,.35-1.07s.05-.99,.05-1.59v-3.5c0-1.43-.23-2.51-.69-3.23-.46-.72-1.18-1.07-2.16-1.05-.52,0-1.03,.12-1.55,.35-.52,.23-.97,.52-1.35,.88,.08,.27,.15,.55,.19,.86s.06,.63,.06,.96c-.02,.97-.02,1.94-.02,2.92s0,1.97-.03,2.95c0,.33,0,.63-.01,.89,0,.26-.04,.53-.09,.81,.27-.02,.53-.03,.79-.04,.26,0,.52-.02,.79-.04v1.02h-5.1v-.75c.52,0,.87-.13,1.06-.39,.19-.26,.31-.62,.35-1.07,.04-.46,.06-.99,.06-1.59l.03-3.5c.02-1.43-.19-2.52-.62-3.25s-1.14-1.09-2.12-1.08c-.52,0-1.03,.11-1.53,.34s-.92,.51-1.27,.86c0,.2,0,.41,.01,.64,0,.23,.01,.46,.01,.71v6.43c0,.33,0,.63-.01,.89,0,.26-.04,.53-.09,.81,.27-.02,.53-.03,.79-.04,.26,0,.52-.02,.79-.04v1.02h-5.1Z"/>
    <path class="cls-4" d="M432.04,462.75c-.9,0-1.65-.17-2.26-.5-.61-.33-1.07-.9-1.38-1.7-.31-.8-.46-1.88-.46-3.25v-4.45c0-.27,0-.53,.01-.8,0-.27,.04-.54,.09-.83-.28,.02-.57,.03-.86,.04-.29,0-.58,.02-.86,.04v-1.03h.77c.72,0,1.24-.07,1.56-.21,.33-.14,.58-.3,.76-.46h.72v7.62c0,1.43,.2,2.5,.61,3.21,.41,.71,1.1,1.05,2.09,1.04,.63-.02,1.24-.21,1.81-.59s1.04-.82,1.39-1.34v-6.43c0-.4,0-.75,.03-1.04,.02-.29,.05-.58,.1-.86-.3,.02-.6,.03-.9,.04-.3,0-.6,.02-.9,.04v-1.03h.77c.72,0,1.24-.07,1.56-.21,.33-.14,.58-.3,.76-.46h.73l-.03,9.45c0,.27,0,.64-.03,1.12s-.04,.89-.07,1.22c.3-.02,.6-.03,.9-.05s.6-.03,.9-.05v1.05h-3.58c-.05-.28-.09-.55-.11-.8-.03-.25-.05-.48-.06-.7-.52,.52-1.14,.96-1.88,1.34s-1.47,.56-2.2,.56Z"/>
    <path class="cls-4" d="M447.04,462.75c-1.02,0-1.93-.25-2.75-.76-.82-.51-1.46-1.24-1.94-2.19-.48-.95-.71-2.07-.71-3.35,0-1.37,.28-2.58,.83-3.62,.55-1.05,1.31-1.88,2.29-2.48,.98-.6,2.08-.9,3.31-.9,.55,0,1.1,.07,1.64,.21s.97,.3,1.29,.49v-3.42c0-.27,0-.52,.01-.76,0-.24,.03-.53,.06-.86-.3,.02-.6,.03-.89,.05-.29,.02-.59,.03-.89,.05v-1.05c.73,0,1.3-.03,1.7-.1,.4-.07,.7-.15,.91-.25,.21-.1,.37-.21,.49-.33h.73v16.23c0,.27,0,.53-.03,.8-.02,.27-.04,.57-.08,.9,.3-.02,.6-.03,.89-.05,.29-.02,.59-.03,.89-.05v1.05h-3.58c-.05-.25-.09-.48-.11-.69-.03-.21-.05-.41-.06-.61-.47,.52-1.04,.93-1.73,1.24s-1.44,.46-2.27,.46Zm.9-1.23c.55,0,1.1-.16,1.66-.47,.56-.32,1.02-.71,1.39-1.18-.02-.2-.03-.41-.03-.64v-.74l.03-7.2c-.4-.3-.84-.52-1.31-.66-.48-.14-.96-.21-1.46-.21-.83,0-1.56,.24-2.17,.72-.62,.48-1.08,1.16-1.4,2.03s-.46,1.88-.42,3.05c.03,1.02,.2,1.92,.49,2.73,.29,.8,.71,1.43,1.25,1.89,.54,.46,1.2,.69,1.99,.69Z"/>
    <path class="cls-4" d="M469.41,462.75c-1.17,0-2.22-.27-3.17-.81s-1.7-1.29-2.26-2.25c-.56-.96-.84-2.05-.84-3.29,0-1.32,.27-2.5,.82-3.55,.55-1.05,1.3-1.88,2.25-2.49,.95-.61,2.02-.91,3.2-.91s2.23,.28,3.17,.84c.95,.56,1.71,1.31,2.28,2.26,.57,.95,.85,2.03,.85,3.25,0,1.28-.28,2.45-.84,3.51-.56,1.06-1.31,1.9-2.26,2.51-.95,.62-2.02,.92-3.2,.92Zm.2-1c.88,0,1.58-.25,2.1-.75s.89-1.15,1.11-1.95c.22-.8,.34-1.64,.34-2.53,0-.75-.07-1.49-.21-2.21-.14-.73-.36-1.38-.66-1.98-.3-.59-.69-1.06-1.16-1.41-.48-.35-1.05-.53-1.71-.53-.87,0-1.58,.25-2.12,.75s-.95,1.15-1.21,1.95c-.26,.8-.39,1.66-.39,2.58,0,1.03,.14,2.01,.42,2.94,.28,.92,.72,1.68,1.3,2.26,.58,.58,1.32,.88,2.2,.88Z"/>
    <path class="cls-4" d="M477.84,462.35v-.75c.52,0,.88-.13,1.08-.39,.2-.26,.32-.62,.35-1.07,.03-.46,.05-.99,.05-1.59l.02-5.7c0-.27,0-.53,.01-.8s.04-.54,.09-.83c-.3,.02-.6,.03-.89,.05-.29,.02-.59,.03-.89,.05v-1.05c.73,0,1.29-.03,1.66-.1s.65-.15,.84-.25c.18-.1,.33-.21,.45-.33h.72c.02,.12,.03,.25,.04,.4,0,.15,.02,.32,.04,.5,.02,.18,.03,.39,.03,.62,.37-.32,.77-.6,1.21-.85s.91-.45,1.4-.6c.49-.15,.98-.23,1.46-.23,1.45,0,2.51,.45,3.17,1.36,.67,.91,1,2.32,1,4.24v4.65c0,.33,0,.63-.01,.89,0,.26-.04,.53-.09,.81,.27-.02,.53-.03,.79-.04,.26,0,.52-.02,.79-.04v1.02h-5.1v-.75c.52,0,.88-.13,1.08-.39,.2-.26,.32-.62,.35-1.07s.05-.99,.05-1.59v-3.5c-.02-1.43-.25-2.52-.71-3.25-.46-.73-1.18-1.09-2.16-1.08-.6,.02-1.19,.17-1.76,.48-.57,.3-1.05,.68-1.44,1.15,.02,.13,.03,.28,.03,.45v.52l-.03,6.38c0,.33,0,.63-.01,.89,0,.26-.04,.53-.09,.81,.27-.02,.53-.03,.79-.04,.26,0,.52-.02,.79-.04v1.02h-5.1Z"/>
    <path class="cls-4" d="M504.29,462.75c-.38,0-.77-.05-1.17-.16s-.77-.32-1.11-.64c-.34-.32-.61-.78-.81-1.39-.2-.61-.3-1.41-.3-2.41l.05-7.25-1.92,.03v-1.08c.43-.02,.88-.18,1.32-.49,.45-.31,.85-.73,1.21-1.26,.36-.53,.6-1.12,.74-1.75h.85v3.5h4.2v.98l-4.2,.05-.05,6.95c0,.75,.06,1.39,.19,1.91,.12,.52,.33,.92,.61,1.19,.28,.27,.65,.4,1.1,.4s.9-.13,1.31-.4,.77-.63,1.09-1.1l.67,.55c-.37,.55-.73,.98-1.09,1.3s-.7,.55-1.04,.71c-.33,.16-.64,.26-.92,.3-.28,.04-.53,.06-.73,.06Z"/>
    <path class="cls-4" d="M517.29,461.6c.52,0,.88-.13,1.08-.39,.2-.26,.32-.62,.35-1.07s.05-.99,.05-1.59v-3.5c0-1.43-.23-2.51-.69-3.23-.46-.72-1.18-1.07-2.16-1.05-.62,.02-1.22,.17-1.81,.45-.59,.28-1.07,.65-1.44,1.1v7.38c0,.33,0,.63-.03,.89-.02,.26-.05,.53-.1,.81,.27-.02,.53-.03,.79-.04,.26,0,.52-.02,.79-.04v1.02h-5.1v-.75c.52,0,.88-.13,1.08-.39,.2-.26,.32-.62,.36-1.07,.04-.46,.06-.99,.06-1.59v-11.83c0-.27,0-.52,.01-.76,0-.24,.03-.53,.06-.86-.3,.02-.6,.03-.89,.05-.29,.02-.59,.03-.89,.05v-1.05c.73,0,1.3-.03,1.71-.1s.72-.15,.92-.25c.21-.1,.37-.21,.49-.33h.72v7.62c.37-.32,.78-.6,1.24-.84s.93-.44,1.42-.59c.49-.15,.97-.23,1.44-.23,1.45,0,2.5,.45,3.14,1.36,.64,.91,.97,2.32,.99,4.24l.03,4.65c0,.33,0,.63-.01,.89,0,.26-.04,.53-.09,.81,.27-.02,.53-.03,.79-.04,.26,0,.52-.02,.79-.04v1.02h-5.1v-.75Z"/>
    <path class="cls-4" d="M530.29,462.75c-1.15,0-2.19-.27-3.11-.81-.92-.54-1.65-1.31-2.19-2.3s-.8-2.16-.8-3.51c0-1.17,.26-2.26,.79-3.27,.52-1.02,1.26-1.84,2.21-2.46s2.05-.94,3.3-.94c.7,0,1.35,.11,1.96,.34s1.15,.57,1.61,1.02c.47,.46,.83,1.03,1.1,1.73,.27,.69,.4,1.5,.4,2.44l-8.8,.15c0,1.27,.14,2.38,.41,3.34,.28,.96,.72,1.7,1.34,2.23,.62,.52,1.41,.79,2.38,.79,.52,0,1.05-.09,1.59-.27,.54-.18,1.04-.43,1.51-.75,.47-.32,.84-.67,1.12-1.05l.6,.5c-.45,.7-.99,1.26-1.62,1.68-.63,.42-1.28,.72-1.95,.9-.67,.18-1.28,.27-1.85,.27Zm-3.45-8.67h6.38c0-.6-.09-1.18-.26-1.74-.17-.56-.46-1.02-.86-1.38-.4-.36-.92-.54-1.58-.54-.97,0-1.77,.29-2.41,.86-.64,.58-1.06,1.5-1.26,2.79Z"/>
    <path class="cls-4" d="M550.46,462.75c-1.12,0-2.15-.25-3.09-.76-.94-.51-1.69-1.24-2.25-2.2-.56-.96-.84-2.11-.84-3.46,0-.87,.16-1.71,.47-2.52s.76-1.55,1.34-2.21c.57-.66,1.26-1.18,2.06-1.56,.8-.38,1.68-.57,2.65-.57s1.75,.14,2.44,.42c.69,.28,1.23,.66,1.61,1.12,.38,.47,.58,.98,.58,1.52,0,.37-.1,.68-.3,.94-.2,.26-.49,.39-.88,.39-.42,.02-.71-.11-.89-.39-.17-.27-.26-.52-.26-.74,0-.17,.03-.34,.08-.51,.05-.17,.15-.34,.3-.49-.13-.4-.37-.7-.7-.89-.33-.19-.68-.32-1.04-.38-.36-.06-.65-.09-.89-.09-1.13,0-2.09,.45-2.86,1.36-.77,.91-1.16,2.23-1.16,3.96,0,1.12,.18,2.11,.54,2.98s.86,1.55,1.51,2.04c.65,.49,1.4,.74,2.25,.74,.78,0,1.53-.21,2.25-.62s1.28-.93,1.67-1.52l.65,.5c-.43,.7-.95,1.27-1.56,1.7-.61,.43-1.23,.75-1.88,.95-.64,.2-1.25,.3-1.81,.3Z"/>
    <path class="cls-4" d="M565.21,462.35c-.05-.28-.08-.53-.1-.75-.02-.22-.04-.44-.07-.67-.57,.57-1.18,1.01-1.84,1.34-.66,.32-1.35,.49-2.09,.49-1.27,0-2.21-.29-2.82-.86-.62-.58-.93-1.28-.93-2.11,0-.77,.24-1.43,.71-1.99,.47-.56,1.09-1.02,1.85-1.38,.76-.36,1.58-.62,2.48-.8,.89-.18,1.75-.25,2.59-.24v-1.55c0-.58-.05-1.13-.15-1.65-.1-.52-.32-.94-.65-1.28-.33-.33-.87-.51-1.6-.52-.48-.02-.98,.08-1.49,.27-.51,.2-.88,.54-1.11,1.03,.13,.13,.22,.29,.26,.46,.04,.17,.06,.34,.06,.49,0,.2-.08,.43-.25,.69-.17,.26-.46,.38-.88,.36-.35,0-.62-.12-.8-.36-.18-.24-.28-.53-.28-.86,0-.57,.21-1.08,.64-1.52,.42-.45,1.01-.81,1.76-1.08s1.6-.4,2.55-.4c1.4,0,2.43,.37,3.1,1.11,.67,.74,.99,1.91,.97,3.51v1.86c0,.62,0,1.25-.01,1.88s-.01,1.25-.01,1.89c0,.27,0,.53-.02,.8-.02,.27-.04,.57-.08,.9,.3-.02,.6-.03,.89-.05,.29-.02,.59-.03,.89-.05v1.05h-3.58Zm-.23-6.12c-.57,.02-1.16,.09-1.79,.21s-1.2,.31-1.72,.56c-.53,.25-.95,.58-1.28,.99s-.48,.9-.46,1.49c.03,.62,.24,1.08,.61,1.39s.82,.46,1.34,.46c.68,0,1.28-.13,1.79-.39,.51-.26,1.01-.62,1.51-1.09-.02-.18-.02-.38-.02-.6v-.67c0-.08,0-.35,.01-.8,0-.45,.01-.97,.01-1.55Z"/>
    <path class="cls-4" d="M570.51,461.6c.52,0,.88-.13,1.08-.39,.2-.26,.32-.62,.35-1.07,.03-.46,.05-.99,.05-1.59v-5.7c0-.27,0-.53,.01-.8,0-.27,.04-.54,.09-.83-.3,.02-.6,.03-.89,.04-.29,0-.59,.02-.89,.04v-1.03h.77c.72,0,1.21-.07,1.49-.21,.28-.14,.5-.3,.69-.46h.73c.03,.27,.06,.6,.08,.99,.02,.39,.03,.89,.05,1.49,.25-.42,.59-.83,1.02-1.23s.92-.73,1.46-1c.54-.27,1.11-.4,1.71-.4,.47,0,.88,.12,1.22,.38s.53,.65,.53,1.2c0,.13-.04,.3-.12,.49-.08,.19-.22,.36-.4,.5s-.42,.21-.72,.21c-.37-.02-.66-.16-.88-.44-.22-.27-.3-.6-.25-.96-.42-.02-.85,.09-1.29,.32-.44,.23-.85,.55-1.24,.96-.38,.41-.72,.89-1.03,1.44l.03,6.15c0,.33,0,.63-.01,.89,0,.26-.04,.53-.09,.81,.27-.02,.53-.03,.79-.04,.26,0,.52-.02,.79-.04v1.02h-5.12v-.75Z"/>
    <path class="cls-4" d="M581.11,468.72v-.75c.52,0,.88-.13,1.08-.39s.32-.62,.35-1.07c.03-.46,.05-.99,.05-1.59l.05-12.08c0-.27,0-.53,.01-.8,0-.27,.04-.54,.09-.83-.3,.02-.6,.03-.89,.05-.29,.02-.59,.03-.89,.05v-1.05c.73,0,1.29-.03,1.66-.1s.65-.15,.83-.25c.17-.1,.32-.21,.44-.33h.75c.02,.17,.03,.36,.05,.59s.03,.48,.05,.76c.5-.45,1.1-.81,1.79-1.09,.69-.28,1.39-.41,2.09-.41,.97,0,1.87,.25,2.7,.75,.83,.5,1.51,1.21,2.02,2.14,.52,.93,.78,2.03,.78,3.31,0,1.42-.3,2.66-.89,3.73-.59,1.07-1.37,1.9-2.34,2.49-.97,.59-2.02,.89-3.15,.89-.58,0-1.12-.07-1.61-.21-.49-.14-.95-.35-1.39-.61v4.15c0,.33,0,.63-.01,.89s-.04,.53-.09,.81c.27-.02,.53-.03,.79-.04,.26,0,.52-.02,.79-.04v1.02h-5.1Zm6.58-6.98c.8,0,1.49-.25,2.06-.74s1.02-1.17,1.33-2.02c.31-.86,.46-1.84,.46-2.94,0-.9-.13-1.76-.39-2.59-.26-.82-.67-1.5-1.22-2.01s-1.3-.77-2.21-.77c-.57,0-1.11,.14-1.64,.41-.53,.28-.96,.6-1.31,.99,0,.07,0,.16,.01,.29,0,.12,.01,.34,.01,.65v1.38c0,.61,0,1.43-.01,2.46,0,1.03-.01,2.34-.01,3.92,.42,.32,.87,.56,1.36,.73,.49,.17,1.01,.25,1.56,.25Z"/>
    <path class="cls-4" d="M602.31,462.75c-1.15,0-2.19-.27-3.11-.81-.92-.54-1.65-1.31-2.19-2.3s-.8-2.16-.8-3.51c0-1.17,.26-2.26,.79-3.27,.52-1.02,1.26-1.84,2.21-2.46s2.05-.94,3.3-.94c.7,0,1.35,.11,1.96,.34s1.15,.57,1.61,1.02c.47,.46,.83,1.03,1.1,1.73,.27,.69,.4,1.5,.4,2.44l-8.8,.15c0,1.27,.14,2.38,.41,3.34,.28,.96,.72,1.7,1.34,2.23,.62,.52,1.41,.79,2.38,.79,.52,0,1.05-.09,1.59-.27,.54-.18,1.04-.43,1.51-.75,.47-.32,.84-.67,1.12-1.05l.6,.5c-.45,.7-.99,1.26-1.62,1.68-.63,.42-1.28,.72-1.95,.9-.67,.18-1.28,.27-1.85,.27Zm-3.45-8.67h6.38c0-.6-.09-1.18-.26-1.74-.17-.56-.46-1.02-.86-1.38-.4-.36-.92-.54-1.58-.54-.97,0-1.77,.29-2.41,.86-.64,.58-1.06,1.5-1.26,2.79Z"/>
    <path class="cls-4" d="M614.33,462.75c-.38,0-.77-.05-1.17-.16s-.77-.32-1.11-.64c-.34-.32-.61-.78-.81-1.39-.2-.61-.3-1.41-.3-2.41l.05-7.25-1.92,.03v-1.08c.43-.02,.88-.18,1.32-.49,.45-.31,.85-.73,1.21-1.26,.36-.53,.6-1.12,.74-1.75h.85v3.5h4.2v.98l-4.2,.05-.05,6.95c0,.75,.06,1.39,.19,1.91,.12,.52,.33,.92,.61,1.19,.28,.27,.65,.4,1.1,.4s.9-.13,1.31-.4,.77-.63,1.09-1.1l.67,.55c-.37,.55-.73,.98-1.09,1.3s-.7,.55-1.04,.71c-.33,.16-.64,.26-.92,.3-.28,.04-.53,.06-.73,.06Z"/>
    <path class="cls-4" d="M621.26,462.75c-.38,0-.72-.15-1.01-.46-.29-.31-.44-.69-.44-1.14s.15-.83,.45-1.15c.3-.32,.64-.48,1.03-.48,.42,0,.76,.16,1.04,.48,.28,.32,.41,.7,.41,1.15s-.15,.83-.45,1.14-.64,.46-1.03,.46Z"/>
    <path class="cls-4" d="M220.95,480.15c-.05-.8-.24-1.56-.58-2.27-.33-.72-.82-1.3-1.45-1.75-.63-.45-1.44-.67-2.42-.67-1.03,0-1.83,.29-2.38,.88s-.83,1.27-.83,2.05c0,.7,.2,1.29,.6,1.76,.4,.48,.92,.89,1.56,1.25,.64,.36,1.32,.7,2.04,1.04,.63,.28,1.27,.59,1.9,.91,.63,.33,1.21,.7,1.72,1.11s.93,.91,1.24,1.49c.31,.58,.46,1.26,.46,2.06,0,.92-.23,1.73-.69,2.45-.46,.72-1.12,1.28-1.99,1.69-.87,.41-1.93,.61-3.18,.61-.75,0-1.52-.11-2.32-.32-.8-.22-1.51-.53-2.12-.95l.12,1.08h-1.3l-.15-5.33h.97c.08,1.47,.59,2.58,1.53,3.34,.93,.76,2.06,1.14,3.38,1.14,.65,0,1.25-.12,1.8-.36,.55-.24,.99-.6,1.31-1.06,.33-.47,.49-1.03,.49-1.7,0-.75-.2-1.38-.6-1.88-.4-.5-.92-.93-1.55-1.3-.63-.37-1.31-.72-2.03-1.05-.63-.28-1.26-.58-1.88-.9-.62-.32-1.18-.68-1.69-1.09-.51-.41-.92-.9-1.22-1.46-.31-.57-.46-1.25-.46-2.05,0-.43,.08-.9,.22-1.4,.15-.5,.41-.98,.79-1.44s.89-.83,1.55-1.12,1.5-.44,2.51-.44c.63,0,1.35,.09,2.14,.26,.79,.18,1.53,.51,2.21,1.01l-.1-1.08h1.27v5.5h-.9Z"/>
    <path class="cls-4" d="M230.15,492.75c-.9,0-1.65-.17-2.26-.5-.61-.33-1.07-.9-1.38-1.7-.31-.8-.46-1.88-.46-3.25v-4.45c0-.27,0-.53,.01-.8,0-.27,.04-.54,.09-.83-.28,.02-.57,.03-.86,.04-.29,0-.58,.02-.86,.04v-1.03h.77c.72,0,1.24-.07,1.56-.21,.33-.14,.58-.3,.76-.46h.72v7.62c0,1.43,.2,2.5,.61,3.21,.41,.71,1.1,1.05,2.09,1.04,.63-.02,1.24-.21,1.81-.59s1.04-.82,1.39-1.34v-6.43c0-.4,0-.75,.03-1.04,.02-.29,.05-.58,.1-.86-.3,.02-.6,.03-.9,.04-.3,0-.6,.02-.9,.04v-1.03h.77c.72,0,1.24-.07,1.56-.21,.33-.14,.58-.3,.76-.46h.73l-.03,9.45c0,.27,0,.64-.03,1.12s-.04,.89-.07,1.22c.3-.02,.6-.03,.9-.05s.6-.03,.9-.05v1.05h-3.58c-.05-.28-.09-.55-.11-.8-.03-.25-.05-.48-.06-.7-.52,.52-1.14,.96-1.88,1.34s-1.47,.56-2.2,.56Z"/>
    <path class="cls-4" d="M239.8,491.6c.52,0,.88-.13,1.08-.39,.2-.26,.32-.62,.35-1.07,.03-.46,.05-.99,.05-1.59v-5.7c0-.27,0-.53,.01-.8,0-.27,.04-.54,.09-.83-.3,.02-.6,.03-.89,.04-.29,0-.59,.02-.89,.04v-1.03h.77c.72,0,1.21-.07,1.49-.21,.28-.14,.5-.3,.69-.46h.73c.03,.27,.06,.6,.08,.99,.02,.39,.03,.89,.05,1.49,.25-.42,.59-.83,1.02-1.23s.92-.73,1.46-1c.54-.27,1.11-.4,1.71-.4,.47,0,.88,.12,1.22,.38s.53,.65,.53,1.2c0,.13-.04,.3-.12,.49-.08,.19-.22,.36-.4,.5s-.42,.21-.72,.21c-.37-.02-.66-.16-.88-.44-.22-.27-.3-.6-.25-.96-.42-.02-.85,.09-1.29,.32-.44,.23-.85,.55-1.24,.96-.38,.41-.72,.89-1.03,1.44l.03,6.15c0,.33,0,.63-.01,.89,0,.26-.04,.53-.09,.81,.27-.02,.53-.03,.79-.04,.26,0,.52-.02,.79-.04v1.02h-5.12v-.75Z"/>
    <path class="cls-4" d="M250.4,498.72v-.75c.52,0,.88-.13,1.08-.39s.32-.62,.35-1.07c.03-.46,.05-.99,.05-1.59l.05-12.08c0-.27,0-.53,.01-.8,0-.27,.04-.54,.09-.83-.3,.02-.6,.03-.89,.05-.29,.02-.59,.03-.89,.05v-1.05c.73,0,1.29-.03,1.66-.1s.65-.15,.83-.25c.17-.1,.32-.21,.44-.33h.75c.02,.17,.03,.36,.05,.59s.03,.48,.05,.76c.5-.45,1.1-.81,1.79-1.09,.69-.28,1.39-.41,2.09-.41,.97,0,1.87,.25,2.7,.75,.83,.5,1.51,1.21,2.02,2.14,.52,.93,.78,2.03,.78,3.31,0,1.42-.3,2.66-.89,3.73-.59,1.07-1.37,1.9-2.34,2.49-.97,.59-2.02,.89-3.15,.89-.58,0-1.12-.07-1.61-.21-.49-.14-.95-.35-1.39-.61v4.15c0,.33,0,.63-.01,.89s-.04,.53-.09,.81c.27-.02,.53-.03,.79-.04,.26,0,.52-.02,.79-.04v1.02h-5.1Zm6.58-6.98c.8,0,1.49-.25,2.06-.74s1.02-1.17,1.33-2.02c.31-.86,.46-1.84,.46-2.94,0-.9-.13-1.76-.39-2.59-.26-.82-.67-1.5-1.22-2.01s-1.3-.77-2.21-.77c-.57,0-1.11,.14-1.64,.41-.53,.28-.96,.6-1.31,.99,0,.07,0,.16,.01,.29,0,.12,.01,.34,.01,.65v1.38c0,.61,0,1.43-.01,2.46,0,1.03-.01,2.34-.01,3.92,.42,.32,.87,.56,1.36,.73,.49,.17,1.01,.25,1.56,.25Z"/>
    <path class="cls-4" d="M265.55,491.6c.52,0,.88-.13,1.08-.39,.2-.26,.32-.62,.35-1.07,.03-.46,.05-.99,.05-1.59v-5.7c0-.27,0-.53,.01-.8,0-.27,.04-.54,.09-.83-.3,.02-.6,.03-.89,.04-.29,0-.59,.02-.89,.04v-1.03h.77c.72,0,1.21-.07,1.49-.21,.28-.14,.5-.3,.69-.46h.73c.03,.27,.06,.6,.08,.99,.02,.39,.03,.89,.05,1.49,.25-.42,.59-.83,1.02-1.23s.92-.73,1.46-1c.54-.27,1.11-.4,1.71-.4,.47,0,.88,.12,1.22,.38s.53,.65,.53,1.2c0,.13-.04,.3-.12,.49-.08,.19-.22,.36-.4,.5s-.42,.21-.72,.21c-.37-.02-.66-.16-.88-.44-.22-.27-.3-.6-.25-.96-.42-.02-.85,.09-1.29,.32-.44,.23-.85,.55-1.24,.96-.38,.41-.72,.89-1.03,1.44l.03,6.15c0,.33,0,.63-.01,.89,0,.26-.04,.53-.09,.81,.27-.02,.53-.03,.79-.04,.26,0,.52-.02,.79-.04v1.02h-5.12v-.75Z"/>
    <path class="cls-4" d="M276.38,491.6c.52,0,.88-.13,1.08-.39,.2-.26,.32-.62,.35-1.07,.03-.46,.05-.99,.05-1.59v-5.7c0-.27,0-.52,.02-.76,.02-.24,.04-.53,.08-.86-.3,.02-.6,.03-.89,.05-.29,.02-.59,.03-.89,.05v-1.05c.73,0,1.3-.03,1.7-.1,.4-.07,.7-.15,.91-.25,.21-.1,.37-.21,.49-.33h.72v10.1c0,.33,0,.63-.01,.89,0,.26-.04,.53-.09,.81,.27-.02,.53-.03,.79-.04,.26,0,.52-.02,.79-.04v1.02h-5.1v-.75Zm2.43-14.48c-.35,0-.66-.14-.93-.42-.27-.28-.4-.63-.4-1.05s.14-.77,.41-1.06c.28-.29,.59-.44,.94-.44,.38,0,.7,.15,.96,.44,.26,.29,.39,.65,.39,1.06s-.14,.77-.41,1.05c-.27,.28-.6,.42-.96,.42Z"/>
    <path class="cls-4" d="M288.53,492.75c-.83,0-1.57-.11-2.22-.34s-1.18-.48-1.6-.76l.1,.88h-1.05l-.15-4.3h.78c.03,.68,.22,1.3,.58,1.84,.35,.54,.8,.96,1.35,1.26,.55,.3,1.14,.45,1.78,.45,.43,0,.86-.07,1.27-.21,.42-.14,.77-.36,1.05-.65,.28-.29,.43-.66,.43-1.11s-.14-.85-.41-1.16c-.27-.31-.64-.58-1.09-.81-.45-.23-.93-.45-1.45-.65-.5-.2-1-.41-1.5-.62s-.96-.48-1.39-.78c-.42-.3-.76-.67-1.01-1.1s-.38-.97-.38-1.6c0-.35,.07-.73,.2-1.15,.13-.42,.36-.81,.67-1.19s.75-.68,1.3-.93c.55-.24,1.25-.36,2.1-.36,.45,0,.95,.07,1.5,.23,.55,.15,1.08,.43,1.6,.85l-.05-.95h1.05v4.38h-.8c-.03-.58-.17-1.15-.4-1.69s-.57-.99-1.02-1.35-1.03-.54-1.75-.54c-.77,0-1.37,.19-1.8,.58-.43,.38-.65,.82-.65,1.32s.16,.95,.49,1.29c.33,.34,.75,.64,1.26,.89s1.07,.49,1.65,.73c.63,.27,1.25,.56,1.85,.88s1.09,.71,1.47,1.19c.38,.47,.58,1.09,.58,1.84,0,.83-.21,1.52-.64,2.07-.42,.55-.97,.95-1.62,1.21-.66,.26-1.35,.39-2.06,.39Z"/>
    <path class="cls-4" d="M294.98,491.6c.52,0,.88-.13,1.08-.39,.2-.26,.32-.62,.35-1.07,.03-.46,.05-.99,.05-1.59v-5.7c0-.27,0-.52,.02-.76,.02-.24,.04-.53,.08-.86-.3,.02-.6,.03-.89,.05-.29,.02-.59,.03-.89,.05v-1.05c.73,0,1.3-.03,1.7-.1,.4-.07,.7-.15,.91-.25,.21-.1,.37-.21,.49-.33h.72v10.1c0,.33,0,.63-.01,.89,0,.26-.04,.53-.09,.81,.27-.02,.53-.03,.79-.04,.26,0,.52-.02,.79-.04v1.02h-5.1v-.75Zm2.43-14.48c-.35,0-.66-.14-.93-.42-.27-.28-.4-.63-.4-1.05s.14-.77,.41-1.06c.28-.29,.59-.44,.94-.44,.38,0,.7,.15,.96,.44,.26,.29,.39,.65,.39,1.06s-.14,.77-.41,1.05c-.27,.28-.6,.42-.96,.42Z"/>
    <path class="cls-4" d="M302,492.35v-.75c.52,0,.88-.13,1.08-.39,.2-.26,.32-.62,.35-1.07,.03-.46,.05-.99,.05-1.59l.02-5.7c0-.27,0-.53,.01-.8s.04-.54,.09-.83c-.3,.02-.6,.03-.89,.05-.29,.02-.59,.03-.89,.05v-1.05c.73,0,1.29-.03,1.66-.1s.65-.15,.84-.25c.18-.1,.33-.21,.45-.33h.72c.02,.12,.03,.25,.04,.4,0,.15,.02,.32,.04,.5,.02,.18,.03,.39,.03,.62,.37-.32,.77-.6,1.21-.85s.91-.45,1.4-.6c.49-.15,.98-.23,1.46-.23,1.45,0,2.51,.45,3.17,1.36,.67,.91,1,2.32,1,4.24v4.65c0,.33,0,.63-.01,.89,0,.26-.04,.53-.09,.81,.27-.02,.53-.03,.79-.04,.26,0,.52-.02,.79-.04v1.02h-5.1v-.75c.52,0,.88-.13,1.08-.39,.2-.26,.32-.62,.35-1.07s.05-.99,.05-1.59v-3.5c-.02-1.43-.25-2.52-.71-3.25-.46-.73-1.18-1.09-2.16-1.08-.6,.02-1.19,.17-1.76,.48-.57,.3-1.05,.68-1.44,1.15,.02,.13,.03,.28,.03,.45v.52l-.03,6.38c0,.33,0,.63-.01,.89,0,.26-.04,.53-.09,.81,.27-.02,.53-.03,.79-.04,.26,0,.52-.02,.79-.04v1.02h-5.1Z"/>
    <path class="cls-4" d="M323.2,499.12c-1.5,0-2.71-.17-3.62-.5-.92-.33-1.58-.76-2-1.27-.42-.52-.62-1.05-.62-1.6,0-.52,.12-.97,.36-1.36,.24-.39,.54-.73,.9-1.01,.36-.28,.7-.49,1.04-.62-.53-.18-.95-.43-1.26-.74-.31-.31-.46-.72-.46-1.24,0-.58,.23-1.13,.7-1.64,.47-.51,1.07-.82,1.8-.94-.77-.37-1.38-.88-1.84-1.52-.46-.65-.69-1.41-.69-2.28,0-1,.26-1.87,.78-2.61,.52-.74,1.18-1.32,1.99-1.73,.81-.41,1.65-.61,2.51-.61,.55,0,1.1,.08,1.65,.24,.55,.16,1.06,.39,1.53,.69,.17-.47,.4-.88,.71-1.25,.31-.37,.66-.65,1.06-.86,.4-.21,.82-.31,1.25-.31s.76,.11,.99,.34c.22,.23,.34,.53,.34,.91,0,.12-.03,.26-.1,.42-.07,.17-.18,.31-.34,.43s-.37,.17-.64,.17c-.28,0-.52-.08-.7-.25-.18-.17-.3-.38-.35-.62-.42,.07-.74,.26-.97,.59-.23,.33-.39,.68-.47,1.06,.4,.37,.72,.81,.96,1.33s.36,1.07,.36,1.65c0,.93-.25,1.77-.74,2.5s-1.14,1.3-1.94,1.71c-.8,.41-1.67,.61-2.6,.61-.32,0-.59-.02-.83-.06s-.52-.06-.85-.06c-.62,0-1.12,.15-1.5,.45-.38,.3-.52,.66-.4,1.08,.13,.4,.54,.65,1.22,.76,.68,.11,1.6,.19,2.75,.24,1.28,.05,2.38,.2,3.3,.45,.92,.25,1.62,.64,2.11,1.16,.49,.52,.74,1.24,.74,2.14,0,.67-.18,1.26-.54,1.79-.36,.52-.83,.96-1.43,1.31-.59,.35-1.25,.62-1.97,.8-.72,.18-1.45,.27-2.19,.27Zm-.03-.98c1.43,0,2.55-.27,3.35-.8,.8-.53,1.2-1.16,1.2-1.88,0-.62-.21-1.09-.62-1.41-.42-.32-.98-.55-1.7-.67-.72-.12-1.54-.2-2.48-.21-.45-.02-.89-.04-1.32-.06-.43-.03-.85-.07-1.25-.14-.45,.3-.8,.67-1.05,1.1-.25,.43-.38,.89-.38,1.38,0,.82,.39,1.47,1.16,1.96,.77,.49,1.8,.74,3.09,.74Zm-.32-10.25c.62,0,1.13-.15,1.54-.45,.41-.3,.72-.71,.92-1.23s.31-1.1,.31-1.75c0-.73-.11-1.42-.33-2.05s-.54-1.14-.96-1.53c-.42-.38-.96-.57-1.61-.57-.9,0-1.6,.34-2.09,1.01-.49,.68-.74,1.51-.74,2.51,0,.8,.12,1.5,.35,2.11,.23,.61,.57,1.08,1.01,1.43,.44,.34,.97,.51,1.59,.51Z"/>
    <path class="cls-4" d="M339.15,479.32c0-1.85,.34-3.31,1.01-4.38,.67-1.07,1.84-1.6,3.49-1.6,.37,0,.75,.06,1.16,.19,.41,.12,.76,.33,1.06,.6,.3,.27,.45,.63,.45,1.06,0,.32-.09,.58-.26,.8-.18,.22-.43,.33-.76,.33-.4,.02-.68-.1-.84-.36-.16-.26-.24-.48-.24-.66,0-.1,0-.2,.03-.3,.02-.1,.05-.21,.1-.32-.12-.15-.28-.26-.49-.33-.21-.07-.4-.1-.59-.1-.52,0-.92,.15-1.2,.45-.28,.3-.48,.67-.6,1.12-.12,.45-.17,.92-.17,1.4v2.62h3.38v.98l-3.38,.07,.02,8.8c0,.33,0,.63-.01,.89,0,.26-.04,.53-.09,.81,.27-.02,.53-.03,.79-.04,.26,0,.52-.02,.79-.04v1.02h-5.1v-.75c.52,0,.88-.13,1.08-.39,.2-.26,.32-.62,.35-1.07,.03-.46,.05-.99,.05-1.59l-.03-7.62-2.05,.05v-1.12h2.05v-.52Z"/>
    <path class="cls-4" d="M352.1,492.75c-1.17,0-2.22-.27-3.17-.81s-1.7-1.29-2.26-2.25c-.56-.96-.84-2.05-.84-3.29,0-1.32,.27-2.5,.82-3.55,.55-1.05,1.3-1.88,2.25-2.49,.95-.61,2.02-.91,3.2-.91s2.23,.28,3.17,.84c.95,.56,1.71,1.31,2.28,2.26,.57,.95,.85,2.03,.85,3.25,0,1.28-.28,2.45-.84,3.51-.56,1.06-1.31,1.9-2.26,2.51-.95,.62-2.02,.92-3.2,.92Zm.2-1c.88,0,1.58-.25,2.1-.75s.89-1.15,1.11-1.95c.22-.8,.34-1.64,.34-2.53,0-.75-.07-1.49-.21-2.21-.14-.73-.36-1.38-.66-1.98-.3-.59-.69-1.06-1.16-1.41-.48-.35-1.05-.53-1.71-.53-.87,0-1.58,.25-2.12,.75s-.95,1.15-1.21,1.95c-.26,.8-.39,1.66-.39,2.58,0,1.03,.14,2.01,.42,2.94,.28,.92,.72,1.68,1.3,2.26,.58,.58,1.32,.88,2.2,.88Z"/>
    <path class="cls-4" d="M360.53,491.6c.52,0,.88-.13,1.08-.39,.2-.26,.32-.62,.35-1.07,.03-.46,.05-.99,.05-1.59v-5.7c0-.27,0-.53,.01-.8,0-.27,.04-.54,.09-.83-.3,.02-.6,.03-.89,.04-.29,0-.59,.02-.89,.04v-1.03h.77c.72,0,1.21-.07,1.49-.21,.28-.14,.5-.3,.69-.46h.73c.03,.27,.06,.6,.08,.99,.02,.39,.03,.89,.05,1.49,.25-.42,.59-.83,1.02-1.23s.92-.73,1.46-1c.54-.27,1.11-.4,1.71-.4,.47,0,.88,.12,1.22,.38s.53,.65,.53,1.2c0,.13-.04,.3-.12,.49-.08,.19-.22,.36-.4,.5s-.42,.21-.72,.21c-.37-.02-.66-.16-.88-.44-.22-.27-.3-.6-.25-.96-.42-.02-.85,.09-1.29,.32-.44,.23-.85,.55-1.24,.96-.38,.41-.72,.89-1.03,1.44l.03,6.15c0,.33,0,.63-.01,.89,0,.26-.04,.53-.09,.81,.27-.02,.53-.03,.79-.04,.26,0,.52-.02,.79-.04v1.02h-5.12v-.75Z"/>
    <path class="cls-4" d="M382.63,492.75c-.38,0-.77-.05-1.17-.16s-.77-.32-1.11-.64c-.34-.32-.61-.78-.81-1.39-.2-.61-.3-1.41-.3-2.41l.05-7.25-1.92,.03v-1.08c.43-.02,.88-.18,1.32-.49,.45-.31,.85-.73,1.21-1.26,.36-.53,.6-1.12,.74-1.75h.85v3.5h4.2v.98l-4.2,.05-.05,6.95c0,.75,.06,1.39,.19,1.91,.12,.52,.33,.92,.61,1.19,.28,.27,.65,.4,1.1,.4s.9-.13,1.31-.4,.77-.63,1.09-1.1l.67,.55c-.37,.55-.73,.98-1.09,1.3s-.7,.55-1.04,.71c-.33,.16-.64,.26-.92,.3-.28,.04-.53,.06-.73,.06Z"/>
    <path class="cls-4" d="M395.63,491.6c.52,0,.88-.13,1.08-.39,.2-.26,.32-.62,.35-1.07s.05-.99,.05-1.59v-3.5c0-1.43-.23-2.51-.69-3.23-.46-.72-1.18-1.07-2.16-1.05-.62,.02-1.22,.17-1.81,.45-.59,.28-1.07,.65-1.44,1.1v7.38c0,.33,0,.63-.03,.89-.02,.26-.05,.53-.1,.81,.27-.02,.53-.03,.79-.04,.26,0,.52-.02,.79-.04v1.02h-5.1v-.75c.52,0,.88-.13,1.08-.39,.2-.26,.32-.62,.36-1.07,.04-.46,.06-.99,.06-1.59v-11.83c0-.27,0-.52,.01-.76,0-.24,.03-.53,.06-.86-.3,.02-.6,.03-.89,.05-.29,.02-.59,.03-.89,.05v-1.05c.73,0,1.3-.03,1.71-.1s.72-.15,.92-.25c.21-.1,.37-.21,.49-.33h.72v7.62c.37-.32,.78-.6,1.24-.84s.93-.44,1.42-.59c.49-.15,.97-.23,1.44-.23,1.45,0,2.5,.45,3.14,1.36,.64,.91,.97,2.32,.99,4.24l.03,4.65c0,.33,0,.63-.01,.89,0,.26-.04,.53-.09,.81,.27-.02,.53-.03,.79-.04,.26,0,.52-.02,.79-.04v1.02h-5.1v-.75Z"/>
    <path class="cls-4" d="M408.63,492.75c-1.15,0-2.19-.27-3.11-.81-.92-.54-1.65-1.31-2.19-2.3s-.8-2.16-.8-3.51c0-1.17,.26-2.26,.79-3.27,.52-1.02,1.26-1.84,2.21-2.46s2.05-.94,3.3-.94c.7,0,1.35,.11,1.96,.34s1.15,.57,1.61,1.02c.47,.46,.83,1.03,1.1,1.73,.27,.69,.4,1.5,.4,2.44l-8.8,.15c0,1.27,.14,2.38,.41,3.34,.28,.96,.72,1.7,1.34,2.23,.62,.52,1.41,.79,2.38,.79,.52,0,1.05-.09,1.59-.27,.54-.18,1.04-.43,1.51-.75,.47-.32,.84-.67,1.12-1.05l.6,.5c-.45,.7-.99,1.26-1.62,1.68-.63,.42-1.28,.72-1.95,.9-.67,.18-1.28,.27-1.85,.27Zm-3.45-8.67h6.38c0-.6-.09-1.18-.26-1.74-.17-.56-.46-1.02-.86-1.38-.4-.36-.92-.54-1.58-.54-.97,0-1.77,.29-2.41,.86-.64,.58-1.06,1.5-1.26,2.79Z"/>
    <path class="cls-4" d="M422.7,491.6c.52,0,.88-.13,1.08-.39,.2-.26,.32-.62,.35-1.07,.03-.46,.05-.99,.05-1.59v-5.7c0-.27,0-.53,.01-.8,0-.27,.04-.54,.09-.83-.3,.02-.6,.03-.89,.04-.29,0-.59,.02-.89,.04v-1.03h.77c.72,0,1.21-.07,1.49-.21,.28-.14,.5-.3,.69-.46h.73c.03,.27,.06,.6,.08,.99,.02,.39,.03,.89,.05,1.49,.25-.42,.59-.83,1.02-1.23s.92-.73,1.46-1c.54-.27,1.11-.4,1.71-.4,.47,0,.88,.12,1.22,.38s.53,.65,.53,1.2c0,.13-.04,.3-.12,.49-.08,.19-.22,.36-.4,.5s-.42,.21-.72,.21c-.37-.02-.66-.16-.88-.44-.22-.27-.3-.6-.25-.96-.42-.02-.85,.09-1.29,.32-.44,.23-.85,.55-1.24,.96-.38,.41-.72,.89-1.03,1.44l.03,6.15c0,.33,0,.63-.01,.89,0,.26-.04,.53-.09,.81,.27-.02,.53-.03,.79-.04,.26,0,.52-.02,.79-.04v1.02h-5.12v-.75Z"/>
    <path class="cls-4" d="M439.55,492.75c-1.17,0-2.22-.27-3.17-.81s-1.7-1.29-2.26-2.25c-.56-.96-.84-2.05-.84-3.29,0-1.32,.27-2.5,.82-3.55,.55-1.05,1.3-1.88,2.25-2.49,.95-.61,2.02-.91,3.2-.91s2.23,.28,3.17,.84c.95,.56,1.71,1.31,2.28,2.26,.57,.95,.85,2.03,.85,3.25,0,1.28-.28,2.45-.84,3.51-.56,1.06-1.31,1.9-2.26,2.51-.95,.62-2.02,.92-3.2,.92Zm.2-1c.88,0,1.58-.25,2.1-.75s.89-1.15,1.11-1.95c.22-.8,.34-1.64,.34-2.53,0-.75-.07-1.49-.21-2.21-.14-.73-.36-1.38-.66-1.98-.3-.59-.69-1.06-1.16-1.41-.48-.35-1.05-.53-1.71-.53-.87,0-1.58,.25-2.12,.75s-.95,1.15-1.21,1.95c-.26,.8-.39,1.66-.39,2.58,0,1.03,.14,2.01,.42,2.94,.28,.92,.72,1.68,1.3,2.26,.58,.58,1.32,.88,2.2,.88Z"/>
    <path class="cls-4" d="M449.7,499.12c-.52,0-.96-.12-1.33-.38-.37-.25-.55-.63-.55-1.15,0-.3,.1-.58,.3-.83s.46-.38,.77-.38c.4-.02,.67,.11,.81,.38s.21,.5,.21,.7v.16c0,.06,0,.12-.03,.19,.05,.03,.14,.05,.28,.05,.2,0,.42-.08,.65-.25,.23-.17,.44-.41,.62-.73,.22-.37,.47-.92,.76-1.65,.29-.73,.62-1.61,.99-2.62l-3.9-8.35c-.43-.93-.75-1.67-.94-2.22-.19-.55-.32-.96-.39-1.23l-1.2,.05v-1.02h5.18v.75h-.1c-.7,.05-1.08,.31-1.15,.79-.07,.48,.12,1.2,.57,2.16l2.93,6.27c.38-1.07,.75-2.12,1.1-3.16,.35-1.04,.7-2.08,1.05-3.11,.13-.37,.27-.75,.41-1.14,.14-.39,.28-.74,.42-1.05s.27-.5,.39-.59l-1.73,.1v-1.02h3.92v.75c-.62,.23-1.08,.62-1.39,1.16-.31,.54-.62,1.24-.94,2.09l-3.12,8.73c-.5,1.4-.96,2.59-1.38,3.56-.42,.98-.88,1.72-1.38,2.23-.5,.51-1.12,.76-1.88,.76Z"/>
    <path class="cls-4" d="M468.58,492.35c-.05-.28-.08-.53-.1-.75-.02-.22-.04-.44-.07-.67-.57,.57-1.18,1.01-1.84,1.34-.66,.32-1.35,.49-2.09,.49-1.27,0-2.21-.29-2.82-.86-.62-.58-.93-1.28-.93-2.11,0-.77,.24-1.43,.71-1.99,.47-.56,1.09-1.02,1.85-1.38,.76-.36,1.58-.62,2.48-.8,.89-.18,1.75-.25,2.59-.24v-1.55c0-.58-.05-1.13-.15-1.65-.1-.52-.32-.94-.65-1.28-.33-.33-.87-.51-1.6-.52-.48-.02-.98,.08-1.49,.27-.51,.2-.88,.54-1.11,1.03,.13,.13,.22,.29,.26,.46,.04,.17,.06,.34,.06,.49,0,.2-.08,.43-.25,.69-.17,.26-.46,.38-.88,.36-.35,0-.62-.12-.8-.36-.18-.24-.28-.53-.28-.86,0-.57,.21-1.08,.64-1.52,.42-.45,1.01-.81,1.76-1.08s1.6-.4,2.55-.4c1.4,0,2.43,.37,3.1,1.11,.67,.74,.99,1.91,.97,3.51v1.86c0,.62,0,1.25-.01,1.88s-.01,1.25-.01,1.89c0,.27,0,.53-.02,.8-.02,.27-.04,.57-.08,.9,.3-.02,.6-.03,.89-.05,.29-.02,.59-.03,.89-.05v1.05h-3.58Zm-.23-6.12c-.57,.02-1.16,.09-1.79,.21s-1.2,.31-1.72,.56c-.53,.25-.95,.58-1.28,.99s-.48,.9-.46,1.49c.03,.62,.24,1.08,.61,1.39s.82,.46,1.34,.46c.68,0,1.28-.13,1.79-.39,.51-.26,1.01-.62,1.51-1.09-.02-.18-.02-.38-.02-.6v-.67c0-.08,0-.35,.01-.8,0-.45,.01-.97,.01-1.55Z"/>
    <path class="cls-4" d="M473.62,491.6c.52,0,.88-.13,1.08-.39,.2-.26,.32-.62,.35-1.07,.03-.46,.05-.99,.05-1.59v-11.83c0-.27,0-.52,.01-.76,0-.24,.03-.53,.06-.86-.3,.02-.6,.03-.89,.05-.29,.02-.59,.03-.89,.05v-1.05c.73,0,1.3-.03,1.71-.1,.41-.07,.72-.15,.92-.25,.21-.1,.37-.21,.49-.33h.72l.03,16.23c0,.33,0,.63-.03,.89-.02,.26-.05,.53-.1,.81,.27-.02,.53-.03,.79-.04,.26,0,.52-.02,.79-.04v1.02h-5.1v-.75Z"/>
    <path class="cls-4" d="M488.05,476.72c0-.27,0-.52,.01-.76,0-.24,.03-.53,.06-.86-.3,.02-.6,.03-.89,.05-.29,.02-.59,.03-.89,.05v-1.05c.73,0,1.3-.03,1.71-.1s.72-.15,.93-.25c.21-.1,.37-.21,.49-.33h.72v7.45c.47-.47,1.02-.83,1.66-1.09,.64-.26,1.35-.39,2.11-.39,1.07,0,2.03,.26,2.89,.77,.86,.52,1.54,1.25,2.04,2.2,.5,.95,.75,2.07,.75,3.38,0,1.42-.31,2.65-.92,3.69-.62,1.04-1.42,1.85-2.4,2.41s-2.04,.85-3.17,.85c-.57,0-1.19-.1-1.86-.31-.67-.21-1.28-.61-1.81-1.21l-.6,1.12h-.88l.05-15.62Zm2.15,11.7c0,.88,.14,1.56,.42,2.04,.28,.48,.65,.8,1.1,.99,.45,.18,.92,.27,1.42,.27,.8,0,1.49-.23,2.08-.67,.58-.45,1.04-1.07,1.36-1.86,.33-.79,.49-1.71,.49-2.76,0-1.13-.14-2.13-.42-2.99-.28-.86-.71-1.53-1.28-2.02-.57-.49-1.28-.74-2.15-.74-.55,0-1.1,.13-1.64,.39-.54,.26-1,.6-1.39,1.04v6.33Z"/>
    <path class="cls-4" d="M507.85,492.75c-1.15,0-2.19-.27-3.11-.81-.92-.54-1.65-1.31-2.19-2.3s-.8-2.16-.8-3.51c0-1.17,.26-2.26,.79-3.27,.52-1.02,1.26-1.84,2.21-2.46s2.05-.94,3.3-.94c.7,0,1.35,.11,1.96,.34s1.15,.57,1.61,1.02c.47,.46,.83,1.03,1.1,1.73,.27,.69,.4,1.5,.4,2.44l-8.8,.15c0,1.27,.14,2.38,.41,3.34,.28,.96,.72,1.7,1.34,2.23,.62,.52,1.41,.79,2.38,.79,.52,0,1.05-.09,1.59-.27,.54-.18,1.04-.43,1.51-.75,.47-.32,.84-.67,1.12-1.05l.6,.5c-.45,.7-.99,1.26-1.62,1.68-.63,.42-1.28,.72-1.95,.9-.67,.18-1.28,.27-1.85,.27Zm-3.45-8.67h6.38c0-.6-.09-1.18-.26-1.74-.17-.56-.46-1.02-.86-1.38-.4-.36-.92-.54-1.58-.54-.97,0-1.77,.29-2.41,.86-.64,.58-1.06,1.5-1.26,2.79Z"/>
    <path class="cls-4" d="M520.57,492.75c-1.02,0-1.93-.25-2.75-.76-.82-.51-1.46-1.24-1.94-2.19-.48-.95-.71-2.07-.71-3.35,0-1.37,.28-2.58,.83-3.62,.55-1.05,1.31-1.88,2.29-2.48,.98-.6,2.08-.9,3.31-.9,.55,0,1.1,.07,1.64,.21s.97,.3,1.29,.49v-3.42c0-.27,0-.52,.01-.76,0-.24,.03-.53,.06-.86-.3,.02-.6,.03-.89,.05-.29,.02-.59,.03-.89,.05v-1.05c.73,0,1.3-.03,1.7-.1,.4-.07,.7-.15,.91-.25,.21-.1,.37-.21,.49-.33h.73v16.23c0,.27,0,.53-.03,.8-.02,.27-.04,.57-.08,.9,.3-.02,.6-.03,.89-.05,.29-.02,.59-.03,.89-.05v1.05h-3.58c-.05-.25-.09-.48-.11-.69-.03-.21-.05-.41-.06-.61-.47,.52-1.04,.93-1.73,1.24s-1.44,.46-2.27,.46Zm.9-1.23c.55,0,1.1-.16,1.66-.47,.56-.32,1.02-.71,1.39-1.18-.02-.2-.03-.41-.03-.64v-.74l.03-7.2c-.4-.3-.84-.52-1.31-.66-.48-.14-.96-.21-1.46-.21-.83,0-1.56,.24-2.17,.72-.62,.48-1.08,1.16-1.4,2.03s-.46,1.88-.42,3.05c.03,1.02,.2,1.92,.49,2.73,.29,.8,.71,1.43,1.25,1.89,.54,.46,1.2,.69,1.99,.69Z"/>
    <path class="cls-4" d="M530.17,491.6c.52,0,.88-.13,1.08-.39,.2-.26,.32-.62,.35-1.07,.03-.46,.05-.99,.05-1.59v-5.7c0-.27,0-.53,.01-.8,0-.27,.04-.54,.09-.83-.3,.02-.6,.03-.89,.04-.29,0-.59,.02-.89,.04v-1.03h.77c.72,0,1.21-.07,1.49-.21,.28-.14,.5-.3,.69-.46h.73c.03,.27,.06,.6,.08,.99,.02,.39,.03,.89,.05,1.49,.25-.42,.59-.83,1.02-1.23s.92-.73,1.46-1c.54-.27,1.11-.4,1.71-.4,.47,0,.88,.12,1.22,.38s.53,.65,.53,1.2c0,.13-.04,.3-.12,.49-.08,.19-.22,.36-.4,.5s-.42,.21-.72,.21c-.37-.02-.66-.16-.88-.44-.22-.27-.3-.6-.25-.96-.42-.02-.85,.09-1.29,.32-.44,.23-.85,.55-1.24,.96-.38,.41-.72,.89-1.03,1.44l.03,6.15c0,.33,0,.63-.01,.89,0,.26-.04,.53-.09,.81,.27-.02,.53-.03,.79-.04,.26,0,.52-.02,.79-.04v1.02h-5.12v-.75Z"/>
    <path class="cls-4" d="M547.02,492.75c-1.17,0-2.22-.27-3.17-.81s-1.7-1.29-2.26-2.25c-.56-.96-.84-2.05-.84-3.29,0-1.32,.27-2.5,.82-3.55,.55-1.05,1.3-1.88,2.25-2.49,.95-.61,2.02-.91,3.2-.91s2.23,.28,3.17,.84c.95,.56,1.71,1.31,2.28,2.26,.57,.95,.85,2.03,.85,3.25,0,1.28-.28,2.45-.84,3.51-.56,1.06-1.31,1.9-2.26,2.51-.95,.62-2.02,.92-3.2,.92Zm.2-1c.88,0,1.58-.25,2.1-.75s.89-1.15,1.11-1.95c.22-.8,.34-1.64,.34-2.53,0-.75-.07-1.49-.21-2.21-.14-.73-.36-1.38-.66-1.98-.3-.59-.69-1.06-1.16-1.41-.48-.35-1.05-.53-1.71-.53-.87,0-1.58,.25-2.12,.75s-.95,1.15-1.21,1.95c-.26,.8-.39,1.66-.39,2.58,0,1.03,.14,2.01,.42,2.94,.28,.92,.72,1.68,1.3,2.26,.58,.58,1.32,.88,2.2,.88Z"/>
    <path class="cls-4" d="M561.65,492.75c-1.17,0-2.22-.27-3.17-.81s-1.7-1.29-2.26-2.25c-.56-.96-.84-2.05-.84-3.29,0-1.32,.27-2.5,.82-3.55,.55-1.05,1.3-1.88,2.25-2.49,.95-.61,2.02-.91,3.2-.91s2.23,.28,3.17,.84c.95,.56,1.71,1.31,2.28,2.26,.57,.95,.85,2.03,.85,3.25,0,1.28-.28,2.45-.84,3.51-.56,1.06-1.31,1.9-2.26,2.51-.95,.62-2.02,.92-3.2,.92Zm.2-1c.88,0,1.58-.25,2.1-.75s.89-1.15,1.11-1.95c.22-.8,.34-1.64,.34-2.53,0-.75-.07-1.49-.21-2.21-.14-.73-.36-1.38-.66-1.98-.3-.59-.69-1.06-1.16-1.41-.48-.35-1.05-.53-1.71-.53-.87,0-1.58,.25-2.12,.75s-.95,1.15-1.21,1.95c-.26,.8-.39,1.66-.39,2.58,0,1.03,.14,2.01,.42,2.94,.28,.92,.72,1.68,1.3,2.26,.58,.58,1.32,.88,2.2,.88Z"/>
    <path class="cls-4" d="M570.07,492.35v-.75c.52,0,.88-.13,1.08-.39,.2-.26,.32-.62,.35-1.07,.03-.46,.05-.99,.05-1.59v-5.7c0-.27,0-.53,.01-.8,0-.27,.04-.54,.09-.83-.3,.02-.6,.03-.89,.05-.29,.02-.59,.03-.89,.05v-1.05c.73,0,1.29-.03,1.66-.1s.65-.15,.84-.25c.18-.1,.33-.21,.45-.33h.73c.03,.17,.05,.36,.06,.58,0,.22,.02,.47,.04,.75,.5-.43,1.08-.79,1.73-1.06,.65-.28,1.3-.41,1.95-.41,.83,0,1.53,.15,2.1,.45,.57,.3,1.01,.71,1.33,1.23,.57-.47,1.22-.86,1.96-1.19,.74-.32,1.47-.49,2.19-.49,1.45,0,2.52,.44,3.2,1.31s1.01,2.3,.97,4.29l-.02,4.65c0,.33,0,.63-.01,.89,0,.26-.04,.53-.09,.81,.27-.02,.53-.03,.79-.04,.26,0,.52-.02,.79-.04v1.02h-5.1v-.75c.52,0,.88-.13,1.08-.39,.2-.26,.32-.62,.35-1.07s.05-.99,.05-1.59v-3.5c0-1.43-.23-2.51-.69-3.23-.46-.72-1.18-1.07-2.16-1.05-.52,0-1.03,.12-1.55,.35-.52,.23-.97,.52-1.35,.88,.08,.27,.15,.55,.19,.86s.06,.63,.06,.96c-.02,.97-.02,1.94-.02,2.92s0,1.97-.03,2.95c0,.33,0,.63-.01,.89,0,.26-.04,.53-.09,.81,.27-.02,.53-.03,.79-.04,.26,0,.52-.02,.79-.04v1.02h-5.1v-.75c.52,0,.87-.13,1.06-.39,.19-.26,.31-.62,.35-1.07,.04-.46,.06-.99,.06-1.59l.03-3.5c.02-1.43-.19-2.52-.62-3.25s-1.14-1.09-2.12-1.08c-.52,0-1.03,.11-1.53,.34s-.92,.51-1.27,.86c0,.2,0,.41,.01,.64,0,.23,.01,.46,.01,.71v6.43c0,.33,0,.63-.01,.89,0,.26-.04,.53-.09,.81,.27-.02,.53-.03,.79-.04,.26,0,.52-.02,.79-.04v1.02h-5.1Z"/>
  </g>
  <rect class="cls-1" x="133.78" y="45.26" width="532.45" height="377.42" rx="40" ry="40"/>
  <g>
    <g>
      <path class="cls-3" d="M338.17,256.99c-3.91-5.26-8.78-8.92-14.62-10.97-2.44-.88-4.96-1.33-7.55-1.35l-4.11-.24c-2.61,.24-5.2,.57-7.79,1-3.33,.53-6.99,1.6-9.99,3.12-3.92,1.99-7.47,4.9-10.56,8-6.36,6.37-8.72,15.51-9.03,24.28-.21,5.98,1.55,11.87,3.9,17.31,1.26,3.13,3.18,5.82,5.76,8.05,3.01,1.45,6.15,2.54,9.41,3.27,4.61-.82,8.76-2.71,12.43-5.68,3.26-1.88,5.84-4.38,7.73-7.51,2.08-1.94,2.59-4.36,1.51-7.24-1.27-3.82-3.5-6.94-6.7-9.38-1.74-1.81-3.65-3.41-5.74-4.79-1.36-1.12-2.49-2.43-3.37-3.95,.94,1.69,1.88,3.39,2.82,5.08-1.31-2.45-2.63-4.91-3.94-7.36,.85,1.74,1.69,3.48,2.54,5.22-1.02-2.46-2.05-4.92-3.07-7.37,1.07,3.69,2.15,7.38,3.22,11.07-.54-3.32-1.09-6.65-1.63-9.97,.17,1.92,.35,3.84,.52,5.76l.08-2.14c-.29,1.4-.58,2.8-.86,4.2,.57-2.39,1.21-4.78,1.55-7.21-.37,1.35-.73,2.69-1.1,4.04l1.27-1.78-2.09,1.86c1.09-1.11,2.34-2,3.76-2.67,1.5-.68,3.07-1.17,4.7-1.45l-1.4,.32c1.43-.2,2.85-.23,4.28-.08,10.18,.84,19.53-2.96,28.06-11.41Z"/>
      <path class="cls-3" d="M267.15,211.29c1.04-2.06,1.03-3.91-.04-5.54l-3.69-.33c-2.61-.38-5.22-.31-7.8,.21l-1.83,.24c-4.16,.56-8.15,1.6-11.94,3.45-2.21,1.38-4.34,2.86-6.4,4.45-1.55,.97-2.91,2.14-4.08,3.52-1.42,1.32-2.56,2.86-3.42,4.62-1.49,2.22-2.44,4.64-2.86,7.27-.81,2.73-1.48,5.5-2,8.3-.39,2.69-.28,5.36,.34,8.01,.74,5.35,1.88,10.47,4.57,15.2,1.22,2.37,2.8,4.49,4.73,6.37,3.18,1.61,6.52,2.74,10.01,3.41,3.66-.42,7.02-1.63,10.08-3.62,3.98-1.85,7.62-4.25,10.92-7.21,1.38-1.63,2.76-3.26,4.15-4.89,1.01-3.73,.39-7.19-1.86-10.4-.99-1.22-1.98-2.44-2.97-3.65-2.83-4.11-6.93-6.65-12.29-7.64l4.22,2.54c-1.65-1.06-3.13-2.31-4.43-3.76-1.12-1.29-1.99-2.74-2.6-4.33l2.08,5.42c-.95-3.29-1.91-6.57-2.86-9.86,.58,3.8,1.16,7.6,1.73,11.4,.03-3.24,.07-6.49,.1-9.73-.42,3.3-.84,6.6-1.26,9.89,.74-2.4,1.48-4.81,2.22-7.21-.43,1.32-.87,2.64-1.3,3.96l1.21-1.34-2.05,1.71c2.3-1.5,3.91-2.16,6.57-2.88l-1.49,.27c2.93-.24,5.64-.2,8.49,.52,5.85,2.8,12.12,3.71,18.82,2.7-.27-.47-.55-.93-.84-1.39-2.38-3.88-4.79-7.74-7.19-11.61-.5-.81-4.76-8.19-5.05-8.07Z"/>
      <path class="cls-3" d="M283.03,129.46c-2.85-1.4-5.82-2.49-8.89-3.26-2.02-.28-4.05-.48-6.08-.61-3.38-.25-6.69,.28-10.03,.72-4.98,.66-9.61,2.44-13.82,5.16-3.18,2.06-6.31,4.31-8.81,7.2-2.63,3.03-4.76,6.87-6.12,10.62-1.46,4.04-1.97,8.19-2.29,12.45-.28,2.75-.15,5.48,.36,8.19l2.45,7.8c1.06,3.86,3.08,7.13,6.05,9.81,2.77,1.55,5.67,2.79,8.71,3.72,2.98-.22,5.65-1.21,8-2.98,3.09-1.57,5.81-3.66,8.14-6.29,.92-1.46,1.83-2.93,2.75-4.39,.21-3.65-.87-6.9-3.24-9.75-2.76-3.36-5.54-6.72-8.32-10.06,1.08,1.61,2.16,3.22,3.23,4.83l-4.69-7.12,2.97,4.99c-1.28-2.43-2.55-4.86-3.83-7.29l2.66,5.15-.93-2.39c.4,1.89,.79,3.78,1.19,5.67-.53-2.65-1.05-5.29-1.58-7.94,.31,1.91,.61,3.81,.92,5.72l-.76-10.34c.13,1.92,.26,3.85,.39,5.77l.37-2.27c-.3,1.39-.61,2.77-.91,4.16,.94-2.39,1.63-4.85,2.07-7.39l-1.21,3.99,1.43-1.86-2.09,1.77c1.45-1.48,3.13-2.57,5.02-3.26,1.17-.53,2.39-.92,3.67-1.16l-1.43,.23c1.85-.31,3.72-.39,5.59-.24,1.98,.08,3.86,.57,5.64,1.49,.71-.53,1.27-1.2,1.69-2,1.83-2.71,3.62-5.44,5.38-8.19-.14,.22,6.75-10.49,6.35-10.66Z"/>
      <path class="cls-3" d="M324.38,191.65c-2.02-2.09-4.49-3.29-7.4-3.59-1.96-.24-3.92-.41-5.88-.51-3.31-.21-6.56,.35-9.83,.83-4.8,.7-9.22,2.48-13.2,5.25-3.06,2.13-6.26,4.27-8.6,7.22-2.39,3.02-4.2,6.82-5.23,10.5-1.13,4.01-1.94,8.19-2.02,12.36,.27,4.65,1.13,9.18,2.58,13.6l1.48,3.77c1.46,3.04,3.37,5.77,5.75,8.19,3.15,1.62,6.46,2.76,9.93,3.44,3.61-.4,6.92-1.59,9.93-3.57,3.92-1.83,7.49-4.21,10.72-7.13,1.35-1.62,2.7-3.24,4.05-4.85,.96-3.72,.31-7.18-1.95-10.36-3.4-5.78-8.45-9.56-15.13-11.33,1.39,.85,2.79,1.7,4.18,2.55-1.62-1.07-3.07-2.33-4.34-3.8-1.1-1.31-1.93-2.76-2.5-4.37,.68,1.81,1.37,3.62,2.05,5.43-.91-3.3-1.82-6.61-2.74-9.91,.56,3.8,1.12,7.6,1.69,11.4,.07-3.26,.14-6.51,.21-9.77-.05,1.93-.1,3.85-.15,5.78,.19-2.36,.37-4.72,.56-7.08-.62,3.25-1.23,6.5-1.85,9.75,.56-1.23,1.34-2.31,2.34-3.22l-2.03,1.69c2.29-1.51,3.91-2.21,6.55-2.95l-1.46,.25c2.31-.24,4.53-.35,6.84,.04,1.09,.1,2.13,.41,3.1,.94,3.31,1.27,6.58,2.64,9.81,4.11,.1-.86,.2-1.72,.28-2.58,.34-3.25,.67-6.5,1.01-9.75,.34-3.25,.67-6.5,1-9.75,.09-.86,.18-1.72,.25-2.59Z"/>
      <path class="cls-3" d="M328.56,124.36c-3.02-1.64-6.2-2.89-9.52-3.78-2.06-.31-4.12-.53-6.2-.67-3.39-.27-6.72,.25-10.08,.68-5,.65-9.65,2.43-13.89,5.15-3.19,2.05-6.31,4.3-8.82,7.19-2.63,3.03-4.77,6.88-6.13,10.63-1.46,4.04-1.97,8.19-2.28,12.44-.27,2.75-.15,5.47,.37,8.18,.82,2.6,1.64,5.19,2.46,7.79,1.07,3.86,3.09,7.13,6.07,9.8,2.77,1.55,5.68,2.78,8.72,3.7,2.98-.23,5.64-1.22,7.99-2.99,3.09-1.58,5.8-3.68,8.12-6.3l2.74-4.4c.2-3.65-.89-6.9-3.26-9.74-2.77-3.35-5.57-6.68-8.39-9.98,1.08,1.61,2.16,3.22,3.24,4.83-1.57-2.37-3.14-4.74-4.71-7.11l2.97,4.99-3.84-7.27c.89,1.72,1.78,3.44,2.66,5.15l-.95-2.39,1.19,5.67c-.53-2.64-1.06-5.29-1.6-7.93l.92,5.72c-.26-3.45-.51-6.89-.77-10.34,.13,1.92,.26,3.85,.38,5.77l.37-2.27c-.3,1.38-.6,2.77-.91,4.15,.93-2.39,1.62-4.86,2.06-7.4l-1.21,3.99,1.43-1.87-2.07,1.76c1.45-1.49,3.11-2.58,5-3.29,1.16-.54,2.38-.94,3.64-1.19l-1.4,.22c1.81-.33,3.64-.44,5.48-.32,1.73-.04,3.39,.28,4.99,.98,.74-.49,1.35-1.11,1.84-1.86,2.06-2.54,4.09-5.1,6.08-7.68-.16,.21,7.57-9.9,7.31-10.03Z"/>
      <path class="cls-3" d="M241.15,180.98c-.36-1.88-1.72-2.76-4.1-2.65-2.52-.94-5.13-1.43-7.82-1.48l-4.17-.27c-2.67,.23-5.32,.55-7.97,.95-3.38,.49-7.1,1.55-10.16,3.05-4.06,1.98-7.56,4.85-10.79,7.95-3.43,3.29-6.06,7.54-7.64,12.02-1.44,4.08-2.01,8.11-2.25,12.45-.3,2.74-.2,5.47,.3,8.19,.79,2.6,1.58,5.21,2.37,7.81,1.15,3.83,3.23,7.06,6.25,9.68,2.77,1.47,5.65,2.67,8.64,3.61,2.95-.26,5.57-1.29,7.86-3.09,3.03-1.61,5.67-3.74,7.91-6.39,.87-1.47,1.74-2.94,2.61-4.42,.11-3.64-1.05-6.86-3.47-9.66-2.19-2.68-4.37-5.36-6.56-8.04l3.59,4.58c-1.72-2.2-3.43-4.4-5.15-6.6,1.11,1.59,2.22,3.18,3.32,4.77-1.81-3.12-3.63-6.24-5.44-9.36,.92,1.7,1.84,3.4,2.76,5.1l-.84-2.38,1.3,5.65c-.57-3.44-1.14-6.88-1.71-10.32l.8,5.73,.13-2.13c-.25,1.41-.5,2.82-.75,4.23,.39-2.15,.79-4.31,1.18-6.46-.27,1.39-.55,2.78-.82,4.17,.64-1.78,1.46-3.49,2.44-5.12l-2.05,1.82c1.2-1.11,2.55-2.01,4.03-2.71,1.56-.68,3.17-1.18,4.84-1.48l-1.42,.28c2.43-.18,4.78-.27,7.19,.23,4.13,.85,8.54,3.24,12.26,4.86,.16-.85,.29-1.71,.39-2.57,.45-3.24,.88-6.47,1.32-9.71,.44-3.24,.87-6.48,1.29-9.72,.13-.86,.23-1.72,.3-2.58Z"/>
      <path class="cls-3" d="M301.33,271.02c-2.56-8.8-7.41-14.73-14.55-17.8-1.56-.81-3.22-1.33-4.99-1.54-3.81-.64-7.87-.63-11.68-.16-2.77,.35-5.4,.78-8.08,1.58-2.09,.57-4.14,1.29-6.13,2.13-1.83,.99-3.6,2.08-5.31,3.26-5.92,3.93-10.83,10.19-13.33,16.83-1.46,3.87-2.42,7.89-2.48,12.06l.13,4.5c.02,4.19,.87,8.18,2.54,11.97l2.79,5.11c1.47,2.58,3.54,4.27,6.21,5.09,1.49,1.16,3.06,1.24,4.71,.25,3.22-.59,6.08-2.03,8.58-4.31l5.25-4.69c.93-1.49,1.86-2.99,2.79-4.48,.32-2.7-.31-5.1-1.88-7.21-1.18-2.71-3-4.95-5.45-6.72,9.5,9.64,.07,.07-1.89-1.92,1.27,1.46,2.55,2.92,3.82,4.38-1.7-2.15-3.4-4.3-5.1-6.45l3.56,4.59-1.36-2.13c.71,1.8,1.41,3.6,2.12,5.4l-2.91-7.54,1.86,5.49c-.84-3.37-1.69-6.73-2.53-10.1,.45,1.88,.9,3.75,1.34,5.63l-.14-2.34c-.11,1.43-.23,2.86-.34,4.3l.66-6.38-.48,4.24c.15-1.46,.63-2.81,1.42-4.05,.09-1.31,.73-2.34,1.91-3.08l-1.84,1.91c2.13-1.54,3.95-2.49,6.44-3.32l-1.58,.36c1.44-.43,2.91-.65,4.4-.65,10.6-.45,21.1-1.85,31.53-4.21Z"/>
      <path class="cls-3" d="M353.98,183.13c1.01-2.78-.39-3.95-4.2-3.53l-3.9-.42c-2.69-.43-5.37-.39-8.05,.13l-1.77,.21c-4.23,.52-8.29,1.57-12.15,3.42-2.25,1.38-4.43,2.87-6.54,4.45-1.51,.98-2.85,2.14-4.03,3.49-1.44,1.32-2.6,2.87-3.48,4.64-1.52,2.22-2.5,4.65-2.96,7.3-.87,2.71-1.53,5.48-1.98,8.29-.42,2.7-.32,5.37,.28,8.03,.69,5.34,1.89,10.48,4.55,15.21,1.2,2.38,2.77,4.5,4.72,6.37,3.13,1.62,6.42,2.76,9.87,3.44,3.58-.4,6.86-1.58,9.83-3.54,3.88-1.82,7.4-4.19,10.58-7.1l3.98-4.83c.92-3.72,.25-7.17-2.02-10.33-3.4-5.74-8.42-9.52-15.05-11.33,1.38,.85,2.77,1.7,4.15,2.56-1.26-.8-2.38-1.75-3.36-2.86-.99-.92-1.8-1.99-2.43-3.21,.79,1.77,1.58,3.54,2.37,5.31-1.1-2.48-2.19-4.96-3.29-7.44,.68,1.81,1.36,3.62,2.04,5.43l-2.66-9.93,1.67,11.41c.03-3.71,.26-7.4,.7-11.09-.62,3.25-1.25,6.49-1.87,9.74,.58-1.24,1.37-2.32,2.37-3.24l-2.01,1.68c2.28-1.51,3.91-2.23,6.55-3l-1.44,.24c2.61-.3,5.18-.42,7.78,.04,4.97,1.83,9.98,3.51,15.05,5.04-.05-.54-.11-1.08-.19-1.61-.12-.97-2.81-22.98-3.13-22.96Z"/>
      <path class="cls-3" d="M267.04,157.07c-2.88-2.13-6.02-3.75-9.42-4.86-1.95-.83-3.98-1.29-6.08-1.39-1.99-.22-3.99-.37-6-.44-2.61,.21-5.21,.52-7.79,.94-4.78,.71-9.15,2.5-13.1,5.28-3.07,2.16-6.29,4.19-8.64,7.18-1.16,1.57-2.16,3.24-3.01,4.99-1.66,2.86-2.66,5.98-3,9.36-.92,2.78-1.35,5.63-1.26,8.55l.25,3.99c.63,3.25,1.37,6.47,2.23,9.67l1.49,3.8c1.48,3.04,3.36,5.8,5.66,8.29,3.13,1.7,6.44,2.91,9.94,3.62,3.62-.33,6.96-1.44,10.02-3.35,3.96-1.74,7.6-4.05,10.89-6.91,1.39-1.59,2.78-3.18,4.16-4.77,1.05-3.7,.48-7.17-1.71-10.4-2.63-5.2-6.8-8.48-12.53-9.85l4.42,2.38c-2.31-1.4-4.62-2.81-6.92-4.21l4.14,2.63c-1.64-1.11-3.11-2.42-4.39-3.94-1.11-1.35-1.97-2.84-2.56-4.48,.65,1.82,1.31,3.64,1.96,5.46-.9-3.34-1.81-6.69-2.71-10.03,.5,3.81,1,7.62,1.49,11.43-.07-2.67-.14-5.35-.21-8.02v5.79c.28-2.98,.56-5.96,.85-8.94-.68,3.24-1.35,6.48-2.03,9.72,.54-1.25,1.31-2.35,2.29-3.29l-2.1,1.65c2.27-1.54,3.86-2.25,6.5-3.02l-1.52,.22c2.31-.25,4.52-.38,6.83,.01s4.64,1.49,6.77,2.61c.3,.16,7.71-9.95,7.6-9.8-.14,.19,7.45-9.91,7.51-9.87Z"/>
      <path class="cls-3" d="M304.96,149.94c-2.82-1.36-5.74-2.42-8.78-3.17l-3.89-.42c-4.71-.44-9.48,.01-14.11,.95-4.03,.82-7.67,2.68-11.03,4.95-3.7,2.51-7.24,5-9.7,8.8-1.12,1.62-2.09,3.33-2.91,5.13-1.01,3.25-1.88,6.53-2.61,9.85-1.02,4.44-.84,8.71,.13,13.14s1.93,8.51,4.14,12.44c1.22,2.37,2.76,4.52,4.64,6.45,3.13,1.7,6.44,2.9,9.92,3.6,3.61-.33,6.94-1.45,9.98-3.37,3.95-1.75,7.56-4.05,10.83-6.92l4.13-4.77c1.03-3.7,.44-7.17-1.76-10.39-2.66-5.17-6.84-8.44-12.56-9.8,1.47,.79,2.94,1.58,4.41,2.37-2.31-1.4-4.62-2.8-6.92-4.19l4.13,2.63c-1.65-1.11-3.11-2.41-4.4-3.92-1.11-1.34-1.96-2.83-2.55-4.47,.65,1.82,1.3,3.64,1.96,5.46l-2.69-10.03c.49,3.81,.99,7.62,1.48,11.43l-.2-8.02c0,1.93,0,3.86,0,5.79l.87-8.95c-.68,3.24-1.36,6.48-2.04,9.71,.55-1.26,1.32-2.36,2.3-3.31l-2.08,1.65c2.26-1.54,3.86-2.28,6.48-3.07l-1.49,.21c1.82-.34,3.66-.43,5.51-.26,1.99,.08,3.88,.59,5.66,1.52,.69-.55,1.24-1.23,1.65-2.03,1.79-2.73,3.54-5.49,5.26-8.27-.14,.22,6.6-10.57,6.21-10.74Z"/>
      <path class="cls-3" d="M356.53,219.93c-2.71-1.87-5.63-3.31-8.76-4.32-2.56-.99-5.22-1.5-7.96-1.54l-4.13-.26c-1.87,.17-3.73,.39-5.58,.68-4.15,.59-8.33,1.46-12.1,3.43-2.24,1.37-4.41,2.86-6.51,4.44-1.49,1.01-2.82,2.18-4,3.53-3.15,3.27-5.47,7.49-6.62,11.88-1.06,4.02-1.99,8.19-1.97,12.35,.03,5.84,1.73,11.98,4.1,17.31,1.44,3.05,3.37,5.76,5.8,8.12,3.15,1.56,6.45,2.66,9.91,3.32,3.6-.45,6.88-1.69,9.86-3.7,3.88-1.88,7.41-4.31,10.59-7.28,1.32-1.64,2.64-3.27,3.96-4.91,.9-3.74,.2-7.18-2.11-10.32-.98-1.21-1.98-2.41-2.99-3.61-2.85-4.01-6.9-6.51-12.15-7.51l4.2,2.5c-2.5-1.91-4.02-3.35-5.79-5.94,.81,1.76,1.62,3.52,2.44,5.27-1.12-2.45-2.24-4.91-3.36-7.36l2.11,5.4c-.92-3.28-1.83-6.55-2.75-9.83,.61,3.79,1.22,7.59,1.82,11.38,.04-3.67,.24-7.33,.61-10.99l-1.72,9.77c.58-1.22,1.37-2.28,2.38-3.17l-1.98,1.71c2.31-1.48,3.94-2.16,6.6-2.89l-1.43,.28c2.34-.22,4.59-.31,6.94,.12,2.65,.49,5.06,1.69,7.33,3.09,.25,.15,13.09-21.05,13.24-20.97Z"/>
      <path class="cls-3" d="M240.16,211.79c2.41-3.22,1.52-4.7-2.69-4.43l-3.71-.34c-2.68-.39-5.35-.35-8.02,.15l-4.06,.56c-3.46,.52-6.94,1.63-10.13,3.08-2.38,1.36-4.68,2.83-6.91,4.41-1.31,1.15-2.59,2.34-3.84,3.56-2.94,2.82-5.25,6.34-6.82,10.09-2.22,5.32-2.87,10.72-3.07,16.39-.2,5.86,1.53,11.27,4,16.56,1,2.79,2.7,5.12,5.11,6.99,2.79,1.43,5.68,2.6,8.68,3.52,2.97-.3,5.6-1.37,7.9-3.2,3.04-1.65,5.69-3.82,7.94-6.51,.87-1.49,1.74-2.98,2.61-4.47,.1-3.65-1.08-6.87-3.53-9.65-2.21-2.65-4.41-5.3-6.62-7.96l3.64,4.54c-1.74-2.18-3.47-4.35-5.21-6.53l3.37,4.73c-1.84-3.09-3.68-6.18-5.52-9.27l2.81,5.07-.85-2.35c.45,1.88,.9,3.76,1.36,5.64-.59-3.42-1.19-6.83-1.78-10.25,.28,1.91,.57,3.82,.85,5.72,.18-1.43,.36-2.87,.54-4.3l-.78,4.18c.15-2.03,.96-3.71,2.44-5.04l-2.02,1.85c1.21-1.09,2.55-1.98,4.04-2.66,1.57-.66,3.19-1.14,4.87-1.44l-1.41,.3c3.03-.18,5.84-.11,8.78,.65,5.11,2.32,10.52,3.58,16.21,3.79-.15-.52-.32-1.04-.5-1.55-1.46-4.31-2.98-8.6-4.49-12.9-.31-.88-3.29-8.92-3.19-8.97Z"/>
    </g>
    <g>
      <path class="cls-3" d="M551.11,345.43c-1.44,2.84-2.51,5.81-3.22,8.91-1.82,1.68-2.3,3.77-1.42,6.28,.46,4.71,1.81,9.13,3.41,13.55,1.4,3.89,3.47,7.73,5.88,11.09,2.79,3.88,5.73,7.1,9.23,10.32,2.14,.54,4.2,.21,6.17-.96,3.58-1.41,7.05-3.06,10.42-4.94,2.16-.78,3.71-2.17,4.65-4.17,.29-1.4-.19-2.43-1.46-3.09l-2.63-1.88c-1.13-1.11-2.25-2.22-3.38-3.33-1.71-1.68-3.01-3.66-4.39-5.62l.83,1.33c-2-3.85-3.68-7.67-4.09-12.06-.17-1.14-.17-2.28,0-3.43,.16-2.24,.21-4.49,.15-6.74-.41-2.38-.18-4.66,.7-6.85,.59-2.31,1.44-4.53,2.54-6.66-.83,.26-1.65,.54-2.46,.83-3.08,1.08-6.16,2.17-9.24,3.25-3.08,1.09-6.16,2.18-9.24,3.27-.82,.28-1.63,.58-2.44,.9Z"/>
      <path class="cls-3" d="M503.44,291.47c-1.42,2.82-2.5,5.76-3.24,8.83-4.56,4.5-6.71,9.68-6.47,15.54-.15,4.8,.46,9.68,1.97,14.25,.65,2.01,1.34,4,2.08,5.98,1.28,2.54,2.63,5.04,4.05,7.51,2.75,4.49,6.3,8.31,10.15,11.85,2.13,.65,4.2,.41,6.23-.72,3.62-1.31,7.14-2.86,10.54-4.66,2.2-.73,3.78-2.11,4.73-4.12,.31-1.44-.17-2.53-1.44-3.27l-2.61-1.84c-1.11-1.09-2.24-2.18-3.37-3.26-1.71-1.64-3.02-3.56-4.41-5.48l.8,1.42c-1.6-2.97-2.93-5.82-3.73-9.11-.35-1.22-.57-2.47-.66-3.74,.47-2.86-.01-5.59-1.45-8.18-.44-.74-.9-1.48-1.36-2.21-1.73-2.77-3.46-5.54-5.2-8.31-1.73-2.77-3.47-5.54-5.21-8.3-.46-.74-.92-1.47-1.4-2.19Z"/>
      <path class="cls-3" d="M504.79,226.98c-1.56,2.76-2.65,5.69-3.27,8.8,7.4-3.16,14.8-6.33,22.21-9.49-16.62-1.68-24.59,2.41-23.91,12.27-.12,2.07,.07,4.11,.59,6.13,.69,4.1,1.79,8.53,3.53,12.33,1.85,4.04,4.08,7.87,6.78,11.41,2.04,2.67,4.1,5.01,6.5,7.36l1.26,1.09,2.22,.1,3.85-1.32c2.67-1.1,5.27-2.35,7.79-3.75,2.21-1.17,5.11-2.42,6.57-4.52,.6-.47,.8-1.05,.59-1.75,.14-.93-.29-1.57-1.31-1.92-1.43-.83-2.7-1.85-3.8-3.07-1.1-1.08-2.2-2.18-3.28-3.28l1.02,1.36c-1.54-1.96-3.01-3.98-4.39-6.06l.81,1.21c-1.97-3.79-3.58-7.52-4.2-11.79-.2-.92-.24-1.85-.11-2.79,.09-2.48,.11-4.97,.08-7.46-.59-2.78-.34-5.43,.75-7.93,.69-2.25,1.55-4.43,2.59-6.55-.81,.31-1.61,.64-2.41,.98-3.01,1.26-6.02,2.53-9.03,3.8-3.01,1.27-6.02,2.54-9.03,3.82-.8,.33-1.6,.68-2.38,1.04Z"/>
      <path class="cls-3" d="M560.71,271.82c-1.51,2.79-2.58,5.74-3.22,8.84-10.09,3.65-14.87,9.59-14.34,17.83-.06,4.72,.55,9.5,2.05,13.98,.65,2,1.35,3.99,2.08,5.96,1.28,2.53,2.63,5.03,4.05,7.49,2.8,4.46,6.33,8.27,10.19,11.81,2.13,.62,4.21,.35,6.22-.81,3.6-1.36,7.1-2.96,10.48-4.81,2.19-.77,3.75-2.16,4.66-4.19,.29-1.45-.21-2.53-1.49-3.25l-2.6-1.85c-1.11-1.1-2.23-2.19-3.35-3.27-1.7-1.65-2.99-3.58-4.36-5.51l.82,1.4c-1.12-2.12-2.21-4.21-2.93-6.51-.31-.89-.55-1.8-.73-2.72-1.99-9.04-5.58-17.56-10.76-25.55-.86,8.22-1.72,16.44-2.58,24.67,.81-3.05,1.88-5.99,3.22-8.84,.1-.86,.19-1.72,.28-2.58,.34-3.25,.68-6.5,1.02-9.75,.34-3.25,.68-6.5,1.02-9.75,.09-.86,.18-1.72,.26-2.59Z"/>
      <path class="cls-3" d="M548.89,212.98c-1.42,2.78-2.49,5.69-3.22,8.72-.87,3.07-1.29,6.18-1.26,9.36-.1,4.8,.57,9.68,2.08,14.24,1.62,4.87,3.48,9.54,6.27,13.89,2.58,4.03,5.74,7.57,9.14,10.9l1.28,1.09,2.23,.09,3.84-1.36c2.66-1.12,5.25-2.4,7.75-3.83,2.19-1.2,5.08-2.47,6.52-4.6,.6-.48,.79-1.07,.56-1.77,.13-.94-.32-1.58-1.34-1.93-1.42-.83-2.69-1.86-3.79-3.07-1.1-1.09-2.19-2.18-3.26-3.29l1.04,1.35-2.76-3.69,.92,1.32c-.85-1.23-1.69-2.47-2.54-3.7l.83,1.21c-1.97-3.86-3.62-7.68-4.09-12.04-.62-5.71,1.38-10.87,3.64-16.01-.05,.11-12.12-3.54-11.9-3.48,.2,.06-11.82-3.64-11.93-3.4Z"/>
      <path class="cls-3" d="M477.49,261.15c-1.46,2.81-2.58,5.75-3.34,8.83-10.12,3.12-15.03,8.91-14.73,17.36-.26,4.95,.39,10.03,1.93,14.74,1.61,4.92,3.47,9.63,6.26,14.02,2.58,4.06,5.71,7.67,9.13,11.01l1.24,1.09,2.22,.12c1.29-.43,2.58-.85,3.86-1.28,2.69-1.06,5.3-2.28,7.84-3.66,2.22-1.15,5.13-2.35,6.63-4.43,.61-.46,.81-1.03,.61-1.73,.16-.92-.27-1.56-1.28-1.92l-2.65-1.91c-1.15-1.12-2.3-2.26-3.43-3.4-1.74-1.74-3.07-3.77-4.47-5.79l.79,1.23c-1.58-3.01-2.93-5.92-3.76-9.23-.33-1.16-.57-2.33-.71-3.53,.23-10.75-1.81-21.27-6.14-31.54Z"/>
      <path class="cls-3" d="M513.57,345.25c-1.44,2.86-2.53,5.84-3.28,8.95-.76,2.9-1.14,5.84-1.13,8.83-.12,4.81,.54,9.72,2.05,14.3,1.62,4.9,3.49,9.6,6.28,13.99,2.59,4.07,5.76,7.66,9.18,11.04l1.25,1.07,2.22,.09c1.28-.44,2.57-.88,3.85-1.32,2.67-1.09,5.27-2.34,7.8-3.73,2.21-1.17,5.11-2.4,6.59-4.49,.6-.46,.8-1.03,.6-1.73,.15-.92-.28-1.55-1.29-1.89-1.45-.86-2.73-1.9-3.85-3.14-1.12-1.11-2.22-2.23-3.31-3.36l1.01,1.35c-.92-1.25-1.85-2.49-2.77-3.74l.9,1.32-2.54-3.74,.81,1.22c-1.98-3.88-3.67-7.72-4.15-12.1-.66-5.96,1.54-11.63,3.87-16.98-.07,.17-12.24-3.06-12.03-3.01,.18,.05-11.92-3.22-12.05-2.93Z"/>
      <path class="cls-3" d="M590.3,263.29c-1.42,2.81-2.48,5.76-3.18,8.83-8.04,4.57-11.84,10.62-11.43,18.14-.03,5.39,.96,10.56,2.72,15.64,1.61,4.64,3.74,9.11,6.58,13.14,1.41,1.92,2.9,3.79,4.46,5.59,1.37,1.73,2.93,3.27,4.69,4.62,2.14,.61,4.21,.32,6.21-.86,3.59-1.39,7.07-3.03,10.43-4.91,2.18-.79,3.73-2.2,4.62-4.23,.27-1.45-.23-2.53-1.53-3.24l-2.59-1.85c-1.11-1.1-2.22-2.19-3.34-3.28-1.69-1.65-2.97-3.59-4.33-5.53l.84,1.39c-.95-1.7-1.78-3.45-2.5-5.26-2.98-10.58-7.93-20.36-14.83-29.34,1.1,8.19,2.21,16.39,3.31,24.58,.71-3.07,1.77-6.01,3.18-8.83-.09-.86-.2-1.72-.32-2.58-.43-3.24-.86-6.48-1.3-9.71-.43-3.24-.87-6.48-1.31-9.71-.11-.86-.23-1.72-.37-2.57Z"/>
      <path class="cls-3" d="M488.28,256.91l-1.93,4.3c5.04-6.56,10.07-13.11,15.11-19.67-16.7,5.61-23.93,14.14-21.68,25.59,.29,2.06,.64,4.11,1.05,6.14,.93,3.32,2.07,6.68,3.66,9.73,1.28,2.46,2.53,5.01,4.13,7.29,.9,1.17,1.8,2.34,2.7,3.51,1.86,2.54,4.02,4.8,6.46,6.78,2.13,.61,4.2,.34,6.2-.8,3.61-1.33,7.12-2.91,10.52-4.72,2.19-.74,3.76-2.11,4.72-4.11,.31-1.42-.16-2.48-1.43-3.19l-2.61-1.83c-1.12-1.09-2.24-2.17-3.37-3.24-1.71-1.64-3.02-3.56-4.41-5.47l.8,1.37c-2-3.69-3.6-7.31-4.28-11.49-.2-.87-.26-1.75-.17-2.64,.13-3.41-.49-6.74-1.84-9.99-2.26-3.64-2.64-7.2-1.15-10.68,.62-2.28,1.49-4.46,2.62-6.55-.55,.67-1.09,1.35-1.61,2.04-1.99,2.59-3.98,5.18-5.97,7.77-1.99,2.59-3.98,5.19-5.96,7.78-.53,.68-1.05,1.38-1.56,2.08Z"/>
      <path class="cls-3" d="M525.92,243.79c-1.43,2.84-2.51,5.81-3.24,8.91-1.6,.03-1.83,1.34-.67,3.94-.13,5.55,.83,10.86,2.62,16.11,1.6,4.66,3.73,9.15,6.55,13.22,2.67,3.85,5.73,7.11,9.16,10.26,2.13,.61,4.2,.33,6.21-.83,3.6-1.36,7.1-2.96,10.48-4.8,2.19-.76,3.74-2.15,4.68-4.16,.3-1.43-.19-2.5-1.47-3.21l-2.6-1.84c-1.11-1.09-2.23-2.18-3.35-3.26-1.7-1.64-3-3.57-4.37-5.5l.81,1.38c-1.99-3.76-3.63-7.47-4.17-11.75-.35-2.78,.08-5.62,.4-8.37,0-2.01,.37-3.94,1.09-5.8,.6-2.25,1.46-4.39,2.58-6.44-.86,.05-1.73,.12-2.59,.2-3.26,.28-6.51,.56-9.77,.84-3.25,.28-6.51,.56-9.76,.85-.86,.07-1.73,.15-2.59,.25Z"/>
      <path class="cls-3" d="M579.58,321.05c-1.41,2.84-2.46,5.8-3.18,8.89,4.42-6.98,8.84-13.97,13.27-20.95-6.34,8.04-12.68,16.09-19.02,24.13,.19,2.06,.66,4.04,1.4,5.96,1.12,3.35,2.27,6.41,3.97,9.53,1.02,1.86,2.03,3.71,3.22,5.46,2.61,3.82,5.74,7.09,9.14,10.19,2.14,.63,4.21,.36,6.22-.82,3.6-1.37,7.09-2.99,10.46-4.85,2.19-.78,3.74-2.18,4.64-4.22,.28-1.46-.23-2.55-1.52-3.28l-2.6-1.86c-1.11-1.1-2.22-2.19-3.34-3.28-1.69-1.65-2.98-3.59-4.34-5.53l.84,1.41c-2-3.85-3.67-7.69-4.05-12.09-.16-1.16-.16-2.32-.01-3.49,.42-3.42-.39-6.66-2.44-9.72-2.7-3.23-3.32-6.49-1.88-9.8,.58-2.3,1.42-4.5,2.53-6.61-.49,.72-.96,1.44-1.42,2.18-1.76,2.76-3.51,5.51-5.26,8.27-1.75,2.76-3.5,5.52-5.25,8.28-.47,.73-.93,1.46-1.37,2.21Z"/>
      <path class="cls-3" d="M476.49,291.95c-1.45,2.83-2.56,5.78-3.33,8.87-6.2,4.48-9.21,10.12-9.01,16.92-.26,5.69,.76,11.18,2.58,16.55,1.6,4.72,3.67,9.38,6.62,13.44,2.51,3.45,5.06,6.63,8.12,9.6l1.25,1.11,2.22,.14,3.87-1.26c2.69-1.05,5.3-2.27,7.85-3.63,2.22-1.14,5.14-2.34,6.64-4.42,.61-.46,.82-1.04,.61-1.74,.16-.93-.27-1.58-1.29-1.95l-2.65-1.92c-1.15-1.13-2.3-2.26-3.43-3.4-1.74-1.74-3.07-3.77-4.48-5.79l.8,1.25c-1.34-2.56-2.64-5.06-3.41-7.87-.23-.92-.46-1.85-.69-2.77-1.42-10.68-6.15-20.27-14.19-28.77,2.72,7.81,5.43,15.62,8.15,23.42,.65-1.45,1.3-2.9,1.95-4.35-.26-.83-.53-1.65-.83-2.46-1.07-3.09-2.14-6.17-3.22-9.26-1.08-3.08-2.16-6.17-3.24-9.25-.28-.82-.57-1.64-.89-2.44Z"/>
    </g>
    <g>
      <path class="cls-3" d="M404.1,315.63l-3.47,2.65c7.78-2.8,15.56-5.6,23.34-8.39-16.06-4.56-25.96-1.75-29.72,8.42-.84,1.67-1.37,3.44-1.6,5.31-.85,3.76-1.48,8.04-1.18,11.92,.57,7.29,2.69,14.14,6.9,20.15l.7,.95,1.99,.58,4.05,.1c2.88-.03,5.76-.18,8.63-.43,2.53-.19,5.47-.19,7.84-1.18,.64-.04,1.06-.35,1.25-.91,.51-.52,.38-1.01-.41-1.46l-2.35-3.05c-.63-1.69-1.47-3.26-2.53-4.7-1.14-1.66-1.72-3.44-2.36-5.34l.33,1.34c-.64-3.66-.89-7.26,.19-10.88,.24-1.04,.67-2,1.3-2.88,1.55-2.52,2.38-5.31,2.48-8.36-.4-3.43,.59-6.11,2.98-8.03,1.42-1.65,3.09-3,5.02-4.06-.83,.26-1.65,.53-2.46,.83-3.08,1.08-6.16,2.17-9.24,3.26-3.08,1.09-6.16,2.18-9.24,3.27-.82,.28-1.63,.58-2.44,.9Z"/>
      <path class="cls-3" d="M356.46,261.65c-2.47,1.52-4.67,3.38-6.58,5.57-3.24,2.46-5.66,5.52-7.27,9.16-2.06,4.13-3.4,8.71-3.66,13.33-.13,2.02-.21,4.03-.24,6.05,.29,2.66,.7,5.3,1.22,7.92,.43,1.87,1.05,3.67,1.87,5.42,.92,2.76,2.33,5.24,4.23,7.44,1.92,.84,3.93,1.1,6.05,.77,3.85-.09,7.68-.34,11.5-.77,1.16-.15,8.53-.66,5.74-3.82l-2.16-2.45c-.62-1.47-1.42-2.83-2.39-4.08-1.17-1.61-1.77-3.35-2.45-5.22l.3,1.37c-.64-3.23-.93-6.32-.36-9.59,.22-1.73,.86-3.31,1.93-4.74,1.13-2.4,2.91-4.17,5.36-5.3,.12-.09-6.65-10.75-6.52-10.55s-6.62-10.48-6.57-10.52Z"/>
      <path class="cls-3" d="M357.79,197.23c-2.51,1.44-4.7,3.25-6.6,5.43,7.62-3.22,15.23-6.43,22.85-9.65-9.22,2.71-18.43,5.41-27.65,8.12l-.47,1.83c-.53,1.95-.97,3.93-1.34,5.92-.47,3.88-.34,8.06,.3,11.9l.75,4.2c.58,1.79,1.25,3.55,1.99,5.28,1.1,2.53,2.32,4.65,3.86,6.97,.57,.97,1.47,1.39,2.7,1.26,3.27,.07,6.54-.04,9.8-.34,3.27-.19,6.52-.56,9.75-1.1,1.23-.05,2.06-.6,2.48-1.64-1.04-1.29-2.08-2.58-3.12-3.88l.67,1.23c-1.04-2.49-2.36-4.8-3.96-6.95-.7-1.41-1.28-2.88-1.73-4.39l.39,1.17c-.31-1.61-.65-3.22-.71-4.87-.07-1.74,.28-3.42,.32-5.14-.06-.62,.09-1.2,.46-1.74,1.24-3.07,2.23-6.23,2.98-9.48-.19-4.22,1.16-7.5,4.06-9.83,1.48-1.58,3.16-2.92,5.04-4.02-.81,.31-1.61,.64-2.4,.99-3.01,1.27-6.02,2.55-9.02,3.83-3.01,1.28-6.01,2.56-9.01,3.85-.8,.33-1.59,.68-2.38,1.05Z"/>
      <path class="cls-3" d="M393.39,255.92c5.57-3.79,11.14-7.58,16.71-11.37-.97,1.01-1.94,2.02-2.91,3.02-7.68,1.35-12.78,5.1-15.3,11.25-1.98,4.1-3.26,8.63-3.5,13.19-.12,2.01-.2,4.03-.23,6.05,.29,2.66,.7,5.3,1.23,7.93,.47,1.86,1.1,3.66,1.9,5.4,.93,2.77,2.34,5.26,4.24,7.47,1.93,.81,3.95,1.03,6.06,.67,3.84-.15,7.67-.46,11.49-.94,1.23-.18,8.44-.76,5.69-3.89l-2.15-2.44c-.63-1.46-1.42-2.82-2.37-4.07-1.15-1.62-1.74-3.36-2.4-5.23l.32,1.36c-.46-2.41-.81-4.72-.57-7.18l.32-2.5c.33-1.89,1.08-3.61,2.25-5.17,.28-.53-10.36-7.11-10.22-7.02,.21,.14-10.4-6.81-10.55-6.52Z"/>
      <path class="cls-3" d="M401.9,183.12c-2.44,1.53-4.62,3.37-6.54,5.52-2.18,1.91-3.66,4.27-4.45,7.08-.65,2.51-1.22,5.05-1.69,7.6-.09,1.95-.15,3.9-.18,5.85-.16,8.13,2.75,15.75,7.14,22.44,.59,.96,1.49,1.37,2.72,1.23,3.27,.02,6.54-.13,9.8-.47,3.27-.24,6.51-.65,9.73-1.24,1.23-.07,2.05-.64,2.46-1.69-1.04-1.28-2.08-2.57-3.12-3.85l.69,1.23c-1.06-2.47-2.38-4.78-3.95-6.93l-.91-2.07c-.86-2.23-1.09-4.76-1.03-7.13s.3-4.41,1.35-6.42c1.53-3.04,3.29-5.95,5.27-8.73,1.87-2.17,4.03-3.97,6.51-5.41-.82-.28-1.65-.54-2.48-.77-3.13-.93-6.26-1.86-9.4-2.78-3.13-.93-6.27-1.85-9.4-2.76-.83-.25-1.66-.49-2.5-.7Z"/>
      <path class="cls-3" d="M330.46,231.35c-1.18,.85-2.35,1.69-3.53,2.54l-3.09,3c-4.34,2.27-8.68,4.54-13.02,6.81l-2.74,4.38c-1.43,2.6-2.39,5.17-3.07,8.04-.29,1.36-.58,2.72-.87,4.08-.11,1.96-.18,3.93-.21,5.89-.19,8.06,2.63,15.83,7.08,22.44,.56,.97,1.46,1.4,2.68,1.29,3.27,.11,6.54,.03,9.81-.22,3.27-.15,6.52-.48,9.76-.99,1.23-.04,2.07-.58,2.5-1.61-1.04-1.3-2.08-2.61-3.12-3.91l.66,1.24c-1.03-2.51-2.35-4.84-3.96-7-.71-1.42-1.29-2.89-1.75-4.41l.38,1.18c-.54-2.77-.9-5.4-.57-8.22,.12-.84,.19-1.68,.22-2.52,4.71-9.75,5.66-20.42,2.84-32Z"/>
      <path class="cls-3" d="M366.56,315.45c-2.47,1.54-4.66,3.41-6.56,5.61-1.75,.87-2.92,2.28-3.49,4.22-1.94,3.89-2.98,8.55-3.08,12.88-.06,1.99-.07,3.98-.05,5.97,.39,2.67,.86,5.32,1.41,7.95,1.26,4.4,3.46,8.35,5.97,12.11,.6,.94,1.51,1.32,2.72,1.16,3.27-.01,6.54-.2,9.79-.57,3.26-.27,6.5-.7,9.72-1.32,1.22-.07,2.04-.63,2.45-1.66l-3.16-3.84,.7,1.18c-.92-2.08-2.03-4.05-3.33-5.91-.72-.93-1.25-1.97-1.59-3.11l.47,1.29c-1.33-4.03-2.1-8.35-.82-12.52,.7-2.29,1.93-4.32,3.1-6.41,1.04-2.75,2.63-5.07,4.77-6.97,1.47-1.63,3.15-3,5.05-4.13-.83-.24-1.67-.46-2.51-.66-3.17-.79-6.34-1.58-9.51-2.36-3.17-.79-6.34-1.57-9.52-2.34-.84-.22-1.68-.41-2.53-.59Z"/>
      <path class="cls-3" d="M443.28,233.5c-2.45,1.51-4.61,3.36-6.49,5.54-6.07,2.27-10.22,6.08-12.47,11.46-2.23,4.73-3.26,9.72-3.48,14.93-.19,4.62,.18,9.28,1.59,13.73,.75,2.18,1.63,4.31,2.62,6.39,.7,1.8,1.72,3.42,3.06,4.85,1.94,.79,3.96,.99,6.07,.61,3.84-.18,7.67-.54,11.48-1.06,2.14,0,4.09-.58,5.85-1.71,.79-.82,.73-1.57-.21-2.23l-2.14-2.43c-.63-1.45-1.42-2.81-2.36-4.07-1.14-1.62-1.72-3.36-2.37-5.24l.33,1.35c-.53-2.9-.74-5.56-.34-8.49,.09-1.08,.32-2.13,.7-3.15,5.67-8.84,5.08-18.79-1.75-29.84l-.1-.64Z"/>
      <path class="cls-3" d="M356.34,207.42c-2.48,1.5-4.67,3.34-6.57,5.53-10.68-2.42-17.69,.23-21.04,7.96-2.24,4.18-3.67,8.9-3.95,13.65-.14,2.03-.23,4.07-.27,6.1,.28,2.68,.68,5.34,1.2,7.98,.43,1.86,1.05,3.67,1.86,5.42,.93,2.77,2.35,5.27,4.25,7.49,1.92,.82,3.93,1.08,6.05,.76,3.85-.07,7.68-.31,11.51-.71,1.11-.14,8.5-.57,5.77-3.69l-2.18-2.49c-.62-1.49-1.42-2.86-2.41-4.12-1.17-1.61-1.79-3.34-2.47-5.22l.29,1.35c-.58-2.78-.87-5.4-.61-8.24,.07-.93,.17-1.85,.32-2.77,3.54-7.15,4.1-14.98,1.7-23.48-5.04,6.55-10.08,13.1-15.13,19.65,1.93-2.16,4.15-3.99,6.64-5.48,.55-.67,1.09-1.35,1.61-2.04,1.99-2.59,3.98-5.19,5.96-7.78,1.98-2.6,3.97-5.19,5.94-7.79,.53-.68,1.05-1.38,1.55-2.09Z"/>
      <path class="cls-3" d="M378.92,214.1c-2.49,1.44-4.68,3.26-6.56,5.44l-3.17,1.28c-.68,2.53-1.29,5.07-1.82,7.64-.14,1.96-.24,3.92-.29,5.88-.12,3.61,.4,7.4,1.37,10.88,.41,1.58,.96,3.11,1.66,4.59,.93,2.77,2.34,5.27,4.23,7.49,1.93,.81,3.95,1.04,6.06,.69,3.84-.13,7.67-.42,11.49-.88,1.17-.17,8.47-.71,5.71-3.81l-2.15-2.43c-.63-1.46-1.42-2.81-2.38-4.06-1.16-1.61-1.76-3.34-2.43-5.21l.31,1.35c-.7-3.51-.9-6.8-.23-10.35,.07-.81,.35-1.55,.84-2.21,1.2-2.33,2.23-4.74,3.1-7.22,.37-3.08,1.68-5.52,3.93-7.33,1.48-1.59,3.15-2.94,5.02-4.07-.86,.06-1.73,.13-2.59,.22-3.25,.31-6.51,.61-9.76,.92-3.25,.31-6.5,.62-9.76,.94-.86,.08-1.72,.17-2.58,.27Z"/>
      <path class="cls-3" d="M445.83,270.3c-2.42,1.56-4.58,3.43-6.47,5.6-10.81-1.01-17.77,2.27-20.88,9.82-1.89,4.01-3.08,8.5-3.29,12.93-.11,2-.18,4.01-.21,6.01,.3,2.65,.71,5.28,1.24,7.9,.48,1.85,1.12,3.65,1.91,5.4,.93,2.76,2.35,5.25,4.25,7.46,1.93,.8,3.96,1.01,6.07,.64,3.84-.17,7.67-.52,11.48-1.03,2.15,0,4.1-.57,5.86-1.7,.8-.83,.73-1.58-.2-2.25l-2.14-2.44c-.63-1.46-1.41-2.82-2.36-4.08-1.15-1.62-1.72-3.37-2.37-5.25l.33,1.36c-.37-2.04-.68-4.02-.56-6.1,.01-.82,.1-1.63,.25-2.43,1.39-9.73,2.61-19.48,3.66-29.25-4.44,6.98-8.87,13.95-13.31,20.93l3.51-2.54c.49-.72,.96-1.44,1.41-2.18,1.75-2.76,3.5-5.52,5.24-8.28,1.75-2.76,3.49-5.53,5.23-8.29,.47-.73,.92-1.47,1.36-2.21Z"/>
      <path class="cls-3" d="M329.48,262.15c-1.18,.85-2.36,1.7-3.54,2.55l-3.07,3.02-7.86,6.89c-.8,1.35-1.6,2.7-2.39,4.05-1.35,2.55-2.24,5.05-2.89,7.85-.28,1.35-.57,2.7-.85,4.05-.1,1.95-.17,3.91-.2,5.86-.17,8.02,2.64,15.81,7.09,22.38,.56,.98,1.45,1.42,2.69,1.31,3.27,.11,6.54,.03,9.81-.22,3.27-.15,6.52-.49,9.76-1,1.24-.04,2.07-.59,2.5-1.63l-3.12-3.93,.66,1.25c-1.03-2.51-2.35-4.85-3.96-7.01-.7-1.42-1.28-2.9-1.74-4.42l.38,1.19c-.45-2.33-.88-4.68-.67-7.07l.32-2.46c1.65-9.33-1.44-18.16-9.29-26.47,2.64,7.61,5.27,15.21,7.91,22.82,1.93-2.2,4.14-4.06,6.65-5.58-.25-.83-.53-1.65-.82-2.47-1.07-3.09-2.14-6.17-3.22-9.26-1.08-3.08-2.16-6.17-3.24-9.25-.28-.82-.57-1.64-.89-2.44Z"/>
    </g>
    <g>
      <path class="cls-3" d="M394.02,199.12c-3.44,1.3-4.87,3.75-4.31,7.35-.22,2.36-.26,4.72-.12,7.08,.2,6.27,1.52,12.02,3.32,18.01,.25,1.71,1.21,2.8,2.9,3.28,3.27,.45,6.56,.47,9.85,.06,3.31-.18,6.54-.77,9.68-1.8,1.58-.77,2.33-2.02,2.28-3.74-.72-1.83-1.45-3.67-2.17-5.5l.69,1.97c-1.29-4.16-2.13-8.14-2.15-12.51-.07-1.68,.04-3.35,.33-5.01-.82-6.24,.21-12.05,3.09-17.45-.83,.26-1.65,.53-2.46,.83-3.08,1.08-6.16,2.17-9.24,3.26-3.08,1.09-6.16,2.18-9.24,3.27-.82,.28-1.63,.58-2.44,.9Z"/>
      <path class="cls-3" d="M346.36,145.16c-2.03,5.93-4.9,11.44-8.62,16.54-.64,3.12-.97,6.27-.98,9.45-.1,7.1,1.3,13.65,3.34,20.4l.8,2.1,2.05,1.36,4.08,.44c2.89,.08,5.77-.09,8.63-.49,1.66-.06,3.28-.33,4.85-.83,1.21,.02,2.18-.42,2.91-1.32,.8-.39,1.19-1.03,1.17-1.91,.46-1.11,.28-2.17-.55-3.19l-1.35-3.41,.65,2.05-1.65-5.29,.53,1.82c-.6-2.33-.96-4.7-1.1-7.1-3.48-9.45-9.17-17.73-17.08-24.83,4.34,7.04,8.68,14.07,13.02,21.11l2.42-5.85c-.44-.75-.89-1.48-1.36-2.22-1.73-2.77-3.45-5.55-5.18-8.32-1.73-2.77-3.46-5.54-5.19-8.31-.45-.74-.92-1.47-1.39-2.19Z"/>
      <path class="cls-3" d="M347.71,80.71l-2.37,5.72c6.81-2.9,13.62-5.8,20.43-8.69-7.37,3.08-14.73,6.16-22.1,9.23l-.76,.39c-.21,4.17-.26,8.25,.22,12.41,.53,4.59,1.67,8.81,3,13.24,.29,1.6,1.26,2.58,2.89,2.93,3.28,.36,6.56,.33,9.84-.09,3.3-.21,6.53-.8,9.68-1.78,1.54-.66,2.3-1.8,2.28-3.43-.73-1.78-1.46-3.57-2.19-5.35l.69,1.78c-1.27-4.09-2.13-8.01-2.26-12.3-.09-1.45-.05-2.89,.11-4.33-.9-6.95,.22-13.43,3.36-19.43-.81,.31-1.61,.64-2.41,.99-3.01,1.27-6.02,2.55-9.02,3.83-3.01,1.28-6.01,2.56-9.01,3.85-.8,.33-1.59,.68-2.38,1.05Z"/>
      <path class="cls-3" d="M387.07,144.34q19.02-17.37,0,0c-.57,3.03-.86,6.08-.86,9.17-.07,7.08,1.33,13.6,3.37,20.33,.22,1.74,1.19,2.88,2.89,3.42,3.27,.5,6.55,.55,9.85,.16,3.31-.15,6.54-.74,9.69-1.76,1.59-.8,2.36-2.08,2.29-3.84l-2.16-5.5,.68,2.03c-.55-1.76-1.11-3.52-1.66-5.29l.56,1.8c-.59-2.35-.94-4.74-1.06-7.16-.13-2.18-.05-4.36,.26-6.53-.54-.77-1.31-1.23-2.31-1.39-3.1-1.04-6.22-2-9.37-2.88,.17,.05-12-3.75-12.16-2.56Z"/>
      <path class="cls-3" d="M391.8,66.66c-1.62,3.36-2.82,6.85-3.58,10.49-.63,3.12-.93,6.26-.91,9.44-.03,7.21,1.43,13.89,3.5,20.75,.31,1.6,1.28,2.58,2.92,2.92,3.28,.33,6.56,.27,9.84-.18,3.3-.24,6.52-.86,9.66-1.87,1.53-.68,2.28-1.83,2.25-3.46-.73-1.78-1.46-3.57-2.2-5.35l.71,1.78c-1.27-4.13-2.12-8.09-2.19-12.42-.08-1.57,0-3.13,.25-4.69,.77-3.64,1.96-7.14,3.58-10.49-.03,.07-12.12-3.57-11.9-3.5,.21,.06-11.84-3.62-11.92-3.41Z"/>
      <path class="cls-3" d="M303.4,133.35q19.44-16.96,0,0c-.79,3.3-1.18,6.64-1.17,10.03-.1,7.28,1.37,14.05,3.44,20.98,.28,1.6,1.24,2.58,2.87,2.95,3.28,.39,6.55,.38,9.84-.01,3.3-.18,6.53-.75,9.69-1.7,1.54-.64,2.31-1.77,2.31-3.4l-2.19-5.38,.68,1.78c-.93-2.97-1.71-5.86-2.05-8.97-.28-2.54-.3-5-.2-7.56-.58-.7-1.33-1.17-2.25-1.4-3.02-1.25-6.06-2.45-9.12-3.58,.24,.09-11.7-4.51-11.84-3.75Z"/>
      <path class="cls-3" d="M356.48,198.94c-1.6,3.32-2.78,6.78-3.55,10.37-.62,3.11-.93,6.25-.91,9.42-.04,7.26,1.43,14,3.5,20.91,.31,1.59,1.27,2.55,2.9,2.88,3.28,.34,6.56,.29,9.84-.15,3.3-.22,6.52-.83,9.67-1.81,1.53-.65,2.29-1.78,2.27-3.4l-2.2-5.41,.7,1.76c-1.27-4.18-2.13-8.19-2.2-12.58-.08-5.78,1.94-10.74,4.06-16.05-.05,.12-12.25-3.07-12.03-3.02,.2,.05-11.95-3.19-12.05-2.93Z"/>
      <path class="cls-3" d="M419.55,136.12q15.18-17.79,0,0c-.53,2.96-.79,5.95-.78,8.95-.05,7.06,1.35,13.56,3.39,20.28,.24,1.74,1.21,2.87,2.91,3.39,3.27,.47,6.56,.5,9.85,.09,3.31-.18,6.54-.79,9.68-1.84,1.59-.81,2.34-2.1,2.26-3.85-.72-1.83-1.44-3.67-2.17-5.5l.69,2.02c-.92-2.94-1.67-5.8-1.96-8.89-.27-2.91-.14-5.62,.16-8.54-.57-.74-1.36-1.18-2.35-1.31-3.13-.95-6.28-1.81-9.45-2.59,.15,.04-12.07-3.4-12.23-2.21Z"/>
      <path class="cls-3" d="M331.2,110.62l-2.4,5.74c5.04-6.55,10.08-13.11,15.11-19.66-7.5,5.76-14.47,12.06-20.92,18.9-1.44,1.31-1.54,3.14-.3,5.48,.43,5.35,1.65,10.36,3.2,15.5l.79,2.06,2.05,1.34,4.08,.44c2.89,.08,5.77-.08,8.63-.48,1.66-.05,3.28-.32,4.86-.81,1.21,.02,2.18-.41,2.91-1.3,.8-.38,1.19-1.01,1.17-1.88,.47-1.09,.29-2.14-.54-3.14l-1.36-3.41,.65,2.02-1.65-5.26,.53,1.79c-.71-3.42-1.29-6.77-1.21-10.28l.13-2.77c-4.67-8.49-4.89-16.49-.67-24-.55,.67-1.09,1.35-1.61,2.04-1.99,2.59-3.98,5.19-5.96,7.78-1.98,2.6-3.97,5.19-5.94,7.79-.53,.68-1.05,1.38-1.55,2.09Z"/>
      <path class="cls-3" d="M368.83,97.5c-1.43,3.13-2.61,6.36-3.54,9.67-.25,2.4-.3,4.8-.17,7.2,.17,6.25,1.48,11.97,3.28,17.93,.22,1.73,1.18,2.87,2.87,3.39,3.27,.5,6.55,.57,9.85,.19,3.31-.14,6.55-.71,9.7-1.72,1.59-.78,2.36-2.05,2.31-3.8l-2.16-5.47,.67,2.02-1.66-5.26,.55,1.79c-.7-3.45-1.3-6.87-1.14-10.41l.22-2.96c.25-5.22,1.56-10.14,3.93-14.75-.86,.05-1.73,.12-2.59,.2-3.25,.28-6.51,.57-9.76,.85-3.25,.29-6.51,.57-9.76,.86-.86,.07-1.73,.15-2.59,.25Z"/>
      <path class="cls-3" d="M422.49,174.75c-6.8-2.48-9.93-1.45-9.37,3.1-.16,2.4-.14,4.8,.06,7.2,.46,5.29,1.69,10.24,3.23,15.32,.23,1.75,1.2,2.89,2.91,3.42,3.27,.49,6.56,.52,9.85,.11,3.31-.17,6.54-.78,9.68-1.82,1.59-.82,2.35-2.11,2.27-3.88l-2.17-5.52,.69,2.04c-1.29-4.14-2.12-8.08-2.13-12.43-.06-1.69,.05-3.38,.34-5.05-5.59-8.13-6.28-15.94-2.09-23.44-.49,.72-.96,1.44-1.42,2.18-1.75,2.76-3.51,5.51-5.25,8.27-1.75,2.76-3.5,5.52-5.24,8.28-.47,.73-.93,1.46-1.37,2.21Z"/>
      <path class="cls-3" d="M319.4,145.64c-2.3,6.88-6.07,12.94-11.31,18.18-.74,3.25-1.11,6.54-1.11,9.88-.09,7.26,1.38,14.01,3.44,20.92,.28,1.61,1.24,2.6,2.87,2.97,3.28,.39,6.55,.39,9.84,0,3.3-.18,6.53-.75,9.69-1.71,1.54-.65,2.31-1.79,2.31-3.43-.73-1.8-1.46-3.6-2.19-5.39l.68,1.8c-1.12-3.56-2.03-6.99-2.23-10.74-.03-1.06-.07-2.12-.1-3.17,1.04-10.7-2.92-20.47-11.89-29.3Z"/>
    </g>
    <g>
      <path class="cls-3" d="M442.13,354.46c6.49,11.06,13.12,21.99,19.8,32.93,.95,1.2,2.18,1.56,3.7,1.1,3.08-1.16,6.01-2.63,8.78-4.41,2.87-1.62,5.54-3.52,8-5.71,1.12-1.12,1.37-2.38,.75-3.78-5.83-9.54-11.63-19.06-17.68-28.45-.83,.24-1.66,.51-2.47,.82-3.08,1.09-6.16,2.18-9.24,3.28,.2-.07-11.57,4.37-11.65,4.24Z"/>
      <path class="cls-3" d="M394.48,300.44c-3.05,12.39-1.26,23.2,5.37,32.41,3.04,4.97,6.08,9.95,9.12,14.92,.94,1.22,2.17,1.61,3.7,1.17,3.1-1.12,6.04-2.55,8.84-4.31,2.89-1.59,5.58-3.46,8.06-5.63,1.13-1.12,1.39-2.39,.78-3.8-2.95-4.83-5.91-9.65-8.87-14.47-5.4-10.28-14.4-17.04-27-20.29Z"/>
      <path class="cls-3" d="M395.81,235.99c6.53,10.9,13.12,21.75,19.74,32.59,.95,1.09,2.14,1.36,3.56,.83,3.05-1.24,5.95-2.76,8.7-4.56,2.85-1.65,5.51-3.56,7.99-5.72,1.12-1.03,1.41-2.21,.86-3.55-5.98-9.79-11.94-19.58-18.04-29.3-.19-.3-11.61,4.86-11.44,4.79,.21-.09-11.34,5-11.38,4.93Z"/>
      <path class="cls-3" d="M451.71,280.8c-8.9,13.17-9.61,24.76-2.11,34.75,2.97,4.87,5.94,9.75,8.91,14.62,.96,1.2,2.21,1.57,3.73,1.09,3.07-1.18,5.99-2.69,8.74-4.51,2.86-1.65,5.5-3.59,7.93-5.81,1.1-1.15,1.33-2.43,.69-3.83-3.01-4.93-6.01-9.86-9.02-14.78-4.67-8.42-10.96-15.6-18.88-21.54Z"/>
      <path class="cls-3" d="M439.9,221.96c2.36,9.46,6.15,18.21,11.37,26.25,2.98,4.93,5.98,9.86,8.98,14.78,.97,1.08,2.17,1.35,3.59,.79,3.03-1.28,5.9-2.85,8.63-4.7,2.82-1.7,5.45-3.65,7.88-5.86,1.1-1.06,1.36-2.26,.79-3.59-3.12-5.13-6.24-10.25-9.38-15.37-5.19-11.13-15.6-15.18-31.23-12.15l-.63-.14Z"/>
      <path class="cls-3" d="M368.46,270.13c-9.5,12.86-10.46,24.23-2.87,34.1,3.13,5.15,6.27,10.29,9.42,15.43,.93,1.11,2.11,1.41,3.54,.91,3.07-1.16,6.01-2.61,8.81-4.34,2.89-1.58,5.6-3.42,8.13-5.52,1.14-1,1.46-2.17,.96-3.52-3.01-4.94-6.04-9.88-9.08-14.81-4.84-8.52-11.15-15.93-18.91-22.25Z"/>
      <path class="cls-3" d="M404.57,354.28c2.24,9,5.87,17.3,10.91,24.91,3.14,5.15,6.28,10.29,9.42,15.43,.93,1.12,2.12,1.43,3.56,.93,3.08-1.16,6.01-2.62,8.81-4.35,2.89-1.59,5.59-3.43,8.11-5.54,1.14-1.01,1.45-2.2,.93-3.56-3.04-4.98-6.09-9.96-9.15-14.94-1.28-4.15-4.11-6.48-8.5-6.98-.83-.26-1.66-.48-2.51-.67-3.17-.79-6.34-1.57-9.52-2.34-3.17-.78-6.35-1.55-9.52-2.31-.84-.22-1.68-.41-2.54-.56Z"/>
      <path class="cls-3" d="M481.32,272.28c-6.54,13.39-6.2,25.06,1.03,35.03,2.92,4.82,5.84,9.64,8.78,14.45,.98,1.19,2.23,1.54,3.76,1.05,3.06-1.23,5.95-2.77,8.68-4.63,2.83-1.69,5.45-3.67,7.85-5.93,1.09-1.17,1.3-2.46,.63-3.85-3.03-4.99-6.07-9.98-9.12-14.97-4.84-9.04-12.04-16.1-21.59-21.17Z"/>
      <path class="cls-3" d="M379.29,265.9c1.73,4.29,3.87,8.35,6.45,12.18,3.03,4.96,6.06,9.92,9.09,14.88,.94,1.18,2.17,1.54,3.67,1.07,3.08-1.15,6.01-2.62,8.79-4.39,2.88-1.61,5.56-3.5,8.03-5.67,1.13-1.1,1.39-2.35,.79-3.74-2.97-4.87-5.95-9.74-8.93-14.6-3.99-6.67-8.27-13.15-12.84-19.44-.57,.66-1.11,1.33-1.62,2.03-1.99,2.59-3.98,5.18-5.96,7.78-1.98,2.6-3.96,5.19-5.94,7.8-.54,.68-1.05,1.38-1.53,2.1Z"/>
      <path class="cls-3" d="M416.94,252.82c3.38,7.38,7.22,14.49,11.54,21.33,2.97,4.87,5.94,9.75,8.91,14.62,.96,1.18,2.2,1.53,3.7,1.04,3.07-1.2,5.97-2.71,8.72-4.53,2.85-1.66,5.49-3.6,7.93-5.81,1.1-1.13,1.34-2.39,.71-3.78-3.02-4.95-6.03-9.89-9.05-14.84-1.97-3.88-4.56-7.31-7.77-10.28-.87,.04-1.73,.11-2.59,.2-3.25,.29-6.51,.58-9.76,.88-3.25,.3-6.51,.59-9.76,.9-.86,.07-1.73,.16-2.58,.27Z"/>
      <path class="cls-3" d="M470.59,330.04c1.33,4.33,3.29,8.35,5.88,12.05,2.95,4.86,5.91,9.71,8.87,14.56,.97,1.22,2.22,1.59,3.76,1.12,3.07-1.19,5.98-2.7,8.73-4.53,2.85-1.66,5.48-3.61,7.9-5.85,1.1-1.18,1.31-2.47,.65-3.87-3.01-4.94-6.02-9.88-9.03-14.81-4.01-6.84-8.49-13.37-13.44-19.59-.5,.7-.98,1.43-1.44,2.17-1.76,2.75-3.52,5.5-5.27,8.26-1.76,2.76-3.5,5.51-5.25,8.28-.48,.72-.93,1.46-1.35,2.22Z"/>
      <path class="cls-3" d="M375.66,324.35c-4.78,9.73-3.42,18.23,4.07,25.48,.92,1.12,2.11,1.44,3.55,.96,3.08-1.14,6.03-2.57,8.84-4.29,2.9-1.57,5.61-3.39,8.15-5.49,1.15-1,1.47-2.19,.96-3.55-3-4.92-6.02-9.84-9.05-14.74-5.34-9.84-13.58-17.1-24.71-21.78,.24,.83,.5,1.66,.8,2.47,1.07,3.09,2.14,6.17,3.22,9.26-.07-.2,4.31,11.59,4.16,11.68Z"/>
    </g>
  </g>
</svg>