<?xml version="1.0" encoding="UTF-8"?>
<svg id="droite" xmlns="http://www.w3.org/2000/svg" viewBox="0 0 800 600">
  <defs>
    <style>
      .cls-1 {
        fill: #1c2e25;
      }

      .cls-2 {
        fill: #ddc05d;
      }

      .cls-3 {
        fill: #fff;
        opacity: .75;
      }

      .cls-4 {
        fill: #999;
      }

      .cls-5 {
        fill: #663606;
      }

      .cls-6 {
        fill: #1b3c43;
      }
    </style>
  </defs>
  <rect class="cls-3" x="133.78" y="45.26" width="532.45" height="488.52" rx="40" ry="40"/>
  <rect class="cls-4" x="133.78" y="45.26" width="532.45" height="377.42" rx="40" ry="40"/>
  <g>
    <path d="M203.11,439.28c-.62,.02-1.05,.16-1.29,.42-.24,.27-.38,.62-.4,1.08s-.04,.97-.04,1.58v10.62c0,.45,0,.84-.01,1.16,0,.33-.03,.6-.06,.81l.9-.05c.3-.02,.6-.03,.9-.05v1.1h-5.62v-.83c.63-.03,1.07-.18,1.3-.44,.23-.26,.36-.62,.39-1.07,.03-.46,.04-.98,.04-1.56v-10.8c0-.33,0-.65,.03-.96s.03-.59,.05-.84c-.3,.02-.6,.03-.9,.05-.3,.02-.6,.03-.9,.05v-1.1h5.62v.83Z"/>
    <path d="M220.19,455.2c.52,0,.88-.13,1.08-.39,.2-.26,.32-.62,.35-1.07,.03-.46,.05-.99,.05-1.59v-3.5c0-1.43-.23-2.51-.69-3.22-.46-.72-1.18-1.07-2.16-1.05-.62,.02-1.22,.17-1.81,.45-.59,.28-1.07,.65-1.44,1.1v7.38c0,.33,0,.63-.03,.89-.02,.26-.05,.53-.1,.81,.27-.02,.53-.03,.79-.04,.26,0,.52-.02,.79-.04v1.02h-5.1v-.75c.52,0,.88-.13,1.08-.39,.2-.26,.32-.62,.36-1.07,.04-.46,.06-.99,.06-1.59v-11.83c0-.27,0-.52,.01-.76,0-.24,.03-.53,.06-.86-.3,.02-.6,.03-.89,.05-.29,.02-.59,.03-.89,.05v-1.05c.73,0,1.3-.03,1.71-.1s.72-.15,.92-.25c.21-.1,.37-.21,.49-.33h.72v7.62c.37-.32,.78-.6,1.24-.84,.46-.24,.93-.44,1.42-.59,.49-.15,.97-.22,1.44-.22,1.45,0,2.5,.45,3.14,1.36s.97,2.32,.99,4.24l.03,4.65c0,.33,0,.63-.01,.89,0,.26-.04,.53-.09,.81,.27-.02,.53-.03,.79-.04,.26,0,.52-.02,.79-.04v1.02h-5.1v-.75Z"/>
    <path d="M234.74,455.95c-.05-.28-.08-.53-.1-.75-.02-.22-.04-.44-.07-.67-.57,.57-1.18,1.01-1.84,1.34-.66,.32-1.35,.49-2.09,.49-1.27,0-2.21-.29-2.82-.86-.62-.58-.93-1.28-.93-2.11,0-.77,.24-1.43,.71-1.99,.47-.56,1.09-1.02,1.85-1.38,.76-.36,1.58-.62,2.48-.8s1.75-.25,2.59-.24v-1.55c0-.58-.05-1.13-.15-1.65-.1-.52-.32-.94-.65-1.28-.33-.33-.87-.51-1.6-.52-.48-.02-.98,.08-1.49,.27-.51,.2-.88,.54-1.11,1.03,.13,.13,.22,.29,.26,.46,.04,.17,.06,.34,.06,.49,0,.2-.08,.43-.25,.69s-.46,.38-.88,.36c-.35,0-.62-.12-.8-.36s-.28-.53-.28-.86c0-.57,.21-1.08,.64-1.53s1.01-.81,1.76-1.08,1.6-.4,2.55-.4c1.4,0,2.43,.37,3.1,1.11,.67,.74,.99,1.91,.97,3.51v1.86c0,.62,0,1.25-.01,1.88s-.01,1.25-.01,1.89c0,.27,0,.53-.02,.8s-.04,.57-.08,.9c.3-.02,.6-.03,.89-.05,.29-.02,.59-.03,.89-.05v1.05h-3.58Zm-.23-6.12c-.57,.02-1.16,.09-1.79,.21s-1.2,.31-1.72,.56c-.53,.25-.95,.58-1.28,.99s-.48,.9-.46,1.49c.03,.62,.24,1.08,.61,1.39s.82,.46,1.34,.46c.68,0,1.28-.13,1.79-.39,.51-.26,1.01-.62,1.51-1.09-.02-.18-.02-.38-.02-.6v-.67c0-.08,0-.35,.01-.8,0-.45,.01-.97,.01-1.55Z"/>
    <path d="M244.49,456.03l-3.57-8.15c-.27-.63-.48-1.17-.62-1.62-.15-.45-.25-.82-.31-1.12-.06-.3-.1-.54-.11-.72l-1.07,.08v-1.03h4.6v.75c-.5,0-.82,.13-.96,.39-.14,.26-.16,.6-.06,1.03,.1,.42,.25,.88,.45,1.36l1.92,4.4c.13,.28,.26,.58,.39,.89,.12,.31,.25,.63,.36,.96h.03c.08-.25,.18-.52,.29-.8s.2-.56,.29-.83l2-5.48c.13-.4,.27-.75,.42-1.05s.26-.52,.33-.67l-1.6,.08v-1.03h3.95v.75c-.37,0-.67,.12-.92,.38s-.49,.62-.71,1.12c-.22,.5-.49,1.12-.79,1.88l-3.28,8.45h-1Z"/>
    <path d="M258.29,456.35c-1.15,0-2.19-.27-3.11-.81-.92-.54-1.65-1.31-2.19-2.3-.53-.99-.8-2.16-.8-3.51,0-1.17,.26-2.26,.79-3.28,.52-1.02,1.26-1.84,2.21-2.46s2.05-.94,3.3-.94c.7,0,1.35,.11,1.96,.34,.61,.23,1.15,.57,1.61,1.03s.83,1.03,1.1,1.72c.27,.69,.4,1.5,.4,2.44l-8.8,.15c0,1.27,.14,2.38,.41,3.34,.28,.96,.72,1.7,1.34,2.23,.62,.52,1.41,.79,2.38,.79,.52,0,1.05-.09,1.59-.27,.54-.18,1.04-.43,1.51-.75s.84-.67,1.12-1.05l.6,.5c-.45,.7-.99,1.26-1.62,1.68-.63,.42-1.28,.72-1.95,.9-.67,.18-1.28,.28-1.85,.28Zm-3.45-8.67h6.38c0-.6-.09-1.18-.26-1.74-.17-.56-.46-1.02-.86-1.38-.4-.36-.92-.54-1.58-.54-.97,0-1.77,.29-2.41,.86-.64,.58-1.06,1.5-1.26,2.79Z"/>
    <path d="M277.48,456.35c-.83,0-1.57-.11-2.22-.34-.65-.22-1.18-.48-1.6-.76l.1,.88h-1.05l-.15-4.3h.78c.03,.68,.22,1.3,.58,1.84,.35,.54,.8,.96,1.35,1.26,.55,.3,1.14,.45,1.78,.45,.43,0,.86-.07,1.27-.21s.77-.36,1.05-.65c.28-.29,.43-.66,.43-1.11s-.14-.85-.41-1.16c-.27-.31-.64-.58-1.09-.81-.45-.23-.93-.45-1.45-.65-.5-.2-1-.41-1.5-.62s-.96-.47-1.39-.78c-.42-.3-.76-.67-1.01-1.1s-.38-.97-.38-1.6c0-.35,.07-.73,.2-1.15,.13-.42,.36-.81,.67-1.19s.75-.68,1.3-.92c.55-.24,1.25-.36,2.1-.36,.45,0,.95,.07,1.5,.22s1.08,.43,1.6,.85l-.05-.95h1.05v4.38h-.8c-.03-.58-.17-1.15-.4-1.69-.23-.54-.57-.99-1.02-1.35s-1.03-.54-1.75-.54c-.77,0-1.37,.19-1.8,.58-.43,.38-.65,.82-.65,1.32s.16,.95,.49,1.29,.75,.64,1.26,.89,1.07,.49,1.65,.72c.63,.27,1.25,.56,1.85,.88s1.09,.71,1.47,1.19c.38,.47,.58,1.09,.58,1.84,0,.83-.21,1.52-.64,2.07-.42,.55-.97,.96-1.62,1.21s-1.35,.39-2.06,.39Z"/>
    <path d="M289.99,456.35c-1.15,0-2.19-.27-3.11-.81-.92-.54-1.65-1.31-2.19-2.3-.53-.99-.8-2.16-.8-3.51,0-1.17,.26-2.26,.79-3.28,.52-1.02,1.26-1.84,2.21-2.46s2.05-.94,3.3-.94c.7,0,1.35,.11,1.96,.34,.61,.23,1.15,.57,1.61,1.03s.83,1.03,1.1,1.72c.27,.69,.4,1.5,.4,2.44l-8.8,.15c0,1.27,.14,2.38,.41,3.34,.28,.96,.72,1.7,1.34,2.23,.62,.52,1.41,.79,2.38,.79,.52,0,1.05-.09,1.59-.27,.54-.18,1.04-.43,1.51-.75s.84-.67,1.12-1.05l.6,.5c-.45,.7-.99,1.26-1.62,1.68-.63,.42-1.28,.72-1.95,.9-.67,.18-1.28,.28-1.85,.28Zm-3.45-8.67h6.38c0-.6-.09-1.18-.26-1.74-.17-.56-.46-1.02-.86-1.38-.4-.36-.92-.54-1.58-.54-.97,0-1.77,.29-2.41,.86-.64,.58-1.06,1.5-1.26,2.79Z"/>
    <path d="M303.41,456.35c-1.15,0-2.19-.27-3.11-.81-.92-.54-1.65-1.31-2.19-2.3-.53-.99-.8-2.16-.8-3.51,0-1.17,.26-2.26,.79-3.28,.52-1.02,1.26-1.84,2.21-2.46s2.05-.94,3.3-.94c.7,0,1.35,.11,1.96,.34,.61,.23,1.15,.57,1.61,1.03s.83,1.03,1.1,1.72c.27,.69,.4,1.5,.4,2.44l-8.8,.15c0,1.27,.14,2.38,.41,3.34,.28,.96,.72,1.7,1.34,2.23,.62,.52,1.41,.79,2.38,.79,.52,0,1.05-.09,1.59-.27,.54-.18,1.04-.43,1.51-.75s.84-.67,1.12-1.05l.6,.5c-.45,.7-.99,1.26-1.62,1.68-.63,.42-1.28,.72-1.95,.9-.67,.18-1.28,.28-1.85,.28Zm-3.45-8.67h6.38c0-.6-.09-1.18-.26-1.74-.17-.56-.46-1.02-.86-1.38-.4-.36-.92-.54-1.58-.54-.97,0-1.77,.29-2.41,.86-.64,.58-1.06,1.5-1.26,2.79Z"/>
    <path d="M310.91,455.95v-.75c.52,0,.88-.13,1.08-.39,.2-.26,.32-.62,.35-1.07,.03-.46,.05-.99,.05-1.59l.02-5.7c0-.27,0-.53,.01-.8s.04-.54,.09-.83c-.3,.02-.6,.03-.89,.05-.29,.02-.59,.03-.89,.05v-1.05c.73,0,1.29-.03,1.66-.1s.65-.15,.84-.25,.33-.21,.45-.33h.72c.02,.12,.03,.25,.04,.4,0,.15,.02,.32,.04,.5s.03,.39,.03,.62c.37-.32,.77-.6,1.21-.85s.91-.45,1.4-.6c.49-.15,.98-.22,1.46-.22,1.45,0,2.51,.45,3.17,1.36,.67,.91,1,2.32,1,4.24v4.65c0,.33,0,.63-.01,.89,0,.26-.04,.53-.09,.81,.27-.02,.53-.03,.79-.04,.26,0,.52-.02,.79-.04v1.02h-5.1v-.75c.52,0,.88-.13,1.08-.39,.2-.26,.32-.62,.35-1.07,.03-.46,.05-.99,.05-1.59v-3.5c-.02-1.43-.25-2.52-.71-3.25-.46-.73-1.18-1.09-2.16-1.08-.6,.02-1.19,.17-1.76,.48-.57,.3-1.05,.68-1.44,1.15,.02,.13,.03,.28,.03,.45v.53l-.03,6.38c0,.33,0,.63-.01,.89,0,.26-.04,.53-.09,.81,.27-.02,.53-.03,.79-.04,.26,0,.52-.02,.79-.04v1.02h-5.1Z"/>
    <path d="M337.36,456.35c-.38,0-.77-.05-1.17-.16s-.77-.32-1.11-.64c-.34-.32-.61-.78-.81-1.39s-.3-1.41-.3-2.41l.05-7.25-1.92,.03v-1.08c.43-.02,.88-.18,1.32-.49,.45-.31,.85-.73,1.21-1.26,.36-.53,.6-1.12,.74-1.75h.85v3.5h4.2v.98l-4.2,.05-.05,6.95c0,.75,.06,1.39,.19,1.91s.33,.92,.61,1.19c.28,.27,.65,.4,1.1,.4s.9-.13,1.31-.4,.77-.63,1.09-1.1l.67,.55c-.37,.55-.73,.98-1.09,1.3s-.7,.55-1.04,.71c-.33,.16-.64,.26-.92,.3-.28,.04-.53,.06-.73,.06Z"/>
    <path d="M350.36,455.2c.52,0,.88-.13,1.08-.39,.2-.26,.32-.62,.35-1.07,.03-.46,.05-.99,.05-1.59v-3.5c0-1.43-.23-2.51-.69-3.22-.46-.72-1.18-1.07-2.16-1.05-.62,.02-1.22,.17-1.81,.45-.59,.28-1.07,.65-1.44,1.1v7.38c0,.33,0,.63-.03,.89-.02,.26-.05,.53-.1,.81,.27-.02,.53-.03,.79-.04,.26,0,.52-.02,.79-.04v1.02h-5.1v-.75c.52,0,.88-.13,1.08-.39,.2-.26,.32-.62,.36-1.07,.04-.46,.06-.99,.06-1.59v-11.83c0-.27,0-.52,.01-.76,0-.24,.03-.53,.06-.86-.3,.02-.6,.03-.89,.05-.29,.02-.59,.03-.89,.05v-1.05c.73,0,1.3-.03,1.71-.1s.72-.15,.92-.25c.21-.1,.37-.21,.49-.33h.72v7.62c.37-.32,.78-.6,1.24-.84,.46-.24,.93-.44,1.42-.59,.49-.15,.97-.22,1.44-.22,1.45,0,2.5,.45,3.14,1.36s.97,2.32,.99,4.24l.03,4.65c0,.33,0,.63-.01,.89,0,.26-.04,.53-.09,.81,.27-.02,.53-.03,.79-.04,.26,0,.52-.02,.79-.04v1.02h-5.1v-.75Z"/>
    <path d="M357.31,455.2c.52,0,.88-.13,1.08-.39,.2-.26,.32-.62,.35-1.07,.03-.46,.05-.99,.05-1.59v-5.7c0-.27,0-.52,.02-.76,.02-.24,.04-.53,.08-.86-.3,.02-.6,.03-.89,.05-.29,.02-.59,.03-.89,.05v-1.05c.73,0,1.3-.03,1.7-.1,.4-.07,.7-.15,.91-.25,.21-.1,.37-.21,.49-.33h.72v10.1c0,.33,0,.63-.01,.89,0,.26-.04,.53-.09,.81,.27-.02,.53-.03,.79-.04,.26,0,.52-.02,.79-.04v1.02h-5.1v-.75Zm2.43-14.47c-.35,0-.66-.14-.93-.42s-.4-.63-.4-1.05,.14-.77,.41-1.06c.28-.29,.59-.44,.94-.44,.38,0,.7,.15,.96,.44,.26,.29,.39,.65,.39,1.06s-.14,.77-.41,1.05c-.27,.28-.6,.42-.96,.42Z"/>
    <path d="M369.46,456.35c-.83,0-1.57-.11-2.22-.34-.65-.22-1.18-.48-1.6-.76l.1,.88h-1.05l-.15-4.3h.78c.03,.68,.22,1.3,.58,1.84,.35,.54,.8,.96,1.35,1.26,.55,.3,1.14,.45,1.78,.45,.43,0,.86-.07,1.27-.21s.77-.36,1.05-.65c.28-.29,.43-.66,.43-1.11s-.14-.85-.41-1.16c-.27-.31-.64-.58-1.09-.81-.45-.23-.93-.45-1.45-.65-.5-.2-1-.41-1.5-.62s-.96-.47-1.39-.78c-.42-.3-.76-.67-1.01-1.1s-.38-.97-.38-1.6c0-.35,.07-.73,.2-1.15,.13-.42,.36-.81,.67-1.19s.75-.68,1.3-.92c.55-.24,1.25-.36,2.1-.36,.45,0,.95,.07,1.5,.22s1.08,.43,1.6,.85l-.05-.95h1.05v4.38h-.8c-.03-.58-.17-1.15-.4-1.69-.23-.54-.57-.99-1.02-1.35s-1.03-.54-1.75-.54c-.77,0-1.37,.19-1.8,.58-.43,.38-.65,.82-.65,1.32s.16,.95,.49,1.29,.75,.64,1.26,.89,1.07,.49,1.65,.72c.63,.27,1.25,.56,1.85,.88s1.09,.71,1.47,1.19c.38,.47,.58,1.09,.58,1.84,0,.83-.21,1.52-.64,2.07-.42,.55-.97,.96-1.62,1.21s-1.35,.39-2.06,.39Z"/>
    <path d="M382.26,462.33v-.75c.52,0,.88-.13,1.08-.39,.2-.26,.32-.62,.35-1.07,.03-.46,.05-.99,.05-1.59l.05-12.08c0-.27,0-.53,.01-.8,0-.27,.04-.54,.09-.83-.3,.02-.6,.03-.89,.05-.29,.02-.59,.03-.89,.05v-1.05c.73,0,1.29-.03,1.66-.1s.65-.15,.83-.25c.17-.1,.32-.21,.44-.33h.75c.02,.17,.03,.36,.05,.59,.02,.22,.03,.48,.05,.76,.5-.45,1.1-.81,1.79-1.09s1.39-.41,2.09-.41c.97,0,1.87,.25,2.7,.75,.83,.5,1.51,1.21,2.02,2.14,.52,.93,.78,2.03,.78,3.31,0,1.42-.3,2.66-.89,3.73s-1.37,1.9-2.34,2.49c-.97,.59-2.02,.89-3.15,.89-.58,0-1.12-.07-1.61-.21-.49-.14-.95-.35-1.39-.61v4.15c0,.33,0,.63-.01,.89,0,.26-.04,.53-.09,.81,.27-.02,.53-.03,.79-.04,.26,0,.52-.02,.79-.04v1.02h-5.1Zm6.58-6.97c.8,0,1.49-.25,2.06-.74,.58-.49,1.02-1.17,1.33-2.03,.31-.86,.46-1.84,.46-2.94,0-.9-.13-1.76-.39-2.59-.26-.82-.67-1.5-1.22-2.01s-1.3-.78-2.21-.78c-.57,0-1.11,.14-1.64,.41-.53,.28-.96,.6-1.31,.99,0,.07,0,.16,.01,.29,0,.12,.01,.34,.01,.65v1.38c0,.61,0,1.43-.01,2.46,0,1.03-.01,2.34-.01,3.92,.42,.32,.87,.56,1.36,.73,.49,.17,1.01,.25,1.56,.25Z"/>
    <path d="M405.01,455.95c-.05-.28-.08-.53-.1-.75-.02-.22-.04-.44-.07-.67-.57,.57-1.18,1.01-1.84,1.34-.66,.32-1.35,.49-2.09,.49-1.27,0-2.21-.29-2.82-.86-.62-.58-.93-1.28-.93-2.11,0-.77,.24-1.43,.71-1.99,.47-.56,1.09-1.02,1.85-1.38,.76-.36,1.58-.62,2.48-.8s1.75-.25,2.59-.24v-1.55c0-.58-.05-1.13-.15-1.65-.1-.52-.32-.94-.65-1.28-.33-.33-.87-.51-1.6-.52-.48-.02-.98,.08-1.49,.27-.51,.2-.88,.54-1.11,1.03,.13,.13,.22,.29,.26,.46,.04,.17,.06,.34,.06,.49,0,.2-.08,.43-.25,.69s-.46,.38-.88,.36c-.35,0-.62-.12-.8-.36s-.28-.53-.28-.86c0-.57,.21-1.08,.64-1.53s1.01-.81,1.76-1.08,1.6-.4,2.55-.4c1.4,0,2.43,.37,3.1,1.11,.67,.74,.99,1.91,.97,3.51v1.86c0,.62,0,1.25-.01,1.88s-.01,1.25-.01,1.89c0,.27,0,.53-.02,.8s-.04,.57-.08,.9c.3-.02,.6-.03,.89-.05,.29-.02,.59-.03,.89-.05v1.05h-3.58Zm-.23-6.12c-.57,.02-1.16,.09-1.79,.21s-1.2,.31-1.72,.56c-.53,.25-.95,.58-1.28,.99s-.48,.9-.46,1.49c.03,.62,.24,1.08,.61,1.39s.82,.46,1.34,.46c.68,0,1.28-.13,1.79-.39,.51-.26,1.01-.62,1.51-1.09-.02-.18-.02-.38-.02-.6v-.67c0-.08,0-.35,.01-.8,0-.45,.01-.97,.01-1.55Z"/>
    <path d="M410.31,455.2c.52,0,.88-.13,1.08-.39,.2-.26,.32-.62,.35-1.07,.03-.46,.05-.99,.05-1.59v-5.7c0-.27,0-.52,.02-.76,.02-.24,.04-.53,.08-.86-.3,.02-.6,.03-.89,.05-.29,.02-.59,.03-.89,.05v-1.05c.73,0,1.3-.03,1.7-.1,.4-.07,.7-.15,.91-.25,.21-.1,.37-.21,.49-.33h.72v10.1c0,.33,0,.63-.01,.89,0,.26-.04,.53-.09,.81,.27-.02,.53-.03,.79-.04,.26,0,.52-.02,.79-.04v1.02h-5.1v-.75Zm2.43-14.47c-.35,0-.66-.14-.93-.42s-.4-.63-.4-1.05,.14-.77,.41-1.06c.28-.29,.59-.44,.94-.44,.38,0,.7,.15,.96,.44,.26,.29,.39,.65,.39,1.06s-.14,.77-.41,1.05c-.27,.28-.6,.42-.96,.42Z"/>
    <path d="M417.33,455.95v-.75c.52,0,.88-.13,1.08-.39,.2-.26,.32-.62,.35-1.07,.03-.46,.05-.99,.05-1.59l.02-5.7c0-.27,0-.53,.01-.8s.04-.54,.09-.83c-.3,.02-.6,.03-.89,.05-.29,.02-.59,.03-.89,.05v-1.05c.73,0,1.29-.03,1.66-.1s.65-.15,.84-.25,.33-.21,.45-.33h.72c.02,.12,.03,.25,.04,.4,0,.15,.02,.32,.04,.5s.03,.39,.03,.62c.37-.32,.77-.6,1.21-.85s.91-.45,1.4-.6c.49-.15,.98-.22,1.46-.22,1.45,0,2.51,.45,3.17,1.36,.67,.91,1,2.32,1,4.24v4.65c0,.33,0,.63-.01,.89,0,.26-.04,.53-.09,.81,.27-.02,.53-.03,.79-.04,.26,0,.52-.02,.79-.04v1.02h-5.1v-.75c.52,0,.88-.13,1.08-.39,.2-.26,.32-.62,.35-1.07,.03-.46,.05-.99,.05-1.59v-3.5c-.02-1.43-.25-2.52-.71-3.25-.46-.73-1.18-1.09-2.16-1.08-.6,.02-1.19,.17-1.76,.48-.57,.3-1.05,.68-1.44,1.15,.02,.13,.03,.28,.03,.45v.53l-.03,6.38c0,.33,0,.63-.01,.89,0,.26-.04,.53-.09,.81,.27-.02,.53-.03,.79-.04,.26,0,.52-.02,.79-.04v1.02h-5.1Z"/>
    <path d="M436.98,456.35c-.38,0-.77-.05-1.17-.16s-.77-.32-1.11-.64c-.34-.32-.61-.78-.81-1.39s-.3-1.41-.3-2.41l.05-7.25-1.92,.03v-1.08c.43-.02,.88-.18,1.32-.49,.45-.31,.85-.73,1.21-1.26,.36-.53,.6-1.12,.74-1.75h.85v3.5h4.2v.98l-4.2,.05-.05,6.95c0,.75,.06,1.39,.19,1.91s.33,.92,.61,1.19c.28,.27,.65,.4,1.1,.4s.9-.13,1.31-.4,.77-.63,1.09-1.1l.67,.55c-.37,.55-.73,.98-1.09,1.3s-.7,.55-1.04,.71c-.33,.16-.64,.26-.92,.3-.28,.04-.53,.06-.73,.06Z"/>
    <path d="M441.96,455.2c.52,0,.88-.13,1.08-.39,.2-.26,.32-.62,.35-1.07,.03-.46,.05-.99,.05-1.59v-5.7c0-.27,0-.52,.02-.76,.02-.24,.04-.53,.08-.86-.3,.02-.6,.03-.89,.05-.29,.02-.59,.03-.89,.05v-1.05c.73,0,1.3-.03,1.7-.1,.4-.07,.7-.15,.91-.25,.21-.1,.37-.21,.49-.33h.72v10.1c0,.33,0,.63-.01,.89,0,.26-.04,.53-.09,.81,.27-.02,.53-.03,.79-.04,.26,0,.52-.02,.79-.04v1.02h-5.1v-.75Zm2.43-14.47c-.35,0-.66-.14-.93-.42s-.4-.63-.4-1.05,.14-.77,.41-1.06c.28-.29,.59-.44,.94-.44,.38,0,.7,.15,.96,.44,.26,.29,.39,.65,.39,1.06s-.14,.77-.41,1.05c-.27,.28-.6,.42-.96,.42Z"/>
    <path d="M448.98,455.95v-.75c.52,0,.88-.13,1.08-.39,.2-.26,.32-.62,.35-1.07,.03-.46,.05-.99,.05-1.59l.02-5.7c0-.27,0-.53,.01-.8s.04-.54,.09-.83c-.3,.02-.6,.03-.89,.05-.29,.02-.59,.03-.89,.05v-1.05c.73,0,1.29-.03,1.66-.1s.65-.15,.84-.25,.33-.21,.45-.33h.72c.02,.12,.03,.25,.04,.4,0,.15,.02,.32,.04,.5s.03,.39,.03,.62c.37-.32,.77-.6,1.21-.85s.91-.45,1.4-.6c.49-.15,.98-.22,1.46-.22,1.45,0,2.51,.45,3.17,1.36,.67,.91,1,2.32,1,4.24v4.65c0,.33,0,.63-.01,.89,0,.26-.04,.53-.09,.81,.27-.02,.53-.03,.79-.04,.26,0,.52-.02,.79-.04v1.02h-5.1v-.75c.52,0,.88-.13,1.08-.39,.2-.26,.32-.62,.35-1.07,.03-.46,.05-.99,.05-1.59v-3.5c-.02-1.43-.25-2.52-.71-3.25-.46-.73-1.18-1.09-2.16-1.08-.6,.02-1.19,.17-1.76,.48-.57,.3-1.05,.68-1.44,1.15,.02,.13,.03,.28,.03,.45v.53l-.03,6.38c0,.33,0,.63-.01,.89,0,.26-.04,.53-.09,.81,.27-.02,.53-.03,.79-.04,.26,0,.52-.02,.79-.04v1.02h-5.1Z"/>
    <path d="M470.18,462.73c-1.5,0-2.71-.17-3.62-.5-.92-.33-1.58-.76-2-1.28-.42-.52-.62-1.05-.62-1.6,0-.52,.12-.97,.36-1.36,.24-.39,.54-.73,.9-1.01,.36-.28,.7-.49,1.04-.62-.53-.18-.95-.43-1.26-.74s-.46-.72-.46-1.24c0-.58,.23-1.13,.7-1.64,.47-.51,1.07-.82,1.8-.94-.77-.37-1.38-.88-1.84-1.53s-.69-1.41-.69-2.28c0-1,.26-1.87,.78-2.61,.52-.74,1.18-1.32,1.99-1.72s1.65-.61,2.51-.61c.55,0,1.1,.08,1.65,.24,.55,.16,1.06,.39,1.53,.69,.17-.47,.4-.88,.71-1.25,.31-.37,.66-.65,1.06-.86,.4-.21,.82-.31,1.25-.31s.76,.11,.99,.34c.22,.23,.34,.53,.34,.91,0,.12-.03,.26-.1,.42s-.18,.31-.34,.42c-.16,.12-.37,.17-.64,.17-.28,0-.52-.08-.7-.25-.18-.17-.3-.38-.35-.62-.42,.07-.74,.26-.97,.59s-.39,.68-.47,1.06c.4,.37,.72,.81,.96,1.33s.36,1.07,.36,1.65c0,.93-.25,1.77-.74,2.5s-1.14,1.3-1.94,1.71-1.67,.61-2.6,.61c-.32,0-.59-.02-.83-.06-.23-.04-.52-.06-.85-.06-.62,0-1.12,.15-1.5,.45-.38,.3-.52,.66-.4,1.08,.13,.4,.54,.65,1.22,.76,.68,.11,1.6,.19,2.75,.24,1.28,.05,2.38,.2,3.3,.45,.92,.25,1.62,.64,2.11,1.16,.49,.52,.74,1.24,.74,2.14,0,.67-.18,1.26-.54,1.79-.36,.53-.83,.96-1.43,1.31s-1.25,.62-1.97,.8-1.45,.28-2.19,.28Zm-.03-.98c1.43,0,2.55-.27,3.35-.8s1.2-1.16,1.2-1.88c0-.62-.21-1.09-.62-1.41-.42-.33-.98-.55-1.7-.67-.72-.12-1.54-.2-2.48-.21-.45-.02-.89-.04-1.32-.06-.43-.03-.85-.07-1.25-.14-.45,.3-.8,.67-1.05,1.1-.25,.43-.38,.89-.38,1.38,0,.82,.39,1.47,1.16,1.96,.77,.49,1.8,.74,3.09,.74Zm-.32-10.25c.62,0,1.13-.15,1.54-.45,.41-.3,.72-.71,.92-1.23s.31-1.1,.31-1.75c0-.73-.11-1.42-.33-2.05-.22-.63-.54-1.14-.96-1.53-.42-.38-.96-.57-1.61-.57-.9,0-1.6,.34-2.09,1.01-.49,.68-.74,1.51-.74,2.51,0,.8,.12,1.5,.35,2.11,.23,.61,.57,1.08,1.01,1.43s.97,.51,1.59,.51Z"/>
    <path d="M489.68,456.35c-.83,0-1.57-.11-2.22-.34-.65-.22-1.18-.48-1.6-.76l.1,.88h-1.05l-.15-4.3h.78c.03,.68,.22,1.3,.58,1.84,.35,.54,.8,.96,1.35,1.26,.55,.3,1.14,.45,1.78,.45,.43,0,.86-.07,1.27-.21s.77-.36,1.05-.65c.28-.29,.43-.66,.43-1.11s-.14-.85-.41-1.16c-.27-.31-.64-.58-1.09-.81-.45-.23-.93-.45-1.45-.65-.5-.2-1-.41-1.5-.62s-.96-.47-1.39-.78c-.42-.3-.76-.67-1.01-1.1s-.38-.97-.38-1.6c0-.35,.07-.73,.2-1.15,.13-.42,.36-.81,.67-1.19s.75-.68,1.3-.92c.55-.24,1.25-.36,2.1-.36,.45,0,.95,.07,1.5,.22s1.08,.43,1.6,.85l-.05-.95h1.05v4.38h-.8c-.03-.58-.17-1.15-.4-1.69-.23-.54-.57-.99-1.02-1.35s-1.03-.54-1.75-.54c-.77,0-1.37,.19-1.8,.58-.43,.38-.65,.82-.65,1.32s.16,.95,.49,1.29,.75,.64,1.26,.89,1.07,.49,1.65,.72c.63,.27,1.25,.56,1.85,.88s1.09,.71,1.47,1.19c.38,.47,.58,1.09,.58,1.84,0,.83-.21,1.52-.64,2.07-.42,.55-.97,.96-1.62,1.21s-1.35,.39-2.06,.39Z"/>
    <path d="M502.33,456.35c-1.17,0-2.22-.27-3.17-.81-.95-.54-1.7-1.29-2.26-2.25s-.84-2.05-.84-3.29c0-1.32,.27-2.5,.82-3.55,.55-1.05,1.3-1.88,2.25-2.49,.95-.61,2.02-.91,3.2-.91s2.23,.28,3.17,.84c.95,.56,1.71,1.31,2.28,2.26s.85,2.03,.85,3.25c0,1.28-.28,2.45-.84,3.51-.56,1.06-1.31,1.9-2.26,2.51-.95,.62-2.02,.92-3.2,.92Zm.2-1c.88,0,1.58-.25,2.1-.75s.89-1.15,1.11-1.95c.22-.8,.34-1.64,.34-2.53,0-.75-.07-1.49-.21-2.21-.14-.73-.36-1.38-.66-1.98-.3-.59-.69-1.06-1.16-1.41-.48-.35-1.05-.53-1.71-.53-.87,0-1.58,.25-2.12,.75s-.95,1.15-1.21,1.95c-.26,.8-.39,1.66-.39,2.58,0,1.03,.14,2.01,.42,2.94s.72,1.68,1.3,2.26,1.32,.88,2.2,.88Z"/>
    <path d="M510.75,455.95v-.75c.52,0,.88-.13,1.08-.39,.2-.26,.32-.62,.35-1.07,.03-.46,.05-.99,.05-1.59v-5.7c0-.27,0-.53,.01-.8,0-.27,.04-.54,.09-.83-.3,.02-.6,.03-.89,.05-.29,.02-.59,.03-.89,.05v-1.05c.73,0,1.29-.03,1.66-.1s.65-.15,.84-.25c.18-.1,.33-.21,.45-.33h.73c.03,.17,.05,.36,.06,.58,0,.22,.02,.47,.04,.75,.5-.43,1.08-.79,1.73-1.06,.65-.28,1.3-.41,1.95-.41,.83,0,1.53,.15,2.1,.45,.57,.3,1.01,.71,1.33,1.23,.57-.47,1.22-.86,1.96-1.19s1.47-.49,2.19-.49c1.45,0,2.52,.44,3.2,1.31s1.01,2.3,.97,4.29l-.02,4.65c0,.33,0,.63-.01,.89,0,.26-.04,.53-.09,.81,.27-.02,.53-.03,.79-.04,.26,0,.52-.02,.79-.04v1.02h-5.1v-.75c.52,0,.88-.13,1.08-.39,.2-.26,.32-.62,.35-1.07,.03-.46,.05-.99,.05-1.59v-3.5c0-1.43-.23-2.51-.69-3.22s-1.18-1.07-2.16-1.05c-.52,0-1.03,.12-1.55,.35-.52,.23-.97,.52-1.35,.88,.08,.27,.15,.55,.19,.86s.06,.63,.06,.96c-.02,.97-.02,1.94-.02,2.92s0,1.97-.03,2.95c0,.33,0,.63-.01,.89,0,.26-.04,.53-.09,.81,.27-.02,.53-.03,.79-.04,.26,0,.52-.02,.79-.04v1.02h-5.1v-.75c.52,0,.87-.13,1.06-.39,.19-.26,.31-.62,.35-1.07,.04-.46,.06-.99,.06-1.59l.03-3.5c.02-1.43-.19-2.52-.62-3.25s-1.14-1.09-2.12-1.08c-.52,0-1.03,.11-1.53,.34-.5,.22-.92,.51-1.27,.86,0,.2,0,.41,.01,.64,0,.22,.01,.46,.01,.71v6.43c0,.33,0,.63-.01,.89,0,.26-.04,.53-.09,.81,.27-.02,.53-.03,.79-.04,.26,0,.52-.02,.79-.04v1.02h-5.1Z"/>
    <path d="M539.15,456.35c-1.15,0-2.19-.27-3.11-.81-.92-.54-1.65-1.31-2.19-2.3-.53-.99-.8-2.16-.8-3.51,0-1.17,.26-2.26,.79-3.28,.52-1.02,1.26-1.84,2.21-2.46s2.05-.94,3.3-.94c.7,0,1.35,.11,1.96,.34,.61,.23,1.15,.57,1.61,1.03s.83,1.03,1.1,1.72c.27,.69,.4,1.5,.4,2.44l-8.8,.15c0,1.27,.14,2.38,.41,3.34,.28,.96,.72,1.7,1.34,2.23,.62,.52,1.41,.79,2.38,.79,.52,0,1.05-.09,1.59-.27,.54-.18,1.04-.43,1.51-.75s.84-.67,1.12-1.05l.6,.5c-.45,.7-.99,1.26-1.62,1.68-.63,.42-1.28,.72-1.95,.9-.67,.18-1.28,.28-1.85,.28Zm-3.45-8.67h6.38c0-.6-.09-1.18-.26-1.74-.17-.56-.46-1.02-.86-1.38-.4-.36-.92-.54-1.58-.54-.97,0-1.77,.29-2.41,.86-.64,.58-1.06,1.5-1.26,2.79Z"/>
    <path d="M550.85,456.03l-3.28-9.6c-.12-.35-.22-.65-.31-.9s-.16-.47-.21-.65c-.05-.18-.09-.34-.12-.47l-1.32,.08v-1.03h5.3v.75c-.75,.02-1.16,.27-1.24,.76-.08,.49,.02,1.14,.29,1.94l1.15,3.5c.13,.4,.27,.8,.4,1.21s.27,.81,.4,1.21c.15-.45,.3-.9,.46-1.36,.16-.46,.31-.92,.46-1.39l2.22-6.62h1.03l2.53,7.28c.13,.37,.27,.74,.4,1.12s.27,.77,.4,1.15c.13-.37,.26-.73,.39-1.09s.25-.72,.36-1.09l1.65-4.75c.12-.33,.23-.65,.35-.95,.12-.3,.25-.54,.4-.72l-1.45,.08v-1.03h4.35v.75c-.43,.02-.79,.08-1.06,.17-.28,.1-.5,.23-.69,.4-.18,.17-.33,.37-.45,.6-.12,.23-.22,.5-.33,.8l-3.6,9.85h-1l-2.38-6.83c-.1-.3-.2-.6-.3-.89-.1-.29-.2-.58-.3-.88-.1-.29-.2-.58-.3-.86-.1,.28-.2,.57-.3,.86-.1,.29-.2,.58-.3,.88-.1,.29-.2,.59-.3,.89l-2.35,6.83h-.95Z"/>
    <path d="M574.6,455.2c.52,0,.88-.13,1.08-.39,.2-.26,.32-.62,.35-1.07,.03-.46,.05-.99,.05-1.59v-3.5c0-1.43-.23-2.51-.69-3.22-.46-.72-1.18-1.07-2.16-1.05-.62,.02-1.22,.17-1.81,.45-.59,.28-1.07,.65-1.44,1.1v7.38c0,.33,0,.63-.03,.89-.02,.26-.05,.53-.1,.81,.27-.02,.53-.03,.79-.04,.26,0,.52-.02,.79-.04v1.02h-5.1v-.75c.52,0,.88-.13,1.08-.39,.2-.26,.32-.62,.36-1.07,.04-.46,.06-.99,.06-1.59v-11.83c0-.27,0-.52,.01-.76,0-.24,.03-.53,.06-.86-.3,.02-.6,.03-.89,.05-.29,.02-.59,.03-.89,.05v-1.05c.73,0,1.3-.03,1.71-.1s.72-.15,.92-.25c.21-.1,.37-.21,.49-.33h.72v7.62c.37-.32,.78-.6,1.24-.84,.46-.24,.93-.44,1.42-.59,.49-.15,.97-.22,1.44-.22,1.45,0,2.5,.45,3.14,1.36s.97,2.32,.99,4.24l.03,4.65c0,.33,0,.63-.01,.89,0,.26-.04,.53-.09,.81,.27-.02,.53-.03,.79-.04,.26,0,.52-.02,.79-.04v1.02h-5.1v-.75Z"/>
    <path d="M587.6,456.35c-1.15,0-2.19-.27-3.11-.81-.92-.54-1.65-1.31-2.19-2.3-.53-.99-.8-2.16-.8-3.51,0-1.17,.26-2.26,.79-3.28,.52-1.02,1.26-1.84,2.21-2.46s2.05-.94,3.3-.94c.7,0,1.35,.11,1.96,.34,.61,.23,1.15,.57,1.61,1.03s.83,1.03,1.1,1.72c.27,.69,.4,1.5,.4,2.44l-8.8,.15c0,1.27,.14,2.38,.41,3.34,.28,.96,.72,1.7,1.34,2.23,.62,.52,1.41,.79,2.38,.79,.52,0,1.05-.09,1.59-.27,.54-.18,1.04-.43,1.51-.75s.84-.67,1.12-1.05l.6,.5c-.45,.7-.99,1.26-1.62,1.68-.63,.42-1.28,.72-1.95,.9-.67,.18-1.28,.28-1.85,.28Zm-3.45-8.67h6.38c0-.6-.09-1.18-.26-1.74-.17-.56-.46-1.02-.86-1.38-.4-.36-.92-.54-1.58-.54-.97,0-1.77,.29-2.41,.86-.64,.58-1.06,1.5-1.26,2.79Z"/>
    <path d="M595.1,455.2c.52,0,.88-.13,1.08-.39,.2-.26,.32-.62,.35-1.07,.03-.46,.05-.99,.05-1.59v-5.7c0-.27,0-.53,.01-.8,0-.27,.04-.54,.09-.83-.3,.02-.6,.03-.89,.04-.29,0-.59,.02-.89,.04v-1.03h.77c.72,0,1.21-.07,1.49-.21,.28-.14,.5-.3,.69-.46h.73c.03,.27,.06,.6,.08,.99,.02,.39,.03,.89,.05,1.49,.25-.42,.59-.83,1.02-1.23,.43-.4,.92-.73,1.46-1,.54-.27,1.11-.4,1.71-.4,.47,0,.88,.12,1.22,.38s.53,.65,.53,1.2c0,.13-.04,.3-.12,.49-.08,.19-.22,.36-.4,.5s-.42,.21-.72,.21c-.37-.02-.66-.16-.88-.44-.22-.27-.3-.6-.25-.96-.42-.02-.85,.09-1.29,.32-.44,.23-.85,.55-1.24,.96-.38,.41-.72,.89-1.03,1.44l.03,6.15c0,.33,0,.63-.01,.89,0,.26-.04,.53-.09,.81,.27-.02,.53-.03,.79-.04,.26,0,.52-.02,.79-.04v1.02h-5.12v-.75Z"/>
    <path d="M611.8,456.35c-1.15,0-2.19-.27-3.11-.81-.92-.54-1.65-1.31-2.19-2.3-.53-.99-.8-2.16-.8-3.51,0-1.17,.26-2.26,.79-3.28,.52-1.02,1.26-1.84,2.21-2.46s2.05-.94,3.3-.94c.7,0,1.35,.11,1.96,.34,.61,.23,1.15,.57,1.61,1.03s.83,1.03,1.1,1.72c.27,.69,.4,1.5,.4,2.44l-8.8,.15c0,1.27,.14,2.38,.41,3.34,.28,.96,.72,1.7,1.34,2.23,.62,.52,1.41,.79,2.38,.79,.52,0,1.05-.09,1.59-.27,.54-.18,1.04-.43,1.51-.75s.84-.67,1.12-1.05l.6,.5c-.45,.7-.99,1.26-1.62,1.68-.63,.42-1.28,.72-1.95,.9-.67,.18-1.28,.28-1.85,.28Zm-3.45-8.67h6.38c0-.6-.09-1.18-.26-1.74-.17-.56-.46-1.02-.86-1.38-.4-.36-.92-.54-1.58-.54-.97,0-1.77,.29-2.41,.86-.64,.58-1.06,1.5-1.26,2.79Z"/>
    <path d="M193.41,470.33c0-.27,0-.52,.01-.76,0-.24,.03-.53,.06-.86-.3,.02-.6,.03-.89,.05-.29,.02-.59,.03-.89,.05v-1.05c.73,0,1.3-.03,1.71-.1s.72-.15,.93-.25c.21-.1,.37-.21,.49-.33h.72v7.45c.47-.47,1.02-.83,1.66-1.09,.64-.26,1.35-.39,2.11-.39,1.07,0,2.03,.26,2.89,.77,.86,.52,1.54,1.25,2.04,2.2s.75,2.08,.75,3.38c0,1.42-.31,2.65-.92,3.69-.62,1.04-1.42,1.85-2.4,2.41s-2.04,.85-3.17,.85c-.57,0-1.19-.1-1.86-.31s-1.28-.61-1.81-1.21l-.6,1.12h-.88l.05-15.62Zm2.15,11.7c0,.88,.14,1.56,.42,2.04,.28,.48,.65,.8,1.1,.99s.92,.27,1.42,.27c.8,0,1.49-.22,2.08-.67,.58-.45,1.04-1.07,1.36-1.86s.49-1.71,.49-2.76c0-1.13-.14-2.13-.42-2.99s-.71-1.53-1.28-2.03c-.57-.49-1.28-.74-2.15-.74-.55,0-1.1,.13-1.64,.39-.54,.26-1,.6-1.39,1.04v6.33Z"/>
    <path d="M213.21,486.35c-1.15,0-2.19-.27-3.11-.81-.92-.54-1.65-1.31-2.19-2.3-.53-.99-.8-2.16-.8-3.51,0-1.17,.26-2.26,.79-3.28,.52-1.02,1.26-1.84,2.21-2.46s2.05-.94,3.3-.94c.7,0,1.35,.11,1.96,.34,.61,.23,1.15,.57,1.61,1.03s.83,1.03,1.1,1.72c.27,.69,.4,1.5,.4,2.44l-8.8,.15c0,1.27,.14,2.38,.41,3.34,.28,.96,.72,1.7,1.34,2.23,.62,.52,1.41,.79,2.38,.79,.52,0,1.05-.09,1.59-.27,.54-.18,1.04-.43,1.51-.75s.84-.67,1.12-1.05l.6,.5c-.45,.7-.99,1.26-1.62,1.68-.63,.42-1.28,.72-1.95,.9-.67,.18-1.28,.28-1.85,.28Zm-3.45-8.67h6.38c0-.6-.09-1.18-.26-1.74-.17-.56-.46-1.02-.86-1.38-.4-.36-.92-.54-1.58-.54-.97,0-1.77,.29-2.41,.86-.64,.58-1.06,1.5-1.26,2.79Z"/>
    <path d="M222.29,472.93c0-1.85,.34-3.31,1.01-4.38s1.84-1.6,3.49-1.6c.37,0,.75,.06,1.16,.19,.41,.12,.76,.33,1.06,.6,.3,.27,.45,.63,.45,1.06,0,.32-.09,.58-.26,.8-.18,.22-.43,.33-.76,.33-.4,.02-.68-.1-.84-.36-.16-.26-.24-.48-.24-.66,0-.1,0-.2,.03-.3,.02-.1,.05-.21,.1-.33-.12-.15-.28-.26-.49-.33-.21-.07-.4-.1-.59-.1-.52,0-.92,.15-1.2,.45-.28,.3-.48,.67-.6,1.12-.12,.45-.17,.92-.17,1.4v2.62h3.38v.98l-3.38,.07,.02,8.8c0,.33,0,.63-.01,.89,0,.26-.04,.53-.09,.81,.27-.02,.53-.03,.79-.04,.26,0,.52-.02,.79-.04v1.02h-5.1v-.75c.52,0,.88-.13,1.08-.39,.2-.26,.32-.62,.35-1.07,.03-.46,.05-.99,.05-1.59l-.03-7.62-2.05,.05v-1.12h2.05v-.52Z"/>
    <path d="M235.24,486.35c-1.17,0-2.22-.27-3.17-.81-.95-.54-1.7-1.29-2.26-2.25s-.84-2.05-.84-3.29c0-1.32,.27-2.5,.82-3.55,.55-1.05,1.3-1.88,2.25-2.49,.95-.61,2.02-.91,3.2-.91s2.23,.28,3.17,.84c.95,.56,1.71,1.31,2.28,2.26s.85,2.03,.85,3.25c0,1.28-.28,2.45-.84,3.51-.56,1.06-1.31,1.9-2.26,2.51-.95,.62-2.02,.92-3.2,.92Zm.2-1c.88,0,1.58-.25,2.1-.75s.89-1.15,1.11-1.95c.22-.8,.34-1.64,.34-2.53,0-.75-.07-1.49-.21-2.21-.14-.73-.36-1.38-.66-1.98-.3-.59-.69-1.06-1.16-1.41-.48-.35-1.05-.53-1.71-.53-.87,0-1.58,.25-2.12,.75s-.95,1.15-1.21,1.95c-.26,.8-.39,1.66-.39,2.58,0,1.03,.14,2.01,.42,2.94s.72,1.68,1.3,2.26,1.32,.88,2.2,.88Z"/>
    <path d="M243.66,485.2c.52,0,.88-.13,1.08-.39,.2-.26,.32-.62,.35-1.07,.03-.46,.05-.99,.05-1.59v-5.7c0-.27,0-.53,.01-.8,0-.27,.04-.54,.09-.83-.3,.02-.6,.03-.89,.04-.29,0-.59,.02-.89,.04v-1.03h.77c.72,0,1.21-.07,1.49-.21,.28-.14,.5-.3,.69-.46h.73c.03,.27,.06,.6,.08,.99,.02,.39,.03,.89,.05,1.49,.25-.42,.59-.83,1.02-1.23,.43-.4,.92-.73,1.46-1,.54-.27,1.11-.4,1.71-.4,.47,0,.88,.12,1.22,.38s.53,.65,.53,1.2c0,.13-.04,.3-.12,.49-.08,.19-.22,.36-.4,.5s-.42,.21-.72,.21c-.37-.02-.66-.16-.88-.44-.22-.27-.3-.6-.25-.96-.42-.02-.85,.09-1.29,.32-.44,.23-.85,.55-1.24,.96-.38,.41-.72,.89-1.03,1.44l.03,6.15c0,.33,0,.63-.01,.89,0,.26-.04,.53-.09,.81,.27-.02,.53-.03,.79-.04,.26,0,.52-.02,.79-.04v1.02h-5.12v-.75Z"/>
    <path d="M260.36,486.35c-1.15,0-2.19-.27-3.11-.81-.92-.54-1.65-1.31-2.19-2.3-.53-.99-.8-2.16-.8-3.51,0-1.17,.26-2.26,.79-3.28,.52-1.02,1.26-1.84,2.21-2.46s2.05-.94,3.3-.94c.7,0,1.35,.11,1.96,.34,.61,.23,1.15,.57,1.61,1.03s.83,1.03,1.1,1.72c.27,.69,.4,1.5,.4,2.44l-8.8,.15c0,1.27,.14,2.38,.41,3.34,.28,.96,.72,1.7,1.34,2.23,.62,.52,1.41,.79,2.38,.79,.52,0,1.05-.09,1.59-.27,.54-.18,1.04-.43,1.51-.75s.84-.67,1.12-1.05l.6,.5c-.45,.7-.99,1.26-1.62,1.68-.63,.42-1.28,.72-1.95,.9-.67,.18-1.28,.28-1.85,.28Zm-3.45-8.67h6.38c0-.6-.09-1.18-.26-1.74-.17-.56-.46-1.02-.86-1.38-.4-.36-.92-.54-1.58-.54-.97,0-1.77,.29-2.41,.86-.64,.58-1.06,1.5-1.26,2.79Z"/>
    <path d="M269.81,486.35c-.38,0-.72-.15-1.01-.46-.29-.31-.44-.69-.44-1.14s.15-.83,.45-1.15,.64-.48,1.03-.48c.42,0,.76,.16,1.04,.48,.28,.32,.41,.7,.41,1.15s-.15,.83-.45,1.14c-.3,.31-.64,.46-1.03,.46Z"/>
    <path d="M290.69,473.75c-.05-.8-.24-1.56-.58-2.27-.33-.72-.82-1.3-1.45-1.75s-1.44-.67-2.42-.67c-1.03,0-1.83,.29-2.38,.88-.55,.58-.83,1.27-.83,2.05,0,.7,.2,1.29,.6,1.76,.4,.47,.92,.89,1.56,1.25,.64,.36,1.32,.7,2.04,1.04,.63,.28,1.27,.59,1.9,.91,.63,.33,1.21,.7,1.72,1.11,.52,.42,.93,.91,1.24,1.49s.46,1.26,.46,2.06c0,.92-.23,1.73-.69,2.45-.46,.72-1.12,1.28-1.99,1.69-.87,.41-1.93,.61-3.18,.61-.75,0-1.52-.11-2.32-.33-.8-.22-1.51-.53-2.12-.95l.12,1.08h-1.3l-.15-5.33h.97c.08,1.47,.59,2.58,1.53,3.34,.93,.76,2.06,1.14,3.38,1.14,.65,0,1.25-.12,1.8-.36,.55-.24,.99-.6,1.31-1.06,.33-.47,.49-1.03,.49-1.7,0-.75-.2-1.38-.6-1.88-.4-.5-.92-.93-1.55-1.3-.63-.37-1.31-.72-2.03-1.05-.63-.28-1.26-.58-1.88-.9-.62-.32-1.18-.68-1.69-1.09-.51-.41-.92-.9-1.22-1.46-.31-.57-.46-1.25-.46-2.05,0-.43,.08-.9,.22-1.4,.15-.5,.41-.98,.79-1.44,.38-.46,.89-.83,1.55-1.12,.66-.29,1.5-.44,2.51-.44,.63,0,1.35,.09,2.14,.26,.79,.18,1.53,.51,2.21,1.01l-.1-1.08h1.27v5.5h-.9Z"/>
    <path d="M302.79,485.2c.52,0,.88-.13,1.08-.39,.2-.26,.32-.62,.35-1.07,.03-.46,.05-.99,.05-1.59v-3.5c0-1.43-.23-2.51-.69-3.22-.46-.72-1.18-1.07-2.16-1.05-.62,.02-1.22,.17-1.81,.45-.59,.28-1.07,.65-1.44,1.1v7.38c0,.33,0,.63-.03,.89-.02,.26-.05,.53-.1,.81,.27-.02,.53-.03,.79-.04,.26,0,.52-.02,.79-.04v1.02h-5.1v-.75c.52,0,.88-.13,1.08-.39,.2-.26,.32-.62,.36-1.07,.04-.46,.06-.99,.06-1.59v-11.83c0-.27,0-.52,.01-.76,0-.24,.03-.53,.06-.86-.3,.02-.6,.03-.89,.05-.29,.02-.59,.03-.89,.05v-1.05c.73,0,1.3-.03,1.71-.1s.72-.15,.92-.25c.21-.1,.37-.21,.49-.33h.72v7.62c.37-.32,.78-.6,1.24-.84,.46-.24,.93-.44,1.42-.59,.49-.15,.97-.22,1.44-.22,1.45,0,2.5,.45,3.14,1.36s.97,2.32,.99,4.24l.03,4.65c0,.33,0,.63-.01,.89,0,.26-.04,.53-.09,.81,.27-.02,.53-.03,.79-.04,.26,0,.52-.02,.79-.04v1.02h-5.1v-.75Z"/>
    <path d="M315.79,486.35c-1.15,0-2.19-.27-3.11-.81-.92-.54-1.65-1.31-2.19-2.3-.53-.99-.8-2.16-.8-3.51,0-1.17,.26-2.26,.79-3.28,.52-1.02,1.26-1.84,2.21-2.46s2.05-.94,3.3-.94c.7,0,1.35,.11,1.96,.34,.61,.23,1.15,.57,1.61,1.03s.83,1.03,1.1,1.72c.27,.69,.4,1.5,.4,2.44l-8.8,.15c0,1.27,.14,2.38,.41,3.34,.28,.96,.72,1.7,1.34,2.23,.62,.52,1.41,.79,2.38,.79,.52,0,1.05-.09,1.59-.27,.54-.18,1.04-.43,1.51-.75s.84-.67,1.12-1.05l.6,.5c-.45,.7-.99,1.26-1.62,1.68-.63,.42-1.28,.72-1.95,.9-.67,.18-1.28,.28-1.85,.28Zm-3.45-8.67h6.38c0-.6-.09-1.18-.26-1.74-.17-.56-.46-1.02-.86-1.38-.4-.36-.92-.54-1.58-.54-.97,0-1.77,.29-2.41,.86-.64,.58-1.06,1.5-1.26,2.79Z"/>
    <path d="M334.98,486.35c-.83,0-1.57-.11-2.22-.34-.65-.22-1.18-.48-1.6-.76l.1,.88h-1.05l-.15-4.3h.78c.03,.68,.22,1.3,.58,1.84,.35,.54,.8,.96,1.35,1.26,.55,.3,1.14,.45,1.78,.45,.43,0,.86-.07,1.27-.21s.77-.36,1.05-.65c.28-.29,.43-.66,.43-1.11s-.14-.85-.41-1.16c-.27-.31-.64-.58-1.09-.81-.45-.23-.93-.45-1.45-.65-.5-.2-1-.41-1.5-.62s-.96-.47-1.39-.78c-.42-.3-.76-.67-1.01-1.1s-.38-.97-.38-1.6c0-.35,.07-.73,.2-1.15,.13-.42,.36-.81,.67-1.19s.75-.68,1.3-.92c.55-.24,1.25-.36,2.1-.36,.45,0,.95,.07,1.5,.22s1.08,.43,1.6,.85l-.05-.95h1.05v4.38h-.8c-.03-.58-.17-1.15-.4-1.69-.23-.54-.57-.99-1.02-1.35s-1.03-.54-1.75-.54c-.77,0-1.37,.19-1.8,.58-.43,.38-.65,.82-.65,1.32s.16,.95,.49,1.29,.75,.64,1.26,.89,1.07,.49,1.65,.72c.63,.27,1.25,.56,1.85,.88s1.09,.71,1.47,1.19c.38,.47,.58,1.09,.58,1.84,0,.83-.21,1.52-.64,2.07-.42,.55-.97,.96-1.62,1.21s-1.35,.39-2.06,.39Z"/>
    <path d="M347.49,486.35c-1.15,0-2.19-.27-3.11-.81-.92-.54-1.65-1.31-2.19-2.3-.53-.99-.8-2.16-.8-3.51,0-1.17,.26-2.26,.79-3.28,.52-1.02,1.26-1.84,2.21-2.46s2.05-.94,3.3-.94c.7,0,1.35,.11,1.96,.34,.61,.23,1.15,.57,1.61,1.03s.83,1.03,1.1,1.72c.27,.69,.4,1.5,.4,2.44l-8.8,.15c0,1.27,.14,2.38,.41,3.34,.28,.96,.72,1.7,1.34,2.23,.62,.52,1.41,.79,2.38,.79,.52,0,1.05-.09,1.59-.27,.54-.18,1.04-.43,1.51-.75s.84-.67,1.12-1.05l.6,.5c-.45,.7-.99,1.26-1.62,1.68-.63,.42-1.28,.72-1.95,.9-.67,.18-1.28,.28-1.85,.28Zm-3.45-8.67h6.38c0-.6-.09-1.18-.26-1.74-.17-.56-.46-1.02-.86-1.38-.4-.36-.92-.54-1.58-.54-.97,0-1.77,.29-2.41,.86-.64,.58-1.06,1.5-1.26,2.79Z"/>
    <path d="M360.91,486.35c-1.15,0-2.19-.27-3.11-.81-.92-.54-1.65-1.31-2.19-2.3-.53-.99-.8-2.16-.8-3.51,0-1.17,.26-2.26,.79-3.28,.52-1.02,1.26-1.84,2.21-2.46s2.05-.94,3.3-.94c.7,0,1.35,.11,1.96,.34,.61,.23,1.15,.57,1.61,1.03s.83,1.03,1.1,1.72c.27,.69,.4,1.5,.4,2.44l-8.8,.15c0,1.27,.14,2.38,.41,3.34,.28,.96,.72,1.7,1.34,2.23,.62,.52,1.41,.79,2.38,.79,.52,0,1.05-.09,1.59-.27,.54-.18,1.04-.43,1.51-.75s.84-.67,1.12-1.05l.6,.5c-.45,.7-.99,1.26-1.62,1.68-.63,.42-1.28,.72-1.95,.9-.67,.18-1.28,.28-1.85,.28Zm-3.45-8.67h6.38c0-.6-.09-1.18-.26-1.74-.17-.56-.46-1.02-.86-1.38-.4-.36-.92-.54-1.58-.54-.97,0-1.77,.29-2.41,.86-.64,.58-1.06,1.5-1.26,2.79Z"/>
    <path d="M368.41,485.95v-.75c.52,0,.88-.13,1.08-.39,.2-.26,.32-.62,.35-1.07,.03-.46,.05-.99,.05-1.59v-5.7c0-.27,0-.53,.01-.8,0-.27,.04-.54,.09-.83-.3,.02-.6,.03-.89,.05-.29,.02-.59,.03-.89,.05v-1.05c.73,0,1.29-.03,1.66-.1s.65-.15,.84-.25c.18-.1,.33-.21,.45-.33h.73c.03,.17,.05,.36,.06,.58,0,.22,.02,.47,.04,.75,.5-.43,1.08-.79,1.73-1.06,.65-.28,1.3-.41,1.95-.41,.83,0,1.53,.15,2.1,.45,.57,.3,1.01,.71,1.33,1.23,.57-.47,1.22-.86,1.96-1.19s1.47-.49,2.19-.49c1.45,0,2.52,.44,3.2,1.31s1.01,2.3,.97,4.29l-.02,4.65c0,.33,0,.63-.01,.89,0,.26-.04,.53-.09,.81,.27-.02,.53-.03,.79-.04,.26,0,.52-.02,.79-.04v1.02h-5.1v-.75c.52,0,.88-.13,1.08-.39,.2-.26,.32-.62,.35-1.07,.03-.46,.05-.99,.05-1.59v-3.5c0-1.43-.23-2.51-.69-3.22s-1.18-1.07-2.16-1.05c-.52,0-1.03,.12-1.55,.35-.52,.23-.97,.52-1.35,.88,.08,.27,.15,.55,.19,.86s.06,.63,.06,.96c-.02,.97-.02,1.94-.02,2.92s0,1.97-.03,2.95c0,.33,0,.63-.01,.89,0,.26-.04,.53-.09,.81,.27-.02,.53-.03,.79-.04,.26,0,.52-.02,.79-.04v1.02h-5.1v-.75c.52,0,.87-.13,1.06-.39,.19-.26,.31-.62,.35-1.07,.04-.46,.06-.99,.06-1.59l.03-3.5c.02-1.43-.19-2.52-.62-3.25s-1.14-1.09-2.12-1.08c-.52,0-1.03,.11-1.53,.34-.5,.22-.92,.51-1.27,.86,0,.2,0,.41,.01,.64,0,.22,.01,.46,.01,.71v6.43c0,.33,0,.63-.01,.89,0,.26-.04,.53-.09,.81,.27-.02,.53-.03,.79-.04,.26,0,.52-.02,.79-.04v1.02h-5.1Z"/>
    <path d="M395.88,486.35c-.83,0-1.57-.11-2.22-.34-.65-.22-1.18-.48-1.6-.76l.1,.88h-1.05l-.15-4.3h.78c.03,.68,.22,1.3,.58,1.84,.35,.54,.8,.96,1.35,1.26,.55,.3,1.14,.45,1.78,.45,.43,0,.86-.07,1.27-.21s.77-.36,1.05-.65c.28-.29,.43-.66,.43-1.11s-.14-.85-.41-1.16c-.27-.31-.64-.58-1.09-.81-.45-.23-.93-.45-1.45-.65-.5-.2-1-.41-1.5-.62s-.96-.47-1.39-.78c-.42-.3-.76-.67-1.01-1.1s-.38-.97-.38-1.6c0-.35,.07-.73,.2-1.15,.13-.42,.36-.81,.67-1.19s.75-.68,1.3-.92c.55-.24,1.25-.36,2.1-.36,.45,0,.95,.07,1.5,.22s1.08,.43,1.6,.85l-.05-.95h1.05v4.38h-.8c-.03-.58-.17-1.15-.4-1.69-.23-.54-.57-.99-1.02-1.35s-1.03-.54-1.75-.54c-.77,0-1.37,.19-1.8,.58-.43,.38-.65,.82-.65,1.32s.16,.95,.49,1.29,.75,.64,1.26,.89,1.07,.49,1.65,.72c.63,.27,1.25,.56,1.85,.88s1.09,.71,1.47,1.19c.38,.47,.58,1.09,.58,1.84,0,.83-.21,1.52-.64,2.07-.42,.55-.97,.96-1.62,1.21s-1.35,.39-2.06,.39Z"/>
    <path d="M413.61,486.35c-.38,0-.77-.05-1.17-.16s-.77-.32-1.11-.64c-.34-.32-.61-.78-.81-1.39s-.3-1.41-.3-2.41l.05-7.25-1.92,.03v-1.08c.43-.02,.88-.18,1.32-.49,.45-.31,.85-.73,1.21-1.26,.36-.53,.6-1.12,.74-1.75h.85v3.5h4.2v.98l-4.2,.05-.05,6.95c0,.75,.06,1.39,.19,1.91s.33,.92,.61,1.19c.28,.27,.65,.4,1.1,.4s.9-.13,1.31-.4,.77-.63,1.09-1.1l.67,.55c-.37,.55-.73,.98-1.09,1.3s-.7,.55-1.04,.71c-.33,.16-.64,.26-.92,.3-.28,.04-.53,.06-.73,.06Z"/>
    <path d="M424.78,486.35c-1.17,0-2.22-.27-3.17-.81-.95-.54-1.7-1.29-2.26-2.25s-.84-2.05-.84-3.29c0-1.32,.27-2.5,.82-3.55,.55-1.05,1.3-1.88,2.25-2.49,.95-.61,2.02-.91,3.2-.91s2.23,.28,3.17,.84c.95,.56,1.71,1.31,2.28,2.26s.85,2.03,.85,3.25c0,1.28-.28,2.45-.84,3.51-.56,1.06-1.31,1.9-2.26,2.51-.95,.62-2.02,.92-3.2,.92Zm.2-1c.88,0,1.58-.25,2.1-.75s.89-1.15,1.11-1.95c.22-.8,.34-1.64,.34-2.53,0-.75-.07-1.49-.21-2.21-.14-.73-.36-1.38-.66-1.98-.3-.59-.69-1.06-1.16-1.41-.48-.35-1.05-.53-1.71-.53-.87,0-1.58,.25-2.12,.75s-.95,1.15-1.21,1.95c-.26,.8-.39,1.66-.39,2.58,0,1.03,.14,2.01,.42,2.94s.72,1.68,1.3,2.26,1.32,.88,2.2,.88Z"/>
    <path d="M440.58,470.33c0-.27,0-.52,.01-.76,0-.24,.03-.53,.06-.86-.3,.02-.6,.03-.89,.05-.29,.02-.59,.03-.89,.05v-1.05c.73,0,1.3-.03,1.71-.1s.72-.15,.93-.25c.21-.1,.37-.21,.49-.33h.72v7.45c.47-.47,1.02-.83,1.66-1.09,.64-.26,1.35-.39,2.11-.39,1.07,0,2.03,.26,2.89,.77,.86,.52,1.54,1.25,2.04,2.2s.75,2.08,.75,3.38c0,1.42-.31,2.65-.92,3.69-.62,1.04-1.42,1.85-2.4,2.41s-2.04,.85-3.17,.85c-.57,0-1.19-.1-1.86-.31s-1.28-.61-1.81-1.21l-.6,1.12h-.88l.05-15.62Zm2.15,11.7c0,.88,.14,1.56,.42,2.04,.28,.48,.65,.8,1.1,.99s.92,.27,1.42,.27c.8,0,1.49-.22,2.08-.67,.58-.45,1.04-1.07,1.36-1.86s.49-1.71,.49-2.76c0-1.13-.14-2.13-.42-2.99s-.71-1.53-1.28-2.03c-.57-.49-1.28-.74-2.15-.74-.55,0-1.1,.13-1.64,.39-.54,.26-1,.6-1.39,1.04v6.33Z"/>
    <path d="M460.38,486.35c-1.15,0-2.19-.27-3.11-.81-.92-.54-1.65-1.31-2.19-2.3-.53-.99-.8-2.16-.8-3.51,0-1.17,.26-2.26,.79-3.28,.52-1.02,1.26-1.84,2.21-2.46s2.05-.94,3.3-.94c.7,0,1.35,.11,1.96,.34,.61,.23,1.15,.57,1.61,1.03s.83,1.03,1.1,1.72c.27,.69,.4,1.5,.4,2.44l-8.8,.15c0,1.27,.14,2.38,.41,3.34,.28,.96,.72,1.7,1.34,2.23,.62,.52,1.41,.79,2.38,.79,.52,0,1.05-.09,1.59-.27,.54-.18,1.04-.43,1.51-.75s.84-.67,1.12-1.05l.6,.5c-.45,.7-.99,1.26-1.62,1.68-.63,.42-1.28,.72-1.95,.9-.67,.18-1.28,.28-1.85,.28Zm-3.45-8.67h6.38c0-.6-.09-1.18-.26-1.74-.17-.56-.46-1.02-.86-1.38-.4-.36-.92-.54-1.58-.54-.97,0-1.77,.29-2.41,.86-.64,.58-1.06,1.5-1.26,2.79Z"/>
    <path d="M476.03,472.93c0-1.85,.34-3.31,1.01-4.38s1.84-1.6,3.49-1.6c.37,0,.75,.06,1.16,.19,.41,.12,.76,.33,1.06,.6,.3,.27,.45,.63,.45,1.06,0,.32-.09,.58-.26,.8-.18,.22-.43,.33-.76,.33-.4,.02-.68-.1-.84-.36-.16-.26-.24-.48-.24-.66,0-.1,0-.2,.03-.3,.02-.1,.05-.21,.1-.33-.12-.15-.28-.26-.49-.33-.21-.07-.4-.1-.59-.1-.52,0-.92,.15-1.2,.45-.28,.3-.48,.67-.6,1.12-.12,.45-.17,.92-.17,1.4v2.62h3.38v.98l-3.38,.07,.02,8.8c0,.33,0,.63-.01,.89,0,.26-.04,.53-.09,.81,.27-.02,.53-.03,.79-.04,.26,0,.52-.02,.79-.04v1.02h-5.1v-.75c.52,0,.88-.13,1.08-.39,.2-.26,.32-.62,.35-1.07,.03-.46,.05-.99,.05-1.59l-.03-7.62-2.05,.05v-1.12h2.05v-.52Z"/>
    <path d="M488.98,486.35c-1.17,0-2.22-.27-3.17-.81-.95-.54-1.7-1.29-2.26-2.25s-.84-2.05-.84-3.29c0-1.32,.27-2.5,.82-3.55,.55-1.05,1.3-1.88,2.25-2.49,.95-.61,2.02-.91,3.2-.91s2.23,.28,3.17,.84c.95,.56,1.71,1.31,2.28,2.26s.85,2.03,.85,3.25c0,1.28-.28,2.45-.84,3.51-.56,1.06-1.31,1.9-2.26,2.51-.95,.62-2.02,.92-3.2,.92Zm.2-1c.88,0,1.58-.25,2.1-.75s.89-1.15,1.11-1.95c.22-.8,.34-1.64,.34-2.53,0-.75-.07-1.49-.21-2.21-.14-.73-.36-1.38-.66-1.98-.3-.59-.69-1.06-1.16-1.41-.48-.35-1.05-.53-1.71-.53-.87,0-1.58,.25-2.12,.75s-.95,1.15-1.21,1.95c-.26,.8-.39,1.66-.39,2.58,0,1.03,.14,2.01,.42,2.94s.72,1.68,1.3,2.26,1.32,.88,2.2,.88Z"/>
    <path d="M497.16,485.2c.52,0,.88-.13,1.08-.39,.2-.26,.32-.62,.35-1.07,.03-.46,.05-.99,.05-1.59v-11.83c0-.27,0-.52,.01-.76,0-.24,.03-.53,.06-.86-.3,.02-.6,.03-.89,.05-.29,.02-.59,.03-.89,.05v-1.05c.73,0,1.3-.03,1.71-.1,.41-.07,.72-.15,.92-.25,.21-.1,.37-.21,.49-.33h.72l.03,16.23c0,.33,0,.63-.03,.89-.02,.26-.05,.53-.1,.81,.27-.02,.53-.03,.79-.04,.26,0,.52-.02,.79-.04v1.02h-5.1v-.75Z"/>
    <path d="M503.96,485.2c.52,0,.88-.13,1.08-.39,.2-.26,.32-.62,.35-1.07,.03-.46,.05-.99,.05-1.59v-11.83c0-.27,0-.52,.01-.76,0-.24,.03-.53,.06-.86-.3,.02-.6,.03-.89,.05-.29,.02-.59,.03-.89,.05v-1.05c.73,0,1.3-.03,1.71-.1,.41-.07,.72-.15,.92-.25,.21-.1,.37-.21,.49-.33h.72l.03,16.23c0,.33,0,.63-.03,.89-.02,.26-.05,.53-.1,.81,.27-.02,.53-.03,.79-.04,.26,0,.52-.02,.79-.04v1.02h-5.1v-.75Z"/>
    <path d="M517.21,486.35c-1.17,0-2.22-.27-3.17-.81-.95-.54-1.7-1.29-2.26-2.25s-.84-2.05-.84-3.29c0-1.32,.27-2.5,.82-3.55,.55-1.05,1.3-1.88,2.25-2.49,.95-.61,2.02-.91,3.2-.91s2.23,.28,3.17,.84c.95,.56,1.71,1.31,2.28,2.26s.85,2.03,.85,3.25c0,1.28-.28,2.45-.84,3.51-.56,1.06-1.31,1.9-2.26,2.51-.95,.62-2.02,.92-3.2,.92Zm.2-1c.88,0,1.58-.25,2.1-.75s.89-1.15,1.11-1.95c.22-.8,.34-1.64,.34-2.53,0-.75-.07-1.49-.21-2.21-.14-.73-.36-1.38-.66-1.98-.3-.59-.69-1.06-1.16-1.41-.48-.35-1.05-.53-1.71-.53-.87,0-1.58,.25-2.12,.75s-.95,1.15-1.21,1.95c-.26,.8-.39,1.66-.39,2.58,0,1.03,.14,2.01,.42,2.94s.72,1.68,1.3,2.26,1.32,.88,2.2,.88Z"/>
    <path d="M529.68,486.03l-3.28-9.6c-.12-.35-.22-.65-.31-.9s-.16-.47-.21-.65c-.05-.18-.09-.34-.12-.47l-1.32,.08v-1.03h5.3v.75c-.75,.02-1.16,.27-1.24,.76-.08,.49,.02,1.14,.29,1.94l1.15,3.5c.13,.4,.27,.8,.4,1.21s.27,.81,.4,1.21c.15-.45,.3-.9,.46-1.36,.16-.46,.31-.92,.46-1.39l2.22-6.62h1.03l2.53,7.28c.13,.37,.27,.74,.4,1.12s.27,.77,.4,1.15c.13-.37,.26-.73,.39-1.09s.25-.72,.36-1.09l1.65-4.75c.12-.33,.23-.65,.35-.95,.12-.3,.25-.54,.4-.72l-1.45,.08v-1.03h4.35v.75c-.43,.02-.79,.08-1.06,.17-.28,.1-.5,.23-.69,.4-.18,.17-.33,.37-.45,.6-.12,.23-.22,.5-.33,.8l-3.6,9.85h-1l-2.38-6.83c-.1-.3-.2-.6-.3-.89-.1-.29-.2-.58-.3-.88-.1-.29-.2-.58-.3-.86-.1,.28-.2,.57-.3,.86-.1,.29-.2,.58-.3,.88-.1,.29-.2,.59-.3,.89l-2.35,6.83h-.95Z"/>
    <path d="M545.41,485.2c.52,0,.88-.13,1.08-.39,.2-.26,.32-.62,.35-1.07,.03-.46,.05-.99,.05-1.59v-5.7c0-.27,0-.52,.02-.76,.02-.24,.04-.53,.08-.86-.3,.02-.6,.03-.89,.05-.29,.02-.59,.03-.89,.05v-1.05c.73,0,1.3-.03,1.7-.1,.4-.07,.7-.15,.91-.25,.21-.1,.37-.21,.49-.33h.72v10.1c0,.33,0,.63-.01,.89,0,.26-.04,.53-.09,.81,.27-.02,.53-.03,.79-.04,.26,0,.52-.02,.79-.04v1.02h-5.1v-.75Zm2.43-14.47c-.35,0-.66-.14-.93-.42s-.4-.63-.4-1.05,.14-.77,.41-1.06c.28-.29,.59-.44,.94-.44,.38,0,.7,.15,.96,.44,.26,.29,.39,.65,.39,1.06s-.14,.77-.41,1.05c-.27,.28-.6,.42-.96,.42Z"/>
    <path d="M552.43,485.95v-.75c.52,0,.88-.13,1.08-.39,.2-.26,.32-.62,.35-1.07,.03-.46,.05-.99,.05-1.59l.02-5.7c0-.27,0-.53,.01-.8s.04-.54,.09-.83c-.3,.02-.6,.03-.89,.05-.29,.02-.59,.03-.89,.05v-1.05c.73,0,1.29-.03,1.66-.1s.65-.15,.84-.25,.33-.21,.45-.33h.72c.02,.12,.03,.25,.04,.4,0,.15,.02,.32,.04,.5s.03,.39,.03,.62c.37-.32,.77-.6,1.21-.85s.91-.45,1.4-.6c.49-.15,.98-.22,1.46-.22,1.45,0,2.51,.45,3.17,1.36,.67,.91,1,2.32,1,4.24v4.65c0,.33,0,.63-.01,.89,0,.26-.04,.53-.09,.81,.27-.02,.53-.03,.79-.04,.26,0,.52-.02,.79-.04v1.02h-5.1v-.75c.52,0,.88-.13,1.08-.39,.2-.26,.32-.62,.35-1.07,.03-.46,.05-.99,.05-1.59v-3.5c-.02-1.43-.25-2.52-.71-3.25-.46-.73-1.18-1.09-2.16-1.08-.6,.02-1.19,.17-1.76,.48-.57,.3-1.05,.68-1.44,1.15,.02,.13,.03,.28,.03,.45v.53l-.03,6.38c0,.33,0,.63-.01,.89,0,.26-.04,.53-.09,.81,.27-.02,.53-.03,.79-.04,.26,0,.52-.02,.79-.04v1.02h-5.1Z"/>
    <path d="M573.63,492.73c-1.5,0-2.71-.17-3.62-.5-.92-.33-1.58-.76-2-1.28-.42-.52-.62-1.05-.62-1.6,0-.52,.12-.97,.36-1.36,.24-.39,.54-.73,.9-1.01,.36-.28,.7-.49,1.04-.62-.53-.18-.95-.43-1.26-.74s-.46-.72-.46-1.24c0-.58,.23-1.13,.7-1.64,.47-.51,1.07-.82,1.8-.94-.77-.37-1.38-.88-1.84-1.53s-.69-1.41-.69-2.28c0-1,.26-1.87,.78-2.61,.52-.74,1.18-1.32,1.99-1.72s1.65-.61,2.51-.61c.55,0,1.1,.08,1.65,.24,.55,.16,1.06,.39,1.53,.69,.17-.47,.4-.88,.71-1.25,.31-.37,.66-.65,1.06-.86,.4-.21,.82-.31,1.25-.31s.76,.11,.99,.34c.22,.23,.34,.53,.34,.91,0,.12-.03,.26-.1,.42s-.18,.31-.34,.42c-.16,.12-.37,.17-.64,.17-.28,0-.52-.08-.7-.25-.18-.17-.3-.38-.35-.62-.42,.07-.74,.26-.97,.59s-.39,.68-.47,1.06c.4,.37,.72,.81,.96,1.33s.36,1.07,.36,1.65c0,.93-.25,1.77-.74,2.5s-1.14,1.3-1.94,1.71-1.67,.61-2.6,.61c-.32,0-.59-.02-.83-.06-.23-.04-.52-.06-.85-.06-.62,0-1.12,.15-1.5,.45-.38,.3-.52,.66-.4,1.08,.13,.4,.54,.65,1.22,.76,.68,.11,1.6,.19,2.75,.24,1.28,.05,2.38,.2,3.3,.45,.92,.25,1.62,.64,2.11,1.16,.49,.52,.74,1.24,.74,2.14,0,.67-.18,1.26-.54,1.79-.36,.53-.83,.96-1.43,1.31s-1.25,.62-1.97,.8-1.45,.28-2.19,.28Zm-.03-.98c1.43,0,2.55-.27,3.35-.8s1.2-1.16,1.2-1.88c0-.62-.21-1.09-.62-1.41-.42-.33-.98-.55-1.7-.67-.72-.12-1.54-.2-2.48-.21-.45-.02-.89-.04-1.32-.06-.43-.03-.85-.07-1.25-.14-.45,.3-.8,.67-1.05,1.1-.25,.43-.38,.89-.38,1.38,0,.82,.39,1.47,1.16,1.96,.77,.49,1.8,.74,3.09,.74Zm-.32-10.25c.62,0,1.13-.15,1.54-.45,.41-.3,.72-.71,.92-1.23s.31-1.1,.31-1.75c0-.73-.11-1.42-.33-2.05-.22-.63-.54-1.14-.96-1.53-.42-.38-.96-.57-1.61-.57-.9,0-1.6,.34-2.09,1.01-.49,.68-.74,1.51-.74,2.51,0,.8,.12,1.5,.35,2.11,.23,.61,.57,1.08,1.01,1.43s.97,.51,1.59,.51Z"/>
    <path d="M588,485.95v-.75c.52,0,.88-.13,1.08-.39,.2-.26,.32-.62,.35-1.07,.03-.46,.05-.99,.05-1.59v-5.7c0-.27,0-.53,.01-.8,0-.27,.04-.54,.09-.83-.3,.02-.6,.03-.89,.05-.29,.02-.59,.03-.89,.05v-1.05c.73,0,1.29-.03,1.66-.1s.65-.15,.84-.25c.18-.1,.33-.21,.45-.33h.73c.03,.17,.05,.36,.06,.58,0,.22,.02,.47,.04,.75,.5-.43,1.08-.79,1.73-1.06,.65-.28,1.3-.41,1.95-.41,.83,0,1.53,.15,2.1,.45,.57,.3,1.01,.71,1.33,1.23,.57-.47,1.22-.86,1.96-1.19s1.47-.49,2.19-.49c1.45,0,2.52,.44,3.2,1.31s1.01,2.3,.97,4.29l-.02,4.65c0,.33,0,.63-.01,.89,0,.26-.04,.53-.09,.81,.27-.02,.53-.03,.79-.04,.26,0,.52-.02,.79-.04v1.02h-5.1v-.75c.52,0,.88-.13,1.08-.39,.2-.26,.32-.62,.35-1.07,.03-.46,.05-.99,.05-1.59v-3.5c0-1.43-.23-2.51-.69-3.22s-1.18-1.07-2.16-1.05c-.52,0-1.03,.12-1.55,.35-.52,.23-.97,.52-1.35,.88,.08,.27,.15,.55,.19,.86s.06,.63,.06,.96c-.02,.97-.02,1.94-.02,2.92s0,1.97-.03,2.95c0,.33,0,.63-.01,.89,0,.26-.04,.53-.09,.81,.27-.02,.53-.03,.79-.04,.26,0,.52-.02,.79-.04v1.02h-5.1v-.75c.52,0,.87-.13,1.06-.39,.19-.26,.31-.62,.35-1.07,.04-.46,.06-.99,.06-1.59l.03-3.5c.02-1.43-.19-2.52-.62-3.25s-1.14-1.09-2.12-1.08c-.52,0-1.03,.11-1.53,.34-.5,.22-.92,.51-1.27,.86,0,.2,0,.41,.01,.64,0,.22,.01,.46,.01,.71v6.43c0,.33,0,.63-.01,.89,0,.26-.04,.53-.09,.81,.27-.02,.53-.03,.79-.04,.26,0,.52-.02,.79-.04v1.02h-5.1Z"/>
    <path d="M616.41,486.35c-1.15,0-2.19-.27-3.11-.81-.92-.54-1.65-1.31-2.19-2.3-.53-.99-.8-2.16-.8-3.51,0-1.17,.26-2.26,.79-3.28,.52-1.02,1.26-1.84,2.21-2.46s2.05-.94,3.3-.94c.7,0,1.35,.11,1.96,.34,.61,.23,1.15,.57,1.61,1.03s.83,1.03,1.1,1.72c.27,.69,.4,1.5,.4,2.44l-8.8,.15c0,1.27,.14,2.38,.41,3.34,.28,.96,.72,1.7,1.34,2.23,.62,.52,1.41,.79,2.38,.79,.52,0,1.05-.09,1.59-.27,.54-.18,1.04-.43,1.51-.75s.84-.67,1.12-1.05l.6,.5c-.45,.7-.99,1.26-1.62,1.68-.63,.42-1.28,.72-1.95,.9-.67,.18-1.28,.28-1.85,.28Zm-3.45-8.67h6.38c0-.6-.09-1.18-.26-1.74-.17-.56-.46-1.02-.86-1.38-.4-.36-.92-.54-1.58-.54-.97,0-1.77,.29-2.41,.86-.64,.58-1.06,1.5-1.26,2.79Z"/>
    <path d="M331.44,516.03l-3.28-9.6c-.12-.35-.22-.65-.31-.9s-.16-.47-.21-.65c-.05-.18-.09-.34-.12-.47l-1.32,.08v-1.03h5.3v.75c-.75,.02-1.16,.27-1.24,.76-.08,.49,.02,1.14,.29,1.94l1.15,3.5c.13,.4,.27,.8,.4,1.21s.27,.81,.4,1.21c.15-.45,.3-.9,.46-1.36,.16-.46,.31-.92,.46-1.39l2.22-6.62h1.03l2.53,7.28c.13,.37,.27,.74,.4,1.12s.27,.77,.4,1.15c.13-.37,.26-.73,.39-1.09s.25-.72,.36-1.09l1.65-4.75c.12-.33,.23-.65,.35-.95,.12-.3,.25-.54,.4-.72l-1.45,.08v-1.03h4.35v.75c-.43,.02-.79,.08-1.06,.17-.28,.1-.5,.23-.69,.4-.18,.17-.33,.37-.45,.6-.12,.23-.22,.5-.33,.8l-3.6,9.85h-1l-2.38-6.83c-.1-.3-.2-.6-.3-.89-.1-.29-.2-.58-.3-.88-.1-.29-.2-.58-.3-.86-.1,.28-.2,.57-.3,.86-.1,.29-.2,.58-.3,.88-.1,.29-.2,.59-.3,.89l-2.35,6.83h-.95Z"/>
    <path d="M347.16,515.2c.52,0,.88-.13,1.08-.39,.2-.26,.32-.62,.35-1.07,.03-.46,.05-.99,.05-1.59v-5.7c0-.27,0-.52,.02-.76,.02-.24,.04-.53,.08-.86-.3,.02-.6,.03-.89,.05-.29,.02-.59,.03-.89,.05v-1.05c.73,0,1.3-.03,1.7-.1,.4-.07,.7-.15,.91-.25,.21-.1,.37-.21,.49-.33h.72v10.1c0,.33,0,.63-.01,.89,0,.26-.04,.53-.09,.81,.27-.02,.53-.03,.79-.04,.26,0,.52-.02,.79-.04v1.02h-5.1v-.75Zm2.43-14.47c-.35,0-.66-.14-.93-.42s-.4-.63-.4-1.05,.14-.77,.41-1.06c.28-.29,.59-.44,.94-.44,.38,0,.7,.15,.96,.44,.26,.29,.39,.65,.39,1.06s-.14,.77-.41,1.05c-.27,.28-.6,.42-.96,.42Z"/>
    <path d="M359.28,516.35c-.38,0-.77-.05-1.17-.16s-.77-.32-1.11-.64c-.34-.32-.61-.78-.81-1.39s-.3-1.41-.3-2.41l.05-7.25-1.92,.03v-1.08c.43-.02,.88-.18,1.32-.49,.45-.31,.85-.73,1.21-1.26,.36-.53,.6-1.12,.74-1.75h.85v3.5h4.2v.98l-4.2,.05-.05,6.95c0,.75,.06,1.39,.19,1.91s.33,.92,.61,1.19c.28,.27,.65,.4,1.1,.4s.9-.13,1.31-.4,.77-.63,1.09-1.1l.67,.55c-.37,.55-.73,.98-1.09,1.3s-.7,.55-1.04,.71c-.33,.16-.64,.26-.92,.3-.28,.04-.53,.06-.73,.06Z"/>
    <path d="M372.28,515.2c.52,0,.88-.13,1.08-.39,.2-.26,.32-.62,.35-1.07,.03-.46,.05-.99,.05-1.59v-3.5c0-1.43-.23-2.51-.69-3.22-.46-.72-1.18-1.07-2.16-1.05-.62,.02-1.22,.17-1.81,.45-.59,.28-1.07,.65-1.44,1.1v7.38c0,.33,0,.63-.03,.89-.02,.26-.05,.53-.1,.81,.27-.02,.53-.03,.79-.04,.26,0,.52-.02,.79-.04v1.02h-5.1v-.75c.52,0,.88-.13,1.08-.39,.2-.26,.32-.62,.36-1.07,.04-.46,.06-.99,.06-1.59v-11.83c0-.27,0-.52,.01-.76,0-.24,.03-.53,.06-.86-.3,.02-.6,.03-.89,.05-.29,.02-.59,.03-.89,.05v-1.05c.73,0,1.3-.03,1.71-.1s.72-.15,.92-.25c.21-.1,.37-.21,.49-.33h.72v7.62c.37-.32,.78-.6,1.24-.84,.46-.24,.93-.44,1.42-.59,.49-.15,.97-.22,1.44-.22,1.45,0,2.5,.45,3.14,1.36s.97,2.32,.99,4.24l.03,4.65c0,.33,0,.63-.01,.89,0,.26-.04,.53-.09,.81,.27-.02,.53-.03,.79-.04,.26,0,.52-.02,.79-.04v1.02h-5.1v-.75Z"/>
    <path d="M393.83,515.2c.52,0,.88-.13,1.08-.39,.2-.26,.32-.62,.35-1.07,.03-.46,.05-.99,.05-1.59v-3.5c0-1.43-.23-2.51-.69-3.22-.46-.72-1.18-1.07-2.16-1.05-.62,.02-1.22,.17-1.81,.45-.59,.28-1.07,.65-1.44,1.1v7.38c0,.33,0,.63-.03,.89-.02,.26-.05,.53-.1,.81,.27-.02,.53-.03,.79-.04,.26,0,.52-.02,.79-.04v1.02h-5.1v-.75c.52,0,.88-.13,1.08-.39,.2-.26,.32-.62,.36-1.07,.04-.46,.06-.99,.06-1.59v-11.83c0-.27,0-.52,.01-.76,0-.24,.03-.53,.06-.86-.3,.02-.6,.03-.89,.05-.29,.02-.59,.03-.89,.05v-1.05c.73,0,1.3-.03,1.71-.1s.72-.15,.92-.25c.21-.1,.37-.21,.49-.33h.72v7.62c.37-.32,.78-.6,1.24-.84,.46-.24,.93-.44,1.42-.59,.49-.15,.97-.22,1.44-.22,1.45,0,2.5,.45,3.14,1.36s.97,2.32,.99,4.24l.03,4.65c0,.33,0,.63-.01,.89,0,.26-.04,.53-.09,.81,.27-.02,.53-.03,.79-.04,.26,0,.52-.02,.79-.04v1.02h-5.1v-.75Z"/>
    <path d="M406.83,516.35c-1.15,0-2.19-.27-3.11-.81-.92-.54-1.65-1.31-2.19-2.3-.53-.99-.8-2.16-.8-3.51,0-1.17,.26-2.26,.79-3.28,.52-1.02,1.26-1.84,2.21-2.46s2.05-.94,3.3-.94c.7,0,1.35,.11,1.96,.34,.61,.23,1.15,.57,1.61,1.03s.83,1.03,1.1,1.72c.27,.69,.4,1.5,.4,2.44l-8.8,.15c0,1.27,.14,2.38,.41,3.34,.28,.96,.72,1.7,1.34,2.23,.62,.52,1.41,.79,2.38,.79,.52,0,1.05-.09,1.59-.27,.54-.18,1.04-.43,1.51-.75s.84-.67,1.12-1.05l.6,.5c-.45,.7-.99,1.26-1.62,1.68-.63,.42-1.28,.72-1.95,.9-.67,.18-1.28,.28-1.85,.28Zm-3.45-8.67h6.38c0-.6-.09-1.18-.26-1.74-.17-.56-.46-1.02-.86-1.38-.4-.36-.92-.54-1.58-.54-.97,0-1.77,.29-2.41,.86-.64,.58-1.06,1.5-1.26,2.79Z"/>
    <path d="M414.33,515.2c.52,0,.88-.13,1.08-.39,.2-.26,.32-.62,.35-1.07,.03-.46,.05-.99,.05-1.59v-5.7c0-.27,0-.53,.01-.8,0-.27,.04-.54,.09-.83-.3,.02-.6,.03-.89,.04-.29,0-.59,.02-.89,.04v-1.03h.77c.72,0,1.21-.07,1.49-.21,.28-.14,.5-.3,.69-.46h.73c.03,.27,.06,.6,.08,.99,.02,.39,.03,.89,.05,1.49,.25-.42,.59-.83,1.02-1.23,.43-.4,.92-.73,1.46-1,.54-.27,1.11-.4,1.71-.4,.47,0,.88,.12,1.22,.38s.53,.65,.53,1.2c0,.13-.04,.3-.12,.49-.08,.19-.22,.36-.4,.5s-.42,.21-.72,.21c-.37-.02-.66-.16-.88-.44-.22-.27-.3-.6-.25-.96-.42-.02-.85,.09-1.29,.32-.44,.23-.85,.55-1.24,.96-.38,.41-.72,.89-1.03,1.44l.03,6.15c0,.33,0,.63-.01,.89,0,.26-.04,.53-.09,.81,.27-.02,.53-.03,.79-.04,.26,0,.52-.02,.79-.04v1.02h-5.12v-.75Z"/>
    <path d="M437.78,516.35c-1.15,0-2.19-.27-3.11-.81-.92-.54-1.65-1.31-2.19-2.3-.53-.99-.8-2.16-.8-3.51,0-1.17,.26-2.26,.79-3.28,.52-1.02,1.26-1.84,2.21-2.46s2.05-.94,3.3-.94c.7,0,1.35,.11,1.96,.34,.61,.23,1.15,.57,1.61,1.03s.83,1.03,1.1,1.72c.27,.69,.4,1.5,.4,2.44l-8.8,.15c0,1.27,.14,2.38,.41,3.34,.28,.96,.72,1.7,1.34,2.23,.62,.52,1.41,.79,2.38,.79,.52,0,1.05-.09,1.59-.27,.54-.18,1.04-.43,1.51-.75s.84-.67,1.12-1.05l.6,.5c-.45,.7-.99,1.26-1.62,1.68-.63,.42-1.28,.72-1.95,.9-.67,.18-1.28,.28-1.85,.28Zm-3.45-8.67h6.38c0-.6-.09-1.18-.26-1.74-.17-.56-.46-1.02-.86-1.38-.4-.36-.92-.54-1.58-.54-.97,0-1.77,.29-2.41,.86-.64,.58-1.06,1.5-1.26,2.79Z"/>
    <path d="M447.08,522.73c-.52,0-.96-.12-1.33-.38-.37-.25-.55-.63-.55-1.15,0-.3,.1-.58,.3-.83s.46-.38,.77-.38c.4-.02,.67,.11,.81,.38s.21,.5,.21,.7v.16c0,.06,0,.12-.03,.19,.05,.03,.14,.05,.28,.05,.2,0,.42-.08,.65-.25,.23-.17,.44-.41,.62-.73,.22-.37,.47-.92,.76-1.65,.29-.73,.62-1.61,.99-2.62l-3.9-8.35c-.43-.93-.75-1.67-.94-2.22s-.32-.96-.39-1.22l-1.2,.05v-1.03h5.18v.75h-.1c-.7,.05-1.08,.31-1.15,.79-.07,.47,.12,1.2,.57,2.16l2.93,6.28c.38-1.07,.75-2.12,1.1-3.16,.35-1.04,.7-2.08,1.05-3.11,.13-.37,.27-.75,.41-1.14,.14-.39,.28-.74,.42-1.05s.27-.5,.39-.59l-1.73,.1v-1.03h3.92v.75c-.62,.23-1.08,.62-1.39,1.16-.31,.54-.62,1.24-.94,2.09l-3.12,8.73c-.5,1.4-.96,2.59-1.38,3.56-.42,.97-.88,1.72-1.38,2.22-.5,.51-1.12,.76-1.88,.76Z"/>
    <path d="M464.16,516.35c-1.15,0-2.19-.27-3.11-.81-.92-.54-1.65-1.31-2.19-2.3-.53-.99-.8-2.16-.8-3.51,0-1.17,.26-2.26,.79-3.28,.52-1.02,1.26-1.84,2.21-2.46s2.05-.94,3.3-.94c.7,0,1.35,.11,1.96,.34,.61,.23,1.15,.57,1.61,1.03s.83,1.03,1.1,1.72c.27,.69,.4,1.5,.4,2.44l-8.8,.15c0,1.27,.14,2.38,.41,3.34,.28,.96,.72,1.7,1.34,2.23,.62,.52,1.41,.79,2.38,.79,.52,0,1.05-.09,1.59-.27,.54-.18,1.04-.43,1.51-.75s.84-.67,1.12-1.05l.6,.5c-.45,.7-.99,1.26-1.62,1.68-.63,.42-1.28,.72-1.95,.9-.67,.18-1.28,.28-1.85,.28Zm-3.45-8.67h6.38c0-.6-.09-1.18-.26-1.74-.17-.56-.46-1.02-.86-1.38-.4-.36-.92-.54-1.58-.54-.97,0-1.77,.29-2.41,.86-.64,.58-1.06,1.5-1.26,2.79Z"/>
    <path d="M476.78,516.35c-.83,0-1.57-.11-2.22-.34-.65-.22-1.18-.48-1.6-.76l.1,.88h-1.05l-.15-4.3h.78c.03,.68,.22,1.3,.58,1.84,.35,.54,.8,.96,1.35,1.26,.55,.3,1.14,.45,1.78,.45,.43,0,.86-.07,1.27-.21s.77-.36,1.05-.65c.28-.29,.43-.66,.43-1.11s-.14-.85-.41-1.16c-.27-.31-.64-.58-1.09-.81-.45-.23-.93-.45-1.45-.65-.5-.2-1-.41-1.5-.62s-.96-.47-1.39-.78c-.42-.3-.76-.67-1.01-1.1s-.38-.97-.38-1.6c0-.35,.07-.73,.2-1.15,.13-.42,.36-.81,.67-1.19s.75-.68,1.3-.92c.55-.24,1.25-.36,2.1-.36,.45,0,.95,.07,1.5,.22s1.08,.43,1.6,.85l-.05-.95h1.05v4.38h-.8c-.03-.58-.17-1.15-.4-1.69-.23-.54-.57-.99-1.02-1.35s-1.03-.54-1.75-.54c-.77,0-1.37,.19-1.8,.58-.43,.38-.65,.82-.65,1.32s.16,.95,.49,1.29,.75,.64,1.26,.89,1.07,.49,1.65,.72c.63,.27,1.25,.56,1.85,.88s1.09,.71,1.47,1.19c.38,.47,.58,1.09,.58,1.84,0,.83-.21,1.52-.64,2.07-.42,.55-.97,.96-1.62,1.21s-1.35,.39-2.06,.39Z"/>
    <path d="M485.18,516.35c-.38,0-.72-.15-1.01-.46-.29-.31-.44-.69-.44-1.14s.15-.83,.45-1.15,.64-.48,1.03-.48c.42,0,.76,.16,1.04,.48,.28,.32,.41,.7,.41,1.15s-.15,.83-.45,1.14c-.3,.31-.64,.46-1.03,.46Z"/>
  </g>
  <g>
    <rect class="cls-1" x="288.06" y="94.17" width="223.89" height="279.59"/>
    <path class="cls-2" d="M389.14,183.15c0,.18-4.79-1.64-4.42-.74,1.47,3.69,5.16,10.32,5.16,15.49,0,.23-1.87,.87-2.95,1.47-1.93,1.08-4.01,2.48-7.37,4.42-6.93,4.02-14.76,9.53-17.7,15.49-3.9,7.91,.91,19.68,7.37,25.81,14.94,14.16,50.12,9.03,64.16-12.54,8.16-12.53,9.25-35.95-1.47-47.2-14.09-14.78-42.71-3.4-42.77-2.21Z"/>
    <path class="cls-6" d="M364.39,220.99c.15-.38,.29-.7,.42-.96,5.75-11.5,17.77-18.07,22.79-20.75,1.42-.76,2.28-1.21,2.28-1.37,0,0-14.45,5.18-30.55,19.15"/>
    <path class="cls-2" d="M384.72,344.65c-15.21-1.28-19.91,1.57-21.39,4.42-1.51,2.92-.71,7.9-4.42,12.54-.67,.83-1.42,1.58-2.21,1.47-2.07-.27-2.81-6.12-2.95-7.37l-2.21-2.21c-.25-.04-.92-.17-1.47-.74-.87-.88-.76-2.05-.74-2.21-.56,.16-1.38,.3-2.21,0-1.96-.71-2.56-3.35-2.95-5.16-.56-2.59-1.76-8.21,1.47-12.54,1.18-1.58,2.56-2.47,9.59-5.16,3.32-1.27,7.55-2.81,12.54-4.42,5.65,7.13,11.31,14.26,16.96,21.39Z"/>
    <path class="cls-6" d="M359.33,217.06c-2.58,2.23-5.19,4.69-7.8,7.39-7.52,7.79-13.83,14.31-17.7,25.07-3.44,9.56-1.49,12.82-5.9,20.65-6.37,11.32-13.77,10.39-16.96,19.17-3.39,9.32,1.36,20.25,6.64,26.55,8.14,9.71,21.92,13.65,35.4,10.32-4.19-4.22-5.35-10.47-2.95-15.49,2.95-6.18,9.75-7.29,10.32-7.37,9.59,.07,16.28,2.33,20.65,4.42,4.46,2.14,7.76,4.7,15.49,8.11,3.98,1.76,7.36,2.95,9.59,3.69-7.53-3.92-16.69-2.31-22.12,3.69-6.01,6.63-6.15,17.17,0,24.34,8.17,.3,20.74,.9,36.13,2.21,24.85,2.12,30.08,3.81,36.87,0,8.49-4.77,20.03-13.57,26.55-36.87,6.54-23.39,1.69-38.03-.74-50.88-2.3-12.13-7.92-20.62-19.17-37.61-8.61-12.99-16.91-22.9-22.86-29.5-2.84,10.87-7.05,19.01-10.32,24.34-5.77,9.39-11.39,18.52-22.12,22.12-4.8,1.61-9.1,1.32-17.7,.74-11.86-.8-21.96-1.49-25.81-8.11-2.67-4.6-1.48-10.28-.42-13.05l-5.06-3.93Z"/>
    <path class="cls-5" d="M389.14,187.58c1.47,3.69,2.21,11.06,2.21,11.06,0,0-3.86,5.86-4.42,6.64-6.92,9.54-11.52,21.39-13.27,21.39-2.21,0-3.91-16.43-4.42-21.39-1.1-10.59-1.36-18.71-1.47-22.86-.67-23.46-.96-35.37,1.47-44.25,2.26-8.24,3.94-14.39,9.59-19.91,9.05-8.85,23.87-11.75,36.13-7.37,15.9,5.67,20.27,17.82,22.12,22.86,3.79,10.29,1.58,14.74,5.16,37.61,1.92,12.23,3.52,15.51,4.42,27.29,1.22,15.92-.82,21.42-2.21,24.34-3.77,7.88-11.84,15.71-16.22,14.01-1.32-.51-2.8-5.31-3.69-30.24-.67-18.83-6.59-24.48-8.11-28.02-2.21-5.16-33.75-7.32-27.29,8.85Z"/>
    <path class="cls-2" d="M422.32,167.67c5.08-12.26,1.6-26.33-6.64-35.4-8.82-9.71-25.11-15.9-34.66-9.59-7.38,4.88-8.62,15.8-9.59,24.34-1.02,8.97,.43,15.62,.74,16.96,1.31,5.78,4.4,19.36,14.01,23.6,11.67,5.14,29.89-4.84,36.13-19.91Z"/>
    <path class="cls-2" d="M361.85,303.36c-5.43,.29-8.06,1.26-10.32,4.42-7.37,10.32,1.47,18.44,1.47,18.44,0,0,5.31-1.45,8.11,0,3.13,1.62,4.3,2.56,5.16,4.42,5.99,12.92,23.29,19.85,27.29,17.7,.31-.16,1.08-.68,2.21-.74,1.75-.09,2.27,1.01,4.42,1.47,.29,.06,3.49,.73,4.42-.74,.46-.72,.2-1.68,0-2.21,.7,.81,1.9,1.98,3.69,2.95,1.76,.95,3.69,2.25,4.42,1.47,1.33-1.4-1.16-4.61-2.95-7.37-2.03-3.13-4.27-4.66-6.64-6.64-2.56-2.14-6.01-5.43-9.59-10.32,2.69,1.45,6.48,3.49,11.06,5.9,7.72,4.06,8.85,6.64,10.32,4.42,.77-1.16-3.36-6.13-5.16-8.11-2.51-2.76-4.94-4.68-6.64-5.9,1.61,.35,3.11-.3,3.69-1.47,.28-.56,.47-1.52,0-2.21-.73-1.06-2.51-.64-4.42-.74-2.2-.11-4.69-1.55-9.59-4.42-3.03-1.78-4.86-3.03-5.9-3.69-10.19-6.48-23.34-6.73-25.07-6.64Z"/>
    <path class="cls-5" d="M516.23,378.05h-232.46V89.89h232.46V378.05Zm-223.89-8.57h215.32V98.46h-215.32V369.48Z"/>
  </g>
</svg>