<?xml version="1.0" encoding="UTF-8"?>
<svg id="droite" xmlns="http://www.w3.org/2000/svg" viewBox="0 0 800 600">
  <defs>
    <style>
      .cls-1 {
        fill: #cbcbcb;
      }

      .cls-2 {
        fill: #9e3a28;
      }

      .cls-3 {
        fill: #fff;
        opacity: .75;
      }

      .cls-4 {
        fill: #325442;
      }

      .cls-5 {
        fill: #999;
      }

      .cls-6 {
        fill: #e4704e;
      }
    </style>
  </defs>
  <rect class="cls-3" x="133.78" y="45.26" width="532.45" height="474.53" rx="40" ry="40"/>
  <rect class="cls-5" x="133.78" y="45.26" width="532.45" height="377.42" rx="40" ry="40"/>
  <g>
    <path class="cls-4" d="M412.05,292.93c-4.54-30.65-5.4-77.39,16.27-126.02,7.99-17.93,18.48-34.81,31.18-50.16l3.11,2.57c-12.46,15.07-22.76,31.63-30.6,49.23-21.28,47.74-20.42,93.67-15.97,123.79l-3.98,.59Z"/>
    <path class="cls-4" d="M416.73,316.21c-1.28-37.3,4.18-73.7,16.23-108.18,6.04-17.28,13.77-34.11,22.99-50.04l3.49,2.02c-9.09,15.71-16.72,32.31-22.67,49.35-11.88,34.01-17.27,69.92-16.01,106.71l-4.03,.14Z"/>
    <path class="cls-4" d="M401.96,305.5c-1.96-35.8-1.51-72.04,1.35-107.72,1.98-24.71,5.15-49.63,9.43-74.06l3.97,.7c-4.25,24.3-7.41,49.09-9.38,73.68-2.84,35.5-3.29,71.56-1.34,107.18l-4.02,.22Z"/>
    <path class="cls-4" d="M408.68,340.51c-4.45-45.22-10.76-90.81-18.78-135.5-4.01-22.34-8.52-44.91-13.42-67.08l3.93-.87c4.9,22.22,9.43,44.84,13.45,67.23,8.04,44.79,14.37,90.48,18.83,135.81l-4.01,.39Z"/>
    <path class="cls-4" d="M408.67,351.15l-4.02-.19c1.9-40.29-5.47-80.85-21.33-117.29-11.71-26.91-27.85-51.58-47.98-73.3l2.96-2.74c20.44,22.06,36.83,47.1,48.72,74.44,16.09,37,23.58,78.19,21.65,119.09Z"/>
    <path class="cls-2" d="M469.53,123.52c.51,1.85,.33,3.83-.69,5.54-2.09,3.5-6.89,4.5-10.7,2.22-2.07-1.23-3.42-3.17-3.91-5.25-2.06,.57-4.41,.29-6.48-.94-3.82-2.28-5.23-6.97-3.14-10.47,1.01-1.7,2.67-2.81,4.54-3.24-2.7-2.48-3.5-6.37-1.7-9.4,2.09-3.5,6.89-4.5,10.7-2.22,1.07,.64,1.95,1.48,2.62,2.42,.06-1.1,.36-2.18,.95-3.16,2.09-3.5,6.89-4.5,10.7-2.22s5.23,6.97,3.14,10.47c-.49,.81-1.12,1.48-1.84,2.01,.59,.19,1.17,.45,1.73,.79,3.82,2.28,5.23,6.97,3.14,10.47-1.8,3.02-5.61,4.17-9.08,2.98Z"/>
    <circle class="cls-6" cx="461.73" cy="114.67" r="6.04"/>
    <path class="cls-2" d="M466.43,166.93c.71,1.78,.75,3.77-.07,5.58-1.69,3.71-6.34,5.23-10.39,3.39-2.19-.99-3.76-2.77-4.46-4.79-1.98,.79-4.35,.78-6.54-.21-4.05-1.84-5.97-6.35-4.28-10.06,.82-1.8,2.35-3.09,4.16-3.72-2.95-2.17-4.19-5.95-2.73-9.15,1.69-3.71,6.34-5.23,10.39-3.39,1.14,.52,2.1,1.25,2.87,2.12-.06-1.1,.12-2.21,.59-3.25,1.69-3.71,6.34-5.23,10.39-3.39,4.05,1.84,5.97,6.35,4.28,10.06-.39,.86-.95,1.6-1.61,2.2,.61,.13,1.21,.32,1.81,.59,4.05,1.84,5.97,6.35,4.28,10.06-1.46,3.21-5.11,4.76-8.69,3.96Z"/>
    <circle class="cls-6" cx="457.7" cy="159" r="6.04"/>
    <path class="cls-2" d="M424.53,132.85c1.26,1.45,1.95,3.32,1.77,5.29-.37,4.06-4.27,7.03-8.7,6.62-2.39-.22-4.46-1.38-5.79-3.05-1.61,1.4-3.85,2.17-6.25,1.95-4.43-.4-7.72-4.03-7.35-8.09,.18-1.97,1.2-3.69,2.7-4.88-3.5-1.07-5.91-4.24-5.59-7.74,.37-4.06,4.27-7.03,8.7-6.62,1.24,.11,2.4,.49,3.41,1.05-.42-1.01-.62-2.12-.51-3.26,.37-4.06,4.27-7.03,8.7-6.62s7.72,4.03,7.35,8.09c-.09,.94-.37,1.82-.79,2.61,.61-.08,1.25-.1,1.9-.04,4.43,.4,7.72,4.03,7.35,8.09-.32,3.51-3.26,6.18-6.9,6.6Z"/>
    <circle class="cls-6" cx="413.67" cy="128.23" r="6.04"/>
    <path class="cls-2" d="M391.44,136.73c1.56,1.11,2.68,2.76,2.97,4.72,.6,4.03-2.48,7.84-6.88,8.5-2.38,.35-4.66-.29-6.35-1.59-1.23,1.74-3.23,3.02-5.61,3.38-4.4,.66-8.46-2.09-9.06-6.12-.29-1.96,.29-3.87,1.46-5.38-3.66-.21-6.75-2.72-7.27-6.2-.6-4.03,2.48-7.84,6.88-8.5,1.24-.18,2.44-.09,3.56,.22-.65-.89-1.1-1.91-1.27-3.05-.6-4.03,2.48-7.84,6.88-8.5,4.4-.66,8.46,2.09,9.06,6.12,.14,.94,.07,1.86-.15,2.72,.58-.22,1.19-.39,1.84-.49,4.4-.66,8.46,2.09,9.06,6.12,.52,3.48-1.7,6.78-5.14,8.05Z"/>
    <circle class="cls-6" cx="379.8" cy="134.82" r="6.04"/>
    <path class="cls-2" d="M349.18,148.8c1.92,.04,3.77,.77,5.12,2.23,2.77,2.99,2.36,7.88-.9,10.89-1.77,1.63-4.01,2.39-6.14,2.26-.04,2.13-.97,4.31-2.73,5.95-3.26,3.02-8.17,3.04-10.93,.04-1.35-1.46-1.93-3.36-1.82-5.27-3.14,1.88-7.1,1.55-9.49-1.03-2.77-2.99-2.36-7.88,.9-10.89,.92-.85,1.97-1.45,3.07-1.83-1.03-.37-1.99-.96-2.76-1.8-2.77-2.99-2.36-7.88,.9-10.89s8.17-3.04,10.93-.04c.64,.7,1.11,1.49,1.41,2.34,.35-.51,.77-.99,1.25-1.44,3.26-3.02,8.17-3.04,10.93-.04,2.39,2.59,2.41,6.56,.28,9.55Z"/>
    <circle class="cls-6" cx="338.48" cy="153.77" r="6.04"/>
    <g>
      <path class="cls-1" d="M422.78,261.61l25.43-33.45h-79.52l25.52,33.57c-16.65,8.37-28.57,30.85-28.57,57.26,0,33.56,19.24,60.76,42.98,60.76s42.98-27.2,42.98-60.76c0-26.54-12.04-49.11-28.82-57.38Z"/>
      <path class="cls-1" d="M408.61,385.13c-26.66,0-48.35-29.67-48.35-66.14,0-24.87,10.26-47.55,26.06-58.76l-28.47-37.44h101.19l-28.35,37.29c15.93,11.15,26.28,33.89,26.28,58.91,0,36.47-21.69,66.14-48.35,66.14Zm-29.1-151.59l22.88,30.09-5.78,2.9c-15.32,7.71-25.61,28.79-25.61,52.46,0,30.54,16.87,55.39,37.61,55.39s37.61-24.85,37.61-55.39c0-23.82-10.38-44.95-25.82-52.56l-5.84-2.88,22.81-30.01h-57.85Z"/>
    </g>
  </g>
  <g>
    <path d="M213.38,458.9l-9.97-13.4c-.15-.2-.3-.4-.44-.59-.14-.19-.29-.39-.44-.59h-.03l.08,10.7v1.25c0,.42-.02,.83-.05,1.23l.9-.05c.3-.02,.6-.03,.9-.05v1.1h-4.58v-.83c.52,0,.89-.11,1.11-.34,.23-.23,.37-.49,.44-.8,.07-.31,.1-.59,.1-.84l.02-12.03v-1.67c-.27,.02-.54,.03-.82,.05-.28,.02-.57,.03-.85,.05v-1.1h2.98l9.38,12.55c.22,.28,.43,.57,.64,.85,.21,.28,.42,.57,.64,.85h.03l.02-11.45c0-.33,0-.65,.03-.96,.02-.31,.03-.59,.05-.84-.3,.02-.6,.03-.9,.05-.3,.02-.6,.03-.9,.05v-1.1h4.6v.83c-.62,.02-1.04,.16-1.27,.42s-.36,.62-.38,1.08c-.02,.45-.03,.97-.03,1.57l-.05,14h-1.2Z"/>
    <path d="M218.48,457.75c.52,0,.88-.13,1.08-.39,.2-.26,.32-.62,.35-1.07,.03-.46,.05-.99,.05-1.59v-5.7c0-.27,0-.52,.02-.76,.02-.24,.04-.53,.08-.86-.3,.02-.6,.03-.89,.05-.29,.02-.59,.03-.89,.05v-1.05c.73,0,1.3-.03,1.7-.1,.4-.07,.7-.15,.91-.25,.21-.1,.37-.21,.49-.33h.72v10.1c0,.33,0,.63-.01,.89,0,.26-.04,.53-.09,.81,.27-.02,.53-.03,.79-.04,.26,0,.52-.02,.79-.04v1.02h-5.1v-.75Zm2.43-14.48c-.35,0-.66-.14-.93-.42-.27-.28-.4-.63-.4-1.05s.14-.77,.41-1.06c.28-.29,.59-.44,.94-.44,.38,0,.7,.15,.96,.44,.26,.29,.39,.65,.39,1.06s-.14,.77-.41,1.05c-.27,.28-.6,.42-.96,.42Z"/>
    <path d="M231.6,458.9c-1.12,0-2.15-.25-3.09-.76-.94-.51-1.69-1.24-2.25-2.2-.56-.96-.84-2.11-.84-3.46,0-.87,.16-1.71,.47-2.52s.76-1.55,1.34-2.21c.57-.66,1.26-1.18,2.06-1.56,.8-.38,1.68-.57,2.65-.57s1.75,.14,2.44,.42c.69,.28,1.23,.66,1.61,1.12,.38,.47,.58,.98,.58,1.52,0,.37-.1,.68-.3,.94-.2,.26-.49,.39-.88,.39-.42,.02-.71-.11-.89-.39-.17-.27-.26-.52-.26-.74,0-.17,.03-.34,.08-.51,.05-.17,.15-.34,.3-.49-.13-.4-.37-.7-.7-.89-.33-.19-.68-.32-1.04-.38-.36-.06-.65-.09-.89-.09-1.13,0-2.09,.45-2.86,1.36-.77,.91-1.16,2.23-1.16,3.96,0,1.12,.18,2.11,.54,2.98s.86,1.55,1.51,2.04c.65,.49,1.4,.74,2.25,.74,.78,0,1.53-.21,2.25-.62s1.28-.93,1.67-1.52l.65,.5c-.43,.7-.95,1.27-1.56,1.7-.61,.43-1.23,.75-1.88,.95-.64,.2-1.25,.3-1.81,.3Z"/>
    <path d="M244.73,458.9c-1.15,0-2.19-.27-3.11-.81-.92-.54-1.65-1.31-2.19-2.3s-.8-2.16-.8-3.51c0-1.17,.26-2.26,.79-3.27,.52-1.02,1.26-1.84,2.21-2.46s2.05-.94,3.3-.94c.7,0,1.35,.11,1.96,.34s1.15,.57,1.61,1.02c.47,.46,.83,1.03,1.1,1.73,.27,.69,.4,1.5,.4,2.44l-8.8,.15c0,1.27,.14,2.38,.41,3.34,.28,.96,.72,1.7,1.34,2.23,.62,.52,1.41,.79,2.38,.79,.52,0,1.05-.09,1.59-.27,.54-.18,1.04-.43,1.51-.75,.47-.32,.84-.67,1.12-1.05l.6,.5c-.45,.7-.99,1.26-1.62,1.68-.63,.42-1.28,.72-1.95,.9-.67,.18-1.28,.27-1.85,.27Zm-3.45-8.67h6.38c0-.6-.09-1.18-.26-1.74-.17-.56-.46-1.02-.86-1.38-.4-.36-.92-.54-1.58-.54-.97,0-1.77,.29-2.41,.86-.64,.58-1.06,1.5-1.26,2.79Z"/>
    <path d="M260.38,445.23c0-1.25,.19-2.3,.58-3.15,.38-.85,.92-1.49,1.61-1.93,.69-.43,1.5-.65,2.41-.65,.65,0,1.22,.04,1.7,.12,.48,.08,.92,.17,1.31,.26s.76,.14,1.11,.14c.23,0,.47-.03,.7-.09,.23-.06,.48-.16,.75-.31h.73v17.11c0,.26-.03,.53-.08,.81,.27-.02,.53-.03,.79-.04,.26,0,.52-.02,.79-.04v1.02h-5.1v-.75c.52,0,.88-.13,1.08-.39,.2-.26,.32-.62,.35-1.07,.03-.46,.05-.99,.05-1.59v-13.25c-.35-.22-.75-.39-1.21-.53-.46-.13-.9-.23-1.34-.29-.43-.06-.81-.09-1.12-.09-.75,0-1.34,.14-1.78,.41s-.74,.68-.91,1.21c-.18,.53-.26,1.18-.26,1.93v1.9h3.38v.98l-3.38,.07,.02,8.8c0,.33,0,.63-.01,.89,0,.26-.04,.53-.09,.81,.27-.02,.53-.03,.79-.04,.26,0,.52-.02,.79-.04v1.02h-5.1v-.75c.52,0,.88-.13,1.08-.39,.2-.26,.32-.62,.35-1.07,.03-.46,.05-.99,.05-1.59l-.03-7.62-2.05,.05v-1.12h2.05v-.77Z"/>
    <path d="M280.93,458.9c-1.17,0-2.22-.27-3.17-.81s-1.7-1.29-2.26-2.25c-.56-.96-.84-2.05-.84-3.29,0-1.32,.27-2.5,.82-3.55,.55-1.05,1.3-1.88,2.25-2.49,.95-.61,2.02-.91,3.2-.91s2.23,.28,3.17,.84c.95,.56,1.71,1.31,2.28,2.26,.57,.95,.85,2.03,.85,3.25,0,1.28-.28,2.45-.84,3.51-.56,1.06-1.31,1.9-2.26,2.51-.95,.62-2.02,.92-3.2,.92Zm.2-1c.88,0,1.58-.25,2.1-.75s.89-1.15,1.11-1.95c.22-.8,.34-1.64,.34-2.53,0-.75-.07-1.49-.21-2.21-.14-.73-.36-1.38-.66-1.98-.3-.59-.69-1.06-1.16-1.41-.48-.35-1.05-.53-1.71-.53-.87,0-1.58,.25-2.12,.75s-.95,1.15-1.21,1.95c-.26,.8-.39,1.66-.39,2.58,0,1.03,.14,2.01,.42,2.94,.28,.92,.72,1.68,1.3,2.26,.58,.58,1.32,.88,2.2,.88Z"/>
    <path d="M293.4,458.58l-3.28-9.6c-.12-.35-.22-.65-.31-.9s-.16-.47-.21-.65c-.05-.18-.09-.34-.12-.47l-1.32,.07v-1.02h5.3v.75c-.75,.02-1.16,.27-1.24,.76-.08,.49,.02,1.14,.29,1.94l1.15,3.5c.13,.4,.27,.8,.4,1.21,.13,.41,.27,.81,.4,1.21,.15-.45,.3-.9,.46-1.36s.31-.92,.46-1.39l2.22-6.62h1.03l2.53,7.27c.13,.37,.27,.74,.4,1.12,.13,.38,.27,.77,.4,1.15,.13-.37,.26-.73,.39-1.09,.12-.36,.25-.72,.36-1.09l1.65-4.75c.12-.33,.23-.65,.35-.95,.12-.3,.25-.54,.4-.72l-1.45,.07v-1.02h4.35v.75c-.43,.02-.79,.08-1.06,.17-.28,.1-.5,.23-.69,.4s-.33,.37-.45,.6c-.12,.23-.22,.5-.33,.8l-3.6,9.85h-1l-2.38-6.83c-.1-.3-.2-.6-.3-.89-.1-.29-.2-.58-.3-.88-.1-.29-.2-.58-.3-.86-.1,.28-.2,.57-.3,.86-.1,.29-.2,.58-.3,.88-.1,.29-.2,.59-.3,.89l-2.35,6.83h-.95Z"/>
    <path d="M314.88,458.9c-1.15,0-2.19-.27-3.11-.81-.92-.54-1.65-1.31-2.19-2.3s-.8-2.16-.8-3.51c0-1.17,.26-2.26,.79-3.27,.52-1.02,1.26-1.84,2.21-2.46s2.05-.94,3.3-.94c.7,0,1.35,.11,1.96,.34s1.15,.57,1.61,1.02c.47,.46,.83,1.03,1.1,1.73,.27,.69,.4,1.5,.4,2.44l-8.8,.15c0,1.27,.14,2.38,.41,3.34,.28,.96,.72,1.7,1.34,2.23,.62,.52,1.41,.79,2.38,.79,.52,0,1.05-.09,1.59-.27,.54-.18,1.04-.43,1.51-.75,.47-.32,.84-.67,1.12-1.05l.6,.5c-.45,.7-.99,1.26-1.62,1.68-.63,.42-1.28,.72-1.95,.9-.67,.18-1.28,.27-1.85,.27Zm-3.45-8.67h6.38c0-.6-.09-1.18-.26-1.74-.17-.56-.46-1.02-.86-1.38-.4-.36-.92-.54-1.58-.54-.97,0-1.77,.29-2.41,.86-.64,.58-1.06,1.5-1.26,2.79Z"/>
    <path d="M322.38,457.75c.52,0,.88-.13,1.08-.39,.2-.26,.32-.62,.35-1.07,.03-.46,.05-.99,.05-1.59v-5.7c0-.27,0-.53,.01-.8,0-.27,.04-.54,.09-.83-.3,.02-.6,.03-.89,.04-.29,0-.59,.02-.89,.04v-1.03h.77c.72,0,1.21-.07,1.49-.21,.28-.14,.5-.3,.69-.46h.73c.03,.27,.06,.6,.08,.99,.02,.39,.03,.89,.05,1.49,.25-.42,.59-.83,1.02-1.23s.92-.73,1.46-1c.54-.27,1.11-.4,1.71-.4,.47,0,.88,.12,1.22,.38s.53,.65,.53,1.2c0,.13-.04,.3-.12,.49-.08,.19-.22,.36-.4,.5s-.42,.21-.72,.21c-.37-.02-.66-.16-.88-.44-.22-.27-.3-.6-.25-.96-.42-.02-.85,.09-1.29,.32-.44,.23-.85,.55-1.24,.96-.38,.41-.72,.89-1.03,1.44l.03,6.15c0,.33,0,.63-.01,.89,0,.26-.04,.53-.09,.81,.27-.02,.53-.03,.79-.04,.26,0,.52-.02,.79-.04v1.02h-5.12v-.75Z"/>
    <path d="M338.33,458.9c-.83,0-1.57-.11-2.22-.34s-1.18-.48-1.6-.76l.1,.88h-1.05l-.15-4.3h.78c.03,.68,.22,1.3,.58,1.84,.35,.54,.8,.96,1.35,1.26,.55,.3,1.14,.45,1.78,.45,.43,0,.86-.07,1.27-.21,.42-.14,.77-.36,1.05-.65,.28-.29,.43-.66,.43-1.11s-.14-.85-.41-1.16c-.27-.31-.64-.58-1.09-.81-.45-.23-.93-.45-1.45-.65-.5-.2-1-.41-1.5-.62s-.96-.48-1.39-.78c-.42-.3-.76-.67-1.01-1.1s-.38-.97-.38-1.6c0-.35,.07-.73,.2-1.15,.13-.42,.36-.81,.67-1.19s.75-.68,1.3-.93c.55-.24,1.25-.36,2.1-.36,.45,0,.95,.07,1.5,.23,.55,.15,1.08,.43,1.6,.85l-.05-.95h1.05v4.38h-.8c-.03-.58-.17-1.15-.4-1.69s-.57-.99-1.02-1.35-1.03-.54-1.75-.54c-.77,0-1.37,.19-1.8,.58-.43,.38-.65,.82-.65,1.32s.16,.95,.49,1.29c.33,.34,.75,.64,1.26,.89s1.07,.49,1.65,.73c.63,.27,1.25,.56,1.85,.88s1.09,.71,1.47,1.19c.38,.47,.58,1.09,.58,1.84,0,.83-.21,1.52-.64,2.07-.42,.55-.97,.95-1.62,1.21-.66,.26-1.35,.39-2.06,.39Z"/>
    <path d="M346.73,458.9c-.38,0-.72-.15-1.01-.46-.29-.31-.44-.69-.44-1.14s.15-.83,.45-1.15c.3-.32,.64-.48,1.03-.48,.42,0,.76,.16,1.04,.48,.28,.32,.41,.7,.41,1.15s-.15,.83-.45,1.14-.64,.46-1.03,.46Z"/>
    <path d="M357.78,457.68c.63-.03,1.07-.18,1.3-.44,.23-.26,.36-.62,.39-1.07s.04-.98,.04-1.56v-10.8c0-.33,0-.65,.03-.96,.02-.31,.03-.59,.05-.84-.3,.02-.6,.03-.9,.05-.3,.02-.6,.03-.9,.05v-1.1l5.9-.02c1.5,0,2.88,.17,4.12,.52s2.33,.89,3.24,1.61c.91,.73,1.61,1.64,2.1,2.75,.49,1.11,.74,2.41,.74,3.91,0,1.15-.2,2.25-.6,3.3-.4,1.05-1,1.98-1.8,2.79-.8,.81-1.8,1.45-2.99,1.93-1.19,.48-2.57,.71-4.14,.71h-6.58v-.83Zm3.9-2.12c0,.45,0,.83-.01,1.15,0,.32-.03,.58-.06,.8,.45,.02,.86,.03,1.24,.04s.69,.01,.95,.01h.49c1.08,0,2.06-.2,2.94-.6,.88-.4,1.62-.95,2.25-1.66s1.11-1.54,1.45-2.5c.34-.96,.51-2,.51-3.11,0-1.58-.29-2.95-.86-4.11-.57-1.16-1.45-2.06-2.64-2.7-1.18-.64-2.69-.96-4.53-.96-.62,0-1.05,.12-1.29,.38-.24,.25-.38,.6-.4,1.05-.03,.45-.04,.97-.04,1.57v10.65Z"/>
    <path d="M382.18,458.9c-1.15,0-2.19-.27-3.11-.81-.92-.54-1.65-1.31-2.19-2.3s-.8-2.16-.8-3.51c0-1.17,.26-2.26,.79-3.27,.52-1.02,1.26-1.84,2.21-2.46s2.05-.94,3.3-.94c.7,0,1.35,.11,1.96,.34s1.15,.57,1.61,1.02c.47,.46,.83,1.03,1.1,1.73,.27,.69,.4,1.5,.4,2.44l-8.8,.15c0,1.27,.14,2.38,.41,3.34,.28,.96,.72,1.7,1.34,2.23,.62,.52,1.41,.79,2.38,.79,.52,0,1.05-.09,1.59-.27,.54-.18,1.04-.43,1.51-.75,.47-.32,.84-.67,1.12-1.05l.6,.5c-.45,.7-.99,1.26-1.62,1.68-.63,.42-1.28,.72-1.95,.9-.67,.18-1.28,.27-1.85,.27Zm-3.45-8.67h6.38c0-.6-.09-1.18-.26-1.74-.17-.56-.46-1.02-.86-1.38-.4-.36-.92-.54-1.58-.54-.97,0-1.77,.29-2.41,.86-.64,.58-1.06,1.5-1.26,2.79Z"/>
    <path d="M394.8,458.9c-.83,0-1.57-.11-2.22-.34s-1.18-.48-1.6-.76l.1,.88h-1.05l-.15-4.3h.78c.03,.68,.22,1.3,.58,1.84,.35,.54,.8,.96,1.35,1.26,.55,.3,1.14,.45,1.78,.45,.43,0,.86-.07,1.27-.21,.42-.14,.77-.36,1.05-.65,.28-.29,.43-.66,.43-1.11s-.14-.85-.41-1.16c-.27-.31-.64-.58-1.09-.81-.45-.23-.93-.45-1.45-.65-.5-.2-1-.41-1.5-.62s-.96-.48-1.39-.78c-.42-.3-.76-.67-1.01-1.1s-.38-.97-.38-1.6c0-.35,.07-.73,.2-1.15,.13-.42,.36-.81,.67-1.19s.75-.68,1.3-.93c.55-.24,1.25-.36,2.1-.36,.45,0,.95,.07,1.5,.23,.55,.15,1.08,.43,1.6,.85l-.05-.95h1.05v4.38h-.8c-.03-.58-.17-1.15-.4-1.69s-.57-.99-1.02-1.35-1.03-.54-1.75-.54c-.77,0-1.37,.19-1.8,.58-.43,.38-.65,.82-.65,1.32s.16,.95,.49,1.29c.33,.34,.75,.64,1.26,.89s1.07,.49,1.65,.73c.63,.27,1.25,.56,1.85,.88s1.09,.71,1.47,1.19c.38,.47,.58,1.09,.58,1.84,0,.83-.21,1.52-.64,2.07-.42,.55-.97,.95-1.62,1.21-.66,.26-1.35,.39-2.06,.39Z"/>
    <path d="M401.03,464.88v-.75c.52,0,.88-.13,1.08-.39s.32-.62,.35-1.07c.03-.46,.05-.99,.05-1.59l.05-12.08c0-.27,0-.53,.01-.8,0-.27,.04-.54,.09-.83-.3,.02-.6,.03-.89,.05-.29,.02-.59,.03-.89,.05v-1.05c.73,0,1.29-.03,1.66-.1s.65-.15,.83-.25c.17-.1,.32-.21,.44-.33h.75c.02,.17,.03,.36,.05,.59s.03,.48,.05,.76c.5-.45,1.1-.81,1.79-1.09,.69-.28,1.39-.41,2.09-.41,.97,0,1.87,.25,2.7,.75,.83,.5,1.51,1.21,2.02,2.14,.52,.93,.78,2.03,.78,3.31,0,1.42-.3,2.66-.89,3.73-.59,1.07-1.37,1.9-2.34,2.49-.97,.59-2.02,.89-3.15,.89-.58,0-1.12-.07-1.61-.21-.49-.14-.95-.35-1.39-.61v4.15c0,.33,0,.63-.01,.89s-.04,.53-.09,.81c.27-.02,.53-.03,.79-.04,.26,0,.52-.02,.79-.04v1.02h-5.1Zm6.58-6.98c.8,0,1.49-.25,2.06-.74s1.02-1.17,1.33-2.02c.31-.86,.46-1.84,.46-2.94,0-.9-.13-1.76-.39-2.59-.26-.82-.67-1.5-1.22-2.01s-1.3-.77-2.21-.77c-.57,0-1.11,.14-1.64,.41-.53,.28-.96,.6-1.31,.99,0,.07,0,.16,.01,.29,0,.12,.01,.34,.01,.65v1.38c0,.61,0,1.43-.01,2.46,0,1.03-.01,2.34-.01,3.92,.42,.32,.87,.56,1.36,.73,.49,.17,1.01,.25,1.56,.25Z"/>
    <path d="M416.17,457.75c.52,0,.88-.13,1.08-.39,.2-.26,.32-.62,.35-1.07,.03-.46,.05-.99,.05-1.59v-5.7c0-.27,0-.52,.02-.76,.02-.24,.04-.53,.08-.86-.3,.02-.6,.03-.89,.05-.29,.02-.59,.03-.89,.05v-1.05c.73,0,1.3-.03,1.7-.1,.4-.07,.7-.15,.91-.25,.21-.1,.37-.21,.49-.33h.72v10.1c0,.33,0,.63-.01,.89,0,.26-.04,.53-.09,.81,.27-.02,.53-.03,.79-.04,.26,0,.52-.02,.79-.04v1.02h-5.1v-.75Zm2.43-14.48c-.35,0-.66-.14-.93-.42-.27-.28-.4-.63-.4-1.05s.14-.77,.41-1.06c.28-.29,.59-.44,.94-.44,.38,0,.7,.15,.96,.44,.26,.29,.39,.65,.39,1.06s-.14,.77-.41,1.05c-.27,.28-.6,.42-.96,.42Z"/>
    <path d="M428.3,458.9c-.38,0-.77-.05-1.17-.16s-.77-.32-1.11-.64c-.34-.32-.61-.78-.81-1.39-.2-.61-.3-1.41-.3-2.41l.05-7.25-1.92,.03v-1.08c.43-.02,.88-.18,1.32-.49,.45-.31,.85-.73,1.21-1.26,.36-.53,.6-1.12,.74-1.75h.85v3.5h4.2v.98l-4.2,.05-.05,6.95c0,.75,.06,1.39,.19,1.91,.12,.52,.33,.92,.61,1.19,.28,.27,.65,.4,1.1,.4s.9-.13,1.31-.4,.77-.63,1.09-1.1l.67,.55c-.37,.55-.73,.98-1.09,1.3s-.7,.55-1.04,.71c-.33,.16-.64,.26-.92,.3-.28,.04-.53,.06-.73,.06Z"/>
    <path d="M439.32,458.9c-1.15,0-2.19-.27-3.11-.81-.92-.54-1.65-1.31-2.19-2.3s-.8-2.16-.8-3.51c0-1.17,.26-2.26,.79-3.27,.52-1.02,1.26-1.84,2.21-2.46s2.05-.94,3.3-.94c.7,0,1.35,.11,1.96,.34s1.15,.57,1.61,1.02c.47,.46,.83,1.03,1.1,1.73,.27,.69,.4,1.5,.4,2.44l-8.8,.15c0,1.27,.14,2.38,.41,3.34,.28,.96,.72,1.7,1.34,2.23,.62,.52,1.41,.79,2.38,.79,.52,0,1.05-.09,1.59-.27,.54-.18,1.04-.43,1.51-.75,.47-.32,.84-.67,1.12-1.05l.6,.5c-.45,.7-.99,1.26-1.62,1.68-.63,.42-1.28,.72-1.95,.9-.67,.18-1.28,.27-1.85,.27Zm-3.45-8.67h6.38c0-.6-.09-1.18-.26-1.74-.17-.56-.46-1.02-.86-1.38-.4-.36-.92-.54-1.58-.54-.97,0-1.77,.29-2.41,.86-.64,.58-1.06,1.5-1.26,2.79Z"/>
    <path d="M454.2,442.88c0-.27,0-.52,.01-.76,0-.24,.03-.53,.06-.86-.3,.02-.6,.03-.89,.05-.29,.02-.59,.03-.89,.05v-1.05c.73,0,1.3-.03,1.71-.1s.72-.15,.93-.25c.21-.1,.37-.21,.49-.33h.72v7.45c.47-.47,1.02-.83,1.66-1.09,.64-.26,1.35-.39,2.11-.39,1.07,0,2.03,.26,2.89,.77,.86,.52,1.54,1.25,2.04,2.2,.5,.95,.75,2.07,.75,3.38,0,1.42-.31,2.65-.92,3.69-.62,1.04-1.42,1.85-2.4,2.41s-2.04,.85-3.17,.85c-.57,0-1.19-.1-1.86-.31-.67-.21-1.28-.61-1.81-1.21l-.6,1.12h-.88l.05-15.62Zm2.15,11.7c0,.88,.14,1.56,.42,2.04,.28,.48,.65,.8,1.1,.99,.45,.18,.92,.27,1.42,.27,.8,0,1.49-.23,2.08-.67,.58-.45,1.04-1.07,1.36-1.86,.33-.79,.49-1.71,.49-2.76,0-1.13-.14-2.13-.42-2.99-.28-.86-.71-1.53-1.28-2.02-.57-.49-1.28-.74-2.15-.74-.55,0-1.1,.13-1.64,.39-.54,.26-1,.6-1.39,1.04v6.33Z"/>
    <path d="M474,458.9c-1.15,0-2.19-.27-3.11-.81-.92-.54-1.65-1.31-2.19-2.3s-.8-2.16-.8-3.51c0-1.17,.26-2.26,.79-3.27,.52-1.02,1.26-1.84,2.21-2.46s2.05-.94,3.3-.94c.7,0,1.35,.11,1.96,.34s1.15,.57,1.61,1.02c.47,.46,.83,1.03,1.1,1.73,.27,.69,.4,1.5,.4,2.44l-8.8,.15c0,1.27,.14,2.38,.41,3.34,.28,.96,.72,1.7,1.34,2.23,.62,.52,1.41,.79,2.38,.79,.52,0,1.05-.09,1.59-.27,.54-.18,1.04-.43,1.51-.75,.47-.32,.84-.67,1.12-1.05l.6,.5c-.45,.7-.99,1.26-1.62,1.68-.63,.42-1.28,.72-1.95,.9-.67,.18-1.28,.27-1.85,.27Zm-3.45-8.67h6.38c0-.6-.09-1.18-.26-1.74-.17-.56-.46-1.02-.86-1.38-.4-.36-.92-.54-1.58-.54-.97,0-1.77,.29-2.41,.86-.64,.58-1.06,1.5-1.26,2.79Z"/>
    <path d="M481.5,457.75c.52,0,.88-.13,1.08-.39,.2-.26,.32-.62,.35-1.07,.03-.46,.05-.99,.05-1.59v-5.7c0-.27,0-.52,.02-.76,.02-.24,.04-.53,.08-.86-.3,.02-.6,.03-.89,.05-.29,.02-.59,.03-.89,.05v-1.05c.73,0,1.3-.03,1.7-.1,.4-.07,.7-.15,.91-.25,.21-.1,.37-.21,.49-.33h.72v10.1c0,.33,0,.63-.01,.89,0,.26-.04,.53-.09,.81,.27-.02,.53-.03,.79-.04,.26,0,.52-.02,.79-.04v1.02h-5.1v-.75Zm2.43-14.48c-.35,0-.66-.14-.93-.42-.27-.28-.4-.63-.4-1.05s.14-.77,.41-1.06c.28-.29,.59-.44,.94-.44,.38,0,.7,.15,.96,.44,.26,.29,.39,.65,.39,1.06s-.14,.77-.41,1.05c-.27,.28-.6,.42-.96,.42Z"/>
    <path d="M488.52,458.5v-.75c.52,0,.88-.13,1.08-.39,.2-.26,.32-.62,.35-1.07,.03-.46,.05-.99,.05-1.59l.02-5.7c0-.27,0-.53,.01-.8s.04-.54,.09-.83c-.3,.02-.6,.03-.89,.05-.29,.02-.59,.03-.89,.05v-1.05c.73,0,1.29-.03,1.66-.1s.65-.15,.84-.25c.18-.1,.33-.21,.45-.33h.72c.02,.12,.03,.25,.04,.4,0,.15,.02,.32,.04,.5,.02,.18,.03,.39,.03,.62,.37-.32,.77-.6,1.21-.85s.91-.45,1.4-.6c.49-.15,.98-.23,1.46-.23,1.45,0,2.51,.45,3.17,1.36,.67,.91,1,2.32,1,4.24v4.65c0,.33,0,.63-.01,.89,0,.26-.04,.53-.09,.81,.27-.02,.53-.03,.79-.04,.26,0,.52-.02,.79-.04v1.02h-5.1v-.75c.52,0,.88-.13,1.08-.39,.2-.26,.32-.62,.35-1.07s.05-.99,.05-1.59v-3.5c-.02-1.43-.25-2.52-.71-3.25-.46-.73-1.18-1.09-2.16-1.08-.6,.02-1.19,.17-1.76,.48-.57,.3-1.05,.68-1.44,1.15,.02,.13,.03,.28,.03,.45v.52l-.03,6.38c0,.33,0,.63-.01,.89,0,.26-.04,.53-.09,.81,.27-.02,.53-.03,.79-.04,.26,0,.52-.02,.79-.04v1.02h-5.1Z"/>
    <path d="M509.72,465.28c-1.5,0-2.71-.17-3.62-.5-.92-.33-1.58-.76-2-1.27-.42-.52-.62-1.05-.62-1.6,0-.52,.12-.97,.36-1.36,.24-.39,.54-.73,.9-1.01,.36-.28,.7-.49,1.04-.62-.53-.18-.95-.43-1.26-.74-.31-.31-.46-.72-.46-1.24,0-.58,.23-1.13,.7-1.64,.47-.51,1.07-.82,1.8-.94-.77-.37-1.38-.88-1.84-1.52-.46-.65-.69-1.41-.69-2.28,0-1,.26-1.87,.78-2.61,.52-.74,1.18-1.32,1.99-1.73,.81-.41,1.65-.61,2.51-.61,.55,0,1.1,.08,1.65,.24,.55,.16,1.06,.39,1.53,.69,.17-.47,.4-.88,.71-1.25,.31-.37,.66-.65,1.06-.86,.4-.21,.82-.31,1.25-.31s.76,.11,.99,.34c.22,.23,.34,.53,.34,.91,0,.12-.03,.26-.1,.42-.07,.17-.18,.31-.34,.43s-.37,.17-.64,.17c-.28,0-.52-.08-.7-.25-.18-.17-.3-.38-.35-.62-.42,.07-.74,.26-.97,.59-.23,.33-.39,.68-.47,1.06,.4,.37,.72,.81,.96,1.33s.36,1.07,.36,1.65c0,.93-.25,1.77-.74,2.5s-1.14,1.3-1.94,1.71c-.8,.41-1.67,.61-2.6,.61-.32,0-.59-.02-.83-.06s-.52-.06-.85-.06c-.62,0-1.12,.15-1.5,.45-.38,.3-.52,.66-.4,1.08,.13,.4,.54,.65,1.22,.76,.68,.11,1.6,.19,2.75,.24,1.28,.05,2.38,.2,3.3,.45,.92,.25,1.62,.64,2.11,1.16,.49,.52,.74,1.24,.74,2.14,0,.67-.18,1.26-.54,1.79-.36,.52-.83,.96-1.43,1.31-.59,.35-1.25,.62-1.97,.8-.72,.18-1.45,.27-2.19,.27Zm-.03-.98c1.43,0,2.55-.27,3.35-.8,.8-.53,1.2-1.16,1.2-1.88,0-.62-.21-1.09-.62-1.41-.42-.32-.98-.55-1.7-.67-.72-.12-1.54-.2-2.48-.21-.45-.02-.89-.04-1.32-.06-.43-.03-.85-.07-1.25-.14-.45,.3-.8,.67-1.05,1.1-.25,.43-.38,.89-.38,1.38,0,.82,.39,1.47,1.16,1.96,.77,.49,1.8,.74,3.09,.74Zm-.32-10.25c.62,0,1.13-.15,1.54-.45,.41-.3,.72-.71,.92-1.23s.31-1.1,.31-1.75c0-.73-.11-1.42-.33-2.05s-.54-1.14-.96-1.53c-.42-.38-.96-.57-1.61-.57-.9,0-1.6,.34-2.09,1.01-.49,.68-.74,1.51-.74,2.51,0,.8,.12,1.5,.35,2.11,.23,.61,.57,1.08,1.01,1.43,.44,.34,.97,.51,1.59,.51Z"/>
    <path d="M531.7,458.5c-.05-.28-.08-.53-.1-.75-.02-.22-.04-.44-.07-.67-.57,.57-1.18,1.01-1.84,1.34-.66,.32-1.35,.49-2.09,.49-1.27,0-2.21-.29-2.82-.86-.62-.58-.93-1.28-.93-2.11,0-.77,.24-1.43,.71-1.99,.47-.56,1.09-1.02,1.85-1.38,.76-.36,1.58-.62,2.48-.8,.89-.18,1.75-.25,2.59-.24v-1.55c0-.58-.05-1.13-.15-1.65-.1-.52-.32-.94-.65-1.28-.33-.33-.87-.51-1.6-.52-.48-.02-.98,.08-1.49,.27-.51,.2-.88,.54-1.11,1.03,.13,.13,.22,.29,.26,.46,.04,.17,.06,.34,.06,.49,0,.2-.08,.43-.25,.69-.17,.26-.46,.38-.88,.36-.35,0-.62-.12-.8-.36-.18-.24-.28-.53-.28-.86,0-.57,.21-1.08,.64-1.52,.42-.45,1.01-.81,1.76-1.08s1.6-.4,2.55-.4c1.4,0,2.43,.37,3.1,1.11,.67,.74,.99,1.91,.97,3.51v1.86c0,.62,0,1.25-.01,1.88s-.01,1.25-.01,1.89c0,.27,0,.53-.02,.8-.02,.27-.04,.57-.08,.9,.3-.02,.6-.03,.89-.05,.29-.02,.59-.03,.89-.05v1.05h-3.58Zm-.23-6.12c-.57,.02-1.16,.09-1.79,.21s-1.2,.31-1.72,.56c-.53,.25-.95,.58-1.28,.99s-.48,.9-.46,1.49c.03,.62,.24,1.08,.61,1.39s.82,.46,1.34,.46c.68,0,1.28-.13,1.79-.39,.51-.26,1.01-.62,1.51-1.09-.02-.18-.02-.38-.02-.6v-.67c0-.08,0-.35,.01-.8,0-.45,.01-.97,.01-1.55Z"/>
    <path d="M537.8,442.88c0-.27,0-.52,.01-.76,0-.24,.03-.53,.06-.86-.3,.02-.6,.03-.89,.05-.29,.02-.59,.03-.89,.05v-1.05c.73,0,1.3-.03,1.71-.1s.72-.15,.93-.25c.21-.1,.37-.21,.49-.33h.72v7.45c.47-.47,1.02-.83,1.66-1.09,.64-.26,1.35-.39,2.11-.39,1.07,0,2.03,.26,2.89,.77,.86,.52,1.54,1.25,2.04,2.2,.5,.95,.75,2.07,.75,3.38,0,1.42-.31,2.65-.92,3.69-.62,1.04-1.42,1.85-2.4,2.41s-2.04,.85-3.17,.85c-.57,0-1.19-.1-1.86-.31-.67-.21-1.28-.61-1.81-1.21l-.6,1.12h-.88l.05-15.62Zm2.15,11.7c0,.88,.14,1.56,.42,2.04,.28,.48,.65,.8,1.1,.99,.45,.18,.92,.27,1.42,.27,.8,0,1.49-.23,2.08-.67,.58-.45,1.04-1.07,1.36-1.86,.33-.79,.49-1.71,.49-2.76,0-1.13-.14-2.13-.42-2.99-.28-.86-.71-1.53-1.28-2.02-.57-.49-1.28-.74-2.15-.74-.55,0-1.1,.13-1.64,.39-.54,.26-1,.6-1.39,1.04v6.33Z"/>
    <path d="M551.3,457.75c.52,0,.88-.13,1.08-.39,.2-.26,.32-.62,.35-1.07,.03-.46,.05-.99,.05-1.59v-11.83c0-.27,0-.52,.01-.76,0-.24,.03-.53,.06-.86-.3,.02-.6,.03-.89,.05-.29,.02-.59,.03-.89,.05v-1.05c.73,0,1.3-.03,1.71-.1,.41-.07,.72-.15,.92-.25,.21-.1,.37-.21,.49-.33h.72l.03,16.23c0,.33,0,.63-.03,.89-.02,.26-.05,.53-.1,.81,.27-.02,.53-.03,.79-.04,.26,0,.52-.02,.79-.04v1.02h-5.1v-.75Z"/>
    <path d="M564.4,458.9c-1.15,0-2.19-.27-3.11-.81-.92-.54-1.65-1.31-2.19-2.3s-.8-2.16-.8-3.51c0-1.17,.26-2.26,.79-3.27,.52-1.02,1.26-1.84,2.21-2.46s2.05-.94,3.3-.94c.7,0,1.35,.11,1.96,.34s1.15,.57,1.61,1.02c.47,.46,.83,1.03,1.1,1.73,.27,.69,.4,1.5,.4,2.44l-8.8,.15c0,1.27,.14,2.38,.41,3.34,.28,.96,.72,1.7,1.34,2.23,.62,.52,1.41,.79,2.38,.79,.52,0,1.05-.09,1.59-.27,.54-.18,1.04-.43,1.51-.75,.47-.32,.84-.67,1.12-1.05l.6,.5c-.45,.7-.99,1.26-1.62,1.68-.63,.42-1.28,.72-1.95,.9-.67,.18-1.28,.27-1.85,.27Zm-3.45-8.67h6.38c0-.6-.09-1.18-.26-1.74-.17-.56-.46-1.02-.86-1.38-.4-.36-.92-.54-1.58-.54-.97,0-1.77,.29-2.41,.86-.64,.58-1.06,1.5-1.26,2.79Z"/>
    <path d="M583.17,458.9c-.38,0-.77-.05-1.17-.16s-.77-.32-1.11-.64c-.34-.32-.61-.78-.81-1.39-.2-.61-.3-1.41-.3-2.41l.05-7.25-1.92,.03v-1.08c.43-.02,.88-.18,1.32-.49,.45-.31,.85-.73,1.21-1.26,.36-.53,.6-1.12,.74-1.75h.85v3.5h4.2v.98l-4.2,.05-.05,6.95c0,.75,.06,1.39,.19,1.91,.12,.52,.33,.92,.61,1.19,.28,.27,.65,.4,1.1,.4s.9-.13,1.31-.4,.77-.63,1.09-1.1l.67,.55c-.37,.55-.73,.98-1.09,1.3s-.7,.55-1.04,.71c-.33,.16-.64,.26-.92,.3-.28,.04-.53,.06-.73,.06Z"/>
    <path d="M594.34,458.9c-1.17,0-2.22-.27-3.17-.81s-1.7-1.29-2.26-2.25c-.56-.96-.84-2.05-.84-3.29,0-1.32,.27-2.5,.82-3.55,.55-1.05,1.3-1.88,2.25-2.49,.95-.61,2.02-.91,3.2-.91s2.23,.28,3.17,.84c.95,.56,1.71,1.31,2.28,2.26,.57,.95,.85,2.03,.85,3.25,0,1.28-.28,2.45-.84,3.51-.56,1.06-1.31,1.9-2.26,2.51-.95,.62-2.02,.92-3.2,.92Zm.2-1c.88,0,1.58-.25,2.1-.75s.89-1.15,1.11-1.95c.22-.8,.34-1.64,.34-2.53,0-.75-.07-1.49-.21-2.21-.14-.73-.36-1.38-.66-1.98-.3-.59-.69-1.06-1.16-1.41-.48-.35-1.05-.53-1.71-.53-.87,0-1.58,.25-2.12,.75s-.95,1.15-1.21,1.95c-.26,.8-.39,1.66-.39,2.58,0,1.03,.14,2.01,.42,2.94,.28,.92,.72,1.68,1.3,2.26,.58,.58,1.32,.88,2.2,.88Z"/>
    <path d="M275,488.9c-.83,0-1.57-.11-2.22-.34s-1.18-.48-1.6-.76l.1,.88h-1.05l-.15-4.3h.78c.03,.68,.22,1.3,.58,1.84,.35,.54,.8,.96,1.35,1.26,.55,.3,1.14,.45,1.78,.45,.43,0,.86-.07,1.27-.21,.42-.14,.77-.36,1.05-.65,.28-.29,.43-.66,.43-1.11s-.14-.85-.41-1.16c-.27-.31-.64-.58-1.09-.81-.45-.23-.93-.45-1.45-.65-.5-.2-1-.41-1.5-.62s-.96-.48-1.39-.78c-.42-.3-.76-.67-1.01-1.1s-.38-.97-.38-1.6c0-.35,.07-.73,.2-1.15,.13-.42,.36-.81,.67-1.19s.75-.68,1.3-.93c.55-.24,1.25-.36,2.1-.36,.45,0,.95,.07,1.5,.23,.55,.15,1.08,.43,1.6,.85l-.05-.95h1.05v4.38h-.8c-.03-.58-.17-1.15-.4-1.69s-.57-.99-1.02-1.35-1.03-.54-1.75-.54c-.77,0-1.37,.19-1.8,.58-.43,.38-.65,.82-.65,1.32s.16,.95,.49,1.29c.33,.34,.75,.64,1.26,.89s1.07,.49,1.65,.73c.63,.27,1.25,.56,1.85,.88s1.09,.71,1.47,1.19c.38,.47,.58,1.09,.58,1.84,0,.83-.21,1.52-.64,2.07-.42,.55-.97,.95-1.62,1.21-.66,.26-1.35,.39-2.06,.39Z"/>
    <path d="M281.23,494.88v-.75c.52,0,.88-.13,1.08-.39s.32-.62,.35-1.07c.03-.46,.05-.99,.05-1.59l.05-12.08c0-.27,0-.53,.01-.8,0-.27,.04-.54,.09-.83-.3,.02-.6,.03-.89,.05-.29,.02-.59,.03-.89,.05v-1.05c.73,0,1.29-.03,1.66-.1s.65-.15,.83-.25c.17-.1,.32-.21,.44-.33h.75c.02,.17,.03,.36,.05,.59s.03,.48,.05,.76c.5-.45,1.1-.81,1.79-1.09,.69-.28,1.39-.41,2.09-.41,.97,0,1.87,.25,2.7,.75,.83,.5,1.51,1.21,2.02,2.14,.52,.93,.78,2.03,.78,3.31,0,1.42-.3,2.66-.89,3.73-.59,1.07-1.37,1.9-2.34,2.49-.97,.59-2.02,.89-3.15,.89-.58,0-1.12-.07-1.61-.21-.49-.14-.95-.35-1.39-.61v4.15c0,.33,0,.63-.01,.89s-.04,.53-.09,.81c.27-.02,.53-.03,.79-.04,.26,0,.52-.02,.79-.04v1.02h-5.1Zm6.58-6.98c.8,0,1.49-.25,2.06-.74s1.02-1.17,1.33-2.02c.31-.86,.46-1.84,.46-2.94,0-.9-.13-1.76-.39-2.59-.26-.82-.67-1.5-1.22-2.01s-1.3-.77-2.21-.77c-.57,0-1.11,.14-1.64,.41-.53,.28-.96,.6-1.31,.99,0,.07,0,.16,.01,.29,0,.12,.01,.34,.01,.65v1.38c0,.61,0,1.43-.01,2.46,0,1.03-.01,2.34-.01,3.92,.42,.32,.87,.56,1.36,.73,.49,.17,1.01,.25,1.56,.25Z"/>
    <path d="M302.43,488.9c-1.15,0-2.19-.27-3.11-.81-.92-.54-1.65-1.31-2.19-2.3s-.8-2.16-.8-3.51c0-1.17,.26-2.26,.79-3.27,.52-1.02,1.26-1.84,2.21-2.46s2.05-.94,3.3-.94c.7,0,1.35,.11,1.96,.34s1.15,.57,1.61,1.02c.47,.46,.83,1.03,1.1,1.73,.27,.69,.4,1.5,.4,2.44l-8.8,.15c0,1.27,.14,2.38,.41,3.34,.28,.96,.72,1.7,1.34,2.23,.62,.52,1.41,.79,2.38,.79,.52,0,1.05-.09,1.59-.27,.54-.18,1.04-.43,1.51-.75,.47-.32,.84-.67,1.12-1.05l.6,.5c-.45,.7-.99,1.26-1.62,1.68-.63,.42-1.28,.72-1.95,.9-.67,.18-1.28,.27-1.85,.27Zm-3.45-8.67h6.38c0-.6-.09-1.18-.26-1.74-.17-.56-.46-1.02-.86-1.38-.4-.36-.92-.54-1.58-.54-.97,0-1.77,.29-2.41,.86-.64,.58-1.06,1.5-1.26,2.79Z"/>
    <path d="M317.48,488.5c-.05-.28-.08-.53-.1-.75-.02-.22-.04-.44-.07-.67-.57,.57-1.18,1.01-1.84,1.34-.66,.32-1.35,.49-2.09,.49-1.27,0-2.21-.29-2.82-.86-.62-.58-.93-1.28-.93-2.11,0-.77,.24-1.43,.71-1.99,.47-.56,1.09-1.02,1.85-1.38,.76-.36,1.58-.62,2.48-.8,.89-.18,1.75-.25,2.59-.24v-1.55c0-.58-.05-1.13-.15-1.65-.1-.52-.32-.94-.65-1.28-.33-.33-.87-.51-1.6-.52-.48-.02-.98,.08-1.49,.27-.51,.2-.88,.54-1.11,1.03,.13,.13,.22,.29,.26,.46,.04,.17,.06,.34,.06,.49,0,.2-.08,.43-.25,.69-.17,.26-.46,.38-.88,.36-.35,0-.62-.12-.8-.36-.18-.24-.28-.53-.28-.86,0-.57,.21-1.08,.64-1.52,.42-.45,1.01-.81,1.76-1.08s1.6-.4,2.55-.4c1.4,0,2.43,.37,3.1,1.11,.67,.74,.99,1.91,.97,3.51v1.86c0,.62,0,1.25-.01,1.88s-.01,1.25-.01,1.89c0,.27,0,.53-.02,.8-.02,.27-.04,.57-.08,.9,.3-.02,.6-.03,.89-.05,.29-.02,.59-.03,.89-.05v1.05h-3.58Zm-.23-6.12c-.57,.02-1.16,.09-1.79,.21s-1.2,.31-1.72,.56c-.53,.25-.95,.58-1.28,.99s-.48,.9-.46,1.49c.03,.62,.24,1.08,.61,1.39s.82,.46,1.34,.46c.68,0,1.28-.13,1.79-.39,.51-.26,1.01-.62,1.51-1.09-.02-.18-.02-.38-.02-.6v-.67c0-.08,0-.35,.01-.8,0-.45,.01-.97,.01-1.55Z"/>
    <path d="M322.55,488.5v-.75c.52,0,.87-.13,1.06-.39,.19-.26,.3-.62,.34-1.07,.03-.46,.05-.99,.05-1.59l.02-11.83c0-.27,0-.52,.01-.76,0-.24,.03-.53,.06-.86-.3,.02-.6,.03-.89,.05-.29,.02-.59,.03-.89,.05v-1.05c.73,0,1.3-.03,1.7-.1,.4-.07,.7-.15,.91-.25,.21-.1,.37-.21,.49-.33h.72v11.83h1l3.05-3.2c.28-.28,.54-.54,.77-.76,.23-.22,.47-.41,.7-.56l-1.7,.08v-1h4.55v.75c-.57,.05-1.1,.23-1.59,.54-.49,.31-.94,.65-1.35,1.04s-.76,.73-1.06,1.05l-1.95,2.05c.33,.15,.62,.34,.85,.58s.47,.49,.7,.77l1.77,2.27c.08,.1,.23,.29,.44,.58,.21,.28,.46,.59,.75,.92,.29,.33,.6,.62,.93,.85,.32,.23,.63,.35,.91,.35v.75h-2.28c-.47,0-.91-.24-1.32-.73-.42-.48-.86-1.02-1.33-1.62-.43-.6-.82-1.15-1.16-1.64s-.65-.92-.92-1.29c-.27-.37-.52-.65-.74-.85l-1.03,.05v3.43c0,.33,0,.63-.01,.89,0,.26-.04,.53-.09,.81,.27-.02,.53-.03,.8-.04s.53-.02,.8-.04v1.02h-5.1Z"/>
    <path d="M347.48,488.9c-.38,0-.77-.05-1.17-.16s-.77-.32-1.11-.64c-.34-.32-.61-.78-.81-1.39-.2-.61-.3-1.41-.3-2.41l.05-7.25-1.92,.03v-1.08c.43-.02,.88-.18,1.32-.49,.45-.31,.85-.73,1.21-1.26,.36-.53,.6-1.12,.74-1.75h.85v3.5h4.2v.98l-4.2,.05-.05,6.95c0,.75,.06,1.39,.19,1.91,.12,.52,.33,.92,.61,1.19,.28,.27,.65,.4,1.1,.4s.9-.13,1.31-.4,.77-.63,1.09-1.1l.67,.55c-.37,.55-.73,.98-1.09,1.3s-.7,.55-1.04,.71c-.33,.16-.64,.26-.92,.3-.28,.04-.53,.06-.73,.06Z"/>
    <path d="M360.48,487.75c.52,0,.88-.13,1.08-.39,.2-.26,.32-.62,.35-1.07s.05-.99,.05-1.59v-3.5c0-1.43-.23-2.51-.69-3.23-.46-.72-1.18-1.07-2.16-1.05-.62,.02-1.22,.17-1.81,.45-.59,.28-1.07,.65-1.44,1.1v7.38c0,.33,0,.63-.03,.89-.02,.26-.05,.53-.1,.81,.27-.02,.53-.03,.79-.04,.26,0,.52-.02,.79-.04v1.02h-5.1v-.75c.52,0,.88-.13,1.08-.39,.2-.26,.32-.62,.36-1.07,.04-.46,.06-.99,.06-1.59v-11.83c0-.27,0-.52,.01-.76,0-.24,.03-.53,.06-.86-.3,.02-.6,.03-.89,.05-.29,.02-.59,.03-.89,.05v-1.05c.73,0,1.3-.03,1.71-.1s.72-.15,.92-.25c.21-.1,.37-.21,.49-.33h.72v7.62c.37-.32,.78-.6,1.24-.84s.93-.44,1.42-.59c.49-.15,.97-.23,1.44-.23,1.45,0,2.5,.45,3.14,1.36,.64,.91,.97,2.32,.99,4.24l.03,4.65c0,.33,0,.63-.01,.89,0,.26-.04,.53-.09,.81,.27-.02,.53-.03,.79-.04,.26,0,.52-.02,.79-.04v1.02h-5.1v-.75Z"/>
    <path d="M373.48,488.9c-1.15,0-2.19-.27-3.11-.81-.92-.54-1.65-1.31-2.19-2.3s-.8-2.16-.8-3.51c0-1.17,.26-2.26,.79-3.27,.52-1.02,1.26-1.84,2.21-2.46s2.05-.94,3.3-.94c.7,0,1.35,.11,1.96,.34s1.15,.57,1.61,1.02c.47,.46,.83,1.03,1.1,1.73,.27,.69,.4,1.5,.4,2.44l-8.8,.15c0,1.27,.14,2.38,.41,3.34,.28,.96,.72,1.7,1.34,2.23,.62,.52,1.41,.79,2.38,.79,.52,0,1.05-.09,1.59-.27,.54-.18,1.04-.43,1.51-.75,.47-.32,.84-.67,1.12-1.05l.6,.5c-.45,.7-.99,1.26-1.62,1.68-.63,.42-1.28,.72-1.95,.9-.67,.18-1.28,.27-1.85,.27Zm-3.45-8.67h6.38c0-.6-.09-1.18-.26-1.74-.17-.56-.46-1.02-.86-1.38-.4-.36-.92-.54-1.58-.54-.97,0-1.77,.29-2.41,.86-.64,.58-1.06,1.5-1.26,2.79Z"/>
    <path d="M382.78,495.28c-.52,0-.96-.12-1.33-.38-.37-.25-.55-.63-.55-1.15,0-.3,.1-.58,.3-.83s.46-.38,.77-.38c.4-.02,.67,.11,.81,.38s.21,.5,.21,.7v.16c0,.06,0,.12-.03,.19,.05,.03,.14,.05,.28,.05,.2,0,.42-.08,.65-.25,.23-.17,.44-.41,.62-.73,.22-.37,.47-.92,.76-1.65,.29-.73,.62-1.61,.99-2.62l-3.9-8.35c-.43-.93-.75-1.67-.94-2.22-.19-.55-.32-.96-.39-1.23l-1.2,.05v-1.02h5.18v.75h-.1c-.7,.05-1.08,.31-1.15,.79-.07,.48,.12,1.2,.57,2.16l2.93,6.27c.38-1.07,.75-2.12,1.1-3.16,.35-1.04,.7-2.08,1.05-3.11,.13-.37,.27-.75,.41-1.14,.14-.39,.28-.74,.42-1.05s.27-.5,.39-.59l-1.73,.1v-1.02h3.92v.75c-.62,.23-1.08,.62-1.39,1.16-.31,.54-.62,1.24-.94,2.09l-3.12,8.73c-.5,1.4-.96,2.59-1.38,3.56-.42,.98-.88,1.72-1.38,2.23-.5,.51-1.12,.76-1.88,.76Z"/>
    <path d="M405.75,488.9c-.83,0-1.57-.11-2.22-.34s-1.18-.48-1.6-.76l.1,.88h-1.05l-.15-4.3h.78c.03,.68,.22,1.3,.58,1.84,.35,.54,.8,.96,1.35,1.26,.55,.3,1.14,.45,1.78,.45,.43,0,.86-.07,1.27-.21,.42-.14,.77-.36,1.05-.65,.28-.29,.43-.66,.43-1.11s-.14-.85-.41-1.16c-.27-.31-.64-.58-1.09-.81-.45-.23-.93-.45-1.45-.65-.5-.2-1-.41-1.5-.62s-.96-.48-1.39-.78c-.42-.3-.76-.67-1.01-1.1s-.38-.97-.38-1.6c0-.35,.07-.73,.2-1.15,.13-.42,.36-.81,.67-1.19s.75-.68,1.3-.93c.55-.24,1.25-.36,2.1-.36,.45,0,.95,.07,1.5,.23,.55,.15,1.08,.43,1.6,.85l-.05-.95h1.05v4.38h-.8c-.03-.58-.17-1.15-.4-1.69s-.57-.99-1.02-1.35-1.03-.54-1.75-.54c-.77,0-1.37,.19-1.8,.58-.43,.38-.65,.82-.65,1.32s.16,.95,.49,1.29c.33,.34,.75,.64,1.26,.89s1.07,.49,1.65,.73c.63,.27,1.25,.56,1.85,.88s1.09,.71,1.47,1.19c.38,.47,.58,1.09,.58,1.84,0,.83-.21,1.52-.64,2.07-.42,.55-.97,.95-1.62,1.21-.66,.26-1.35,.39-2.06,.39Z"/>
    <path d="M412.2,488.5v-.75c.52,0,.88-.13,1.08-.39,.2-.26,.32-.62,.35-1.07,.03-.46,.05-.99,.05-1.59v-5.7c0-.27,0-.53,.01-.8,0-.27,.04-.54,.09-.83-.3,.02-.6,.03-.89,.05-.29,.02-.59,.03-.89,.05v-1.05c.73,0,1.29-.03,1.66-.1s.65-.15,.84-.25c.18-.1,.33-.21,.45-.33h.73c.03,.17,.05,.36,.06,.58,0,.22,.02,.47,.04,.75,.5-.43,1.08-.79,1.73-1.06,.65-.28,1.3-.41,1.95-.41,.83,0,1.53,.15,2.1,.45,.57,.3,1.01,.71,1.33,1.23,.57-.47,1.22-.86,1.96-1.19,.74-.32,1.47-.49,2.19-.49,1.45,0,2.52,.44,3.2,1.31s1.01,2.3,.97,4.29l-.02,4.65c0,.33,0,.63-.01,.89,0,.26-.04,.53-.09,.81,.27-.02,.53-.03,.79-.04,.26,0,.52-.02,.79-.04v1.02h-5.1v-.75c.52,0,.88-.13,1.08-.39,.2-.26,.32-.62,.35-1.07s.05-.99,.05-1.59v-3.5c0-1.43-.23-2.51-.69-3.23-.46-.72-1.18-1.07-2.16-1.05-.52,0-1.03,.12-1.55,.35-.52,.23-.97,.52-1.35,.88,.08,.27,.15,.55,.19,.86s.06,.63,.06,.96c-.02,.97-.02,1.94-.02,2.92s0,1.97-.03,2.95c0,.33,0,.63-.01,.89,0,.26-.04,.53-.09,.81,.27-.02,.53-.03,.79-.04,.26,0,.52-.02,.79-.04v1.02h-5.1v-.75c.52,0,.87-.13,1.06-.39,.19-.26,.31-.62,.35-1.07,.04-.46,.06-.99,.06-1.59l.03-3.5c.02-1.43-.19-2.52-.62-3.25s-1.14-1.09-2.12-1.08c-.52,0-1.03,.11-1.53,.34s-.92,.51-1.27,.86c0,.2,0,.41,.01,.64,0,.23,.01,.46,.01,.71v6.43c0,.33,0,.63-.01,.89,0,.26-.04,.53-.09,.81,.27-.02,.53-.03,.79-.04,.26,0,.52-.02,.79-.04v1.02h-5.1Z"/>
    <path d="M440.6,488.9c-1.15,0-2.19-.27-3.11-.81-.92-.54-1.65-1.31-2.19-2.3s-.8-2.16-.8-3.51c0-1.17,.26-2.26,.79-3.27,.52-1.02,1.26-1.84,2.21-2.46s2.05-.94,3.3-.94c.7,0,1.35,.11,1.96,.34s1.15,.57,1.61,1.02c.47,.46,.83,1.03,1.1,1.73,.27,.69,.4,1.5,.4,2.44l-8.8,.15c0,1.27,.14,2.38,.41,3.34,.28,.96,.72,1.7,1.34,2.23,.62,.52,1.41,.79,2.38,.79,.52,0,1.05-.09,1.59-.27,.54-.18,1.04-.43,1.51-.75,.47-.32,.84-.67,1.12-1.05l.6,.5c-.45,.7-.99,1.26-1.62,1.68-.63,.42-1.28,.72-1.95,.9-.67,.18-1.28,.27-1.85,.27Zm-3.45-8.67h6.38c0-.6-.09-1.18-.26-1.74-.17-.56-.46-1.02-.86-1.38-.4-.36-.92-.54-1.58-.54-.97,0-1.77,.29-2.41,.86-.64,.58-1.06,1.5-1.26,2.79Z"/>
    <path d="M447.85,487.75c.52,0,.88-.13,1.08-.39,.2-.26,.32-.62,.35-1.07,.03-.46,.05-.99,.05-1.59v-11.83c0-.27,0-.52,.01-.76,0-.24,.03-.53,.06-.86-.3,.02-.6,.03-.89,.05-.29,.02-.59,.03-.89,.05v-1.05c.73,0,1.3-.03,1.71-.1,.41-.07,.72-.15,.92-.25,.21-.1,.37-.21,.49-.33h.72l.03,16.23c0,.33,0,.63-.03,.89-.02,.26-.05,.53-.1,.81,.27-.02,.53-.03,.79-.04,.26,0,.52-.02,.79-.04v1.02h-5.1v-.75Z"/>
    <path d="M454.65,487.75c.52,0,.88-.13,1.08-.39,.2-.26,.32-.62,.35-1.07,.03-.46,.05-.99,.05-1.59v-11.83c0-.27,0-.52,.01-.76,0-.24,.03-.53,.06-.86-.3,.02-.6,.03-.89,.05-.29,.02-.59,.03-.89,.05v-1.05c.73,0,1.3-.03,1.71-.1,.41-.07,.72-.15,.92-.25,.21-.1,.37-.21,.49-.33h.72l.03,16.23c0,.33,0,.63-.03,.89-.02,.26-.05,.53-.1,.81,.27-.02,.53-.03,.79-.04,.26,0,.52-.02,.79-.04v1.02h-5.1v-.75Z"/>
    <path d="M474.3,495.28c-1.5,0-2.71-.17-3.62-.5-.92-.33-1.58-.76-2-1.27-.42-.52-.62-1.05-.62-1.6,0-.52,.12-.97,.36-1.36,.24-.39,.54-.73,.9-1.01,.36-.28,.7-.49,1.04-.62-.53-.18-.95-.43-1.26-.74-.31-.31-.46-.72-.46-1.24,0-.58,.23-1.13,.7-1.64,.47-.51,1.07-.82,1.8-.94-.77-.37-1.38-.88-1.84-1.52-.46-.65-.69-1.41-.69-2.28,0-1,.26-1.87,.78-2.61,.52-.74,1.18-1.32,1.99-1.73,.81-.41,1.65-.61,2.51-.61,.55,0,1.1,.08,1.65,.24,.55,.16,1.06,.39,1.53,.69,.17-.47,.4-.88,.71-1.25,.31-.37,.66-.65,1.06-.86,.4-.21,.82-.31,1.25-.31s.76,.11,.99,.34c.22,.23,.34,.53,.34,.91,0,.12-.03,.26-.1,.42-.07,.17-.18,.31-.34,.43s-.37,.17-.64,.17c-.28,0-.52-.08-.7-.25-.18-.17-.3-.38-.35-.62-.42,.07-.74,.26-.97,.59-.23,.33-.39,.68-.47,1.06,.4,.37,.72,.81,.96,1.33s.36,1.07,.36,1.65c0,.93-.25,1.77-.74,2.5s-1.14,1.3-1.94,1.71c-.8,.41-1.67,.61-2.6,.61-.32,0-.59-.02-.83-.06s-.52-.06-.85-.06c-.62,0-1.12,.15-1.5,.45-.38,.3-.52,.66-.4,1.08,.13,.4,.54,.65,1.22,.76,.68,.11,1.6,.19,2.75,.24,1.28,.05,2.38,.2,3.3,.45,.92,.25,1.62,.64,2.11,1.16,.49,.52,.74,1.24,.74,2.14,0,.67-.18,1.26-.54,1.79-.36,.52-.83,.96-1.43,1.31-.59,.35-1.25,.62-1.97,.8-.72,.18-1.45,.27-2.19,.27Zm-.03-.98c1.43,0,2.55-.27,3.35-.8,.8-.53,1.2-1.16,1.2-1.88,0-.62-.21-1.09-.62-1.41-.42-.32-.98-.55-1.7-.67-.72-.12-1.54-.2-2.48-.21-.45-.02-.89-.04-1.32-.06-.43-.03-.85-.07-1.25-.14-.45,.3-.8,.67-1.05,1.1-.25,.43-.38,.89-.38,1.38,0,.82,.39,1.47,1.16,1.96,.77,.49,1.8,.74,3.09,.74Zm-.32-10.25c.62,0,1.13-.15,1.54-.45,.41-.3,.72-.71,.92-1.23s.31-1.1,.31-1.75c0-.73-.11-1.42-.33-2.05s-.54-1.14-.96-1.53c-.42-.38-.96-.57-1.61-.57-.9,0-1.6,.34-2.09,1.01-.49,.68-.74,1.51-.74,2.51,0,.8,.12,1.5,.35,2.11,.23,.61,.57,1.08,1.01,1.43,.44,.34,.97,.51,1.59,.51Z"/>
    <path d="M488.17,488.9c-1.17,0-2.22-.27-3.17-.81s-1.7-1.29-2.26-2.25c-.56-.96-.84-2.05-.84-3.29,0-1.32,.27-2.5,.82-3.55,.55-1.05,1.3-1.88,2.25-2.49,.95-.61,2.02-.91,3.2-.91s2.23,.28,3.17,.84c.95,.56,1.71,1.31,2.28,2.26,.57,.95,.85,2.03,.85,3.25,0,1.28-.28,2.45-.84,3.51-.56,1.06-1.31,1.9-2.26,2.51-.95,.62-2.02,.92-3.2,.92Zm.2-1c.88,0,1.58-.25,2.1-.75s.89-1.15,1.11-1.95c.22-.8,.34-1.64,.34-2.53,0-.75-.07-1.49-.21-2.21-.14-.73-.36-1.38-.66-1.98-.3-.59-.69-1.06-1.16-1.41-.48-.35-1.05-.53-1.71-.53-.87,0-1.58,.25-2.12,.75s-.95,1.15-1.21,1.95c-.26,.8-.39,1.66-.39,2.58,0,1.03,.14,2.01,.42,2.94,.28,.92,.72,1.68,1.3,2.26,.58,.58,1.32,.88,2.2,.88Z"/>
    <path d="M502.8,488.9c-1.17,0-2.22-.27-3.17-.81s-1.7-1.29-2.26-2.25c-.56-.96-.84-2.05-.84-3.29,0-1.32,.27-2.5,.82-3.55,.55-1.05,1.3-1.88,2.25-2.49,.95-.61,2.02-.91,3.2-.91s2.23,.28,3.17,.84c.95,.56,1.71,1.31,2.28,2.26,.57,.95,.85,2.03,.85,3.25,0,1.28-.28,2.45-.84,3.51-.56,1.06-1.31,1.9-2.26,2.51-.95,.62-2.02,.92-3.2,.92Zm.2-1c.88,0,1.58-.25,2.1-.75s.89-1.15,1.11-1.95c.22-.8,.34-1.64,.34-2.53,0-.75-.07-1.49-.21-2.21-.14-.73-.36-1.38-.66-1.98-.3-.59-.69-1.06-1.16-1.41-.48-.35-1.05-.53-1.71-.53-.87,0-1.58,.25-2.12,.75s-.95,1.15-1.21,1.95c-.26,.8-.39,1.66-.39,2.58,0,1.03,.14,2.01,.42,2.94,.28,.92,.72,1.68,1.3,2.26,.58,.58,1.32,.88,2.2,.88Z"/>
    <path d="M516.57,488.9c-1.02,0-1.93-.25-2.75-.76-.82-.51-1.46-1.24-1.94-2.19-.48-.95-.71-2.07-.71-3.35,0-1.37,.28-2.58,.83-3.62,.55-1.05,1.31-1.88,2.29-2.48,.98-.6,2.08-.9,3.31-.9,.55,0,1.1,.07,1.64,.21s.97,.3,1.29,.49v-3.42c0-.27,0-.52,.01-.76,0-.24,.03-.53,.06-.86-.3,.02-.6,.03-.89,.05-.29,.02-.59,.03-.89,.05v-1.05c.73,0,1.3-.03,1.7-.1,.4-.07,.7-.15,.91-.25,.21-.1,.37-.21,.49-.33h.73v16.23c0,.27,0,.53-.03,.8-.02,.27-.04,.57-.08,.9,.3-.02,.6-.03,.89-.05,.29-.02,.59-.03,.89-.05v1.05h-3.58c-.05-.25-.09-.48-.11-.69-.03-.21-.05-.41-.06-.61-.47,.52-1.04,.93-1.73,1.24s-1.44,.46-2.27,.46Zm.9-1.23c.55,0,1.1-.16,1.66-.47,.56-.32,1.02-.71,1.39-1.18-.02-.2-.03-.41-.03-.64v-.74l.03-7.2c-.4-.3-.84-.52-1.31-.66-.48-.14-.96-.21-1.46-.21-.83,0-1.56,.24-2.17,.72-.62,.48-1.08,1.16-1.4,2.03s-.46,1.88-.42,3.05c.03,1.02,.2,1.92,.49,2.73,.29,.8,.71,1.43,1.25,1.89,.54,.46,1.2,.69,1.99,.69Z"/>
    <path d="M528.12,488.9c-.38,0-.72-.15-1.01-.46-.29-.31-.44-.69-.44-1.14s.15-.83,.45-1.15c.3-.32,.64-.48,1.03-.48,.42,0,.76,.16,1.04,.48,.28,.32,.41,.7,.41,1.15s-.15,.83-.45,1.14-.64,.46-1.03,.46Z"/>
  </g>
</svg>