<?xml version="1.0" encoding="UTF-8"?>
<svg id="win" xmlns="http://www.w3.org/2000/svg" viewBox="0 0 800 600">
  <defs>
    <style>
      .cls-1 {
        fill: #fff;
        opacity: .85;
      }
    </style>
  </defs>
  <rect class="cls-1" x="136.62" y="120.07" width="532.45" height="334.32" rx="40" ry="40"/>
  <g>
    <path d="M310.35,199.78c-.21-1.68-.78-2.97-1.74-3.88-.95-.91-2.19-1.37-3.72-1.39-.97,0-1.87,.21-2.69,.64-.82,.43-1.53,1.03-2.13,1.81-.6,.78-1.06,1.69-1.39,2.74s-.49,2.21-.49,3.46c0,1.7,.3,3.21,.9,4.52s1.42,2.34,2.48,3.07c1.05,.73,2.25,1.09,3.6,1.09,1.19,0,2.38-.29,3.54-.85,1.17-.57,2.13-1.38,2.9-2.42l.92,.78c-.84,1.16-1.74,2.04-2.69,2.66-.95,.62-1.9,1.03-2.84,1.25-.94,.21-1.8,.32-2.56,.32-1.4,0-2.69-.25-3.86-.76-1.18-.5-2.19-1.21-3.04-2.11-.85-.9-1.5-1.96-1.96-3.16-.46-1.2-.69-2.51-.69-3.91,0-1.31,.21-2.58,.62-3.84,.41-1.25,1.02-2.38,1.82-3.4,.8-1.02,1.81-1.82,3.04-2.42,1.22-.6,2.65-.9,4.27-.9,.95,0,1.88,.13,2.79,.39s1.78,.66,2.62,1.2l-.14-1.4h1.74v6.5h-1.29Z"/>
    <path d="M321.3,213.59c-1.33,0-2.52-.3-3.58-.9-1.06-.6-1.91-1.43-2.53-2.51-.63-1.07-.94-2.31-.94-3.71,0-1.51,.31-2.85,.94-4.02,.62-1.17,1.47-2.09,2.53-2.76,1.06-.67,2.25-1.01,3.56-1.01s2.52,.3,3.58,.91c1.06,.61,1.91,1.45,2.53,2.52,.62,1.07,.94,2.31,.94,3.71,0,1.48-.31,2.8-.92,3.98-.62,1.18-1.45,2.1-2.51,2.77s-2.25,1.01-3.6,1.01Zm.2-1.4c.9-.02,1.6-.3,2.11-.84s.88-1.24,1.11-2.09c.22-.85,.34-1.73,.34-2.65,0-.8-.07-1.59-.21-2.37s-.36-1.48-.66-2.11c-.3-.63-.69-1.14-1.18-1.53s-1.07-.56-1.76-.55c-.88,0-1.59,.27-2.14,.81-.55,.54-.95,1.24-1.2,2.09s-.38,1.75-.38,2.7c0,1.1,.14,2.15,.42,3.14,.28,.99,.71,1.8,1.3,2.44,.59,.63,1.34,.95,2.25,.95Z"/>
    <path d="M330.59,213.14v-1.18c.56,0,.95-.13,1.18-.39,.22-.26,.36-.63,.41-1.09,.05-.47,.07-1.01,.07-1.62l.03-5.82c0-.3,0-.62,.01-.97,0-.34,.04-.69,.1-1.02-.34,.02-.68,.03-1.02,.04-.35,0-.67,.02-.97,.04v-1.48c.84,0,1.5-.04,1.97-.12,.48-.08,.84-.18,1.09-.29,.25-.11,.44-.23,.57-.36h1.01c.02,.17,.03,.33,.04,.48,0,.15,.02,.31,.03,.48,0,.17,.02,.38,.04,.64,.41-.34,.86-.63,1.34-.9,.49-.26,.99-.47,1.53-.63,.53-.16,1.04-.24,1.53-.24,1.66,0,2.86,.5,3.6,1.51s1.11,2.59,1.11,4.73v4.73c0,.34,0,.68-.03,1.02s-.05,.7-.08,1.05c.3-.02,.6-.03,.91-.04s.59-.02,.85-.04v1.48h-6.24v-1.18c.56,0,.95-.13,1.18-.39,.22-.26,.36-.63,.41-1.09,.05-.47,.07-1.01,.07-1.62v-3.92c-.02-1.47-.26-2.59-.71-3.33s-1.19-1.11-2.2-1.09c-.6,0-1.19,.15-1.76,.45-.58,.3-1.06,.66-1.46,1.09v7.62c0,.34,0,.68-.03,1.02s-.05,.7-.08,1.05c.3-.02,.6-.03,.91-.04,.31,0,.59-.02,.85-.04v1.48h-6.24Z"/>
    <path d="M354.37,220.73c-1.64,0-2.96-.18-3.96-.54-1-.36-1.72-.83-2.16-1.4-.44-.57-.66-1.17-.66-1.81,0-.5,.12-.97,.35-1.4,.23-.43,.55-.81,.94-1.13,.39-.33,.83-.58,1.32-.77-.65-.21-1.15-.5-1.48-.88s-.5-.85-.5-1.41c0-.6,.24-1.19,.71-1.76,.48-.58,1.16-.97,2.06-1.18-.84-.37-1.51-.91-2.02-1.62-.5-.71-.77-1.55-.78-2.52-.02-1.12,.27-2.1,.85-2.94s1.34-1.49,2.27-1.96c.92-.47,1.89-.7,2.9-.7,.58,0,1.18,.08,1.79,.24s1.18,.41,1.68,.74c.21-.54,.48-1.04,.81-1.48,.34-.45,.73-.8,1.19-1.06s.94-.39,1.44-.39c.54,0,.95,.14,1.23,.42,.28,.28,.42,.65,.42,1.12,0,.15-.04,.33-.13,.55s-.23,.4-.43,.55c-.21,.15-.49,.22-.84,.22-.3,0-.57-.1-.8-.29-.23-.2-.38-.43-.43-.71-.39,.08-.71,.3-.97,.69s-.42,.77-.49,1.16c.49,.43,.86,.94,1.13,1.53,.27,.59,.41,1.22,.41,1.89,0,1.06-.28,2.01-.85,2.83-.57,.82-1.31,1.46-2.23,1.93-.91,.47-1.9,.7-2.97,.7-.32,0-.62-.02-.9-.07-.28-.05-.59-.07-.92-.07-.6,0-1.09,.14-1.47,.42s-.53,.62-.43,1.01c.09,.41,.49,.68,1.18,.81,.69,.13,1.69,.22,3,.28,1.44,.06,2.67,.23,3.71,.52s1.84,.73,2.41,1.33c.57,.6,.85,1.41,.85,2.44,0,.77-.21,1.45-.63,2.04-.42,.6-.98,1.1-1.68,1.5-.7,.4-1.48,.7-2.34,.91-.86,.21-1.72,.31-2.58,.31Zm.25-1.37c1.51,0,2.68-.28,3.51-.84,.83-.56,1.25-1.2,1.25-1.9,0-.6-.21-1.06-.62-1.39-.41-.33-.98-.56-1.72-.7-.74-.14-1.6-.22-2.59-.24-.49-.04-.98-.07-1.48-.08s-.97-.07-1.4-.14c-.43,.3-.76,.66-.99,1.09-.23,.43-.36,.88-.38,1.34,0,.86,.4,1.55,1.2,2.07,.8,.52,1.88,.78,3.22,.78Zm-.36-11.37c.63,0,1.16-.16,1.58-.49,.42-.33,.74-.76,.95-1.32,.21-.55,.32-1.15,.32-1.81,0-.77-.11-1.48-.34-2.16-.22-.67-.55-1.21-.98-1.62-.43-.41-.98-.62-1.65-.62-.91,0-1.62,.37-2.13,1.09s-.76,1.61-.76,2.63c0,.82,.12,1.55,.35,2.2,.23,.64,.57,1.15,1.02,1.53s.99,.56,1.62,.56Z"/>
    <path d="M363.38,211.96c.56,0,.95-.13,1.18-.39,.22-.26,.36-.63,.41-1.09,.05-.47,.07-1.01,.07-1.62v-5.82c0-.3,0-.62,.01-.97,0-.34,.04-.69,.1-1.02-.32,.02-.65,.03-1.01,.04-.35,0-.68,.02-.98,.04v-1.48h.95c.78,0,1.38-.08,1.79-.25,.41-.17,.71-.34,.9-.53h1.01c.04,.26,.07,.62,.08,1.09s.04,.99,.06,1.57c.35-.52,.77-.99,1.23-1.41s.98-.76,1.53-1.02c.55-.26,1.12-.39,1.72-.39s1.08,.15,1.5,.46,.63,.81,.63,1.5c0,.19-.05,.4-.15,.64-.1,.24-.27,.45-.5,.63s-.55,.27-.94,.27c-.39-.02-.73-.17-1.02-.45s-.42-.66-.41-1.15c-.45,0-.9,.13-1.34,.41s-.86,.63-1.25,1.08-.7,.93-.97,1.46v6.13c0,.34,0,.68-.01,1.02,0,.35-.04,.7-.1,1.05,.3-.02,.61-.03,.92-.04,.32,0,.61-.02,.87-.04v1.48h-6.27v-1.18Z"/>
    <path d="M384.04,213.14c-.04-.3-.07-.56-.08-.78-.02-.22-.05-.46-.08-.7-.63,.63-1.32,1.12-2.04,1.44-.73,.33-1.48,.49-2.27,.49-1.34,0-2.36-.33-3.04-.99-.68-.66-1.02-1.49-1.02-2.48,0-.86,.25-1.61,.76-2.24s1.17-1.15,1.99-1.55,1.72-.7,2.69-.9c.97-.2,1.92-.29,2.86-.29v-1.65c0-.6-.06-1.15-.17-1.67-.11-.51-.34-.93-.69-1.26-.35-.33-.88-.49-1.61-.49-.49-.02-.97,.07-1.46,.27s-.86,.52-1.12,.97c.15,.15,.25,.32,.29,.52,.05,.2,.07,.38,.07,.55,0,.26-.11,.55-.34,.88-.22,.33-.61,.48-1.15,.46-.45,0-.79-.15-1.02-.46-.23-.31-.35-.67-.35-1.08,0-.67,.25-1.27,.74-1.79,.49-.52,1.17-.93,2.03-1.23,.86-.3,1.82-.45,2.88-.45,1.61,0,2.8,.42,3.6,1.26,.79,.84,1.19,2.17,1.19,3.98v1.93c0,.62,0,1.23-.01,1.85,0,.62-.01,1.27-.01,1.96,0,.28,0,.6-.03,.95-.02,.36-.05,.73-.08,1.12,.32-.02,.64-.04,.98-.06,.34-.02,.65-.03,.95-.03v1.48h-4.45Zm-.25-6.72c-.6,.04-1.21,.12-1.83,.25-.63,.13-1.19,.33-1.69,.59-.5,.26-.91,.6-1.22,1.01-.31,.41-.46,.91-.46,1.48,.04,.63,.25,1.1,.63,1.4,.38,.3,.83,.45,1.36,.45,.65,0,1.23-.13,1.74-.38,.5-.25,1-.6,1.48-1.05-.02-.21-.03-.42-.03-.63v-.69c0-.17,0-.48,.01-.94,0-.46,.01-.96,.01-1.5Z"/>
    <path d="M395.5,213.59c-.47,0-.93-.06-1.4-.18-.47-.12-.9-.36-1.3-.73-.4-.37-.71-.89-.94-1.58-.22-.69-.34-1.61-.34-2.74l.06-7.64h-2.07v-1.57c.5-.02,1.02-.21,1.54-.56s.98-.83,1.37-1.43c.39-.6,.66-1.24,.81-1.93h1.32v3.92h4.31v1.46l-4.31,.06-.06,7.48c0,.71,.06,1.33,.18,1.86,.12,.53,.33,.94,.62,1.23,.29,.29,.69,.43,1.19,.43,.43,0,.87-.13,1.33-.39,.46-.26,.89-.69,1.3-1.29l.95,.84c-.45,.65-.9,1.17-1.34,1.54-.45,.37-.88,.65-1.29,.83-.41,.18-.78,.29-1.12,.34-.34,.05-.61,.07-.81,.07Z"/>
    <path d="M407.12,213.59c-1.05,0-1.91-.2-2.59-.59-.68-.39-1.19-1.04-1.53-1.95-.34-.9-.5-2.1-.5-3.6v-4.4c0-.32,0-.65,.01-.99,0-.34,.04-.69,.1-1.02-.32,.02-.65,.03-1.01,.04-.36,0-.67,.02-.95,.04v-1.48h.67c.93,0,1.63-.08,2.1-.25s.79-.34,.98-.53h1.06v8.54c0,1.48,.21,2.58,.62,3.3,.41,.73,1.1,1.08,2.07,1.06,.63,0,1.25-.19,1.83-.56s1.07-.81,1.44-1.32v-6.63c0-.41,0-.8,.03-1.16,.02-.37,.06-.71,.11-1.05-.34,.02-.68,.03-1.04,.04-.35,0-.68,.02-.98,.04v-1.48h.81c.82,0,1.46-.08,1.93-.25s.8-.34,1.01-.53h1.06l-.03,10.3c0,.3,0,.71-.03,1.22-.02,.51-.05,.97-.08,1.36,.32-.02,.65-.04,.99-.06,.34-.02,.67-.03,.97-.03v1.48h-4.45c-.04-.3-.07-.58-.1-.84-.03-.26-.06-.51-.1-.76-.58,.54-1.25,1.02-2.02,1.43-.77,.41-1.57,.62-2.41,.62Z"/>
    <path d="M417.81,211.96c.56,0,.95-.13,1.18-.39,.22-.26,.36-.63,.41-1.09,.05-.47,.07-1.01,.07-1.62v-12.66c0-.32,0-.64,.01-.97,0-.33,.03-.68,.07-1.05-.32,.02-.65,.03-1.01,.04-.35,0-.67,.02-.95,.04v-1.48c.84,0,1.51-.04,2-.13,.49-.08,.88-.18,1.15-.29,.27-.11,.47-.23,.6-.36h1.06v17.67c0,.34,0,.68-.03,1.02s-.05,.7-.08,1.05c.3-.02,.6-.03,.91-.04,.31,0,.59-.02,.85-.04v1.48h-6.24v-1.18Z"/>
    <path d="M434.39,213.14c-.04-.3-.07-.56-.08-.78-.02-.22-.05-.46-.08-.7-.63,.63-1.32,1.12-2.04,1.44-.73,.33-1.48,.49-2.27,.49-1.34,0-2.36-.33-3.04-.99-.68-.66-1.02-1.49-1.02-2.48,0-.86,.25-1.61,.76-2.24s1.17-1.15,1.99-1.55,1.72-.7,2.69-.9c.97-.2,1.92-.29,2.86-.29v-1.65c0-.6-.06-1.15-.17-1.67-.11-.51-.34-.93-.69-1.26-.35-.33-.88-.49-1.61-.49-.49-.02-.97,.07-1.46,.27s-.86,.52-1.12,.97c.15,.15,.25,.32,.29,.52,.05,.2,.07,.38,.07,.55,0,.26-.11,.55-.34,.88-.22,.33-.61,.48-1.15,.46-.45,0-.79-.15-1.02-.46-.23-.31-.35-.67-.35-1.08,0-.67,.25-1.27,.74-1.79,.49-.52,1.17-.93,2.03-1.23,.86-.3,1.82-.45,2.88-.45,1.61,0,2.8,.42,3.6,1.26,.79,.84,1.19,2.17,1.19,3.98v1.93c0,.62,0,1.23-.01,1.85,0,.62-.01,1.27-.01,1.96,0,.28,0,.6-.03,.95-.02,.36-.05,.73-.08,1.12,.32-.02,.64-.04,.98-.06,.34-.02,.65-.03,.95-.03v1.48h-4.45Zm-.25-6.72c-.6,.04-1.21,.12-1.83,.25-.63,.13-1.19,.33-1.69,.59-.5,.26-.91,.6-1.22,1.01-.31,.41-.46,.91-.46,1.48,.04,.63,.25,1.1,.63,1.4,.38,.3,.83,.45,1.36,.45,.65,0,1.23-.13,1.74-.38,.5-.25,1-.6,1.48-1.05-.02-.21-.03-.42-.03-.63v-.69c0-.17,0-.48,.01-.94,0-.46,.01-.96,.01-1.5Z"/>
    <path d="M445.84,213.59c-.47,0-.93-.06-1.4-.18-.47-.12-.9-.36-1.3-.73-.4-.37-.71-.89-.94-1.58-.22-.69-.34-1.61-.34-2.74l.06-7.64h-2.07v-1.57c.5-.02,1.02-.21,1.54-.56s.98-.83,1.37-1.43c.39-.6,.66-1.24,.81-1.93h1.32v3.92h4.31v1.46l-4.31,.06-.06,7.48c0,.71,.06,1.33,.18,1.86,.12,.53,.33,.94,.62,1.23,.29,.29,.69,.43,1.19,.43,.43,0,.87-.13,1.33-.39,.46-.26,.89-.69,1.3-1.29l.95,.84c-.45,.65-.9,1.17-1.34,1.54-.45,.37-.88,.65-1.29,.83-.41,.18-.78,.29-1.12,.34-.34,.05-.61,.07-.81,.07Z"/>
    <path d="M451.58,211.96c.56,0,.95-.13,1.18-.39,.22-.26,.36-.63,.41-1.09,.05-.47,.07-1.01,.07-1.62v-5.8c0-.32,0-.64,.03-.96,.02-.33,.05-.68,.08-1.05-.32,.02-.65,.03-1.01,.04-.35,0-.68,.02-.98,.04v-1.48c.84,0,1.51-.04,2-.12,.49-.08,.88-.18,1.15-.29,.27-.11,.47-.23,.6-.36h1.06v10.81c0,.34,0,.68-.03,1.02s-.05,.7-.08,1.05c.3-.02,.6-.03,.91-.04,.31,0,.59-.02,.85-.04v1.48h-6.24v-1.18Zm3-15.68c-.49,0-.9-.18-1.23-.55s-.5-.81-.5-1.33,.18-.97,.53-1.33,.76-.55,1.2-.55c.49,0,.89,.18,1.22,.55,.33,.36,.49,.81,.49,1.33s-.16,.97-.49,1.33c-.33,.36-.73,.55-1.22,.55Z"/>
    <path d="M466.78,213.59c-1.33,0-2.52-.3-3.58-.9-1.06-.6-1.91-1.43-2.53-2.51-.63-1.07-.94-2.31-.94-3.71,0-1.51,.31-2.85,.94-4.02,.62-1.17,1.47-2.09,2.53-2.76,1.06-.67,2.25-1.01,3.56-1.01s2.52,.3,3.58,.91c1.06,.61,1.91,1.45,2.53,2.52,.62,1.07,.94,2.31,.94,3.71,0,1.48-.31,2.8-.92,3.98-.62,1.18-1.45,2.1-2.51,2.77s-2.25,1.01-3.6,1.01Zm.2-1.4c.9-.02,1.6-.3,2.11-.84s.88-1.24,1.11-2.09c.22-.85,.34-1.73,.34-2.65,0-.8-.07-1.59-.21-2.37s-.36-1.48-.66-2.11c-.3-.63-.69-1.14-1.18-1.53s-1.07-.56-1.76-.55c-.88,0-1.59,.27-2.14,.81-.55,.54-.95,1.24-1.2,2.09s-.38,1.75-.38,2.7c0,1.1,.14,2.15,.42,3.14,.28,.99,.71,1.8,1.3,2.44,.59,.63,1.34,.95,2.25,.95Z"/>
    <path d="M476.08,213.14v-1.18c.56,0,.95-.13,1.18-.39,.22-.26,.36-.63,.41-1.09,.05-.47,.07-1.01,.07-1.62l.03-5.82c0-.3,0-.62,.01-.97,0-.34,.04-.69,.1-1.02-.34,.02-.68,.03-1.02,.04-.35,0-.67,.02-.97,.04v-1.48c.84,0,1.5-.04,1.97-.12,.48-.08,.84-.18,1.09-.29,.25-.11,.44-.23,.57-.36h1.01c.02,.17,.03,.33,.04,.48,0,.15,.02,.31,.03,.48,0,.17,.02,.38,.04,.64,.41-.34,.86-.63,1.34-.9,.49-.26,.99-.47,1.53-.63,.53-.16,1.04-.24,1.53-.24,1.66,0,2.86,.5,3.6,1.51s1.11,2.59,1.11,4.73v4.73c0,.34,0,.68-.03,1.02s-.05,.7-.08,1.05c.3-.02,.6-.03,.91-.04s.59-.02,.85-.04v1.48h-6.24v-1.18c.56,0,.95-.13,1.18-.39,.22-.26,.36-.63,.41-1.09,.05-.47,.07-1.01,.07-1.62v-3.92c-.02-1.47-.26-2.59-.71-3.33s-1.19-1.11-2.2-1.09c-.6,0-1.19,.15-1.76,.45-.58,.3-1.06,.66-1.46,1.09v7.62c0,.34,0,.68-.03,1.02s-.05,.7-.08,1.05c.3-.02,.6-.03,.91-.04,.31,0,.59-.02,.85-.04v1.48h-6.24Z"/>
    <path d="M499.32,213.59c-.88,0-1.69-.12-2.44-.35-.75-.23-1.34-.51-1.79-.83l.08,.92h-1.48l-.14-4.82h1.18c.04,.69,.25,1.32,.64,1.88,.39,.56,.9,1,1.53,1.32,.62,.32,1.3,.48,2.03,.48,.43,0,.85-.07,1.26-.21,.41-.14,.76-.35,1.04-.64,.28-.29,.42-.65,.42-1.08,0-.47-.14-.85-.43-1.16-.29-.31-.68-.58-1.18-.83-.5-.24-1.06-.49-1.69-.73-.56-.22-1.12-.46-1.69-.7-.57-.24-1.1-.53-1.58-.87s-.87-.75-1.15-1.25c-.28-.49-.42-1.11-.42-1.83,0-.43,.08-.89,.25-1.38,.17-.5,.44-.95,.81-1.37,.37-.42,.88-.76,1.51-1.04,.63-.27,1.42-.41,2.35-.41,.5,0,1.07,.08,1.69,.25s1.21,.46,1.75,.87l-.03-.98h1.48v4.93h-1.2c-.06-.65-.23-1.26-.52-1.82-.29-.56-.7-1.02-1.22-1.37-.52-.35-1.16-.53-1.9-.53s-1.32,.18-1.78,.55-.69,.82-.69,1.36,.17,.98,.52,1.32c.35,.34,.8,.62,1.36,.87,.56,.24,1.17,.49,1.82,.73,.78,.32,1.52,.66,2.21,1.04,.69,.37,1.25,.84,1.68,1.4,.43,.56,.64,1.27,.64,2.13,0,.93-.24,1.71-.71,2.34-.48,.63-1.09,1.09-1.83,1.39-.75,.3-1.54,.45-2.38,.45Z"/>
    <path d="M508.61,213.54c-.38,0-.72-.15-1.01-.46-.29-.31-.44-.69-.44-1.14s.15-.83,.45-1.15,.64-.47,1.03-.47c.42,0,.76,.16,1.04,.47,.28,.32,.41,.7,.41,1.15s-.15,.83-.45,1.14c-.3,.31-.64,.46-1.03,.46Zm-.45-6.15l-.97-10.32c-.03-.43,.07-.85,.31-1.24,.24-.39,.62-.59,1.14-.59s.91,.2,1.14,.59c.22,.39,.32,.8,.29,1.24l-.97,10.32h-.93Z"/>
    <path d="M250.75,241.92c-.02-.98-.12-1.8-.3-2.45-.18-.65-.5-1.14-.96-1.46-.46-.33-1.12-.48-1.99-.46h-2.12l-.02,13.62c0,.45,0,.84-.01,1.16,0,.33-.03,.6-.06,.81,.35-.02,.7-.03,1.04-.05,.34-.02,.69-.03,1.04-.05v1.1h-5.88v-.82c.63-.03,1.06-.18,1.29-.45,.23-.27,.35-.63,.38-1.09,.03-.46,.04-.97,.04-1.54l.02-12.67-2.58,.03c-1.05,0-1.79,.35-2.22,1.05-.43,.7-.65,1.79-.65,3.28h-.92l.15-5.28h14.58l.15,5.28h-.95Z"/>
    <path d="M261.4,253.39c.52,0,.88-.13,1.08-.39s.32-.62,.35-1.08,.05-.99,.05-1.59v-3.5c0-1.43-.23-2.51-.69-3.23-.46-.72-1.18-1.07-2.16-1.05-.62,.02-1.22,.17-1.81,.45-.59,.28-1.07,.65-1.44,1.1v7.38c0,.33,0,.63-.03,.89s-.05,.53-.1,.81c.27-.02,.53-.03,.79-.04,.26,0,.52-.02,.79-.04v1.02h-5.1v-.75c.52,0,.88-.13,1.08-.39s.32-.62,.36-1.08c.04-.46,.06-.99,.06-1.59v-11.83c0-.27,0-.52,.01-.76s.03-.53,.06-.86c-.3,.02-.6,.03-.89,.05-.29,.02-.59,.03-.89,.05v-1.05c.73,0,1.3-.03,1.71-.1s.72-.15,.92-.25c.21-.1,.37-.21,.49-.33h.72v7.62c.37-.32,.78-.6,1.24-.84s.93-.44,1.42-.59c.49-.15,.97-.23,1.44-.23,1.45,0,2.5,.45,3.14,1.36s.97,2.32,.99,4.24l.03,4.65c0,.33,0,.63-.01,.89s-.04,.53-.09,.81c.27-.02,.53-.03,.79-.04,.26,0,.52-.02,.79-.04v1.02h-5.1v-.75Z"/>
    <path d="M275.95,254.14c-.05-.28-.08-.53-.1-.75-.02-.22-.04-.44-.07-.67-.57,.57-1.18,1.01-1.84,1.34s-1.35,.49-2.09,.49c-1.27,0-2.21-.29-2.82-.86-.62-.58-.93-1.28-.93-2.11,0-.77,.24-1.43,.71-1.99,.47-.56,1.09-1.02,1.85-1.38,.76-.36,1.58-.62,2.48-.8,.89-.18,1.75-.25,2.59-.24v-1.55c0-.58-.05-1.13-.15-1.65-.1-.52-.32-.94-.65-1.28s-.87-.51-1.6-.53c-.48-.02-.98,.08-1.49,.28-.51,.2-.88,.54-1.11,1.03,.13,.13,.22,.29,.26,.46s.06,.34,.06,.49c0,.2-.08,.43-.25,.69-.17,.26-.46,.38-.88,.36-.35,0-.62-.12-.8-.36-.18-.24-.28-.53-.28-.86,0-.57,.21-1.08,.64-1.52,.42-.45,1.01-.81,1.76-1.08,.75-.27,1.6-.4,2.55-.4,1.4,0,2.43,.37,3.1,1.11,.67,.74,.99,1.91,.97,3.51v1.86c0,.62,0,1.25-.01,1.88s-.01,1.25-.01,1.89c0,.27,0,.53-.02,.8-.02,.27-.04,.57-.08,.9,.3-.02,.6-.03,.89-.05,.29-.02,.59-.03,.89-.05v1.05h-3.58Zm-.23-6.12c-.57,.02-1.16,.09-1.79,.21s-1.2,.31-1.72,.56c-.53,.25-.95,.58-1.28,.99s-.48,.9-.46,1.49c.03,.62,.24,1.08,.61,1.39s.82,.46,1.34,.46c.68,0,1.28-.13,1.79-.39,.51-.26,1.01-.62,1.51-1.09-.02-.18-.02-.38-.02-.6v-.67c0-.08,0-.35,.01-.8,0-.45,.01-.97,.01-1.55Z"/>
    <path d="M281.25,254.14v-.75c.52,0,.88-.13,1.08-.39s.32-.62,.35-1.08c.03-.46,.05-.99,.05-1.59l.02-5.7c0-.27,0-.53,.01-.8,0-.27,.04-.54,.09-.83-.3,.02-.6,.03-.89,.05-.29,.02-.59,.03-.89,.05v-1.05c.73,0,1.29-.03,1.66-.1s.65-.15,.84-.25c.18-.1,.33-.21,.45-.33h.72c.02,.12,.03,.25,.04,.4,0,.15,.02,.32,.04,.5s.03,.39,.03,.62c.37-.32,.77-.6,1.21-.85s.91-.45,1.4-.6c.49-.15,.98-.23,1.46-.23,1.45,0,2.51,.45,3.17,1.36,.67,.91,1,2.32,1,4.24v4.65c0,.33,0,.63-.01,.89,0,.26-.04,.53-.09,.81,.27-.02,.53-.03,.79-.04,.26,0,.52-.02,.79-.04v1.02h-5.1v-.75c.52,0,.88-.13,1.08-.39,.2-.26,.32-.62,.35-1.08s.05-.99,.05-1.59v-3.5c-.02-1.43-.25-2.52-.71-3.25-.46-.73-1.18-1.09-2.16-1.08-.6,.02-1.19,.18-1.76,.48-.57,.3-1.05,.68-1.44,1.15,.02,.13,.03,.28,.03,.45v.52l-.03,6.38c0,.33,0,.63-.01,.89,0,.26-.04,.53-.09,.81,.27-.02,.53-.03,.79-.04,.26,0,.52-.02,.79-.04v1.02h-5.1Z"/>
    <path d="M296.2,254.14v-.75c.52,0,.87-.13,1.06-.39s.3-.62,.34-1.08c.03-.46,.05-.99,.05-1.59l.02-11.83c0-.27,0-.52,.01-.76s.03-.53,.06-.86c-.3,.02-.6,.03-.89,.05-.29,.02-.59,.03-.89,.05v-1.05c.73,0,1.3-.03,1.7-.1,.4-.07,.7-.15,.91-.25,.21-.1,.37-.21,.49-.33h.72v11.83h1l3.05-3.2c.28-.28,.54-.54,.77-.76s.47-.41,.7-.56l-1.7,.07v-1h4.55v.75c-.57,.05-1.1,.23-1.59,.54-.49,.31-.94,.65-1.35,1.04-.41,.38-.76,.73-1.06,1.05l-1.95,2.05c.33,.15,.62,.34,.85,.57,.23,.23,.47,.49,.7,.78l1.77,2.28c.08,.1,.23,.29,.44,.57,.21,.28,.46,.59,.75,.93,.29,.33,.6,.62,.93,.85,.32,.23,.63,.35,.91,.35v.75h-2.28c-.47,0-.91-.24-1.32-.72-.42-.48-.86-1.03-1.33-1.62-.43-.6-.82-1.15-1.16-1.64-.34-.49-.65-.92-.92-1.29-.27-.37-.52-.65-.74-.85l-1.03,.05v3.42c0,.33,0,.63-.01,.89,0,.26-.04,.53-.09,.81,.27-.02,.53-.03,.8-.04,.27,0,.53-.02,.8-.04v1.02h-5.1Z"/>
    <path d="M314.98,254.54c-.83,0-1.57-.11-2.22-.34-.65-.22-1.18-.48-1.6-.76l.1,.88h-1.05l-.15-4.3h.78c.03,.68,.22,1.3,.58,1.84,.35,.54,.8,.96,1.35,1.26s1.14,.45,1.78,.45c.43,0,.86-.07,1.27-.21,.42-.14,.77-.36,1.05-.65,.28-.29,.43-.66,.43-1.11s-.14-.85-.41-1.16c-.27-.31-.64-.58-1.09-.81-.45-.23-.93-.45-1.45-.65-.5-.2-1-.41-1.5-.62s-.96-.48-1.39-.78c-.42-.3-.76-.67-1.01-1.1s-.38-.97-.38-1.6c0-.35,.07-.73,.2-1.15,.13-.42,.36-.81,.67-1.19s.75-.68,1.3-.93c.55-.24,1.25-.36,2.1-.36,.45,0,.95,.08,1.5,.23,.55,.15,1.08,.43,1.6,.85l-.05-.95h1.05v4.38h-.8c-.03-.58-.17-1.15-.4-1.69s-.57-.99-1.02-1.35c-.45-.36-1.03-.54-1.75-.54-.77,0-1.37,.19-1.8,.58-.43,.38-.65,.83-.65,1.33s.16,.95,.49,1.29,.75,.64,1.26,.89,1.07,.49,1.65,.73c.63,.27,1.25,.56,1.85,.88s1.09,.71,1.47,1.19c.38,.47,.58,1.09,.58,1.84,0,.83-.21,1.52-.64,2.08-.42,.55-.97,.95-1.62,1.21-.66,.26-1.35,.39-2.06,.39Z"/>
    <path d="M332.7,254.54c-.38,0-.77-.05-1.17-.16-.4-.11-.77-.32-1.11-.64-.34-.32-.61-.78-.81-1.39-.2-.61-.3-1.41-.3-2.41l.05-7.25-1.92,.03v-1.08c.43-.02,.88-.18,1.32-.49,.45-.31,.85-.73,1.21-1.26,.36-.53,.6-1.12,.74-1.75h.85v3.5h4.2v.98l-4.2,.05-.05,6.95c0,.75,.06,1.39,.19,1.91,.12,.52,.33,.92,.61,1.19,.28,.27,.65,.4,1.1,.4s.9-.13,1.31-.4c.41-.27,.77-.63,1.09-1.1l.67,.55c-.37,.55-.73,.98-1.09,1.3s-.7,.55-1.04,.71c-.33,.16-.64,.26-.92,.3-.28,.04-.53,.06-.73,.06Z"/>
    <path d="M343.88,254.54c-1.17,0-2.22-.27-3.17-.81s-1.7-1.29-2.26-2.25c-.56-.96-.84-2.05-.84-3.29,0-1.32,.27-2.5,.82-3.55,.55-1.05,1.3-1.88,2.25-2.49,.95-.61,2.02-.91,3.2-.91s2.23,.28,3.17,.84c.95,.56,1.71,1.31,2.28,2.26,.57,.95,.85,2.03,.85,3.25,0,1.28-.28,2.45-.84,3.51-.56,1.06-1.31,1.9-2.26,2.51s-2.02,.92-3.2,.92Zm.2-1c.88,0,1.58-.25,2.1-.75s.89-1.15,1.11-1.95c.22-.8,.34-1.64,.34-2.53,0-.75-.07-1.49-.21-2.21-.14-.72-.36-1.38-.66-1.97s-.69-1.06-1.16-1.41c-.48-.35-1.05-.53-1.71-.53-.87,0-1.58,.25-2.12,.75s-.95,1.15-1.21,1.95c-.26,.8-.39,1.66-.39,2.58,0,1.03,.14,2.01,.42,2.94,.28,.92,.72,1.68,1.3,2.26,.58,.58,1.32,.88,2.2,.88Z"/>
    <path d="M360.8,260.92c-.52,0-.96-.12-1.33-.38-.37-.25-.55-.63-.55-1.15,0-.3,.1-.57,.3-.82s.46-.38,.77-.38c.4-.02,.67,.11,.81,.38,.14,.27,.21,.5,.21,.7v.16c0,.06,0,.12-.03,.19,.05,.03,.14,.05,.28,.05,.2,0,.42-.08,.65-.25,.23-.17,.44-.41,.62-.72,.22-.37,.47-.92,.76-1.65,.29-.73,.62-1.61,.99-2.62l-3.9-8.35c-.43-.93-.75-1.68-.94-2.22-.19-.55-.32-.96-.39-1.23l-1.2,.05v-1.03h5.18v.75h-.1c-.7,.05-1.08,.31-1.15,.79-.07,.48,.12,1.2,.57,2.16l2.93,6.27c.38-1.07,.75-2.12,1.1-3.16,.35-1.04,.7-2.08,1.05-3.11,.13-.37,.27-.75,.41-1.14,.14-.39,.28-.74,.42-1.05s.27-.5,.39-.59l-1.73,.1v-1.03h3.92v.75c-.62,.23-1.08,.62-1.39,1.16-.31,.54-.62,1.24-.94,2.09l-3.12,8.73c-.5,1.4-.96,2.59-1.38,3.56-.42,.98-.88,1.72-1.38,2.23-.5,.51-1.12,.76-1.88,.76Z"/>
    <path d="M378.03,254.54c-1.17,0-2.22-.27-3.17-.81s-1.7-1.29-2.26-2.25c-.56-.96-.84-2.05-.84-3.29,0-1.32,.27-2.5,.82-3.55,.55-1.05,1.3-1.88,2.25-2.49,.95-.61,2.02-.91,3.2-.91s2.23,.28,3.17,.84c.95,.56,1.71,1.31,2.28,2.26,.57,.95,.85,2.03,.85,3.25,0,1.28-.28,2.45-.84,3.51-.56,1.06-1.31,1.9-2.26,2.51s-2.02,.92-3.2,.92Zm.2-1c.88,0,1.58-.25,2.1-.75s.89-1.15,1.11-1.95c.22-.8,.34-1.64,.34-2.53,0-.75-.07-1.49-.21-2.21-.14-.72-.36-1.38-.66-1.97s-.69-1.06-1.16-1.41c-.48-.35-1.05-.53-1.71-.53-.87,0-1.58,.25-2.12,.75s-.95,1.15-1.21,1.95c-.26,.8-.39,1.66-.39,2.58,0,1.03,.14,2.01,.42,2.94,.28,.92,.72,1.68,1.3,2.26,.58,.58,1.32,.88,2.2,.88Z"/>
    <path d="M391.73,254.54c-.9,0-1.65-.17-2.26-.5-.61-.33-1.07-.9-1.38-1.7-.31-.8-.46-1.88-.46-3.25v-4.45c0-.27,0-.53,.01-.8,0-.27,.04-.54,.09-.83-.28,.02-.57,.03-.86,.04-.29,0-.58,.02-.86,.04v-1.03h.77c.72,0,1.24-.07,1.56-.21,.33-.14,.58-.29,.76-.46h.72v7.62c0,1.43,.2,2.5,.61,3.21,.41,.71,1.1,1.05,2.09,1.04,.63-.02,1.24-.21,1.81-.59s1.04-.82,1.39-1.34v-6.43c0-.4,0-.75,.03-1.04,.02-.29,.05-.58,.1-.86-.3,.02-.6,.03-.9,.04-.3,0-.6,.02-.9,.04v-1.03h.77c.72,0,1.24-.07,1.56-.21,.33-.14,.58-.29,.76-.46h.73l-.03,9.45c0,.27,0,.64-.03,1.12-.02,.48-.04,.89-.07,1.22,.3-.02,.6-.03,.9-.05,.3-.02,.6-.03,.9-.05v1.05h-3.58c-.05-.28-.09-.55-.11-.8-.03-.25-.05-.48-.06-.7-.52,.52-1.14,.96-1.88,1.34s-1.47,.56-2.2,.56Z"/>
    <path d="M403.23,258.62l-.67-.5c.18-.23,.38-.57,.57-1,.2-.43,.36-.91,.49-1.44s.15-1.04,.09-1.54c-.12,.05-.22,.09-.33,.11-.1,.03-.2,.04-.3,.04-.32,0-.59-.12-.81-.35-.22-.23-.34-.53-.34-.88,0-.47,.14-.83,.41-1.08s.6-.38,.96-.38c.58,0,1.02,.22,1.32,.66,.3,.44,.45,.98,.45,1.61,0,.42-.08,.93-.24,1.53s-.38,1.19-.65,1.76c-.27,.58-.6,1.05-.96,1.44Z"/>
    <path d="M418.97,254.54c-.38,0-.77-.05-1.17-.16-.4-.11-.77-.32-1.11-.64-.34-.32-.61-.78-.81-1.39-.2-.61-.3-1.41-.3-2.41l.05-7.25-1.92,.03v-1.08c.43-.02,.88-.18,1.32-.49,.45-.31,.85-.73,1.21-1.26,.36-.53,.6-1.12,.74-1.75h.85v3.5h4.2v.98l-4.2,.05-.05,6.95c0,.75,.06,1.39,.19,1.91,.12,.52,.33,.92,.61,1.19,.28,.27,.65,.4,1.1,.4s.9-.13,1.31-.4c.41-.27,.77-.63,1.09-1.1l.67,.55c-.37,.55-.73,.98-1.09,1.3s-.7,.55-1.04,.71c-.33,.16-.64,.26-.92,.3-.28,.04-.53,.06-.73,.06Z"/>
    <path d="M431.97,253.39c.52,0,.88-.13,1.08-.39s.32-.62,.35-1.08,.05-.99,.05-1.59v-3.5c0-1.43-.23-2.51-.69-3.23-.46-.72-1.18-1.07-2.16-1.05-.62,.02-1.22,.17-1.81,.45-.59,.28-1.07,.65-1.44,1.1v7.38c0,.33,0,.63-.03,.89s-.05,.53-.1,.81c.27-.02,.53-.03,.79-.04,.26,0,.52-.02,.79-.04v1.02h-5.1v-.75c.52,0,.88-.13,1.08-.39s.32-.62,.36-1.08c.04-.46,.06-.99,.06-1.59v-11.83c0-.27,0-.52,.01-.76s.03-.53,.06-.86c-.3,.02-.6,.03-.89,.05-.29,.02-.59,.03-.89,.05v-1.05c.73,0,1.3-.03,1.71-.1s.72-.15,.92-.25c.21-.1,.37-.21,.49-.33h.72v7.62c.37-.32,.78-.6,1.24-.84s.93-.44,1.42-.59c.49-.15,.97-.23,1.44-.23,1.45,0,2.5,.45,3.14,1.36s.97,2.32,.99,4.24l.03,4.65c0,.33,0,.63-.01,.89s-.04,.53-.09,.81c.27-.02,.53-.03,.79-.04,.26,0,.52-.02,.79-.04v1.02h-5.1v-.75Z"/>
    <path d="M444.97,254.54c-1.15,0-2.19-.27-3.11-.81-.92-.54-1.65-1.31-2.19-2.3s-.8-2.16-.8-3.51c0-1.17,.26-2.26,.79-3.28,.52-1.02,1.26-1.84,2.21-2.46s2.05-.94,3.3-.94c.7,0,1.35,.11,1.96,.34,.61,.23,1.15,.57,1.61,1.03,.47,.46,.83,1.03,1.1,1.72,.27,.69,.4,1.5,.4,2.44l-8.8,.15c0,1.27,.14,2.38,.41,3.34,.28,.96,.72,1.7,1.34,2.22,.62,.53,1.41,.79,2.38,.79,.52,0,1.05-.09,1.59-.27,.54-.18,1.04-.43,1.51-.75,.47-.32,.84-.67,1.12-1.05l.6,.5c-.45,.7-.99,1.26-1.62,1.67-.63,.42-1.28,.72-1.95,.9-.67,.18-1.28,.28-1.85,.28Zm-3.45-8.67h6.38c0-.6-.09-1.18-.26-1.74s-.46-1.02-.86-1.38c-.4-.36-.92-.54-1.58-.54-.97,0-1.77,.29-2.41,.86-.64,.58-1.06,1.5-1.26,2.79Z"/>
    <path d="M459.05,254.14v-.75c.52,0,.88-.13,1.08-.39s.32-.62,.35-1.08c.03-.46,.05-.99,.05-1.59v-5.7c0-.27,0-.53,.01-.8,0-.27,.04-.54,.09-.83-.3,.02-.6,.03-.89,.05-.29,.02-.59,.03-.89,.05v-1.05c.73,0,1.29-.03,1.66-.1s.65-.15,.84-.25c.18-.1,.33-.21,.45-.33h.73c.03,.17,.05,.36,.06,.58,0,.22,.02,.47,.04,.75,.5-.43,1.08-.79,1.73-1.06,.65-.28,1.3-.41,1.95-.41,.83,0,1.53,.15,2.1,.45,.57,.3,1.01,.71,1.33,1.22,.57-.47,1.22-.86,1.96-1.19,.74-.32,1.47-.49,2.19-.49,1.45,0,2.52,.44,3.2,1.31s1.01,2.3,.97,4.29l-.02,4.65c0,.33,0,.63-.01,.89,0,.26-.04,.53-.09,.81,.27-.02,.53-.03,.79-.04,.26,0,.52-.02,.79-.04v1.02h-5.1v-.75c.52,0,.88-.13,1.08-.39,.2-.26,.32-.62,.35-1.08s.05-.99,.05-1.59v-3.5c0-1.43-.23-2.51-.69-3.23-.46-.72-1.18-1.07-2.16-1.05-.52,0-1.03,.12-1.55,.35-.52,.23-.97,.53-1.35,.88,.08,.27,.15,.55,.19,.86s.06,.63,.06,.96c-.02,.97-.02,1.94-.02,2.92s0,1.97-.03,2.95c0,.33,0,.63-.01,.89s-.04,.53-.09,.81c.27-.02,.53-.03,.79-.04,.26,0,.52-.02,.79-.04v1.02h-5.1v-.75c.52,0,.87-.13,1.06-.39s.31-.62,.35-1.08c.04-.46,.06-.99,.06-1.59l.03-3.5c.02-1.43-.19-2.52-.62-3.25-.43-.73-1.14-1.09-2.12-1.08-.52,0-1.03,.11-1.53,.34s-.92,.51-1.27,.86c0,.2,0,.41,.01,.64,0,.22,.01,.46,.01,.71v6.42c0,.33,0,.63-.01,.89,0,.26-.04,.53-.09,.81,.27-.02,.53-.03,.79-.04,.26,0,.52-.02,.79-.04v1.02h-5.1Z"/>
    <path d="M486.67,254.54c-.9,0-1.65-.17-2.26-.5-.61-.33-1.07-.9-1.38-1.7-.31-.8-.46-1.88-.46-3.25v-4.45c0-.27,0-.53,.01-.8,0-.27,.04-.54,.09-.83-.28,.02-.57,.03-.86,.04-.29,0-.58,.02-.86,.04v-1.03h.77c.72,0,1.24-.07,1.56-.21,.33-.14,.58-.29,.76-.46h.72v7.62c0,1.43,.2,2.5,.61,3.21,.41,.71,1.1,1.05,2.09,1.04,.63-.02,1.24-.21,1.81-.59s1.04-.82,1.39-1.34v-6.43c0-.4,0-.75,.03-1.04,.02-.29,.05-.58,.1-.86-.3,.02-.6,.03-.9,.04-.3,0-.6,.02-.9,.04v-1.03h.77c.72,0,1.24-.07,1.56-.21,.33-.14,.58-.29,.76-.46h.73l-.03,9.45c0,.27,0,.64-.03,1.12-.02,.48-.04,.89-.07,1.22,.3-.02,.6-.03,.9-.05,.3-.02,.6-.03,.9-.05v1.05h-3.58c-.05-.28-.09-.55-.11-.8-.03-.25-.05-.48-.06-.7-.52,.52-1.14,.96-1.88,1.34s-1.47,.56-2.2,.56Z"/>
    <path d="M496.32,253.39c.52,0,.88-.13,1.08-.39s.32-.62,.35-1.08c.03-.46,.05-.99,.05-1.59v-5.7c0-.27,0-.53,.01-.8,0-.27,.04-.54,.09-.83-.3,.02-.6,.03-.89,.04-.29,0-.59,.02-.89,.04v-1.03h.77c.72,0,1.21-.07,1.49-.21,.28-.14,.5-.29,.69-.46h.73c.03,.27,.06,.6,.08,.99,.02,.39,.03,.89,.05,1.49,.25-.42,.59-.83,1.02-1.23,.43-.4,.92-.73,1.46-1,.54-.27,1.11-.4,1.71-.4,.47,0,.88,.12,1.22,.38s.53,.65,.53,1.2c0,.13-.04,.3-.12,.49-.08,.19-.22,.36-.4,.5s-.42,.21-.72,.21c-.37-.02-.66-.16-.88-.44-.22-.27-.3-.6-.25-.96-.42-.02-.85,.09-1.29,.33s-.85,.55-1.24,.96c-.38,.41-.72,.89-1.03,1.44l.03,6.15c0,.33,0,.63-.01,.89s-.04,.53-.09,.81c.27-.02,.53-.03,.79-.04,.26,0,.52-.02,.79-.04v1.02h-5.12v-.75Z"/>
    <path d="M512.32,254.54c-1.02,0-1.93-.25-2.75-.76-.82-.51-1.46-1.24-1.94-2.19s-.71-2.07-.71-3.35c0-1.37,.28-2.58,.83-3.62s1.31-1.88,2.29-2.48c.98-.6,2.08-.9,3.31-.9,.55,0,1.1,.07,1.64,.21,.54,.14,.97,.3,1.29,.49v-3.43c0-.27,0-.52,.01-.76,0-.24,.03-.53,.06-.86-.3,.02-.6,.03-.89,.05-.29,.02-.59,.03-.89,.05v-1.05c.73,0,1.3-.03,1.7-.1,.4-.07,.7-.15,.91-.25,.21-.1,.37-.21,.49-.33h.73v16.23c0,.27,0,.53-.03,.8-.02,.27-.04,.57-.08,.9,.3-.02,.6-.03,.89-.05,.29-.02,.59-.03,.89-.05v1.05h-3.58c-.05-.25-.09-.48-.11-.69-.03-.21-.05-.41-.06-.61-.47,.52-1.04,.93-1.73,1.24-.68,.31-1.44,.46-2.27,.46Zm.9-1.22c.55,0,1.1-.16,1.66-.47,.56-.32,1.02-.71,1.39-1.18-.02-.2-.03-.41-.03-.64v-.74l.03-7.2c-.4-.3-.84-.52-1.31-.66-.48-.14-.96-.21-1.46-.21-.83,0-1.56,.24-2.17,.72-.62,.48-1.08,1.16-1.4,2.03-.32,.87-.46,1.88-.42,3.05,.03,1.02,.2,1.93,.49,2.73s.71,1.43,1.25,1.89,1.2,.69,1.99,.69Z"/>
    <path d="M527.97,254.54c-1.15,0-2.19-.27-3.11-.81-.92-.54-1.65-1.31-2.19-2.3s-.8-2.16-.8-3.51c0-1.17,.26-2.26,.79-3.28,.52-1.02,1.26-1.84,2.21-2.46s2.05-.94,3.3-.94c.7,0,1.35,.11,1.96,.34,.61,.23,1.15,.57,1.61,1.03,.47,.46,.83,1.03,1.1,1.72,.27,.69,.4,1.5,.4,2.44l-8.8,.15c0,1.27,.14,2.38,.41,3.34,.28,.96,.72,1.7,1.34,2.22,.62,.53,1.41,.79,2.38,.79,.52,0,1.05-.09,1.59-.27,.54-.18,1.04-.43,1.51-.75,.47-.32,.84-.67,1.12-1.05l.6,.5c-.45,.7-.99,1.26-1.62,1.67-.63,.42-1.28,.72-1.95,.9-.67,.18-1.28,.28-1.85,.28Zm-3.45-8.67h6.38c0-.6-.09-1.18-.26-1.74s-.46-1.02-.86-1.38c-.4-.36-.92-.54-1.58-.54-.97,0-1.77,.29-2.41,.86-.64,.58-1.06,1.5-1.26,2.79Z"/>
    <path d="M535.47,253.39c.52,0,.88-.13,1.08-.39s.32-.62,.35-1.08c.03-.46,.05-.99,.05-1.59v-5.7c0-.27,0-.53,.01-.8,0-.27,.04-.54,.09-.83-.3,.02-.6,.03-.89,.04-.29,0-.59,.02-.89,.04v-1.03h.77c.72,0,1.21-.07,1.49-.21,.28-.14,.5-.29,.69-.46h.73c.03,.27,.06,.6,.08,.99,.02,.39,.03,.89,.05,1.49,.25-.42,.59-.83,1.02-1.23,.43-.4,.92-.73,1.46-1,.54-.27,1.11-.4,1.71-.4,.47,0,.88,.12,1.22,.38s.53,.65,.53,1.2c0,.13-.04,.3-.12,.49-.08,.19-.22,.36-.4,.5s-.42,.21-.72,.21c-.37-.02-.66-.16-.88-.44-.22-.27-.3-.6-.25-.96-.42-.02-.85,.09-1.29,.33s-.85,.55-1.24,.96c-.38,.41-.72,.89-1.03,1.44l.03,6.15c0,.33,0,.63-.01,.89s-.04,.53-.09,.81c.27-.02,.53-.03,.79-.04,.26,0,.52-.02,.79-.04v1.02h-5.12v-.75Z"/>
    <path d="M552.17,254.54c-1.15,0-2.19-.27-3.11-.81-.92-.54-1.65-1.31-2.19-2.3s-.8-2.16-.8-3.51c0-1.17,.26-2.26,.79-3.28,.52-1.02,1.26-1.84,2.21-2.46s2.05-.94,3.3-.94c.7,0,1.35,.11,1.96,.34,.61,.23,1.15,.57,1.61,1.03,.47,.46,.83,1.03,1.1,1.72,.27,.69,.4,1.5,.4,2.44l-8.8,.15c0,1.27,.14,2.38,.41,3.34,.28,.96,.72,1.7,1.34,2.22,.62,.53,1.41,.79,2.38,.79,.52,0,1.05-.09,1.59-.27,.54-.18,1.04-.43,1.51-.75,.47-.32,.84-.67,1.12-1.05l.6,.5c-.45,.7-.99,1.26-1.62,1.67-.63,.42-1.28,.72-1.95,.9-.67,.18-1.28,.28-1.85,.28Zm-3.45-8.67h6.38c0-.6-.09-1.18-.26-1.74s-.46-1.02-.86-1.38c-.4-.36-.92-.54-1.58-.54-.97,0-1.77,.29-2.41,.86-.64,.58-1.06,1.5-1.26,2.79Z"/>
    <path d="M559.67,253.39c.52,0,.88-.13,1.08-.39s.32-.62,.35-1.08c.03-.46,.05-.99,.05-1.59v-5.7c0-.27,0-.53,.01-.8,0-.27,.04-.54,.09-.83-.3,.02-.6,.03-.89,.04-.29,0-.59,.02-.89,.04v-1.03h.77c.72,0,1.21-.07,1.49-.21,.28-.14,.5-.29,.69-.46h.73c.03,.27,.06,.6,.08,.99,.02,.39,.03,.89,.05,1.49,.25-.42,.59-.83,1.02-1.23,.43-.4,.92-.73,1.46-1,.54-.27,1.11-.4,1.71-.4,.47,0,.88,.12,1.22,.38s.53,.65,.53,1.2c0,.13-.04,.3-.12,.49-.08,.19-.22,.36-.4,.5s-.42,.21-.72,.21c-.37-.02-.66-.16-.88-.44-.22-.27-.3-.6-.25-.96-.42-.02-.85,.09-1.29,.33s-.85,.55-1.24,.96c-.38,.41-.72,.89-1.03,1.44l.03,6.15c0,.33,0,.63-.01,.89s-.04,.53-.09,.81c.27-.02,.53-.03,.79-.04,.26,0,.52-.02,.79-.04v1.02h-5.12v-.75Z"/>
    <path d="M308.74,283.39c.52,0,.88-.13,1.08-.39s.32-.62,.35-1.08c.03-.46,.05-.99,.05-1.59v-5.7c0-.27,0-.52,.02-.76s.04-.53,.08-.86c-.3,.02-.6,.03-.89,.05-.29,.02-.59,.03-.89,.05v-1.05c.73,0,1.3-.03,1.7-.1,.4-.07,.7-.15,.91-.25,.21-.1,.37-.21,.49-.33h.72v10.1c0,.33,0,.63-.01,.89,0,.26-.04,.53-.09,.81,.27-.02,.53-.03,.79-.04,.26,0,.52-.02,.79-.04v1.02h-5.1v-.75Zm2.43-14.47c-.35,0-.66-.14-.93-.42-.27-.28-.4-.63-.4-1.05s.14-.77,.41-1.06c.28-.29,.59-.44,.94-.44,.38,0,.7,.15,.96,.44,.26,.29,.39,.65,.39,1.06s-.14,.77-.41,1.05c-.27,.28-.6,.42-.96,.42Z"/>
    <path d="M320.89,284.54c-.83,0-1.57-.11-2.22-.34-.65-.22-1.18-.48-1.6-.76l.1,.88h-1.05l-.15-4.3h.78c.03,.68,.22,1.3,.58,1.84,.35,.54,.8,.96,1.35,1.26s1.14,.45,1.78,.45c.43,0,.86-.07,1.27-.21,.42-.14,.77-.36,1.05-.65,.28-.29,.43-.66,.43-1.11s-.14-.85-.41-1.16c-.27-.31-.64-.58-1.09-.81-.45-.23-.93-.45-1.45-.65-.5-.2-1-.41-1.5-.62s-.96-.48-1.39-.78c-.42-.3-.76-.67-1.01-1.1s-.38-.97-.38-1.6c0-.35,.07-.73,.2-1.15,.13-.42,.36-.81,.67-1.19s.75-.68,1.3-.93c.55-.24,1.25-.36,2.1-.36,.45,0,.95,.08,1.5,.23,.55,.15,1.08,.43,1.6,.85l-.05-.95h1.05v4.38h-.8c-.03-.58-.17-1.15-.4-1.69s-.57-.99-1.02-1.35c-.45-.36-1.03-.54-1.75-.54-.77,0-1.37,.19-1.8,.58-.43,.38-.65,.83-.65,1.33s.16,.95,.49,1.29,.75,.64,1.26,.89,1.07,.49,1.65,.73c.63,.27,1.25,.56,1.85,.88s1.09,.71,1.47,1.19c.38,.47,.58,1.09,.58,1.84,0,.83-.21,1.52-.64,2.08-.42,.55-.97,.95-1.62,1.21-.66,.26-1.35,.39-2.06,.39Z"/>
    <path d="M333.91,284.14v-.75c.52,0,.88-.13,1.08-.39s.32-.62,.35-1.08c.03-.46,.05-.99,.05-1.59l.02-5.7c0-.27,0-.53,.01-.8,0-.27,.04-.54,.09-.83-.3,.02-.6,.03-.89,.05-.29,.02-.59,.03-.89,.05v-1.05c.73,0,1.29-.03,1.66-.1s.65-.15,.84-.25c.18-.1,.33-.21,.45-.33h.72c.02,.12,.03,.25,.04,.4,0,.15,.02,.32,.04,.5s.03,.39,.03,.62c.37-.32,.77-.6,1.21-.85s.91-.45,1.4-.6c.49-.15,.98-.23,1.46-.23,1.45,0,2.51,.45,3.17,1.36,.67,.91,1,2.32,1,4.24v4.65c0,.33,0,.63-.01,.89,0,.26-.04,.53-.09,.81,.27-.02,.53-.03,.79-.04,.26,0,.52-.02,.79-.04v1.02h-5.1v-.75c.52,0,.88-.13,1.08-.39,.2-.26,.32-.62,.35-1.08s.05-.99,.05-1.59v-3.5c-.02-1.43-.25-2.52-.71-3.25-.46-.73-1.18-1.09-2.16-1.08-.6,.02-1.19,.18-1.76,.48-.57,.3-1.05,.68-1.44,1.15,.02,.13,.03,.28,.03,.45v.52l-.03,6.38c0,.33,0,.63-.01,.89,0,.26-.04,.53-.09,.81,.27-.02,.53-.03,.79-.04,.26,0,.52-.02,.79-.04v1.02h-5.1Z"/>
    <path d="M355.29,284.54c-1.17,0-2.22-.27-3.17-.81s-1.7-1.29-2.26-2.25c-.56-.96-.84-2.05-.84-3.29,0-1.32,.27-2.5,.82-3.55,.55-1.05,1.3-1.88,2.25-2.49,.95-.61,2.02-.91,3.2-.91s2.23,.28,3.17,.84c.95,.56,1.71,1.31,2.28,2.26,.57,.95,.85,2.03,.85,3.25,0,1.28-.28,2.45-.84,3.51-.56,1.06-1.31,1.9-2.26,2.51s-2.02,.92-3.2,.92Zm.2-1c.88,0,1.58-.25,2.1-.75s.89-1.15,1.11-1.95c.22-.8,.34-1.64,.34-2.53,0-.75-.07-1.49-.21-2.21-.14-.72-.36-1.38-.66-1.97s-.69-1.06-1.16-1.41c-.48-.35-1.05-.53-1.71-.53-.87,0-1.58,.25-2.12,.75s-.95,1.15-1.21,1.95c-.26,.8-.39,1.66-.39,2.58,0,1.03,.14,2.01,.42,2.94,.28,.92,.72,1.68,1.3,2.26,.58,.58,1.32,.88,2.2,.88Z"/>
    <path d="M367.77,284.22l-3.28-9.6c-.12-.35-.22-.65-.31-.9s-.16-.47-.21-.65c-.05-.18-.09-.34-.12-.47l-1.32,.07v-1.03h5.3v.75c-.75,.02-1.16,.27-1.24,.76-.08,.49,.02,1.14,.29,1.94l1.15,3.5c.13,.4,.27,.8,.4,1.21,.13,.41,.27,.81,.4,1.21,.15-.45,.3-.9,.46-1.36,.16-.46,.31-.92,.46-1.39l2.22-6.62h1.03l2.53,7.28c.13,.37,.27,.74,.4,1.12,.13,.38,.27,.77,.4,1.15,.13-.37,.26-.73,.39-1.09,.12-.36,.25-.72,.36-1.09l1.65-4.75c.12-.33,.23-.65,.35-.95,.12-.3,.25-.54,.4-.72l-1.45,.07v-1.03h4.35v.75c-.43,.02-.79,.08-1.06,.18s-.5,.23-.69,.4c-.18,.17-.33,.37-.45,.6s-.22,.5-.33,.8l-3.6,9.85h-1l-2.38-6.83c-.1-.3-.2-.6-.3-.89-.1-.29-.2-.58-.3-.88-.1-.29-.2-.58-.3-.86-.1,.28-.2,.57-.3,.86-.1,.29-.2,.58-.3,.88s-.2,.59-.3,.89l-2.35,6.83h-.95Z"/>
    <path d="M390.06,283.39c.52,0,.88-.13,1.08-.39s.32-.62,.35-1.08c.03-.46,.05-.99,.05-1.59v-5.7c0-.27,0-.52,.02-.76s.04-.53,.08-.86c-.3,.02-.6,.03-.89,.05-.29,.02-.59,.03-.89,.05v-1.05c.73,0,1.3-.03,1.7-.1,.4-.07,.7-.15,.91-.25,.21-.1,.37-.21,.49-.33h.72v10.1c0,.33,0,.63-.01,.89,0,.26-.04,.53-.09,.81,.27-.02,.53-.03,.79-.04,.26,0,.52-.02,.79-.04v1.02h-5.1v-.75Zm2.43-14.47c-.35,0-.66-.14-.93-.42-.27-.28-.4-.63-.4-1.05s.14-.77,.41-1.06c.28-.29,.59-.44,.94-.44,.38,0,.7,.15,.96,.44,.26,.29,.39,.65,.39,1.06s-.14,.77-.41,1.05c-.27,.28-.6,.42-.96,.42Z"/>
    <path d="M397.09,284.14v-.75c.52,0,.88-.13,1.08-.39s.32-.62,.35-1.08c.03-.46,.05-.99,.05-1.59l.02-5.7c0-.27,0-.53,.01-.8,0-.27,.04-.54,.09-.83-.3,.02-.6,.03-.89,.05-.29,.02-.59,.03-.89,.05v-1.05c.73,0,1.29-.03,1.66-.1s.65-.15,.84-.25c.18-.1,.33-.21,.45-.33h.72c.02,.12,.03,.25,.04,.4,0,.15,.02,.32,.04,.5s.03,.39,.03,.62c.37-.32,.77-.6,1.21-.85s.91-.45,1.4-.6c.49-.15,.98-.23,1.46-.23,1.45,0,2.51,.45,3.17,1.36,.67,.91,1,2.32,1,4.24v4.65c0,.33,0,.63-.01,.89,0,.26-.04,.53-.09,.81,.27-.02,.53-.03,.79-.04,.26,0,.52-.02,.79-.04v1.02h-5.1v-.75c.52,0,.88-.13,1.08-.39,.2-.26,.32-.62,.35-1.08s.05-.99,.05-1.59v-3.5c-.02-1.43-.25-2.52-.71-3.25-.46-.73-1.18-1.09-2.16-1.08-.6,.02-1.19,.18-1.76,.48-.57,.3-1.05,.68-1.44,1.15,.02,.13,.03,.28,.03,.45v.52l-.03,6.38c0,.33,0,.63-.01,.89,0,.26-.04,.53-.09,.81,.27-.02,.53-.03,.79-.04,.26,0,.52-.02,.79-.04v1.02h-5.1Z"/>
    <path d="M418.61,290.51v-.75c.52,0,.88-.13,1.08-.39,.2-.26,.32-.62,.35-1.08s.05-.99,.05-1.59l.05-12.08c0-.27,0-.53,.01-.8,0-.27,.04-.54,.09-.83-.3,.02-.6,.03-.89,.05s-.59,.03-.89,.05v-1.05c.73,0,1.29-.03,1.66-.1s.65-.15,.83-.25c.17-.1,.32-.21,.44-.33h.75c.02,.17,.03,.36,.05,.59s.03,.48,.05,.76c.5-.45,1.1-.81,1.79-1.09,.69-.28,1.39-.41,2.09-.41,.97,0,1.87,.25,2.7,.75,.83,.5,1.51,1.21,2.02,2.14,.52,.92,.78,2.03,.78,3.31,0,1.42-.3,2.66-.89,3.72s-1.37,1.9-2.34,2.49c-.97,.59-2.02,.89-3.15,.89-.58,0-1.12-.07-1.61-.21-.49-.14-.95-.35-1.39-.61v4.15c0,.33,0,.63-.01,.89,0,.26-.04,.53-.09,.81,.27-.02,.53-.03,.79-.04,.26,0,.52-.02,.79-.04v1.02h-5.1Zm6.58-6.97c.8,0,1.49-.25,2.06-.74s1.02-1.17,1.33-2.02c.31-.86,.46-1.84,.46-2.94,0-.9-.13-1.76-.39-2.59-.26-.83-.67-1.5-1.22-2.01s-1.3-.77-2.21-.77c-.57,0-1.11,.14-1.64,.41-.53,.28-.96,.6-1.31,.99,0,.07,0,.16,.01,.29,0,.12,.01,.34,.01,.65v1.38c0,.61,0,1.43-.01,2.46,0,1.03-.01,2.34-.01,3.93,.42,.32,.87,.56,1.36,.72,.49,.17,1.01,.25,1.56,.25Z"/>
    <path d="M433.76,283.39c.52,0,.88-.13,1.08-.39s.32-.62,.35-1.08c.03-.46,.05-.99,.05-1.59v-5.7c0-.27,0-.53,.01-.8,0-.27,.04-.54,.09-.83-.3,.02-.6,.03-.89,.04-.29,0-.59,.02-.89,.04v-1.03h.77c.72,0,1.21-.07,1.49-.21,.28-.14,.5-.29,.69-.46h.73c.03,.27,.06,.6,.08,.99,.02,.39,.03,.89,.05,1.49,.25-.42,.59-.83,1.02-1.23,.43-.4,.92-.73,1.46-1,.54-.27,1.11-.4,1.71-.4,.47,0,.88,.12,1.22,.38s.53,.65,.53,1.2c0,.13-.04,.3-.12,.49-.08,.19-.22,.36-.4,.5s-.42,.21-.72,.21c-.37-.02-.66-.16-.88-.44-.22-.27-.3-.6-.25-.96-.42-.02-.85,.09-1.29,.33s-.85,.55-1.24,.96c-.38,.41-.72,.89-1.03,1.44l.03,6.15c0,.33,0,.63-.01,.89s-.04,.53-.09,.81c.27-.02,.53-.03,.79-.04,.26,0,.52-.02,.79-.04v1.02h-5.12v-.75Z"/>
    <path d="M444.59,283.39c.52,0,.88-.13,1.08-.39s.32-.62,.35-1.08c.03-.46,.05-.99,.05-1.59v-5.7c0-.27,0-.52,.02-.76s.04-.53,.08-.86c-.3,.02-.6,.03-.89,.05-.29,.02-.59,.03-.89,.05v-1.05c.73,0,1.3-.03,1.7-.1,.4-.07,.7-.15,.91-.25,.21-.1,.37-.21,.49-.33h.72v10.1c0,.33,0,.63-.01,.89,0,.26-.04,.53-.09,.81,.27-.02,.53-.03,.79-.04,.26,0,.52-.02,.79-.04v1.02h-5.1v-.75Zm2.43-14.47c-.35,0-.66-.14-.93-.42-.27-.28-.4-.63-.4-1.05s.14-.77,.41-1.06c.28-.29,.59-.44,.94-.44,.38,0,.7,.15,.96,.44,.26,.29,.39,.65,.39,1.06s-.14,.77-.41,1.05c-.27,.28-.6,.42-.96,.42Z"/>
    <path d="M456.74,284.54c-.83,0-1.57-.11-2.22-.34-.65-.22-1.18-.48-1.6-.76l.1,.88h-1.05l-.15-4.3h.78c.03,.68,.22,1.3,.58,1.84,.35,.54,.8,.96,1.35,1.26s1.14,.45,1.78,.45c.43,0,.86-.07,1.27-.21,.42-.14,.77-.36,1.05-.65,.28-.29,.43-.66,.43-1.11s-.14-.85-.41-1.16c-.27-.31-.64-.58-1.09-.81-.45-.23-.93-.45-1.45-.65-.5-.2-1-.41-1.5-.62s-.96-.48-1.39-.78c-.42-.3-.76-.67-1.01-1.1s-.38-.97-.38-1.6c0-.35,.07-.73,.2-1.15,.13-.42,.36-.81,.67-1.19s.75-.68,1.3-.93c.55-.24,1.25-.36,2.1-.36,.45,0,.95,.08,1.5,.23,.55,.15,1.08,.43,1.6,.85l-.05-.95h1.05v4.38h-.8c-.03-.58-.17-1.15-.4-1.69s-.57-.99-1.02-1.35c-.45-.36-1.03-.54-1.75-.54-.77,0-1.37,.19-1.8,.58-.43,.38-.65,.83-.65,1.33s.16,.95,.49,1.29,.75,.64,1.26,.89,1.07,.49,1.65,.73c.63,.27,1.25,.56,1.85,.88s1.09,.71,1.47,1.19c.38,.47,.58,1.09,.58,1.84,0,.83-.21,1.52-.64,2.08-.42,.55-.97,.95-1.62,1.21-.66,.26-1.35,.39-2.06,.39Z"/>
    <path d="M469.39,284.54c-1.17,0-2.22-.27-3.17-.81s-1.7-1.29-2.26-2.25c-.56-.96-.84-2.05-.84-3.29,0-1.32,.27-2.5,.82-3.55,.55-1.05,1.3-1.88,2.25-2.49,.95-.61,2.02-.91,3.2-.91s2.23,.28,3.17,.84c.95,.56,1.71,1.31,2.28,2.26,.57,.95,.85,2.03,.85,3.25,0,1.28-.28,2.45-.84,3.51-.56,1.06-1.31,1.9-2.26,2.51s-2.02,.92-3.2,.92Zm.2-1c.88,0,1.58-.25,2.1-.75s.89-1.15,1.11-1.95c.22-.8,.34-1.64,.34-2.53,0-.75-.07-1.49-.21-2.21-.14-.72-.36-1.38-.66-1.97s-.69-1.06-1.16-1.41c-.48-.35-1.05-.53-1.71-.53-.87,0-1.58,.25-2.12,.75s-.95,1.15-1.21,1.95c-.26,.8-.39,1.66-.39,2.58,0,1.03,.14,2.01,.42,2.94,.28,.92,.72,1.68,1.3,2.26,.58,.58,1.32,.88,2.2,.88Z"/>
    <path d="M477.81,284.14v-.75c.52,0,.88-.13,1.08-.39s.32-.62,.35-1.08c.03-.46,.05-.99,.05-1.59l.02-5.7c0-.27,0-.53,.01-.8,0-.27,.04-.54,.09-.83-.3,.02-.6,.03-.89,.05-.29,.02-.59,.03-.89,.05v-1.05c.73,0,1.29-.03,1.66-.1s.65-.15,.84-.25c.18-.1,.33-.21,.45-.33h.72c.02,.12,.03,.25,.04,.4,0,.15,.02,.32,.04,.5s.03,.39,.03,.62c.37-.32,.77-.6,1.21-.85s.91-.45,1.4-.6c.49-.15,.98-.23,1.46-.23,1.45,0,2.51,.45,3.17,1.36,.67,.91,1,2.32,1,4.24v4.65c0,.33,0,.63-.01,.89,0,.26-.04,.53-.09,.81,.27-.02,.53-.03,.79-.04,.26,0,.52-.02,.79-.04v1.02h-5.1v-.75c.52,0,.88-.13,1.08-.39,.2-.26,.32-.62,.35-1.08s.05-.99,.05-1.59v-3.5c-.02-1.43-.25-2.52-.71-3.25-.46-.73-1.18-1.09-2.16-1.08-.6,.02-1.19,.18-1.76,.48-.57,.3-1.05,.68-1.44,1.15,.02,.13,.03,.28,.03,.45v.52l-.03,6.38c0,.33,0,.63-.01,.89,0,.26-.04,.53-.09,.81,.27-.02,.53-.03,.79-.04,.26,0,.52-.02,.79-.04v1.02h-5.1Z"/>
    <path d="M494.94,284.54c-.38,0-.72-.15-1.01-.46-.29-.31-.44-.69-.44-1.14s.15-.83,.45-1.15,.64-.47,1.03-.47c.42,0,.76,.16,1.04,.47,.28,.32,.41,.7,.41,1.15s-.15,.83-.45,1.14c-.3,.31-.64,.46-1.03,.46Z"/>
    <path d="M222.84,297.47c-.62,.02-1.05,.16-1.29,.42-.24,.27-.38,.62-.4,1.08-.03,.45-.04,.97-.04,1.57v10.62c0,.45,0,.84-.01,1.16,0,.33-.03,.6-.06,.81,.3-.02,.6-.03,.9-.05,.3-.02,.6-.03,.9-.05v1.1h-5.62v-.82c.63-.03,1.07-.18,1.3-.44s.36-.62,.39-1.08,.04-.98,.04-1.56v-10.8c0-.33,0-.65,.03-.96s.03-.59,.05-.84c-.3,.02-.6,.03-.9,.05-.3,.02-.6,.03-.9,.05v-1.1h5.62v.83Z"/>
    <path d="M239.92,313.39c.52,0,.88-.13,1.08-.39s.32-.62,.35-1.08,.05-.99,.05-1.59v-3.5c0-1.43-.23-2.51-.69-3.23-.46-.72-1.18-1.07-2.16-1.05-.62,.02-1.22,.17-1.81,.45-.59,.28-1.07,.65-1.44,1.1v7.38c0,.33,0,.63-.03,.89s-.05,.53-.1,.81c.27-.02,.53-.03,.79-.04,.26,0,.52-.02,.79-.04v1.02h-5.1v-.75c.52,0,.88-.13,1.08-.39s.32-.62,.36-1.08c.04-.46,.06-.99,.06-1.59v-11.83c0-.27,0-.52,.01-.76s.03-.53,.06-.86c-.3,.02-.6,.03-.89,.05-.29,.02-.59,.03-.89,.05v-1.05c.73,0,1.3-.03,1.71-.1s.72-.15,.92-.25c.21-.1,.37-.21,.49-.33h.72v7.62c.37-.32,.78-.6,1.24-.84s.93-.44,1.42-.59c.49-.15,.97-.23,1.44-.23,1.45,0,2.5,.45,3.14,1.36s.97,2.32,.99,4.24l.03,4.65c0,.33,0,.63-.01,.89s-.04,.53-.09,.81c.27-.02,.53-.03,.79-.04,.26,0,.52-.02,.79-.04v1.02h-5.1v-.75Z"/>
    <path d="M254.47,314.14c-.05-.28-.08-.53-.1-.75-.02-.22-.04-.44-.07-.67-.57,.57-1.18,1.01-1.84,1.34s-1.35,.49-2.09,.49c-1.27,0-2.21-.29-2.82-.86-.62-.58-.93-1.28-.93-2.11,0-.77,.24-1.43,.71-1.99,.47-.56,1.09-1.02,1.85-1.38,.76-.36,1.58-.62,2.48-.8,.89-.18,1.75-.25,2.59-.24v-1.55c0-.58-.05-1.13-.15-1.65-.1-.52-.32-.94-.65-1.28s-.87-.51-1.6-.53c-.48-.02-.98,.08-1.49,.28-.51,.2-.88,.54-1.11,1.03,.13,.13,.22,.29,.26,.46s.06,.34,.06,.49c0,.2-.08,.43-.25,.69-.17,.26-.46,.38-.88,.36-.35,0-.62-.12-.8-.36-.18-.24-.28-.53-.28-.86,0-.57,.21-1.08,.64-1.52,.42-.45,1.01-.81,1.76-1.08,.75-.27,1.6-.4,2.55-.4,1.4,0,2.43,.37,3.1,1.11,.67,.74,.99,1.91,.97,3.51v1.86c0,.62,0,1.25-.01,1.88s-.01,1.25-.01,1.89c0,.27,0,.53-.02,.8-.02,.27-.04,.57-.08,.9,.3-.02,.6-.03,.89-.05,.29-.02,.59-.03,.89-.05v1.05h-3.58Zm-.23-6.12c-.57,.02-1.16,.09-1.79,.21s-1.2,.31-1.72,.56c-.53,.25-.95,.58-1.28,.99s-.48,.9-.46,1.49c.03,.62,.24,1.08,.61,1.39s.82,.46,1.34,.46c.68,0,1.28-.13,1.79-.39,.51-.26,1.01-.62,1.51-1.09-.02-.18-.02-.38-.02-.6v-.67c0-.08,0-.35,.01-.8,0-.45,.01-.97,.01-1.55Z"/>
    <path d="M264.21,314.22l-3.57-8.15c-.27-.63-.48-1.18-.62-1.62-.15-.45-.25-.83-.31-1.12-.06-.3-.1-.54-.11-.72l-1.07,.07v-1.03h4.6v.75c-.5,0-.82,.13-.96,.39-.14,.26-.16,.6-.06,1.02,.1,.42,.25,.88,.45,1.36l1.92,4.4c.13,.28,.26,.58,.39,.89,.12,.31,.25,.63,.36,.96h.03c.08-.25,.18-.52,.29-.8,.11-.28,.2-.56,.29-.83l2-5.47c.13-.4,.27-.75,.42-1.05,.15-.3,.26-.52,.33-.67l-1.6,.07v-1.03h3.95v.75c-.37,0-.67,.12-.92,.38s-.49,.62-.71,1.12c-.22,.5-.49,1.12-.79,1.88l-3.28,8.45h-1Z"/>
    <path d="M278.02,314.54c-1.15,0-2.19-.27-3.11-.81-.92-.54-1.65-1.31-2.19-2.3s-.8-2.16-.8-3.51c0-1.17,.26-2.26,.79-3.28,.52-1.02,1.26-1.84,2.21-2.46s2.05-.94,3.3-.94c.7,0,1.35,.11,1.96,.34,.61,.23,1.15,.57,1.61,1.03,.47,.46,.83,1.03,1.1,1.72,.27,.69,.4,1.5,.4,2.44l-8.8,.15c0,1.27,.14,2.38,.41,3.34,.28,.96,.72,1.7,1.34,2.22,.62,.53,1.41,.79,2.38,.79,.52,0,1.05-.09,1.59-.27,.54-.18,1.04-.43,1.51-.75,.47-.32,.84-.67,1.12-1.05l.6,.5c-.45,.7-.99,1.26-1.62,1.67-.63,.42-1.28,.72-1.95,.9-.67,.18-1.28,.28-1.85,.28Zm-3.45-8.67h6.38c0-.6-.09-1.18-.26-1.74s-.46-1.02-.86-1.38c-.4-.36-.92-.54-1.58-.54-.97,0-1.77,.29-2.41,.86-.64,.58-1.06,1.5-1.26,2.79Z"/>
    <path d="M297.21,314.54c-.83,0-1.57-.11-2.22-.34-.65-.22-1.18-.48-1.6-.76l.1,.88h-1.05l-.15-4.3h.78c.03,.68,.22,1.3,.58,1.84,.35,.54,.8,.96,1.35,1.26s1.14,.45,1.78,.45c.43,0,.86-.07,1.27-.21,.42-.14,.77-.36,1.05-.65,.28-.29,.43-.66,.43-1.11s-.14-.85-.41-1.16c-.27-.31-.64-.58-1.09-.81-.45-.23-.93-.45-1.45-.65-.5-.2-1-.41-1.5-.62s-.96-.48-1.39-.78c-.42-.3-.76-.67-1.01-1.1s-.38-.97-.38-1.6c0-.35,.07-.73,.2-1.15,.13-.42,.36-.81,.67-1.19s.75-.68,1.3-.93c.55-.24,1.25-.36,2.1-.36,.45,0,.95,.08,1.5,.23,.55,.15,1.08,.43,1.6,.85l-.05-.95h1.05v4.38h-.8c-.03-.58-.17-1.15-.4-1.69s-.57-.99-1.02-1.35c-.45-.36-1.03-.54-1.75-.54-.77,0-1.37,.19-1.8,.58-.43,.38-.65,.83-.65,1.33s.16,.95,.49,1.29,.75,.64,1.26,.89,1.07,.49,1.65,.73c.63,.27,1.25,.56,1.85,.88s1.09,.71,1.47,1.19c.38,.47,.58,1.09,.58,1.84,0,.83-.21,1.52-.64,2.08-.42,.55-.97,.95-1.62,1.21-.66,.26-1.35,.39-2.06,.39Z"/>
    <path d="M309.71,314.54c-1.15,0-2.19-.27-3.11-.81-.92-.54-1.65-1.31-2.19-2.3s-.8-2.16-.8-3.51c0-1.17,.26-2.26,.79-3.28,.52-1.02,1.26-1.84,2.21-2.46s2.05-.94,3.3-.94c.7,0,1.35,.11,1.96,.34,.61,.23,1.15,.57,1.61,1.03,.47,.46,.83,1.03,1.1,1.72,.27,.69,.4,1.5,.4,2.44l-8.8,.15c0,1.27,.14,2.38,.41,3.34,.28,.96,.72,1.7,1.34,2.22,.62,.53,1.41,.79,2.38,.79,.52,0,1.05-.09,1.59-.27,.54-.18,1.04-.43,1.51-.75,.47-.32,.84-.67,1.12-1.05l.6,.5c-.45,.7-.99,1.26-1.62,1.67-.63,.42-1.28,.72-1.95,.9-.67,.18-1.28,.28-1.85,.28Zm-3.45-8.67h6.38c0-.6-.09-1.18-.26-1.74s-.46-1.02-.86-1.38c-.4-.36-.92-.54-1.58-.54-.97,0-1.77,.29-2.41,.86-.64,.58-1.06,1.5-1.26,2.79Z"/>
    <path d="M323.14,314.54c-1.15,0-2.19-.27-3.11-.81-.92-.54-1.65-1.31-2.19-2.3s-.8-2.16-.8-3.51c0-1.17,.26-2.26,.79-3.28,.52-1.02,1.26-1.84,2.21-2.46s2.05-.94,3.3-.94c.7,0,1.35,.11,1.96,.34,.61,.23,1.15,.57,1.61,1.03,.47,.46,.83,1.03,1.1,1.72,.27,.69,.4,1.5,.4,2.44l-8.8,.15c0,1.27,.14,2.38,.41,3.34,.28,.96,.72,1.7,1.34,2.22,.62,.53,1.41,.79,2.38,.79,.52,0,1.05-.09,1.59-.27,.54-.18,1.04-.43,1.51-.75,.47-.32,.84-.67,1.12-1.05l.6,.5c-.45,.7-.99,1.26-1.62,1.67-.63,.42-1.28,.72-1.95,.9-.67,.18-1.28,.28-1.85,.28Zm-3.45-8.67h6.38c0-.6-.09-1.18-.26-1.74s-.46-1.02-.86-1.38c-.4-.36-.92-.54-1.58-.54-.97,0-1.77,.29-2.41,.86-.64,.58-1.06,1.5-1.26,2.79Z"/>
    <path d="M330.64,314.14v-.75c.52,0,.88-.13,1.08-.39s.32-.62,.35-1.08c.03-.46,.05-.99,.05-1.59l.02-5.7c0-.27,0-.53,.01-.8,0-.27,.04-.54,.09-.83-.3,.02-.6,.03-.89,.05-.29,.02-.59,.03-.89,.05v-1.05c.73,0,1.29-.03,1.66-.1s.65-.15,.84-.25c.18-.1,.33-.21,.45-.33h.72c.02,.12,.03,.25,.04,.4,0,.15,.02,.32,.04,.5s.03,.39,.03,.62c.37-.32,.77-.6,1.21-.85s.91-.45,1.4-.6c.49-.15,.98-.23,1.46-.23,1.45,0,2.51,.45,3.17,1.36,.67,.91,1,2.32,1,4.24v4.65c0,.33,0,.63-.01,.89,0,.26-.04,.53-.09,.81,.27-.02,.53-.03,.79-.04,.26,0,.52-.02,.79-.04v1.02h-5.1v-.75c.52,0,.88-.13,1.08-.39,.2-.26,.32-.62,.35-1.08s.05-.99,.05-1.59v-3.5c-.02-1.43-.25-2.52-.71-3.25-.46-.73-1.18-1.09-2.16-1.08-.6,.02-1.19,.18-1.76,.48-.57,.3-1.05,.68-1.44,1.15,.02,.13,.03,.28,.03,.45v.52l-.03,6.38c0,.33,0,.63-.01,.89,0,.26-.04,.53-.09,.81,.27-.02,.53-.03,.79-.04,.26,0,.52-.02,.79-.04v1.02h-5.1Z"/>
    <path d="M352.39,314.14v-.75c.52,0,.88-.13,1.08-.39s.32-.62,.35-1.08c.03-.46,.05-.99,.05-1.59v-5.7c0-.27,0-.53,.01-.8,0-.27,.04-.54,.09-.83-.3,.02-.6,.03-.89,.05-.29,.02-.59,.03-.89,.05v-1.05c.73,0,1.29-.03,1.66-.1s.65-.15,.84-.25c.18-.1,.33-.21,.45-.33h.73c.03,.17,.05,.36,.06,.58,0,.22,.02,.47,.04,.75,.5-.43,1.08-.79,1.73-1.06,.65-.28,1.3-.41,1.95-.41,.83,0,1.53,.15,2.1,.45,.57,.3,1.01,.71,1.33,1.22,.57-.47,1.22-.86,1.96-1.19,.74-.32,1.47-.49,2.19-.49,1.45,0,2.52,.44,3.2,1.31s1.01,2.3,.97,4.29l-.02,4.65c0,.33,0,.63-.01,.89,0,.26-.04,.53-.09,.81,.27-.02,.53-.03,.79-.04,.26,0,.52-.02,.79-.04v1.02h-5.1v-.75c.52,0,.88-.13,1.08-.39,.2-.26,.32-.62,.35-1.08s.05-.99,.05-1.59v-3.5c0-1.43-.23-2.51-.69-3.23-.46-.72-1.18-1.07-2.16-1.05-.52,0-1.03,.12-1.55,.35-.52,.23-.97,.53-1.35,.88,.08,.27,.15,.55,.19,.86s.06,.63,.06,.96c-.02,.97-.02,1.94-.02,2.92s0,1.97-.03,2.95c0,.33,0,.63-.01,.89s-.04,.53-.09,.81c.27-.02,.53-.03,.79-.04,.26,0,.52-.02,.79-.04v1.02h-5.1v-.75c.52,0,.87-.13,1.06-.39s.31-.62,.35-1.08c.04-.46,.06-.99,.06-1.59l.03-3.5c.02-1.43-.19-2.52-.62-3.25-.43-.73-1.14-1.09-2.12-1.08-.52,0-1.03,.11-1.53,.34s-.92,.51-1.27,.86c0,.2,0,.41,.01,.64,0,.22,.01,.46,.01,.71v6.42c0,.33,0,.63-.01,.89,0,.26-.04,.53-.09,.81,.27-.02,.53-.03,.79-.04,.26,0,.52-.02,.79-.04v1.02h-5.1Z"/>
    <path d="M382.34,314.14c-.05-.28-.08-.53-.1-.75-.02-.22-.04-.44-.07-.67-.57,.57-1.18,1.01-1.84,1.34s-1.35,.49-2.09,.49c-1.27,0-2.21-.29-2.82-.86-.62-.58-.93-1.28-.93-2.11,0-.77,.24-1.43,.71-1.99,.47-.56,1.09-1.02,1.85-1.38,.76-.36,1.58-.62,2.48-.8,.89-.18,1.75-.25,2.59-.24v-1.55c0-.58-.05-1.13-.15-1.65-.1-.52-.32-.94-.65-1.28s-.87-.51-1.6-.53c-.48-.02-.98,.08-1.49,.28-.51,.2-.88,.54-1.11,1.03,.13,.13,.22,.29,.26,.46s.06,.34,.06,.49c0,.2-.08,.43-.25,.69-.17,.26-.46,.38-.88,.36-.35,0-.62-.12-.8-.36-.18-.24-.28-.53-.28-.86,0-.57,.21-1.08,.64-1.52,.42-.45,1.01-.81,1.76-1.08,.75-.27,1.6-.4,2.55-.4,1.4,0,2.43,.37,3.1,1.11,.67,.74,.99,1.91,.97,3.51v1.86c0,.62,0,1.25-.01,1.88s-.01,1.25-.01,1.89c0,.27,0,.53-.02,.8-.02,.27-.04,.57-.08,.9,.3-.02,.6-.03,.89-.05,.29-.02,.59-.03,.89-.05v1.05h-3.58Zm-.23-6.12c-.57,.02-1.16,.09-1.79,.21s-1.2,.31-1.72,.56c-.53,.25-.95,.58-1.28,.99s-.48,.9-.46,1.49c.03,.62,.24,1.08,.61,1.39s.82,.46,1.34,.46c.68,0,1.28-.13,1.79-.39,.51-.26,1.01-.62,1.51-1.09-.02-.18-.02-.38-.02-.6v-.67c0-.08,0-.35,.01-.8,0-.45,.01-.97,.01-1.55Z"/>
    <path d="M387.64,314.14v-.75c.52,0,.88-.13,1.08-.39s.32-.62,.35-1.08c.03-.46,.05-.99,.05-1.59l.02-5.7c0-.27,0-.53,.01-.8,0-.27,.04-.54,.09-.83-.3,.02-.6,.03-.89,.05-.29,.02-.59,.03-.89,.05v-1.05c.73,0,1.29-.03,1.66-.1s.65-.15,.84-.25c.18-.1,.33-.21,.45-.33h.72c.02,.12,.03,.25,.04,.4,0,.15,.02,.32,.04,.5s.03,.39,.03,.62c.37-.32,.77-.6,1.21-.85s.91-.45,1.4-.6c.49-.15,.98-.23,1.46-.23,1.45,0,2.51,.45,3.17,1.36,.67,.91,1,2.32,1,4.24v4.65c0,.33,0,.63-.01,.89,0,.26-.04,.53-.09,.81,.27-.02,.53-.03,.79-.04,.26,0,.52-.02,.79-.04v1.02h-5.1v-.75c.52,0,.88-.13,1.08-.39,.2-.26,.32-.62,.35-1.08s.05-.99,.05-1.59v-3.5c-.02-1.43-.25-2.52-.71-3.25-.46-.73-1.18-1.09-2.16-1.08-.6,.02-1.19,.18-1.76,.48-.57,.3-1.05,.68-1.44,1.15,.02,.13,.03,.28,.03,.45v.52l-.03,6.38c0,.33,0,.63-.01,.89,0,.26-.04,.53-.09,.81,.27-.02,.53-.03,.79-.04,.26,0,.52-.02,.79-.04v1.02h-5.1Z"/>
    <path d="M404.56,320.92c-.52,0-.96-.12-1.33-.38-.37-.25-.55-.63-.55-1.15,0-.3,.1-.57,.3-.82s.46-.38,.77-.38c.4-.02,.67,.11,.81,.38,.14,.27,.21,.5,.21,.7v.16c0,.06,0,.12-.03,.19,.05,.03,.14,.05,.28,.05,.2,0,.42-.08,.65-.25,.23-.17,.44-.41,.62-.72,.22-.37,.47-.92,.76-1.65,.29-.73,.62-1.61,.99-2.62l-3.9-8.35c-.43-.93-.75-1.68-.94-2.22-.19-.55-.32-.96-.39-1.23l-1.2,.05v-1.03h5.18v.75h-.1c-.7,.05-1.08,.31-1.15,.79-.07,.48,.12,1.2,.57,2.16l2.93,6.27c.38-1.07,.75-2.12,1.1-3.16,.35-1.04,.7-2.08,1.05-3.11,.13-.37,.27-.75,.41-1.14,.14-.39,.28-.74,.42-1.05s.27-.5,.39-.59l-1.73,.1v-1.03h3.92v.75c-.62,.23-1.08,.62-1.39,1.16-.31,.54-.62,1.24-.94,2.09l-3.12,8.73c-.5,1.4-.96,2.59-1.38,3.56-.42,.98-.88,1.72-1.38,2.23-.5,.51-1.12,.76-1.88,.76Z"/>
    <path d="M427.76,314.54c-1.02,0-1.93-.25-2.75-.76-.82-.51-1.46-1.24-1.94-2.19s-.71-2.07-.71-3.35c0-1.37,.28-2.58,.83-3.62s1.31-1.88,2.29-2.48c.98-.6,2.08-.9,3.31-.9,.55,0,1.1,.07,1.64,.21,.54,.14,.97,.3,1.29,.49v-3.43c0-.27,0-.52,.01-.76,0-.24,.03-.53,.06-.86-.3,.02-.6,.03-.89,.05-.29,.02-.59,.03-.89,.05v-1.05c.73,0,1.3-.03,1.7-.1,.4-.07,.7-.15,.91-.25,.21-.1,.37-.21,.49-.33h.73v16.23c0,.27,0,.53-.03,.8-.02,.27-.04,.57-.08,.9,.3-.02,.6-.03,.89-.05,.29-.02,.59-.03,.89-.05v1.05h-3.58c-.05-.25-.09-.48-.11-.69-.03-.21-.05-.41-.06-.61-.47,.52-1.04,.93-1.73,1.24-.68,.31-1.44,.46-2.27,.46Zm.9-1.22c.55,0,1.1-.16,1.66-.47,.56-.32,1.02-.71,1.39-1.18-.02-.2-.03-.41-.03-.64v-.74l.03-7.2c-.4-.3-.84-.52-1.31-.66-.48-.14-.96-.21-1.46-.21-.83,0-1.56,.24-2.17,.72-.62,.48-1.08,1.16-1.4,2.03-.32,.87-.46,1.88-.42,3.05,.03,1.02,.2,1.93,.49,2.73s.71,1.43,1.25,1.89,1.2,.69,1.99,.69Z"/>
    <path d="M443.41,314.54c-1.15,0-2.19-.27-3.11-.81-.92-.54-1.65-1.31-2.19-2.3s-.8-2.16-.8-3.51c0-1.17,.26-2.26,.79-3.28,.52-1.02,1.26-1.84,2.21-2.46s2.05-.94,3.3-.94c.7,0,1.35,.11,1.96,.34,.61,.23,1.15,.57,1.61,1.03,.47,.46,.83,1.03,1.1,1.72,.27,.69,.4,1.5,.4,2.44l-8.8,.15c0,1.27,.14,2.38,.41,3.34,.28,.96,.72,1.7,1.34,2.22,.62,.53,1.41,.79,2.38,.79,.52,0,1.05-.09,1.59-.27,.54-.18,1.04-.43,1.51-.75,.47-.32,.84-.67,1.12-1.05l.6,.5c-.45,.7-.99,1.26-1.62,1.67-.63,.42-1.28,.72-1.95,.9-.67,.18-1.28,.28-1.85,.28Zm-3.45-8.67h6.38c0-.6-.09-1.18-.26-1.74s-.46-1.02-.86-1.38c-.4-.36-.92-.54-1.58-.54-.97,0-1.77,.29-2.41,.86-.64,.58-1.06,1.5-1.26,2.79Z"/>
    <path d="M455.44,314.54c-.38,0-.77-.05-1.17-.16-.4-.11-.77-.32-1.11-.64-.34-.32-.61-.78-.81-1.39-.2-.61-.3-1.41-.3-2.41l.05-7.25-1.92,.03v-1.08c.43-.02,.88-.18,1.32-.49,.45-.31,.85-.73,1.21-1.26,.36-.53,.6-1.12,.74-1.75h.85v3.5h4.2v.98l-4.2,.05-.05,6.95c0,.75,.06,1.39,.19,1.91,.12,.52,.33,.92,.61,1.19,.28,.27,.65,.4,1.1,.4s.9-.13,1.31-.4c.41-.27,.77-.63,1.09-1.1l.67,.55c-.37,.55-.73,.98-1.09,1.3s-.7,.55-1.04,.71c-.33,.16-.64,.26-.92,.3-.28,.04-.53,.06-.73,.06Z"/>
    <path d="M466.46,314.54c-1.15,0-2.19-.27-3.11-.81-.92-.54-1.65-1.31-2.19-2.3s-.8-2.16-.8-3.51c0-1.17,.26-2.26,.79-3.28,.52-1.02,1.26-1.84,2.21-2.46s2.05-.94,3.3-.94c.7,0,1.35,.11,1.96,.34,.61,.23,1.15,.57,1.61,1.03,.47,.46,.83,1.03,1.1,1.72,.27,.69,.4,1.5,.4,2.44l-8.8,.15c0,1.27,.14,2.38,.41,3.34,.28,.96,.72,1.7,1.34,2.22,.62,.53,1.41,.79,2.38,.79,.52,0,1.05-.09,1.59-.27,.54-.18,1.04-.43,1.51-.75,.47-.32,.84-.67,1.12-1.05l.6,.5c-.45,.7-.99,1.26-1.62,1.67-.63,.42-1.28,.72-1.95,.9-.67,.18-1.28,.28-1.85,.28Zm-3.45-8.67h6.38c0-.6-.09-1.18-.26-1.74s-.46-1.02-.86-1.38c-.4-.36-.92-.54-1.58-.54-.97,0-1.77,.29-2.41,.86-.64,.58-1.06,1.5-1.26,2.79Z"/>
    <path d="M479.94,314.54c-1.12,0-2.15-.25-3.09-.76-.94-.51-1.69-1.24-2.25-2.2-.56-.96-.84-2.11-.84-3.46,0-.87,.16-1.71,.47-2.52s.76-1.55,1.34-2.21c.57-.66,1.26-1.18,2.06-1.56,.8-.38,1.68-.58,2.65-.58s1.75,.14,2.44,.42,1.23,.66,1.61,1.12c.38,.47,.58,.97,.58,1.53,0,.37-.1,.68-.3,.94s-.49,.39-.88,.39c-.42,.02-.71-.11-.89-.39s-.26-.52-.26-.74c0-.17,.03-.34,.08-.51,.05-.18,.15-.34,.3-.49-.13-.4-.37-.7-.7-.89-.33-.19-.68-.32-1.04-.38s-.65-.09-.89-.09c-1.13,0-2.09,.46-2.86,1.36-.77,.91-1.16,2.23-1.16,3.96,0,1.12,.18,2.11,.54,2.98,.36,.87,.86,1.54,1.51,2.04s1.4,.74,2.25,.74c.78,0,1.53-.21,2.25-.62s1.28-.92,1.67-1.52l.65,.5c-.43,.7-.95,1.27-1.56,1.7s-1.23,.75-1.88,.95-1.25,.3-1.81,.3Z"/>
    <path d="M491.71,314.54c-.38,0-.77-.05-1.17-.16-.4-.11-.77-.32-1.11-.64-.34-.32-.61-.78-.81-1.39-.2-.61-.3-1.41-.3-2.41l.05-7.25-1.92,.03v-1.08c.43-.02,.88-.18,1.32-.49,.45-.31,.85-.73,1.21-1.26,.36-.53,.6-1.12,.74-1.75h.85v3.5h4.2v.98l-4.2,.05-.05,6.95c0,.75,.06,1.39,.19,1.91,.12,.52,.33,.92,.61,1.19,.28,.27,.65,.4,1.1,.4s.9-.13,1.31-.4c.41-.27,.77-.63,1.09-1.1l.67,.55c-.37,.55-.73,.98-1.09,1.3s-.7,.55-1.04,.71c-.33,.16-.64,.26-.92,.3-.28,.04-.53,.06-.73,.06Z"/>
    <path d="M496.69,313.39c.52,0,.88-.13,1.08-.39s.32-.62,.35-1.08c.03-.46,.05-.99,.05-1.59v-5.7c0-.27,0-.52,.02-.76s.04-.53,.08-.86c-.3,.02-.6,.03-.89,.05-.29,.02-.59,.03-.89,.05v-1.05c.73,0,1.3-.03,1.7-.1,.4-.07,.7-.15,.91-.25,.21-.1,.37-.21,.49-.33h.72v10.1c0,.33,0,.63-.01,.89,0,.26-.04,.53-.09,.81,.27-.02,.53-.03,.79-.04,.26,0,.52-.02,.79-.04v1.02h-5.1v-.75Zm2.43-14.47c-.35,0-.66-.14-.93-.42-.27-.28-.4-.63-.4-1.05s.14-.77,.41-1.06c.28-.29,.59-.44,.94-.44,.38,0,.7,.15,.96,.44,.26,.29,.39,.65,.39,1.06s-.14,.77-.41,1.05c-.27,.28-.6,.42-.96,.42Z"/>
    <path d="M508.46,314.22l-3.57-8.15c-.27-.63-.48-1.18-.62-1.62-.15-.45-.25-.83-.31-1.12-.06-.3-.1-.54-.11-.72l-1.07,.07v-1.03h4.6v.75c-.5,0-.82,.13-.96,.39-.14,.26-.16,.6-.06,1.02,.1,.42,.25,.88,.45,1.36l1.92,4.4c.13,.28,.26,.58,.39,.89,.12,.31,.25,.63,.36,.96h.03c.08-.25,.18-.52,.29-.8,.11-.28,.2-.56,.29-.83l2-5.47c.13-.4,.27-.75,.42-1.05,.15-.3,.26-.52,.33-.67l-1.6,.07v-1.03h3.95v.75c-.37,0-.67,.12-.92,.38s-.49,.62-.71,1.12c-.22,.5-.49,1.12-.79,1.88l-3.28,8.45h-1Z"/>
    <path d="M522.26,314.54c-1.15,0-2.19-.27-3.11-.81-.92-.54-1.65-1.31-2.19-2.3s-.8-2.16-.8-3.51c0-1.17,.26-2.26,.79-3.28,.52-1.02,1.26-1.84,2.21-2.46s2.05-.94,3.3-.94c.7,0,1.35,.11,1.96,.34,.61,.23,1.15,.57,1.61,1.03,.47,.46,.83,1.03,1.1,1.72,.27,.69,.4,1.5,.4,2.44l-8.8,.15c0,1.27,.14,2.38,.41,3.34,.28,.96,.72,1.7,1.34,2.22,.62,.53,1.41,.79,2.38,.79,.52,0,1.05-.09,1.59-.27,.54-.18,1.04-.43,1.51-.75,.47-.32,.84-.67,1.12-1.05l.6,.5c-.45,.7-.99,1.26-1.62,1.67-.63,.42-1.28,.72-1.95,.9-.67,.18-1.28,.28-1.85,.28Zm-3.45-8.67h6.38c0-.6-.09-1.18-.26-1.74s-.46-1.02-.86-1.38c-.4-.36-.92-.54-1.58-.54-.97,0-1.77,.29-2.41,.86-.64,.58-1.06,1.5-1.26,2.79Z"/>
    <path d="M534.89,314.54c-.83,0-1.57-.11-2.22-.34-.65-.22-1.18-.48-1.6-.76l.1,.88h-1.05l-.15-4.3h.78c.03,.68,.22,1.3,.58,1.84,.35,.54,.8,.96,1.35,1.26s1.14,.45,1.78,.45c.43,0,.86-.07,1.27-.21,.42-.14,.77-.36,1.05-.65,.28-.29,.43-.66,.43-1.11s-.14-.85-.41-1.16c-.27-.31-.64-.58-1.09-.81-.45-.23-.93-.45-1.45-.65-.5-.2-1-.41-1.5-.62s-.96-.48-1.39-.78c-.42-.3-.76-.67-1.01-1.1s-.38-.97-.38-1.6c0-.35,.07-.73,.2-1.15,.13-.42,.36-.81,.67-1.19s.75-.68,1.3-.93c.55-.24,1.25-.36,2.1-.36,.45,0,.95,.08,1.5,.23,.55,.15,1.08,.43,1.6,.85l-.05-.95h1.05v4.38h-.8c-.03-.58-.17-1.15-.4-1.69s-.57-.99-1.02-1.35c-.45-.36-1.03-.54-1.75-.54-.77,0-1.37,.19-1.8,.58-.43,.38-.65,.83-.65,1.33s.16,.95,.49,1.29,.75,.64,1.26,.89,1.07,.49,1.65,.73c.63,.27,1.25,.56,1.85,.88s1.09,.71,1.47,1.19c.38,.47,.58,1.09,.58,1.84,0,.83-.21,1.52-.64,2.08-.42,.55-.97,.95-1.62,1.21-.66,.26-1.35,.39-2.06,.39Z"/>
    <path d="M555.51,314.14c-.05-.28-.08-.53-.1-.75-.02-.22-.04-.44-.07-.67-.57,.57-1.18,1.01-1.84,1.34s-1.35,.49-2.09,.49c-1.27,0-2.21-.29-2.82-.86-.62-.58-.93-1.28-.93-2.11,0-.77,.24-1.43,.71-1.99,.47-.56,1.09-1.02,1.85-1.38,.76-.36,1.58-.62,2.48-.8,.89-.18,1.75-.25,2.59-.24v-1.55c0-.58-.05-1.13-.15-1.65-.1-.52-.32-.94-.65-1.28s-.87-.51-1.6-.53c-.48-.02-.98,.08-1.49,.28-.51,.2-.88,.54-1.11,1.03,.13,.13,.22,.29,.26,.46s.06,.34,.06,.49c0,.2-.08,.43-.25,.69-.17,.26-.46,.38-.88,.36-.35,0-.62-.12-.8-.36-.18-.24-.28-.53-.28-.86,0-.57,.21-1.08,.64-1.52,.42-.45,1.01-.81,1.76-1.08,.75-.27,1.6-.4,2.55-.4,1.4,0,2.43,.37,3.1,1.11,.67,.74,.99,1.91,.97,3.51v1.86c0,.62,0,1.25-.01,1.88s-.01,1.25-.01,1.89c0,.27,0,.53-.02,.8-.02,.27-.04,.57-.08,.9,.3-.02,.6-.03,.89-.05,.29-.02,.59-.03,.89-.05v1.05h-3.58Zm-.23-6.12c-.57,.02-1.16,.09-1.79,.21s-1.2,.31-1.72,.56c-.53,.25-.95,.58-1.28,.99s-.48,.9-.46,1.49c.03,.62,.24,1.08,.61,1.39s.82,.46,1.34,.46c.68,0,1.28-.13,1.79-.39,.51-.26,1.01-.62,1.51-1.09-.02-.18-.02-.38-.02-.6v-.67c0-.08,0-.35,.01-.8,0-.45,.01-.97,.01-1.55Z"/>
    <path d="M560.81,314.14v-.75c.52,0,.88-.13,1.08-.39s.32-.62,.35-1.08c.03-.46,.05-.99,.05-1.59l.02-5.7c0-.27,0-.53,.01-.8,0-.27,.04-.54,.09-.83-.3,.02-.6,.03-.89,.05-.29,.02-.59,.03-.89,.05v-1.05c.73,0,1.29-.03,1.66-.1s.65-.15,.84-.25c.18-.1,.33-.21,.45-.33h.72c.02,.12,.03,.25,.04,.4,0,.15,.02,.32,.04,.5s.03,.39,.03,.62c.37-.32,.77-.6,1.21-.85s.91-.45,1.4-.6c.49-.15,.98-.23,1.46-.23,1.45,0,2.51,.45,3.17,1.36,.67,.91,1,2.32,1,4.24v4.65c0,.33,0,.63-.01,.89,0,.26-.04,.53-.09,.81,.27-.02,.53-.03,.79-.04,.26,0,.52-.02,.79-.04v1.02h-5.1v-.75c.52,0,.88-.13,1.08-.39,.2-.26,.32-.62,.35-1.08s.05-.99,.05-1.59v-3.5c-.02-1.43-.25-2.52-.71-3.25-.46-.73-1.18-1.09-2.16-1.08-.6,.02-1.19,.18-1.76,.48-.57,.3-1.05,.68-1.44,1.15,.02,.13,.03,.28,.03,.45v.52l-.03,6.38c0,.33,0,.63-.01,.89,0,.26-.04,.53-.09,.81,.27-.02,.53-.03,.79-.04,.26,0,.52-.02,.79-.04v1.02h-5.1Z"/>
    <path d="M581.33,314.54c-1.02,0-1.93-.25-2.75-.76-.82-.51-1.46-1.24-1.94-2.19s-.71-2.07-.71-3.35c0-1.37,.28-2.58,.83-3.62s1.31-1.88,2.29-2.48c.98-.6,2.08-.9,3.31-.9,.55,0,1.1,.07,1.64,.21,.54,.14,.97,.3,1.29,.49v-3.43c0-.27,0-.52,.01-.76,0-.24,.03-.53,.06-.86-.3,.02-.6,.03-.89,.05-.29,.02-.59,.03-.89,.05v-1.05c.73,0,1.3-.03,1.7-.1,.4-.07,.7-.15,.91-.25,.21-.1,.37-.21,.49-.33h.73v16.23c0,.27,0,.53-.03,.8-.02,.27-.04,.57-.08,.9,.3-.02,.6-.03,.89-.05,.29-.02,.59-.03,.89-.05v1.05h-3.58c-.05-.25-.09-.48-.11-.69-.03-.21-.05-.41-.06-.61-.47,.52-1.04,.93-1.73,1.24-.68,.31-1.44,.46-2.27,.46Zm.9-1.22c.55,0,1.1-.16,1.66-.47,.56-.32,1.02-.71,1.39-1.18-.02-.2-.03-.41-.03-.64v-.74l.03-7.2c-.4-.3-.84-.52-1.31-.66-.48-.14-.96-.21-1.46-.21-.83,0-1.56,.24-2.17,.72-.62,.48-1.08,1.16-1.4,2.03-.32,.87-.46,1.88-.42,3.05,.03,1.02,.2,1.93,.49,2.73s.71,1.43,1.25,1.89,1.2,.69,1.99,.69Z"/>
    <path d="M225.87,350.92c-.52,0-.96-.12-1.33-.38-.37-.25-.55-.63-.55-1.15,0-.3,.1-.57,.3-.82s.46-.38,.77-.38c.4-.02,.67,.11,.81,.38,.14,.27,.21,.5,.21,.7v.16c0,.06,0,.12-.03,.19,.05,.03,.14,.05,.28,.05,.2,0,.42-.08,.65-.25,.23-.17,.44-.41,.62-.72,.22-.37,.47-.92,.76-1.65,.29-.73,.62-1.61,.99-2.62l-3.9-8.35c-.43-.93-.75-1.68-.94-2.22-.19-.55-.32-.96-.39-1.23l-1.2,.05v-1.03h5.18v.75h-.1c-.7,.05-1.08,.31-1.15,.79-.07,.48,.12,1.2,.57,2.16l2.93,6.27c.38-1.07,.75-2.12,1.1-3.16,.35-1.04,.7-2.08,1.05-3.11,.13-.37,.27-.75,.41-1.14,.14-.39,.28-.74,.42-1.05s.27-.5,.39-.59l-1.73,.1v-1.03h3.92v.75c-.62,.23-1.08,.62-1.39,1.16-.31,.54-.62,1.24-.94,2.09l-3.12,8.73c-.5,1.4-.96,2.59-1.38,3.56-.42,.98-.88,1.72-1.38,2.23-.5,.51-1.12,.76-1.88,.76Z"/>
    <path d="M243.09,344.54c-1.17,0-2.22-.27-3.17-.81s-1.7-1.29-2.26-2.25c-.56-.96-.84-2.05-.84-3.29,0-1.32,.27-2.5,.82-3.55,.55-1.05,1.3-1.88,2.25-2.49,.95-.61,2.02-.91,3.2-.91s2.23,.28,3.17,.84c.95,.56,1.71,1.31,2.28,2.26,.57,.95,.85,2.03,.85,3.25,0,1.28-.28,2.45-.84,3.51-.56,1.06-1.31,1.9-2.26,2.51s-2.02,.92-3.2,.92Zm.2-1c.88,0,1.58-.25,2.1-.75s.89-1.15,1.11-1.95c.22-.8,.34-1.64,.34-2.53,0-.75-.07-1.49-.21-2.21-.14-.72-.36-1.38-.66-1.97s-.69-1.06-1.16-1.41c-.48-.35-1.05-.53-1.71-.53-.87,0-1.58,.25-2.12,.75s-.95,1.15-1.21,1.95c-.26,.8-.39,1.66-.39,2.58,0,1.03,.14,2.01,.42,2.94,.28,.92,.72,1.68,1.3,2.26,.58,.58,1.32,.88,2.2,.88Z"/>
    <path d="M256.79,344.54c-.9,0-1.65-.17-2.26-.5-.61-.33-1.07-.9-1.38-1.7-.31-.8-.46-1.88-.46-3.25v-4.45c0-.27,0-.53,.01-.8,0-.27,.04-.54,.09-.83-.28,.02-.57,.03-.86,.04-.29,0-.58,.02-.86,.04v-1.03h.77c.72,0,1.24-.07,1.56-.21,.33-.14,.58-.29,.76-.46h.72v7.62c0,1.43,.2,2.5,.61,3.21,.41,.71,1.1,1.05,2.09,1.04,.63-.02,1.24-.21,1.81-.59s1.04-.82,1.39-1.34v-6.43c0-.4,0-.75,.03-1.04,.02-.29,.05-.58,.1-.86-.3,.02-.6,.03-.9,.04-.3,0-.6,.02-.9,.04v-1.03h.77c.72,0,1.24-.07,1.56-.21,.33-.14,.58-.29,.76-.46h.73l-.03,9.45c0,.27,0,.64-.03,1.12-.02,.48-.04,.89-.07,1.22,.3-.02,.6-.03,.9-.05,.3-.02,.6-.03,.9-.05v1.05h-3.58c-.05-.28-.09-.55-.11-.8-.03-.25-.05-.48-.06-.7-.52,.52-1.14,.96-1.88,1.34s-1.47,.56-2.2,.56Z"/>
    <path d="M280.62,344.14c-.05-.28-.08-.53-.1-.75-.02-.22-.04-.44-.07-.67-.57,.57-1.18,1.01-1.84,1.34s-1.35,.49-2.09,.49c-1.27,0-2.21-.29-2.82-.86-.62-.58-.93-1.28-.93-2.11,0-.77,.24-1.43,.71-1.99,.47-.56,1.09-1.02,1.85-1.38,.76-.36,1.58-.62,2.48-.8,.89-.18,1.75-.25,2.59-.24v-1.55c0-.58-.05-1.13-.15-1.65-.1-.52-.32-.94-.65-1.28s-.87-.51-1.6-.53c-.48-.02-.98,.08-1.49,.28-.51,.2-.88,.54-1.11,1.03,.13,.13,.22,.29,.26,.46s.06,.34,.06,.49c0,.2-.08,.43-.25,.69-.17,.26-.46,.38-.88,.36-.35,0-.62-.12-.8-.36-.18-.24-.28-.53-.28-.86,0-.57,.21-1.08,.64-1.52,.42-.45,1.01-.81,1.76-1.08,.75-.27,1.6-.4,2.55-.4,1.4,0,2.43,.37,3.1,1.11,.67,.74,.99,1.91,.97,3.51v1.86c0,.62,0,1.25-.01,1.88s-.01,1.25-.01,1.89c0,.27,0,.53-.02,.8-.02,.27-.04,.57-.08,.9,.3-.02,.6-.03,.89-.05,.29-.02,.59-.03,.89-.05v1.05h-3.58Zm-.23-6.12c-.57,.02-1.16,.09-1.79,.21s-1.2,.31-1.72,.56c-.53,.25-.95,.58-1.28,.99s-.48,.9-.46,1.49c.03,.62,.24,1.08,.61,1.39s.82,.46,1.34,.46c.68,0,1.28-.13,1.79-.39,.51-.26,1.01-.62,1.51-1.09-.02-.18-.02-.38-.02-.6v-.67c0-.08,0-.35,.01-.8,0-.45,.01-.97,.01-1.55Z"/>
    <path d="M285.92,343.39c.52,0,.88-.13,1.08-.39s.32-.62,.35-1.08c.03-.46,.05-.99,.05-1.59v-5.7c0-.27,0-.53,.01-.8,0-.27,.04-.54,.09-.83-.3,.02-.6,.03-.89,.04-.29,0-.59,.02-.89,.04v-1.03h.77c.72,0,1.21-.07,1.49-.21,.28-.14,.5-.29,.69-.46h.73c.03,.27,.06,.6,.08,.99,.02,.39,.03,.89,.05,1.49,.25-.42,.59-.83,1.02-1.23,.43-.4,.92-.73,1.46-1,.54-.27,1.11-.4,1.71-.4,.47,0,.88,.12,1.22,.38s.53,.65,.53,1.2c0,.13-.04,.3-.12,.49-.08,.19-.22,.36-.4,.5s-.42,.21-.72,.21c-.37-.02-.66-.16-.88-.44-.22-.27-.3-.6-.25-.96-.42-.02-.85,.09-1.29,.33s-.85,.55-1.24,.96c-.38,.41-.72,.89-1.03,1.44l.03,6.15c0,.33,0,.63-.01,.89s-.04,.53-.09,.81c.27-.02,.53-.03,.79-.04,.26,0,.52-.02,.79-.04v1.02h-5.12v-.75Z"/>
    <path d="M302.62,344.54c-1.15,0-2.19-.27-3.11-.81-.92-.54-1.65-1.31-2.19-2.3s-.8-2.16-.8-3.51c0-1.17,.26-2.26,.79-3.28,.52-1.02,1.26-1.84,2.21-2.46s2.05-.94,3.3-.94c.7,0,1.35,.11,1.96,.34,.61,.23,1.15,.57,1.61,1.03,.47,.46,.83,1.03,1.1,1.72,.27,.69,.4,1.5,.4,2.44l-8.8,.15c0,1.27,.14,2.38,.41,3.34,.28,.96,.72,1.7,1.34,2.22,.62,.53,1.41,.79,2.38,.79,.52,0,1.05-.09,1.59-.27,.54-.18,1.04-.43,1.51-.75,.47-.32,.84-.67,1.12-1.05l.6,.5c-.45,.7-.99,1.26-1.62,1.67-.63,.42-1.28,.72-1.95,.9-.67,.18-1.28,.28-1.85,.28Zm-3.45-8.67h6.38c0-.6-.09-1.18-.26-1.74s-.46-1.02-.86-1.38c-.4-.36-.92-.54-1.58-.54-.97,0-1.77,.29-2.41,.86-.64,.58-1.06,1.5-1.26,2.79Z"/>
    <path d="M321.39,344.54c-.38,0-.77-.05-1.17-.16-.4-.11-.77-.32-1.11-.64-.34-.32-.61-.78-.81-1.39-.2-.61-.3-1.41-.3-2.41l.05-7.25-1.92,.03v-1.08c.43-.02,.88-.18,1.32-.49,.45-.31,.85-.73,1.21-1.26,.36-.53,.6-1.12,.74-1.75h.85v3.5h4.2v.98l-4.2,.05-.05,6.95c0,.75,.06,1.39,.19,1.91,.12,.52,.33,.92,.61,1.19,.28,.27,.65,.4,1.1,.4s.9-.13,1.31-.4c.41-.27,.77-.63,1.09-1.1l.67,.55c-.37,.55-.73,.98-1.09,1.3s-.7,.55-1.04,.71c-.33,.16-.64,.26-.92,.3-.28,.04-.53,.06-.73,.06Z"/>
    <path d="M334.39,343.39c.52,0,.88-.13,1.08-.39s.32-.62,.35-1.08,.05-.99,.05-1.59v-3.5c0-1.43-.23-2.51-.69-3.23-.46-.72-1.18-1.07-2.16-1.05-.62,.02-1.22,.17-1.81,.45-.59,.28-1.07,.65-1.44,1.1v7.38c0,.33,0,.63-.03,.89s-.05,.53-.1,.81c.27-.02,.53-.03,.79-.04,.26,0,.52-.02,.79-.04v1.02h-5.1v-.75c.52,0,.88-.13,1.08-.39s.32-.62,.36-1.08c.04-.46,.06-.99,.06-1.59v-11.83c0-.27,0-.52,.01-.76s.03-.53,.06-.86c-.3,.02-.6,.03-.89,.05-.29,.02-.59,.03-.89,.05v-1.05c.73,0,1.3-.03,1.71-.1s.72-.15,.92-.25c.21-.1,.37-.21,.49-.33h.72v7.62c.37-.32,.78-.6,1.24-.84s.93-.44,1.42-.59c.49-.15,.97-.23,1.44-.23,1.45,0,2.5,.45,3.14,1.36s.97,2.32,.99,4.24l.03,4.65c0,.33,0,.63-.01,.89s-.04,.53-.09,.81c.27-.02,.53-.03,.79-.04,.26,0,.52-.02,.79-.04v1.02h-5.1v-.75Z"/>
    <path d="M347.39,344.54c-1.15,0-2.19-.27-3.11-.81-.92-.54-1.65-1.31-2.19-2.3s-.8-2.16-.8-3.51c0-1.17,.26-2.26,.79-3.28,.52-1.02,1.26-1.84,2.21-2.46s2.05-.94,3.3-.94c.7,0,1.35,.11,1.96,.34,.61,.23,1.15,.57,1.61,1.03,.47,.46,.83,1.03,1.1,1.72,.27,.69,.4,1.5,.4,2.44l-8.8,.15c0,1.27,.14,2.38,.41,3.34,.28,.96,.72,1.7,1.34,2.22,.62,.53,1.41,.79,2.38,.79,.52,0,1.05-.09,1.59-.27,.54-.18,1.04-.43,1.51-.75,.47-.32,.84-.67,1.12-1.05l.6,.5c-.45,.7-.99,1.26-1.62,1.67-.63,.42-1.28,.72-1.95,.9-.67,.18-1.28,.28-1.85,.28Zm-3.45-8.67h6.38c0-.6-.09-1.18-.26-1.74s-.46-1.02-.86-1.38c-.4-.36-.92-.54-1.58-.54-.97,0-1.77,.29-2.41,.86-.64,.58-1.06,1.5-1.26,2.79Z"/>
    <path d="M362.26,328.51c0-.27,0-.52,.01-.76,0-.24,.03-.53,.06-.86-.3,.02-.6,.03-.89,.05-.29,.02-.59,.03-.89,.05v-1.05c.73,0,1.3-.03,1.71-.1s.72-.15,.93-.25c.21-.1,.37-.21,.49-.33h.72v7.45c.47-.47,1.02-.83,1.66-1.09,.64-.26,1.35-.39,2.11-.39,1.07,0,2.03,.26,2.89,.77,.86,.52,1.54,1.25,2.04,2.2,.5,.95,.75,2.07,.75,3.38,0,1.42-.31,2.65-.92,3.69-.62,1.04-1.42,1.85-2.4,2.41s-2.04,.85-3.17,.85c-.57,0-1.19-.1-1.86-.31-.67-.21-1.28-.61-1.81-1.21l-.6,1.12h-.88l.05-15.62Zm2.15,11.7c0,.88,.14,1.56,.42,2.04s.65,.8,1.1,.99c.45,.18,.92,.27,1.42,.27,.8,0,1.49-.22,2.08-.67,.58-.45,1.04-1.07,1.36-1.86,.33-.79,.49-1.71,.49-2.76,0-1.13-.14-2.13-.42-2.99-.28-.86-.71-1.53-1.28-2.03-.57-.49-1.28-.74-2.15-.74-.55,0-1.1,.13-1.64,.39-.54,.26-1,.6-1.39,1.04v6.33Z"/>
    <path d="M382.06,344.54c-1.15,0-2.19-.27-3.11-.81-.92-.54-1.65-1.31-2.19-2.3s-.8-2.16-.8-3.51c0-1.17,.26-2.26,.79-3.28,.52-1.02,1.26-1.84,2.21-2.46s2.05-.94,3.3-.94c.7,0,1.35,.11,1.96,.34,.61,.23,1.15,.57,1.61,1.03,.47,.46,.83,1.03,1.1,1.72,.27,.69,.4,1.5,.4,2.44l-8.8,.15c0,1.27,.14,2.38,.41,3.34,.28,.96,.72,1.7,1.34,2.22,.62,.53,1.41,.79,2.38,.79,.52,0,1.05-.09,1.59-.27,.54-.18,1.04-.43,1.51-.75,.47-.32,.84-.67,1.12-1.05l.6,.5c-.45,.7-.99,1.26-1.62,1.67-.63,.42-1.28,.72-1.95,.9-.67,.18-1.28,.28-1.85,.28Zm-3.45-8.67h6.38c0-.6-.09-1.18-.26-1.74s-.46-1.02-.86-1.38c-.4-.36-.92-.54-1.58-.54-.97,0-1.77,.29-2.41,.86-.64,.58-1.06,1.5-1.26,2.79Z"/>
    <path d="M394.69,344.54c-.83,0-1.57-.11-2.22-.34-.65-.22-1.18-.48-1.6-.76l.1,.88h-1.05l-.15-4.3h.78c.03,.68,.22,1.3,.58,1.84,.35,.54,.8,.96,1.35,1.26s1.14,.45,1.78,.45c.43,0,.86-.07,1.27-.21,.42-.14,.77-.36,1.05-.65,.28-.29,.43-.66,.43-1.11s-.14-.85-.41-1.16c-.27-.31-.64-.58-1.09-.81-.45-.23-.93-.45-1.45-.65-.5-.2-1-.41-1.5-.62s-.96-.48-1.39-.78c-.42-.3-.76-.67-1.01-1.1s-.38-.97-.38-1.6c0-.35,.07-.73,.2-1.15,.13-.42,.36-.81,.67-1.19s.75-.68,1.3-.93c.55-.24,1.25-.36,2.1-.36,.45,0,.95,.08,1.5,.23,.55,.15,1.08,.43,1.6,.85l-.05-.95h1.05v4.38h-.8c-.03-.58-.17-1.15-.4-1.69s-.57-.99-1.02-1.35c-.45-.36-1.03-.54-1.75-.54-.77,0-1.37,.19-1.8,.58-.43,.38-.65,.83-.65,1.33s.16,.95,.49,1.29,.75,.64,1.26,.89,1.07,.49,1.65,.73c.63,.27,1.25,.56,1.85,.88s1.09,.71,1.47,1.19c.38,.47,.58,1.09,.58,1.84,0,.83-.21,1.52-.64,2.08-.42,.55-.97,.95-1.62,1.21-.66,.26-1.35,.39-2.06,.39Z"/>
    <path d="M405.84,344.54c-.38,0-.77-.05-1.17-.16-.4-.11-.77-.32-1.11-.64-.34-.32-.61-.78-.81-1.39-.2-.61-.3-1.41-.3-2.41l.05-7.25-1.92,.03v-1.08c.43-.02,.88-.18,1.32-.49,.45-.31,.85-.73,1.21-1.26,.36-.53,.6-1.12,.74-1.75h.85v3.5h4.2v.98l-4.2,.05-.05,6.95c0,.75,.06,1.39,.19,1.91,.12,.52,.33,.92,.61,1.19,.28,.27,.65,.4,1.1,.4s.9-.13,1.31-.4c.41-.27,.77-.63,1.09-1.1l.67,.55c-.37,.55-.73,.98-1.09,1.3s-.7,.55-1.04,.71c-.33,.16-.64,.26-.92,.3-.28,.04-.53,.06-.73,.06Z"/>
    <path d="M412.66,348.62l-.67-.5c.18-.23,.38-.57,.57-1,.2-.43,.36-.91,.49-1.44s.15-1.04,.09-1.54c-.12,.05-.22,.09-.33,.11-.1,.03-.2,.04-.3,.04-.32,0-.59-.12-.81-.35-.22-.23-.34-.53-.34-.88,0-.47,.14-.83,.41-1.08s.6-.38,.96-.38c.58,0,1.02,.22,1.32,.66,.3,.44,.45,.98,.45,1.61,0,.42-.08,.93-.24,1.53s-.38,1.19-.65,1.76c-.27,.58-.6,1.05-.96,1.44Z"/>
    <path d="M429.91,344.54c-1.17,0-2.22-.27-3.17-.81s-1.7-1.29-2.26-2.25c-.56-.96-.84-2.05-.84-3.29,0-1.32,.27-2.5,.82-3.55,.55-1.05,1.3-1.88,2.25-2.49,.95-.61,2.02-.91,3.2-.91s2.23,.28,3.17,.84c.95,.56,1.71,1.31,2.28,2.26,.57,.95,.85,2.03,.85,3.25,0,1.28-.28,2.45-.84,3.51-.56,1.06-1.31,1.9-2.26,2.51s-2.02,.92-3.2,.92Zm.2-1c.88,0,1.58-.25,2.1-.75s.89-1.15,1.11-1.95c.22-.8,.34-1.64,.34-2.53,0-.75-.07-1.49-.21-2.21-.14-.72-.36-1.38-.66-1.97s-.69-1.06-1.16-1.41c-.48-.35-1.05-.53-1.71-.53-.87,0-1.58,.25-2.12,.75s-.95,1.15-1.21,1.95c-.26,.8-.39,1.66-.39,2.58,0,1.03,.14,2.01,.42,2.94,.28,.92,.72,1.68,1.3,2.26,.58,.58,1.32,.88,2.2,.88Z"/>
    <path d="M438.34,343.39c.52,0,.88-.13,1.08-.39s.32-.62,.35-1.08c.03-.46,.05-.99,.05-1.59v-5.7c0-.27,0-.53,.01-.8,0-.27,.04-.54,.09-.83-.3,.02-.6,.03-.89,.04-.29,0-.59,.02-.89,.04v-1.03h.77c.72,0,1.21-.07,1.49-.21,.28-.14,.5-.29,.69-.46h.73c.03,.27,.06,.6,.08,.99,.02,.39,.03,.89,.05,1.49,.25-.42,.59-.83,1.02-1.23,.43-.4,.92-.73,1.46-1,.54-.27,1.11-.4,1.71-.4,.47,0,.88,.12,1.22,.38s.53,.65,.53,1.2c0,.13-.04,.3-.12,.49-.08,.19-.22,.36-.4,.5s-.42,.21-.72,.21c-.37-.02-.66-.16-.88-.44-.22-.27-.3-.6-.25-.96-.42-.02-.85,.09-1.29,.33s-.85,.55-1.24,.96c-.38,.41-.72,.89-1.03,1.44l.03,6.15c0,.33,0,.63-.01,.89s-.04,.53-.09,.81c.27-.02,.53-.03,.79-.04,.26,0,.52-.02,.79-.04v1.02h-5.12v-.75Z"/>
    <path d="M463.34,344.14c-.05-.28-.08-.53-.1-.75-.02-.22-.04-.44-.07-.67-.57,.57-1.18,1.01-1.84,1.34s-1.35,.49-2.09,.49c-1.27,0-2.21-.29-2.82-.86-.62-.58-.93-1.28-.93-2.11,0-.77,.24-1.43,.71-1.99,.47-.56,1.09-1.02,1.85-1.38,.76-.36,1.58-.62,2.48-.8,.89-.18,1.75-.25,2.59-.24v-1.55c0-.58-.05-1.13-.15-1.65-.1-.52-.32-.94-.65-1.28s-.87-.51-1.6-.53c-.48-.02-.98,.08-1.49,.28-.51,.2-.88,.54-1.11,1.03,.13,.13,.22,.29,.26,.46s.06,.34,.06,.49c0,.2-.08,.43-.25,.69-.17,.26-.46,.38-.88,.36-.35,0-.62-.12-.8-.36-.18-.24-.28-.53-.28-.86,0-.57,.21-1.08,.64-1.52,.42-.45,1.01-.81,1.76-1.08,.75-.27,1.6-.4,2.55-.4,1.4,0,2.43,.37,3.1,1.11,.67,.74,.99,1.91,.97,3.51v1.86c0,.62,0,1.25-.01,1.88s-.01,1.25-.01,1.89c0,.27,0,.53-.02,.8-.02,.27-.04,.57-.08,.9,.3-.02,.6-.03,.89-.05,.29-.02,.59-.03,.89-.05v1.05h-3.58Zm-.23-6.12c-.57,.02-1.16,.09-1.79,.21s-1.2,.31-1.72,.56c-.53,.25-.95,.58-1.28,.99s-.48,.9-.46,1.49c.03,.62,.24,1.08,.61,1.39s.82,.46,1.34,.46c.68,0,1.28-.13,1.79-.39,.51-.26,1.01-.62,1.51-1.09-.02-.18-.02-.38-.02-.6v-.67c0-.08,0-.35,.01-.8,0-.45,.01-.97,.01-1.55Z"/>
    <path d="M473.16,344.54c-.38,0-.77-.05-1.17-.16-.4-.11-.77-.32-1.11-.64-.34-.32-.61-.78-.81-1.39-.2-.61-.3-1.41-.3-2.41l.05-7.25-1.92,.03v-1.08c.43-.02,.88-.18,1.32-.49,.45-.31,.85-.73,1.21-1.26,.36-.53,.6-1.12,.74-1.75h.85v3.5h4.2v.98l-4.2,.05-.05,6.95c0,.75,.06,1.39,.19,1.91,.12,.52,.33,.92,.61,1.19,.28,.27,.65,.4,1.1,.4s.9-.13,1.31-.4c.41-.27,.77-.63,1.09-1.1l.67,.55c-.37,.55-.73,.98-1.09,1.3s-.7,.55-1.04,.71c-.33,.16-.64,.26-.92,.3-.28,.04-.53,.06-.73,.06Z"/>
    <path d="M484.46,343.39c.52,0,.88-.13,1.08-.39s.32-.62,.35-1.08c.03-.46,.05-.99,.05-1.59v-11.83c0-.27,0-.52,.01-.76,0-.24,.03-.53,.06-.86-.3,.02-.6,.03-.89,.05-.29,.02-.59,.03-.89,.05v-1.05c.73,0,1.3-.03,1.71-.1,.41-.07,.72-.15,.92-.25,.21-.1,.37-.21,.49-.33h.72l.03,16.23c0,.33,0,.63-.03,.89s-.05,.53-.1,.81c.27-.02,.53-.03,.79-.04,.26,0,.52-.02,.79-.04v1.02h-5.1v-.75Z"/>
    <path d="M497.56,344.54c-1.15,0-2.19-.27-3.11-.81-.92-.54-1.65-1.31-2.19-2.3s-.8-2.16-.8-3.51c0-1.17,.26-2.26,.79-3.28,.52-1.02,1.26-1.84,2.21-2.46s2.05-.94,3.3-.94c.7,0,1.35,.11,1.96,.34,.61,.23,1.15,.57,1.61,1.03,.47,.46,.83,1.03,1.1,1.72,.27,.69,.4,1.5,.4,2.44l-8.8,.15c0,1.27,.14,2.38,.41,3.34,.28,.96,.72,1.7,1.34,2.22,.62,.53,1.41,.79,2.38,.79,.52,0,1.05-.09,1.59-.27,.54-.18,1.04-.43,1.51-.75,.47-.32,.84-.67,1.12-1.05l.6,.5c-.45,.7-.99,1.26-1.62,1.67-.63,.42-1.28,.72-1.95,.9-.67,.18-1.28,.28-1.85,.28Zm-3.45-8.67h6.38c0-.6-.09-1.18-.26-1.74s-.46-1.02-.86-1.38c-.4-.36-.92-.54-1.58-.54-.97,0-1.77,.29-2.41,.86-.64,.58-1.06,1.5-1.26,2.79Z"/>
    <path d="M512.61,344.14c-.05-.28-.08-.53-.1-.75-.02-.22-.04-.44-.07-.67-.57,.57-1.18,1.01-1.84,1.34s-1.35,.49-2.09,.49c-1.27,0-2.21-.29-2.82-.86-.62-.58-.93-1.28-.93-2.11,0-.77,.24-1.43,.71-1.99,.47-.56,1.09-1.02,1.85-1.38,.76-.36,1.58-.62,2.48-.8,.89-.18,1.75-.25,2.59-.24v-1.55c0-.58-.05-1.13-.15-1.65-.1-.52-.32-.94-.65-1.28s-.87-.51-1.6-.53c-.48-.02-.98,.08-1.49,.28-.51,.2-.88,.54-1.11,1.03,.13,.13,.22,.29,.26,.46s.06,.34,.06,.49c0,.2-.08,.43-.25,.69-.17,.26-.46,.38-.88,.36-.35,0-.62-.12-.8-.36-.18-.24-.28-.53-.28-.86,0-.57,.21-1.08,.64-1.52,.42-.45,1.01-.81,1.76-1.08,.75-.27,1.6-.4,2.55-.4,1.4,0,2.43,.37,3.1,1.11,.67,.74,.99,1.91,.97,3.51v1.86c0,.62,0,1.25-.01,1.88s-.01,1.25-.01,1.89c0,.27,0,.53-.02,.8-.02,.27-.04,.57-.08,.9,.3-.02,.6-.03,.89-.05,.29-.02,.59-.03,.89-.05v1.05h-3.58Zm-.23-6.12c-.57,.02-1.16,.09-1.79,.21s-1.2,.31-1.72,.56c-.53,.25-.95,.58-1.28,.99s-.48,.9-.46,1.49c.03,.62,.24,1.08,.61,1.39s.82,.46,1.34,.46c.68,0,1.28-.13,1.79-.39,.51-.26,1.01-.62,1.51-1.09-.02-.18-.02-.38-.02-.6v-.67c0-.08,0-.35,.01-.8,0-.45,.01-.97,.01-1.55Z"/>
    <path d="M523.03,344.54c-.83,0-1.57-.11-2.22-.34-.65-.22-1.18-.48-1.6-.76l.1,.88h-1.05l-.15-4.3h.78c.03,.68,.22,1.3,.58,1.84,.35,.54,.8,.96,1.35,1.26s1.14,.45,1.78,.45c.43,0,.86-.07,1.27-.21,.42-.14,.77-.36,1.05-.65,.28-.29,.43-.66,.43-1.11s-.14-.85-.41-1.16c-.27-.31-.64-.58-1.09-.81-.45-.23-.93-.45-1.45-.65-.5-.2-1-.41-1.5-.62s-.96-.48-1.39-.78c-.42-.3-.76-.67-1.01-1.1s-.38-.97-.38-1.6c0-.35,.07-.73,.2-1.15,.13-.42,.36-.81,.67-1.19s.75-.68,1.3-.93c.55-.24,1.25-.36,2.1-.36,.45,0,.95,.08,1.5,.23,.55,.15,1.08,.43,1.6,.85l-.05-.95h1.05v4.38h-.8c-.03-.58-.17-1.15-.4-1.69s-.57-.99-1.02-1.35c-.45-.36-1.03-.54-1.75-.54-.77,0-1.37,.19-1.8,.58-.43,.38-.65,.83-.65,1.33s.16,.95,.49,1.29,.75,.64,1.26,.89,1.07,.49,1.65,.73c.63,.27,1.25,.56,1.85,.88s1.09,.71,1.47,1.19c.38,.47,.58,1.09,.58,1.84,0,.83-.21,1.52-.64,2.08-.42,.55-.97,.95-1.62,1.21-.66,.26-1.35,.39-2.06,.39Z"/>
    <path d="M534.18,344.54c-.38,0-.77-.05-1.17-.16-.4-.11-.77-.32-1.11-.64-.34-.32-.61-.78-.81-1.39-.2-.61-.3-1.41-.3-2.41l.05-7.25-1.92,.03v-1.08c.43-.02,.88-.18,1.32-.49,.45-.31,.85-.73,1.21-1.26,.36-.53,.6-1.12,.74-1.75h.85v3.5h4.2v.98l-4.2,.05-.05,6.95c0,.75,.06,1.39,.19,1.91,.12,.52,.33,.92,.61,1.19,.28,.27,.65,.4,1.1,.4s.9-.13,1.31-.4c.41-.27,.77-.63,1.09-1.1l.67,.55c-.37,.55-.73,.98-1.09,1.3s-.7,.55-1.04,.71c-.33,.16-.64,.26-.92,.3-.28,.04-.53,.06-.73,.06Z"/>
    <path d="M550.43,344.54c-.38,0-.77-.05-1.17-.16-.4-.11-.77-.32-1.11-.64-.34-.32-.61-.78-.81-1.39-.2-.61-.3-1.41-.3-2.41l.05-7.25-1.92,.03v-1.08c.43-.02,.88-.18,1.32-.49,.45-.31,.85-.73,1.21-1.26,.36-.53,.6-1.12,.74-1.75h.85v3.5h4.2v.98l-4.2,.05-.05,6.95c0,.75,.06,1.39,.19,1.91,.12,.52,.33,.92,.61,1.19,.28,.27,.65,.4,1.1,.4s.9-.13,1.31-.4c.41-.27,.77-.63,1.09-1.1l.67,.55c-.37,.55-.73,.98-1.09,1.3s-.7,.55-1.04,.71c-.33,.16-.64,.26-.92,.3-.28,.04-.53,.06-.73,.06Z"/>
    <path d="M563.43,343.39c.52,0,.88-.13,1.08-.39s.32-.62,.35-1.08,.05-.99,.05-1.59v-3.5c0-1.43-.23-2.51-.69-3.23-.46-.72-1.18-1.07-2.16-1.05-.62,.02-1.22,.17-1.81,.45-.59,.28-1.07,.65-1.44,1.1v7.38c0,.33,0,.63-.03,.89s-.05,.53-.1,.81c.27-.02,.53-.03,.79-.04,.26,0,.52-.02,.79-.04v1.02h-5.1v-.75c.52,0,.88-.13,1.08-.39s.32-.62,.36-1.08c.04-.46,.06-.99,.06-1.59v-11.83c0-.27,0-.52,.01-.76s.03-.53,.06-.86c-.3,.02-.6,.03-.89,.05-.29,.02-.59,.03-.89,.05v-1.05c.73,0,1.3-.03,1.71-.1s.72-.15,.92-.25c.21-.1,.37-.21,.49-.33h.72v7.62c.37-.32,.78-.6,1.24-.84s.93-.44,1.42-.59c.49-.15,.97-.23,1.44-.23,1.45,0,2.5,.45,3.14,1.36s.97,2.32,.99,4.24l.03,4.65c0,.33,0,.63-.01,.89s-.04,.53-.09,.81c.27-.02,.53-.03,.79-.04,.26,0,.52-.02,.79-.04v1.02h-5.1v-.75Z"/>
    <path d="M576.43,344.54c-1.15,0-2.19-.27-3.11-.81-.92-.54-1.65-1.31-2.19-2.3s-.8-2.16-.8-3.51c0-1.17,.26-2.26,.79-3.28,.52-1.02,1.26-1.84,2.21-2.46s2.05-.94,3.3-.94c.7,0,1.35,.11,1.96,.34,.61,.23,1.15,.57,1.61,1.03,.47,.46,.83,1.03,1.1,1.72,.27,.69,.4,1.5,.4,2.44l-8.8,.15c0,1.27,.14,2.38,.41,3.34,.28,.96,.72,1.7,1.34,2.22,.62,.53,1.41,.79,2.38,.79,.52,0,1.05-.09,1.59-.27,.54-.18,1.04-.43,1.51-.75,.47-.32,.84-.67,1.12-1.05l.6,.5c-.45,.7-.99,1.26-1.62,1.67-.63,.42-1.28,.72-1.95,.9-.67,.18-1.28,.28-1.85,.28Zm-3.45-8.67h6.38c0-.6-.09-1.18-.26-1.74s-.46-1.02-.86-1.38c-.4-.36-.92-.54-1.58-.54-.97,0-1.77,.29-2.41,.86-.64,.58-1.06,1.5-1.26,2.79Z"/>
    <path d="M336.56,374.54c-.83,0-1.57-.11-2.22-.34-.65-.22-1.18-.48-1.6-.76l.1,.88h-1.05l-.15-4.3h.78c.03,.68,.22,1.3,.58,1.84,.35,.54,.8,.96,1.35,1.26s1.14,.45,1.78,.45c.43,0,.86-.07,1.27-.21,.42-.14,.77-.36,1.05-.65,.28-.29,.43-.66,.43-1.11s-.14-.85-.41-1.16c-.27-.31-.64-.58-1.09-.81-.45-.23-.93-.45-1.45-.65-.5-.2-1-.41-1.5-.62s-.96-.48-1.39-.78c-.42-.3-.76-.67-1.01-1.1s-.38-.97-.38-1.6c0-.35,.07-.73,.2-1.15,.13-.42,.36-.81,.67-1.19s.75-.68,1.3-.93c.55-.24,1.25-.36,2.1-.36,.45,0,.95,.08,1.5,.23,.55,.15,1.08,.43,1.6,.85l-.05-.95h1.05v4.38h-.8c-.03-.58-.17-1.15-.4-1.69s-.57-.99-1.02-1.35c-.45-.36-1.03-.54-1.75-.54-.77,0-1.37,.19-1.8,.58-.43,.38-.65,.83-.65,1.33s.16,.95,.49,1.29,.75,.64,1.26,.89,1.07,.49,1.65,.73c.63,.27,1.25,.56,1.85,.88s1.09,.71,1.47,1.19c.38,.47,.58,1.09,.58,1.84,0,.83-.21,1.52-.64,2.08-.42,.55-.97,.95-1.62,1.21-.66,.26-1.35,.39-2.06,.39Z"/>
    <path d="M349.07,374.54c-1.15,0-2.19-.27-3.11-.81-.92-.54-1.65-1.31-2.19-2.3s-.8-2.16-.8-3.51c0-1.17,.26-2.26,.79-3.28,.52-1.02,1.26-1.84,2.21-2.46s2.05-.94,3.3-.94c.7,0,1.35,.11,1.96,.34,.61,.23,1.15,.57,1.61,1.03,.47,.46,.83,1.03,1.1,1.72,.27,.69,.4,1.5,.4,2.44l-8.8,.15c0,1.27,.14,2.38,.41,3.34,.28,.96,.72,1.7,1.34,2.22,.62,.53,1.41,.79,2.38,.79,.52,0,1.05-.09,1.59-.27,.54-.18,1.04-.43,1.51-.75,.47-.32,.84-.67,1.12-1.05l.6,.5c-.45,.7-.99,1.26-1.62,1.67-.63,.42-1.28,.72-1.95,.9-.67,.18-1.28,.28-1.85,.28Zm-3.45-8.67h6.38c0-.6-.09-1.18-.26-1.74s-.46-1.02-.86-1.38c-.4-.36-.92-.54-1.58-.54-.97,0-1.77,.29-2.41,.86-.64,.58-1.06,1.5-1.26,2.79Z"/>
    <path d="M362.54,374.54c-1.12,0-2.15-.25-3.09-.76-.94-.51-1.69-1.24-2.25-2.2-.56-.96-.84-2.11-.84-3.46,0-.87,.16-1.71,.47-2.52s.76-1.55,1.34-2.21c.57-.66,1.26-1.18,2.06-1.56,.8-.38,1.68-.58,2.65-.58s1.75,.14,2.44,.42,1.23,.66,1.61,1.12c.38,.47,.58,.97,.58,1.53,0,.37-.1,.68-.3,.94s-.49,.39-.88,.39c-.42,.02-.71-.11-.89-.39s-.26-.52-.26-.74c0-.17,.03-.34,.08-.51,.05-.18,.15-.34,.3-.49-.13-.4-.37-.7-.7-.89-.33-.19-.68-.32-1.04-.38s-.65-.09-.89-.09c-1.13,0-2.09,.46-2.86,1.36-.77,.91-1.16,2.23-1.16,3.96,0,1.12,.18,2.11,.54,2.98,.36,.87,.86,1.54,1.51,2.04s1.4,.74,2.25,.74c.78,0,1.53-.21,2.25-.62s1.28-.92,1.67-1.52l.65,.5c-.43,.7-.95,1.27-1.56,1.7s-1.23,.75-1.88,.95-1.25,.3-1.81,.3Z"/>
    <path d="M375.82,374.54c-1.17,0-2.22-.27-3.17-.81s-1.7-1.29-2.26-2.25c-.56-.96-.84-2.05-.84-3.29,0-1.32,.27-2.5,.82-3.55,.55-1.05,1.3-1.88,2.25-2.49,.95-.61,2.02-.91,3.2-.91s2.23,.28,3.17,.84c.95,.56,1.71,1.31,2.28,2.26,.57,.95,.85,2.03,.85,3.25,0,1.28-.28,2.45-.84,3.51-.56,1.06-1.31,1.9-2.26,2.51s-2.02,.92-3.2,.92Zm.2-1c.88,0,1.58-.25,2.1-.75s.89-1.15,1.11-1.95c.22-.8,.34-1.64,.34-2.53,0-.75-.07-1.49-.21-2.21-.14-.72-.36-1.38-.66-1.97s-.69-1.06-1.16-1.41c-.48-.35-1.05-.53-1.71-.53-.87,0-1.58,.25-2.12,.75s-.95,1.15-1.21,1.95c-.26,.8-.39,1.66-.39,2.58,0,1.03,.14,2.01,.42,2.94,.28,.92,.72,1.68,1.3,2.26,.58,.58,1.32,.88,2.2,.88Z"/>
    <path d="M384.24,374.14v-.75c.52,0,.88-.13,1.08-.39s.32-.62,.35-1.08c.03-.46,.05-.99,.05-1.59l.02-5.7c0-.27,0-.53,.01-.8,0-.27,.04-.54,.09-.83-.3,.02-.6,.03-.89,.05-.29,.02-.59,.03-.89,.05v-1.05c.73,0,1.29-.03,1.66-.1s.65-.15,.84-.25c.18-.1,.33-.21,.45-.33h.72c.02,.12,.03,.25,.04,.4,0,.15,.02,.32,.04,.5s.03,.39,.03,.62c.37-.32,.77-.6,1.21-.85s.91-.45,1.4-.6c.49-.15,.98-.23,1.46-.23,1.45,0,2.51,.45,3.17,1.36,.67,.91,1,2.32,1,4.24v4.65c0,.33,0,.63-.01,.89,0,.26-.04,.53-.09,.81,.27-.02,.53-.03,.79-.04,.26,0,.52-.02,.79-.04v1.02h-5.1v-.75c.52,0,.88-.13,1.08-.39,.2-.26,.32-.62,.35-1.08s.05-.99,.05-1.59v-3.5c-.02-1.43-.25-2.52-.71-3.25-.46-.73-1.18-1.09-2.16-1.08-.6,.02-1.19,.18-1.76,.48-.57,.3-1.05,.68-1.44,1.15,.02,.13,.03,.28,.03,.45v.52l-.03,6.38c0,.33,0,.63-.01,.89,0,.26-.04,.53-.09,.81,.27-.02,.53-.03,.79-.04,.26,0,.52-.02,.79-.04v1.02h-5.1Z"/>
    <path d="M404.77,374.54c-1.02,0-1.93-.25-2.75-.76-.82-.51-1.46-1.24-1.94-2.19s-.71-2.07-.71-3.35c0-1.37,.28-2.58,.83-3.62s1.31-1.88,2.29-2.48c.98-.6,2.08-.9,3.31-.9,.55,0,1.1,.07,1.64,.21,.54,.14,.97,.3,1.29,.49v-3.43c0-.27,0-.52,.01-.76,0-.24,.03-.53,.06-.86-.3,.02-.6,.03-.89,.05-.29,.02-.59,.03-.89,.05v-1.05c.73,0,1.3-.03,1.7-.1,.4-.07,.7-.15,.91-.25,.21-.1,.37-.21,.49-.33h.73v16.23c0,.27,0,.53-.03,.8-.02,.27-.04,.57-.08,.9,.3-.02,.6-.03,.89-.05,.29-.02,.59-.03,.89-.05v1.05h-3.58c-.05-.25-.09-.48-.11-.69-.03-.21-.05-.41-.06-.61-.47,.52-1.04,.93-1.73,1.24-.68,.31-1.44,.46-2.27,.46Zm.9-1.22c.55,0,1.1-.16,1.66-.47,.56-.32,1.02-.71,1.39-1.18-.02-.2-.03-.41-.03-.64v-.74l.03-7.2c-.4-.3-.84-.52-1.31-.66-.48-.14-.96-.21-1.46-.21-.83,0-1.56,.24-2.17,.72-.62,.48-1.08,1.16-1.4,2.03-.32,.87-.46,1.88-.42,3.05,.03,1.02,.2,1.93,.49,2.73s.71,1.43,1.25,1.89,1.2,.69,1.99,.69Z"/>
    <path d="M421.74,358.51c0-.27,0-.52,.01-.76,0-.24,.03-.53,.06-.86-.3,.02-.6,.03-.89,.05-.29,.02-.59,.03-.89,.05v-1.05c.73,0,1.3-.03,1.71-.1s.72-.15,.93-.25c.21-.1,.37-.21,.49-.33h.72v7.45c.47-.47,1.02-.83,1.66-1.09,.64-.26,1.35-.39,2.11-.39,1.07,0,2.03,.26,2.89,.77,.86,.52,1.54,1.25,2.04,2.2,.5,.95,.75,2.07,.75,3.38,0,1.42-.31,2.65-.92,3.69-.62,1.04-1.42,1.85-2.4,2.41s-2.04,.85-3.17,.85c-.57,0-1.19-.1-1.86-.31-.67-.21-1.28-.61-1.81-1.21l-.6,1.12h-.88l.05-15.62Zm2.15,11.7c0,.88,.14,1.56,.42,2.04s.65,.8,1.1,.99c.45,.18,.92,.27,1.42,.27,.8,0,1.49-.22,2.08-.67,.58-.45,1.04-1.07,1.36-1.86,.33-.79,.49-1.71,.49-2.76,0-1.13-.14-2.13-.42-2.99-.28-.86-.71-1.53-1.28-2.03-.57-.49-1.28-.74-2.15-.74-.55,0-1.1,.13-1.64,.39-.54,.26-1,.6-1.39,1.04v6.33Z"/>
    <path d="M441.54,374.54c-1.15,0-2.19-.27-3.11-.81-.92-.54-1.65-1.31-2.19-2.3s-.8-2.16-.8-3.51c0-1.17,.26-2.26,.79-3.28,.52-1.02,1.26-1.84,2.21-2.46s2.05-.94,3.3-.94c.7,0,1.35,.11,1.96,.34,.61,.23,1.15,.57,1.61,1.03,.47,.46,.83,1.03,1.1,1.72,.27,.69,.4,1.5,.4,2.44l-8.8,.15c0,1.27,.14,2.38,.41,3.34,.28,.96,.72,1.7,1.34,2.22,.62,.53,1.41,.79,2.38,.79,.52,0,1.05-.09,1.59-.27,.54-.18,1.04-.43,1.51-.75,.47-.32,.84-.67,1.12-1.05l.6,.5c-.45,.7-.99,1.26-1.62,1.67-.63,.42-1.28,.72-1.95,.9-.67,.18-1.28,.28-1.85,.28Zm-3.45-8.67h6.38c0-.6-.09-1.18-.26-1.74s-.46-1.02-.86-1.38c-.4-.36-.92-.54-1.58-.54-.97,0-1.77,.29-2.41,.86-.64,.58-1.06,1.5-1.26,2.79Z"/>
    <path d="M454.16,374.54c-.83,0-1.57-.11-2.22-.34-.65-.22-1.18-.48-1.6-.76l.1,.88h-1.05l-.15-4.3h.78c.03,.68,.22,1.3,.58,1.84,.35,.54,.8,.96,1.35,1.26s1.14,.45,1.78,.45c.43,0,.86-.07,1.27-.21,.42-.14,.77-.36,1.05-.65,.28-.29,.43-.66,.43-1.11s-.14-.85-.41-1.16c-.27-.31-.64-.58-1.09-.81-.45-.23-.93-.45-1.45-.65-.5-.2-1-.41-1.5-.62s-.96-.48-1.39-.78c-.42-.3-.76-.67-1.01-1.1s-.38-.97-.38-1.6c0-.35,.07-.73,.2-1.15,.13-.42,.36-.81,.67-1.19s.75-.68,1.3-.93c.55-.24,1.25-.36,2.1-.36,.45,0,.95,.08,1.5,.23,.55,.15,1.08,.43,1.6,.85l-.05-.95h1.05v4.38h-.8c-.03-.58-.17-1.15-.4-1.69s-.57-.99-1.02-1.35c-.45-.36-1.03-.54-1.75-.54-.77,0-1.37,.19-1.8,.58-.43,.38-.65,.83-.65,1.33s.16,.95,.49,1.29,.75,.64,1.26,.89,1.07,.49,1.65,.73c.63,.27,1.25,.56,1.85,.88s1.09,.71,1.47,1.19c.38,.47,.58,1.09,.58,1.84,0,.83-.21,1.52-.64,2.08-.42,.55-.97,.95-1.62,1.21-.66,.26-1.35,.39-2.06,.39Z"/>
    <path d="M465.31,374.54c-.38,0-.77-.05-1.17-.16-.4-.11-.77-.32-1.11-.64-.34-.32-.61-.78-.81-1.39-.2-.61-.3-1.41-.3-2.41l.05-7.25-1.92,.03v-1.08c.43-.02,.88-.18,1.32-.49,.45-.31,.85-.73,1.21-1.26,.36-.53,.6-1.12,.74-1.75h.85v3.5h4.2v.98l-4.2,.05-.05,6.95c0,.75,.06,1.39,.19,1.91,.12,.52,.33,.92,.61,1.19,.28,.27,.65,.4,1.1,.4s.9-.13,1.31-.4c.41-.27,.77-.63,1.09-1.1l.67,.55c-.37,.55-.73,.98-1.09,1.3s-.7,.55-1.04,.71c-.33,.16-.64,.26-.92,.3-.28,.04-.53,.06-.73,.06Z"/>
    <path d="M472.24,374.54c-.38,0-.72-.15-1.01-.46-.29-.31-.44-.69-.44-1.14s.15-.83,.45-1.15,.64-.47,1.03-.47c.42,0,.76,.16,1.04,.47,.28,.32,.41,.7,.41,1.15s-.15,.83-.45,1.14c-.3,.31-.64,.46-1.03,.46Z"/>
  </g>
</svg>