<?xml version="1.0" encoding="UTF-8"?>
<svg id="droite" xmlns="http://www.w3.org/2000/svg" viewBox="0 0 800 600">
  <defs>
    <style>
      .cls-1, .cls-2 {
        opacity: .47;
      }

      .cls-1, .cls-3 {
        fill: #fff;
      }

      .cls-2 {
        fill: #541c1d;
      }

      .cls-4 {
        fill: #42210b;
      }

      .cls-3 {
        opacity: .75;
      }
    </style>
  </defs>
  <rect class="cls-3" x="133.78" y="45.26" width="532.45" height="474.53" rx="40" ry="40"/>
  <rect class="cls-4" x="133.78" y="45.26" width="532.45" height="377.42" rx="40" ry="40"/>
  <g>
    <path d="M180.9,460.54c-.62,.02-1.05,.16-1.29,.42-.24,.27-.38,.62-.4,1.08-.03,.45-.04,.97-.04,1.57v10.62c0,.45,0,.84-.01,1.16,0,.33-.03,.6-.06,.81l.9-.05c.3-.02,.6-.03,.9-.05v1.1h-5.62v-.83c.63-.03,1.07-.18,1.3-.44,.23-.26,.36-.62,.39-1.07s.04-.98,.04-1.56v-10.8c0-.33,0-.65,.03-.96,.02-.31,.03-.59,.05-.84-.3,.02-.6,.03-.9,.05-.3,.02-.6,.03-.9,.05v-1.1h5.62v.83Z"/>
    <path d="M187.65,477.61c-.38,0-.77-.05-1.17-.16s-.77-.32-1.11-.64c-.34-.32-.61-.78-.81-1.39-.2-.61-.3-1.41-.3-2.41l.05-7.25-1.92,.03v-1.08c.43-.02,.88-.18,1.32-.49,.45-.31,.85-.73,1.21-1.26,.36-.53,.6-1.12,.74-1.75h.85v3.5h4.2v.98l-4.2,.05-.05,6.95c0,.75,.06,1.39,.19,1.91,.12,.52,.33,.92,.61,1.19,.28,.27,.65,.4,1.1,.4s.9-.13,1.31-.4,.77-.63,1.09-1.1l.67,.55c-.37,.55-.73,.98-1.09,1.3s-.7,.55-1.04,.71c-.33,.16-.64,.26-.92,.3-.28,.04-.53,.06-.73,.06Z"/>
    <path d="M199.2,476.46c.52,0,.88-.13,1.08-.39,.2-.26,.32-.62,.35-1.07,.03-.46,.05-.99,.05-1.59v-5.7c0-.27,0-.52,.02-.76,.02-.24,.04-.53,.08-.86-.3,.02-.6,.03-.89,.05-.29,.02-.59,.03-.89,.05v-1.05c.73,0,1.3-.03,1.7-.1,.4-.07,.7-.15,.91-.25,.21-.1,.37-.21,.49-.33h.72v10.1c0,.33,0,.63-.01,.89,0,.26-.04,.53-.09,.81,.27-.02,.53-.03,.79-.04,.26,0,.52-.02,.79-.04v1.02h-5.1v-.75Zm2.43-14.48c-.35,0-.66-.14-.93-.42-.27-.28-.4-.63-.4-1.05s.14-.77,.41-1.06c.28-.29,.59-.44,.94-.44,.38,0,.7,.15,.96,.44,.26,.29,.39,.65,.39,1.06s-.14,.77-.41,1.05c-.27,.28-.6,.42-.96,.42Z"/>
    <path d="M211.35,477.61c-.83,0-1.57-.11-2.22-.34s-1.18-.48-1.6-.76l.1,.88h-1.05l-.15-4.3h.78c.03,.68,.22,1.3,.58,1.84,.35,.54,.8,.96,1.35,1.26,.55,.3,1.14,.45,1.78,.45,.43,0,.86-.07,1.27-.21,.42-.14,.77-.36,1.05-.65,.28-.29,.43-.66,.43-1.11s-.14-.85-.41-1.16c-.27-.31-.64-.58-1.09-.81-.45-.23-.93-.45-1.45-.65-.5-.2-1-.41-1.5-.62s-.96-.48-1.39-.78c-.42-.3-.76-.67-1.01-1.1s-.38-.97-.38-1.6c0-.35,.07-.73,.2-1.15,.13-.42,.36-.81,.67-1.19s.75-.68,1.3-.93c.55-.24,1.25-.36,2.1-.36,.45,0,.95,.07,1.5,.23,.55,.15,1.08,.43,1.6,.85l-.05-.95h1.05v4.38h-.8c-.03-.58-.17-1.15-.4-1.69s-.57-.99-1.02-1.35-1.03-.54-1.75-.54c-.77,0-1.37,.19-1.8,.58-.43,.38-.65,.82-.65,1.32s.16,.95,.49,1.29c.33,.34,.75,.64,1.26,.89s1.07,.49,1.65,.73c.63,.27,1.25,.56,1.85,.88s1.09,.71,1.47,1.19c.38,.47,.58,1.09,.58,1.84,0,.83-.21,1.52-.64,2.07-.42,.55-.97,.95-1.62,1.21-.66,.26-1.35,.39-2.06,.39Z"/>
    <path d="M223.05,483.99c-.68,0-1.18-.14-1.5-.42-.32-.28-.48-.61-.48-.98,0-.3,.1-.57,.29-.81,.19-.24,.45-.36,.79-.36,.42-.02,.7,.1,.86,.36,.16,.26,.24,.49,.24,.69v.11s0,.08-.02,.11c.23,.1,.45,.15,.65,.15,.48,0,.85-.17,1.1-.52s.42-.79,.5-1.33c.08-.53,.12-1.07,.12-1.62l.05-11.65c0-.27,0-.52,.01-.76,0-.24,.03-.53,.06-.86-.3,.02-.6,.03-.89,.05-.29,.02-.59,.03-.89,.05v-1.05c.73,0,1.3-.03,1.71-.1,.41-.07,.72-.15,.92-.25,.21-.1,.37-.21,.49-.33h.73v12.83c0,1.55-.21,2.82-.62,3.81-.42,.99-.98,1.72-1.7,2.19-.72,.47-1.53,.7-2.42,.7Zm3.55-22c-.35,0-.66-.14-.92-.42-.27-.28-.4-.63-.4-1.05s.14-.77,.41-1.06c.28-.29,.59-.44,.94-.44,.38,0,.7,.15,.96,.44,.26,.29,.39,.65,.39,1.06s-.14,.77-.41,1.05c-.27,.28-.6,.42-.96,.42Z"/>
    <path d="M234.95,477.61c-.9,0-1.65-.17-2.26-.5-.61-.33-1.07-.9-1.38-1.7-.31-.8-.46-1.88-.46-3.25v-4.45c0-.27,0-.53,.01-.8,0-.27,.04-.54,.09-.83-.28,.02-.57,.03-.86,.04-.29,0-.58,.02-.86,.04v-1.03h.77c.72,0,1.24-.07,1.56-.21,.33-.14,.58-.3,.76-.46h.72v7.62c0,1.43,.2,2.5,.61,3.21,.41,.71,1.1,1.05,2.09,1.04,.63-.02,1.24-.21,1.81-.59s1.04-.82,1.39-1.34v-6.43c0-.4,0-.75,.03-1.04,.02-.29,.05-.58,.1-.86-.3,.02-.6,.03-.9,.04-.3,0-.6,.02-.9,.04v-1.03h.77c.72,0,1.24-.07,1.56-.21,.33-.14,.58-.3,.76-.46h.73l-.03,9.45c0,.27,0,.64-.03,1.12s-.04,.89-.07,1.22c.3-.02,.6-.03,.9-.05s.6-.03,.9-.05v1.05h-3.58c-.05-.28-.09-.55-.11-.8-.03-.25-.05-.48-.06-.7-.52,.52-1.14,.96-1.88,1.34s-1.47,.56-2.2,.56Z"/>
    <path d="M249.73,477.61c-.83,0-1.57-.11-2.22-.34s-1.18-.48-1.6-.76l.1,.88h-1.05l-.15-4.3h.78c.03,.68,.22,1.3,.58,1.84,.35,.54,.8,.96,1.35,1.26,.55,.3,1.14,.45,1.78,.45,.43,0,.86-.07,1.27-.21,.42-.14,.77-.36,1.05-.65,.28-.29,.43-.66,.43-1.11s-.14-.85-.41-1.16c-.27-.31-.64-.58-1.09-.81-.45-.23-.93-.45-1.45-.65-.5-.2-1-.41-1.5-.62s-.96-.48-1.39-.78c-.42-.3-.76-.67-1.01-1.1s-.38-.97-.38-1.6c0-.35,.07-.73,.2-1.15,.13-.42,.36-.81,.67-1.19s.75-.68,1.3-.93c.55-.24,1.25-.36,2.1-.36,.45,0,.95,.07,1.5,.23,.55,.15,1.08,.43,1.6,.85l-.05-.95h1.05v4.38h-.8c-.03-.58-.17-1.15-.4-1.69s-.57-.99-1.02-1.35-1.03-.54-1.75-.54c-.77,0-1.37,.19-1.8,.58-.43,.38-.65,.82-.65,1.32s.16,.95,.49,1.29c.33,.34,.75,.64,1.26,.89s1.07,.49,1.65,.73c.63,.27,1.25,.56,1.85,.88s1.09,.71,1.47,1.19c.38,.47,.58,1.09,.58,1.84,0,.83-.21,1.52-.64,2.07-.42,.55-.97,.95-1.62,1.21-.66,.26-1.35,.39-2.06,.39Z"/>
    <path d="M260.88,477.61c-.38,0-.77-.05-1.17-.16s-.77-.32-1.11-.64c-.34-.32-.61-.78-.81-1.39-.2-.61-.3-1.41-.3-2.41l.05-7.25-1.92,.03v-1.08c.43-.02,.88-.18,1.32-.49,.45-.31,.85-.73,1.21-1.26,.36-.53,.6-1.12,.74-1.75h.85v3.5h4.2v.98l-4.2,.05-.05,6.95c0,.75,.06,1.39,.19,1.91,.12,.52,.33,.92,.61,1.19,.28,.27,.65,.4,1.1,.4s.9-.13,1.31-.4,.77-.63,1.09-1.1l.67,.55c-.37,.55-.73,.98-1.09,1.3s-.7,.55-1.04,.71c-.33,.16-.64,.26-.92,.3-.28,.04-.53,.06-.73,.06Z"/>
    <path d="M280.03,477.21c-.05-.28-.08-.53-.1-.75-.02-.22-.04-.44-.07-.67-.57,.57-1.18,1.01-1.84,1.34-.66,.32-1.35,.49-2.09,.49-1.27,0-2.21-.29-2.82-.86-.62-.58-.93-1.28-.93-2.11,0-.77,.24-1.43,.71-1.99,.47-.56,1.09-1.02,1.85-1.38,.76-.36,1.58-.62,2.48-.8,.89-.18,1.75-.25,2.59-.24v-1.55c0-.58-.05-1.13-.15-1.65-.1-.52-.32-.94-.65-1.28-.33-.33-.87-.51-1.6-.52-.48-.02-.98,.08-1.49,.27-.51,.2-.88,.54-1.11,1.03,.13,.13,.22,.29,.26,.46,.04,.17,.06,.34,.06,.49,0,.2-.08,.43-.25,.69-.17,.26-.46,.38-.88,.36-.35,0-.62-.12-.8-.36-.18-.24-.28-.53-.28-.86,0-.57,.21-1.08,.64-1.52,.42-.45,1.01-.81,1.76-1.08s1.6-.4,2.55-.4c1.4,0,2.43,.37,3.1,1.11,.67,.74,.99,1.91,.97,3.51v1.86c0,.62,0,1.25-.01,1.88s-.01,1.25-.01,1.89c0,.27,0,.53-.02,.8-.02,.27-.04,.57-.08,.9,.3-.02,.6-.03,.89-.05,.29-.02,.59-.03,.89-.05v1.05h-3.58Zm-.23-6.12c-.57,.02-1.16,.09-1.79,.21s-1.2,.31-1.72,.56c-.53,.25-.95,.58-1.28,.99s-.48,.9-.46,1.49c.03,.62,.24,1.08,.61,1.39s.82,.46,1.34,.46c.68,0,1.28-.13,1.79-.39,.51-.26,1.01-.62,1.51-1.09-.02-.18-.02-.38-.02-.6v-.67c0-.08,0-.35,.01-.8,0-.45,.01-.97,.01-1.55Z"/>
    <path d="M285.32,477.21v-.75c.52,0,.88-.13,1.08-.39,.2-.26,.32-.62,.35-1.07,.03-.46,.05-.99,.05-1.59l.02-5.7c0-.27,0-.53,.01-.8s.04-.54,.09-.83c-.3,.02-.6,.03-.89,.05-.29,.02-.59,.03-.89,.05v-1.05c.73,0,1.29-.03,1.66-.1s.65-.15,.84-.25c.18-.1,.33-.21,.45-.33h.72c.02,.12,.03,.25,.04,.4,0,.15,.02,.32,.04,.5,.02,.18,.03,.39,.03,.62,.37-.32,.77-.6,1.21-.85s.91-.45,1.4-.6c.49-.15,.98-.23,1.46-.23,1.45,0,2.51,.45,3.17,1.36,.67,.91,1,2.32,1,4.24v4.65c0,.33,0,.63-.01,.89,0,.26-.04,.53-.09,.81,.27-.02,.53-.03,.79-.04,.26,0,.52-.02,.79-.04v1.02h-5.1v-.75c.52,0,.88-.13,1.08-.39,.2-.26,.32-.62,.35-1.07s.05-.99,.05-1.59v-3.5c-.02-1.43-.25-2.52-.71-3.25-.46-.73-1.18-1.09-2.16-1.08-.6,.02-1.19,.17-1.76,.48-.57,.3-1.05,.68-1.44,1.15,.02,.13,.03,.28,.03,.45v.52l-.03,6.38c0,.33,0,.63-.01,.89,0,.26-.04,.53-.09,.81,.27-.02,.53-.03,.79-.04,.26,0,.52-.02,.79-.04v1.02h-5.1Z"/>
    <path d="M314.67,477.21c-.05-.28-.08-.53-.1-.75-.02-.22-.04-.44-.07-.67-.57,.57-1.18,1.01-1.84,1.34-.66,.32-1.35,.49-2.09,.49-1.27,0-2.21-.29-2.82-.86-.62-.58-.93-1.28-.93-2.11,0-.77,.24-1.43,.71-1.99,.47-.56,1.09-1.02,1.85-1.38,.76-.36,1.58-.62,2.48-.8,.89-.18,1.75-.25,2.59-.24v-1.55c0-.58-.05-1.13-.15-1.65-.1-.52-.32-.94-.65-1.28-.33-.33-.87-.51-1.6-.52-.48-.02-.98,.08-1.49,.27-.51,.2-.88,.54-1.11,1.03,.13,.13,.22,.29,.26,.46,.04,.17,.06,.34,.06,.49,0,.2-.08,.43-.25,.69-.17,.26-.46,.38-.88,.36-.35,0-.62-.12-.8-.36-.18-.24-.28-.53-.28-.86,0-.57,.21-1.08,.64-1.52,.42-.45,1.01-.81,1.76-1.08s1.6-.4,2.55-.4c1.4,0,2.43,.37,3.1,1.11,.67,.74,.99,1.91,.97,3.51v1.86c0,.62,0,1.25-.01,1.88s-.01,1.25-.01,1.89c0,.27,0,.53-.02,.8-.02,.27-.04,.57-.08,.9,.3-.02,.6-.03,.89-.05,.29-.02,.59-.03,.89-.05v1.05h-3.58Zm-.23-6.12c-.57,.02-1.16,.09-1.79,.21s-1.2,.31-1.72,.56c-.53,.25-.95,.58-1.28,.99s-.48,.9-.46,1.49c.03,.62,.24,1.08,.61,1.39s.82,.46,1.34,.46c.68,0,1.28-.13,1.79-.39,.51-.26,1.01-.62,1.51-1.09-.02-.18-.02-.38-.02-.6v-.67c0-.08,0-.35,.01-.8,0-.45,.01-.97,.01-1.55Z"/>
    <path d="M319.72,476.46c.52,0,.88-.13,1.08-.39,.2-.26,.32-.62,.35-1.07,.03-.46,.05-.99,.05-1.59v-11.83c0-.27,0-.52,.01-.76,0-.24,.03-.53,.06-.86-.3,.02-.6,.03-.89,.05-.29,.02-.59,.03-.89,.05v-1.05c.73,0,1.3-.03,1.71-.1,.41-.07,.72-.15,.92-.25,.21-.1,.37-.21,.49-.33h.72l.03,16.23c0,.33,0,.63-.03,.89-.02,.26-.05,.53-.1,.81,.27-.02,.53-.03,.79-.04,.26,0,.52-.02,.79-.04v1.02h-5.1v-.75Z"/>
    <path d="M326.77,477.21v-.75c.52,0,.88-.13,1.08-.39,.2-.26,.32-.62,.35-1.07,.03-.46,.05-.99,.05-1.59v-5.7c0-.27,0-.53,.01-.8,0-.27,.04-.54,.09-.83-.3,.02-.6,.03-.89,.05-.29,.02-.59,.03-.89,.05v-1.05c.73,0,1.29-.03,1.66-.1s.65-.15,.84-.25c.18-.1,.33-.21,.45-.33h.73c.03,.17,.05,.36,.06,.58,0,.22,.02,.47,.04,.75,.5-.43,1.08-.79,1.73-1.06,.65-.28,1.3-.41,1.95-.41,.83,0,1.53,.15,2.1,.45,.57,.3,1.01,.71,1.33,1.23,.57-.47,1.22-.86,1.96-1.19,.74-.32,1.47-.49,2.19-.49,1.45,0,2.52,.44,3.2,1.31s1.01,2.3,.97,4.29l-.02,4.65c0,.33,0,.63-.01,.89,0,.26-.04,.53-.09,.81,.27-.02,.53-.03,.79-.04,.26,0,.52-.02,.79-.04v1.02h-5.1v-.75c.52,0,.88-.13,1.08-.39,.2-.26,.32-.62,.35-1.07s.05-.99,.05-1.59v-3.5c0-1.43-.23-2.51-.69-3.23-.46-.72-1.18-1.07-2.16-1.05-.52,0-1.03,.12-1.55,.35-.52,.23-.97,.52-1.35,.88,.08,.27,.15,.55,.19,.86s.06,.63,.06,.96c-.02,.97-.02,1.94-.02,2.92s0,1.97-.03,2.95c0,.33,0,.63-.01,.89,0,.26-.04,.53-.09,.81,.27-.02,.53-.03,.79-.04,.26,0,.52-.02,.79-.04v1.02h-5.1v-.75c.52,0,.87-.13,1.06-.39,.19-.26,.31-.62,.35-1.07,.04-.46,.06-.99,.06-1.59l.03-3.5c.02-1.43-.19-2.52-.62-3.25s-1.14-1.09-2.12-1.08c-.52,0-1.03,.11-1.53,.34s-.92,.51-1.27,.86c0,.2,0,.41,.01,.64,0,.23,.01,.46,.01,.71v6.43c0,.33,0,.63-.01,.89,0,.26-.04,.53-.09,.81,.27-.02,.53-.03,.79-.04,.26,0,.52-.02,.79-.04v1.02h-5.1Z"/>
    <path d="M355.32,477.61c-1.17,0-2.22-.27-3.17-.81s-1.7-1.29-2.26-2.25c-.56-.96-.84-2.05-.84-3.29,0-1.32,.27-2.5,.82-3.55,.55-1.05,1.3-1.88,2.25-2.49,.95-.61,2.02-.91,3.2-.91s2.23,.28,3.17,.84c.95,.56,1.71,1.31,2.28,2.26,.57,.95,.85,2.03,.85,3.25,0,1.28-.28,2.45-.84,3.51-.56,1.06-1.31,1.9-2.26,2.51-.95,.62-2.02,.92-3.2,.92Zm.2-1c.88,0,1.58-.25,2.1-.75s.89-1.15,1.11-1.95c.22-.8,.34-1.64,.34-2.53,0-.75-.07-1.49-.21-2.21-.14-.73-.36-1.38-.66-1.98-.3-.59-.69-1.06-1.16-1.41-.48-.35-1.05-.53-1.71-.53-.87,0-1.58,.25-2.12,.75s-.95,1.15-1.21,1.95c-.26,.8-.39,1.66-.39,2.58,0,1.03,.14,2.01,.42,2.94,.28,.92,.72,1.68,1.3,2.26,.58,.58,1.32,.88,2.2,.88Z"/>
    <path d="M368.87,477.61c-.83,0-1.57-.11-2.22-.34s-1.18-.48-1.6-.76l.1,.88h-1.05l-.15-4.3h.78c.03,.68,.22,1.3,.58,1.84,.35,.54,.8,.96,1.35,1.26,.55,.3,1.14,.45,1.78,.45,.43,0,.86-.07,1.27-.21,.42-.14,.77-.36,1.05-.65,.28-.29,.43-.66,.43-1.11s-.14-.85-.41-1.16c-.27-.31-.64-.58-1.09-.81-.45-.23-.93-.45-1.45-.65-.5-.2-1-.41-1.5-.62s-.96-.48-1.39-.78c-.42-.3-.76-.67-1.01-1.1s-.38-.97-.38-1.6c0-.35,.07-.73,.2-1.15,.13-.42,.36-.81,.67-1.19s.75-.68,1.3-.93c.55-.24,1.25-.36,2.1-.36,.45,0,.95,.07,1.5,.23,.55,.15,1.08,.43,1.6,.85l-.05-.95h1.05v4.38h-.8c-.03-.58-.17-1.15-.4-1.69s-.57-.99-1.02-1.35-1.03-.54-1.75-.54c-.77,0-1.37,.19-1.8,.58-.43,.38-.65,.82-.65,1.32s.16,.95,.49,1.29c.33,.34,.75,.64,1.26,.89s1.07,.49,1.65,.73c.63,.27,1.25,.56,1.85,.88s1.09,.71,1.47,1.19c.38,.47,.58,1.09,.58,1.84,0,.83-.21,1.52-.64,2.07-.42,.55-.97,.95-1.62,1.21-.66,.26-1.35,.39-2.06,.39Z"/>
    <path d="M380.02,477.61c-.38,0-.77-.05-1.17-.16s-.77-.32-1.11-.64c-.34-.32-.61-.78-.81-1.39-.2-.61-.3-1.41-.3-2.41l.05-7.25-1.92,.03v-1.08c.43-.02,.88-.18,1.32-.49,.45-.31,.85-.73,1.21-1.26,.36-.53,.6-1.12,.74-1.75h.85v3.5h4.2v.98l-4.2,.05-.05,6.95c0,.75,.06,1.39,.19,1.91,.12,.52,.33,.92,.61,1.19,.28,.27,.65,.4,1.1,.4s.9-.13,1.31-.4,.77-.63,1.09-1.1l.67,.55c-.37,.55-.73,.98-1.09,1.3s-.7,.55-1.04,.71c-.33,.16-.64,.26-.92,.3-.28,.04-.53,.06-.73,.06Z"/>
    <path d="M397.62,477.61c-1.15,0-2.19-.27-3.11-.81-.92-.54-1.65-1.31-2.19-2.3s-.8-2.16-.8-3.51c0-1.17,.26-2.26,.79-3.27,.52-1.02,1.26-1.84,2.21-2.46s2.05-.94,3.3-.94c.7,0,1.35,.11,1.96,.34s1.15,.57,1.61,1.02c.47,.46,.83,1.03,1.1,1.73,.27,.69,.4,1.5,.4,2.44l-8.8,.15c0,1.27,.14,2.38,.41,3.34,.28,.96,.72,1.7,1.34,2.23,.62,.52,1.41,.79,2.38,.79,.52,0,1.05-.09,1.59-.27,.54-.18,1.04-.43,1.51-.75,.47-.32,.84-.67,1.12-1.05l.6,.5c-.45,.7-.99,1.26-1.62,1.68-.63,.42-1.28,.72-1.95,.9-.67,.18-1.28,.27-1.85,.27Zm-3.45-8.67h6.38c0-.6-.09-1.18-.26-1.74-.17-.56-.46-1.02-.86-1.38-.4-.36-.92-.54-1.58-.54-.97,0-1.77,.29-2.41,.86-.64,.58-1.06,1.5-1.26,2.79Z"/>
    <path d="M405.12,477.21v-.75c.52,0,.88-.13,1.08-.39,.2-.26,.32-.62,.35-1.07,.03-.46,.05-.99,.05-1.59v-5.7c0-.27,0-.53,.01-.8,0-.27,.04-.54,.09-.83-.3,.02-.6,.03-.89,.05-.29,.02-.59,.03-.89,.05v-1.05c.73,0,1.29-.03,1.66-.1s.65-.15,.84-.25c.18-.1,.33-.21,.45-.33h.73c.03,.17,.05,.36,.06,.58,0,.22,.02,.47,.04,.75,.5-.43,1.08-.79,1.73-1.06,.65-.28,1.3-.41,1.95-.41,.83,0,1.53,.15,2.1,.45,.57,.3,1.01,.71,1.33,1.23,.57-.47,1.22-.86,1.96-1.19,.74-.32,1.47-.49,2.19-.49,1.45,0,2.52,.44,3.2,1.31s1.01,2.3,.97,4.29l-.02,4.65c0,.33,0,.63-.01,.89,0,.26-.04,.53-.09,.81,.27-.02,.53-.03,.79-.04,.26,0,.52-.02,.79-.04v1.02h-5.1v-.75c.52,0,.88-.13,1.08-.39,.2-.26,.32-.62,.35-1.07s.05-.99,.05-1.59v-3.5c0-1.43-.23-2.51-.69-3.23-.46-.72-1.18-1.07-2.16-1.05-.52,0-1.03,.12-1.55,.35-.52,.23-.97,.52-1.35,.88,.08,.27,.15,.55,.19,.86s.06,.63,.06,.96c-.02,.97-.02,1.94-.02,2.92s0,1.97-.03,2.95c0,.33,0,.63-.01,.89,0,.26-.04,.53-.09,.81,.27-.02,.53-.03,.79-.04,.26,0,.52-.02,.79-.04v1.02h-5.1v-.75c.52,0,.87-.13,1.06-.39,.19-.26,.31-.62,.35-1.07,.04-.46,.06-.99,.06-1.59l.03-3.5c.02-1.43-.19-2.52-.62-3.25s-1.14-1.09-2.12-1.08c-.52,0-1.03,.11-1.53,.34s-.92,.51-1.27,.86c0,.2,0,.41,.01,.64,0,.23,.01,.46,.01,.71v6.43c0,.33,0,.63-.01,.89,0,.26-.04,.53-.09,.81,.27-.02,.53-.03,.79-.04,.26,0,.52-.02,.79-.04v1.02h-5.1Z"/>
    <path d="M427.25,483.59v-.75c.52,0,.88-.13,1.08-.39s.32-.62,.35-1.07c.03-.46,.05-.99,.05-1.59l.05-12.08c0-.27,0-.53,.01-.8,0-.27,.04-.54,.09-.83-.3,.02-.6,.03-.89,.05-.29,.02-.59,.03-.89,.05v-1.05c.73,0,1.29-.03,1.66-.1s.65-.15,.83-.25c.17-.1,.32-.21,.44-.33h.75c.02,.17,.03,.36,.05,.59s.03,.48,.05,.76c.5-.45,1.1-.81,1.79-1.09,.69-.28,1.39-.41,2.09-.41,.97,0,1.87,.25,2.7,.75,.83,.5,1.51,1.21,2.02,2.14,.52,.93,.78,2.03,.78,3.31,0,1.42-.3,2.66-.89,3.73-.59,1.07-1.37,1.9-2.34,2.49-.97,.59-2.02,.89-3.15,.89-.58,0-1.12-.07-1.61-.21-.49-.14-.95-.35-1.39-.61v4.15c0,.33,0,.63-.01,.89s-.04,.53-.09,.81c.27-.02,.53-.03,.79-.04,.26,0,.52-.02,.79-.04v1.02h-5.1Zm6.58-6.98c.8,0,1.49-.25,2.06-.74s1.02-1.17,1.33-2.02c.31-.86,.46-1.84,.46-2.94,0-.9-.13-1.76-.39-2.59-.26-.82-.67-1.5-1.22-2.01s-1.3-.77-2.21-.77c-.57,0-1.11,.14-1.64,.41-.53,.28-.96,.6-1.31,.99,0,.07,0,.16,.01,.29,0,.12,.01,.34,.01,.65v1.38c0,.61,0,1.43-.01,2.46,0,1.03-.01,2.34-.01,3.92,.42,.32,.87,.56,1.36,.73,.49,.17,1.01,.25,1.56,.25Z"/>
    <path d="M447.1,477.61c-.38,0-.77-.05-1.17-.16s-.77-.32-1.11-.64c-.34-.32-.61-.78-.81-1.39-.2-.61-.3-1.41-.3-2.41l.05-7.25-1.92,.03v-1.08c.43-.02,.88-.18,1.32-.49,.45-.31,.85-.73,1.21-1.26,.36-.53,.6-1.12,.74-1.75h.85v3.5h4.2v.98l-4.2,.05-.05,6.95c0,.75,.06,1.39,.19,1.91,.12,.52,.33,.92,.61,1.19,.28,.27,.65,.4,1.1,.4s.9-.13,1.31-.4,.77-.63,1.09-1.1l.67,.55c-.37,.55-.73,.98-1.09,1.3s-.7,.55-1.04,.71c-.33,.16-.64,.26-.92,.3-.28,.04-.53,.06-.73,.06Z"/>
    <path d="M454.05,483.99c-.52,0-.96-.12-1.33-.38-.37-.25-.55-.63-.55-1.15,0-.3,.1-.58,.3-.83s.46-.38,.77-.38c.4-.02,.67,.11,.81,.38s.21,.5,.21,.7v.16c0,.06,0,.12-.03,.19,.05,.03,.14,.05,.28,.05,.2,0,.42-.08,.65-.25,.23-.17,.44-.41,.62-.73,.22-.37,.47-.92,.76-1.65,.29-.73,.62-1.61,.99-2.62l-3.9-8.35c-.43-.93-.75-1.67-.94-2.22-.19-.55-.32-.96-.39-1.23l-1.2,.05v-1.02h5.18v.75h-.1c-.7,.05-1.08,.31-1.15,.79-.07,.48,.12,1.2,.57,2.16l2.93,6.27c.38-1.07,.75-2.12,1.1-3.16,.35-1.04,.7-2.08,1.05-3.11,.13-.37,.27-.75,.41-1.14,.14-.39,.28-.74,.42-1.05s.27-.5,.39-.59l-1.73,.1v-1.02h3.92v.75c-.62,.23-1.08,.62-1.39,1.16-.31,.54-.62,1.24-.94,2.09l-3.12,8.73c-.5,1.4-.96,2.59-1.38,3.56-.42,.98-.88,1.72-1.38,2.23-.5,.51-1.12,.76-1.88,.76Z"/>
    <path d="M477.92,483.99c-1.5,0-2.71-.17-3.62-.5-.92-.33-1.58-.76-2-1.27-.42-.52-.62-1.05-.62-1.6,0-.52,.12-.97,.36-1.36,.24-.39,.54-.73,.9-1.01,.36-.28,.7-.49,1.04-.62-.53-.18-.95-.43-1.26-.74-.31-.31-.46-.72-.46-1.24,0-.58,.23-1.13,.7-1.64,.47-.51,1.07-.82,1.8-.94-.77-.37-1.38-.88-1.84-1.52-.46-.65-.69-1.41-.69-2.28,0-1,.26-1.87,.78-2.61,.52-.74,1.18-1.32,1.99-1.73,.81-.41,1.65-.61,2.51-.61,.55,0,1.1,.08,1.65,.24,.55,.16,1.06,.39,1.53,.69,.17-.47,.4-.88,.71-1.25,.31-.37,.66-.65,1.06-.86,.4-.21,.82-.31,1.25-.31s.76,.11,.99,.34c.22,.23,.34,.53,.34,.91,0,.12-.03,.26-.1,.42-.07,.17-.18,.31-.34,.43s-.37,.17-.64,.17c-.28,0-.52-.08-.7-.25-.18-.17-.3-.38-.35-.62-.42,.07-.74,.26-.97,.59-.23,.33-.39,.68-.47,1.06,.4,.37,.72,.81,.96,1.33s.36,1.07,.36,1.65c0,.93-.25,1.77-.74,2.5s-1.14,1.3-1.94,1.71c-.8,.41-1.67,.61-2.6,.61-.32,0-.59-.02-.83-.06s-.52-.06-.85-.06c-.62,0-1.12,.15-1.5,.45-.38,.3-.52,.66-.4,1.08,.13,.4,.54,.65,1.22,.76,.68,.11,1.6,.19,2.75,.24,1.28,.05,2.38,.2,3.3,.45,.92,.25,1.62,.64,2.11,1.16,.49,.52,.74,1.24,.74,2.14,0,.67-.18,1.26-.54,1.79-.36,.52-.83,.96-1.43,1.31-.59,.35-1.25,.62-1.97,.8-.72,.18-1.45,.27-2.19,.27Zm-.03-.98c1.43,0,2.55-.27,3.35-.8,.8-.53,1.2-1.16,1.2-1.88,0-.62-.21-1.09-.62-1.41-.42-.32-.98-.55-1.7-.67-.72-.12-1.54-.2-2.48-.21-.45-.02-.89-.04-1.32-.06-.43-.03-.85-.07-1.25-.14-.45,.3-.8,.67-1.05,1.1-.25,.43-.38,.89-.38,1.38,0,.82,.39,1.47,1.16,1.96,.77,.49,1.8,.74,3.09,.74Zm-.32-10.25c.62,0,1.13-.15,1.54-.45,.41-.3,.72-.71,.92-1.23s.31-1.1,.31-1.75c0-.73-.11-1.42-.33-2.05s-.54-1.14-.96-1.53c-.42-.38-.96-.57-1.61-.57-.9,0-1.6,.34-2.09,1.01-.49,.68-.74,1.51-.74,2.51,0,.8,.12,1.5,.35,2.11,.23,.61,.57,1.08,1.01,1.43,.44,.34,.97,.51,1.59,.51Z"/>
    <path d="M486.07,476.46c.52,0,.88-.13,1.08-.39,.2-.26,.32-.62,.35-1.07,.03-.46,.05-.99,.05-1.59v-11.83c0-.27,0-.52,.01-.76,0-.24,.03-.53,.06-.86-.3,.02-.6,.03-.89,.05-.29,.02-.59,.03-.89,.05v-1.05c.73,0,1.3-.03,1.71-.1,.41-.07,.72-.15,.92-.25,.21-.1,.37-.21,.49-.33h.72l.03,16.23c0,.33,0,.63-.03,.89-.02,.26-.05,.53-.1,.81,.27-.02,.53-.03,.79-.04,.26,0,.52-.02,.79-.04v1.02h-5.1v-.75Z"/>
    <path d="M500.72,477.21c-.05-.28-.08-.53-.1-.75-.02-.22-.04-.44-.07-.67-.57,.57-1.18,1.01-1.84,1.34-.66,.32-1.35,.49-2.09,.49-1.27,0-2.21-.29-2.82-.86-.62-.58-.93-1.28-.93-2.11,0-.77,.24-1.43,.71-1.99,.47-.56,1.09-1.02,1.85-1.38,.76-.36,1.58-.62,2.48-.8,.89-.18,1.75-.25,2.59-.24v-1.55c0-.58-.05-1.13-.15-1.65-.1-.52-.32-.94-.65-1.28-.33-.33-.87-.51-1.6-.52-.48-.02-.98,.08-1.49,.27-.51,.2-.88,.54-1.11,1.03,.13,.13,.22,.29,.26,.46,.04,.17,.06,.34,.06,.49,0,.2-.08,.43-.25,.69-.17,.26-.46,.38-.88,.36-.35,0-.62-.12-.8-.36-.18-.24-.28-.53-.28-.86,0-.57,.21-1.08,.64-1.52,.42-.45,1.01-.81,1.76-1.08s1.6-.4,2.55-.4c1.4,0,2.43,.37,3.1,1.11,.67,.74,.99,1.91,.97,3.51v1.86c0,.62,0,1.25-.01,1.88s-.01,1.25-.01,1.89c0,.27,0,.53-.02,.8-.02,.27-.04,.57-.08,.9,.3-.02,.6-.03,.89-.05,.29-.02,.59-.03,.89-.05v1.05h-3.58Zm-.23-6.12c-.57,.02-1.16,.09-1.79,.21s-1.2,.31-1.72,.56c-.53,.25-.95,.58-1.28,.99s-.48,.9-.46,1.49c.03,.62,.24,1.08,.61,1.39s.82,.46,1.34,.46c.68,0,1.28-.13,1.79-.39,.51-.26,1.01-.62,1.51-1.09-.02-.18-.02-.38-.02-.6v-.67c0-.08,0-.35,.01-.8,0-.45,.01-.97,.01-1.55Z"/>
    <path d="M511.14,477.61c-.83,0-1.57-.11-2.22-.34s-1.18-.48-1.6-.76l.1,.88h-1.05l-.15-4.3h.78c.03,.68,.22,1.3,.58,1.84,.35,.54,.8,.96,1.35,1.26,.55,.3,1.14,.45,1.78,.45,.43,0,.86-.07,1.27-.21,.42-.14,.77-.36,1.05-.65,.28-.29,.43-.66,.43-1.11s-.14-.85-.41-1.16c-.27-.31-.64-.58-1.09-.81-.45-.23-.93-.45-1.45-.65-.5-.2-1-.41-1.5-.62s-.96-.48-1.39-.78c-.42-.3-.76-.67-1.01-1.1s-.38-.97-.38-1.6c0-.35,.07-.73,.2-1.15,.13-.42,.36-.81,.67-1.19s.75-.68,1.3-.93c.55-.24,1.25-.36,2.1-.36,.45,0,.95,.07,1.5,.23,.55,.15,1.08,.43,1.6,.85l-.05-.95h1.05v4.38h-.8c-.03-.58-.17-1.15-.4-1.69s-.57-.99-1.02-1.35-1.03-.54-1.75-.54c-.77,0-1.37,.19-1.8,.58-.43,.38-.65,.82-.65,1.32s.16,.95,.49,1.29c.33,.34,.75,.64,1.26,.89s1.07,.49,1.65,.73c.63,.27,1.25,.56,1.85,.88s1.09,.71,1.47,1.19c.38,.47,.58,1.09,.58,1.84,0,.83-.21,1.52-.64,2.07-.42,.55-.97,.95-1.62,1.21-.66,.26-1.35,.39-2.06,.39Z"/>
    <path d="M522.72,477.61c-.83,0-1.57-.11-2.22-.34s-1.18-.48-1.6-.76l.1,.88h-1.05l-.15-4.3h.78c.03,.68,.22,1.3,.58,1.84,.35,.54,.8,.96,1.35,1.26,.55,.3,1.14,.45,1.78,.45,.43,0,.86-.07,1.27-.21,.42-.14,.77-.36,1.05-.65,.28-.29,.43-.66,.43-1.11s-.14-.85-.41-1.16c-.27-.31-.64-.58-1.09-.81-.45-.23-.93-.45-1.45-.65-.5-.2-1-.41-1.5-.62s-.96-.48-1.39-.78c-.42-.3-.76-.67-1.01-1.1s-.38-.97-.38-1.6c0-.35,.07-.73,.2-1.15,.13-.42,.36-.81,.67-1.19s.75-.68,1.3-.93c.55-.24,1.25-.36,2.1-.36,.45,0,.95,.07,1.5,.23,.55,.15,1.08,.43,1.6,.85l-.05-.95h1.05v4.38h-.8c-.03-.58-.17-1.15-.4-1.69s-.57-.99-1.02-1.35-1.03-.54-1.75-.54c-.77,0-1.37,.19-1.8,.58-.43,.38-.65,.82-.65,1.32s.16,.95,.49,1.29c.33,.34,.75,.64,1.26,.89s1.07,.49,1.65,.73c.63,.27,1.25,.56,1.85,.88s1.09,.71,1.47,1.19c.38,.47,.58,1.09,.58,1.84,0,.83-.21,1.52-.64,2.07-.42,.55-.97,.95-1.62,1.21-.66,.26-1.35,.39-2.06,.39Z"/>
    <path d="M541.94,477.61c-1.17,0-2.22-.27-3.17-.81s-1.7-1.29-2.26-2.25c-.56-.96-.84-2.05-.84-3.29,0-1.32,.27-2.5,.82-3.55,.55-1.05,1.3-1.88,2.25-2.49,.95-.61,2.02-.91,3.2-.91s2.23,.28,3.17,.84c.95,.56,1.71,1.31,2.28,2.26,.57,.95,.85,2.03,.85,3.25,0,1.28-.28,2.45-.84,3.51-.56,1.06-1.31,1.9-2.26,2.51-.95,.62-2.02,.92-3.2,.92Zm.2-1c.88,0,1.58-.25,2.1-.75s.89-1.15,1.11-1.95c.22-.8,.34-1.64,.34-2.53,0-.75-.07-1.49-.21-2.21-.14-.73-.36-1.38-.66-1.98-.3-.59-.69-1.06-1.16-1.41-.48-.35-1.05-.53-1.71-.53-.87,0-1.58,.25-2.12,.75s-.95,1.15-1.21,1.95c-.26,.8-.39,1.66-.39,2.58,0,1.03,.14,2.01,.42,2.94,.28,.92,.72,1.68,1.3,2.26,.58,.58,1.32,.88,2.2,.88Z"/>
    <path d="M551.82,464.19c0-1.85,.34-3.31,1.01-4.38,.67-1.07,1.84-1.6,3.49-1.6,.37,0,.75,.06,1.16,.19,.41,.12,.76,.33,1.06,.6,.3,.27,.45,.63,.45,1.06,0,.32-.09,.58-.26,.8-.18,.22-.43,.33-.76,.33-.4,.02-.68-.1-.84-.36-.16-.26-.24-.48-.24-.66,0-.1,0-.2,.03-.3,.02-.1,.05-.21,.1-.32-.12-.15-.28-.26-.49-.33-.21-.07-.4-.1-.59-.1-.52,0-.92,.15-1.2,.45-.28,.3-.48,.67-.6,1.12-.12,.45-.17,.92-.17,1.4v2.62h3.38v.98l-3.38,.07,.02,8.8c0,.33,0,.63-.01,.89,0,.26-.04,.53-.09,.81,.27-.02,.53-.03,.79-.04,.26,0,.52-.02,.79-.04v1.02h-5.1v-.75c.52,0,.88-.13,1.08-.39,.2-.26,.32-.62,.35-1.07,.03-.46,.05-.99,.05-1.59l-.03-7.62-2.05,.05v-1.12h2.05v-.52Z"/>
    <path d="M569.57,477.29l-3.28-9.6c-.12-.35-.22-.65-.31-.9s-.16-.47-.21-.65c-.05-.18-.09-.34-.12-.47l-1.32,.07v-1.02h5.3v.75c-.75,.02-1.16,.27-1.24,.76-.08,.49,.02,1.14,.29,1.94l1.15,3.5c.13,.4,.27,.8,.4,1.21,.13,.41,.27,.81,.4,1.21,.15-.45,.3-.9,.46-1.36s.31-.92,.46-1.39l2.22-6.62h1.03l2.53,7.27c.13,.37,.27,.74,.4,1.12,.13,.38,.27,.77,.4,1.15,.13-.37,.26-.73,.39-1.09,.12-.36,.25-.72,.36-1.09l1.65-4.75c.12-.33,.23-.65,.35-.95,.12-.3,.25-.54,.4-.72l-1.45,.07v-1.02h4.35v.75c-.43,.02-.79,.08-1.06,.17-.28,.1-.5,.23-.69,.4s-.33,.37-.45,.6c-.12,.23-.22,.5-.33,.8l-3.6,9.85h-1l-2.38-6.83c-.1-.3-.2-.6-.3-.89-.1-.29-.2-.58-.3-.88-.1-.29-.2-.58-.3-.86-.1,.28-.2,.57-.3,.86-.1,.29-.2,.58-.3,.88-.1,.29-.2,.59-.3,.89l-2.35,6.83h-.95Z"/>
    <path d="M585.29,476.46c.52,0,.88-.13,1.08-.39,.2-.26,.32-.62,.35-1.07,.03-.46,.05-.99,.05-1.59v-5.7c0-.27,0-.52,.02-.76,.02-.24,.04-.53,.08-.86-.3,.02-.6,.03-.89,.05-.29,.02-.59,.03-.89,.05v-1.05c.73,0,1.3-.03,1.7-.1,.4-.07,.7-.15,.91-.25,.21-.1,.37-.21,.49-.33h.72v10.1c0,.33,0,.63-.01,.89,0,.26-.04,.53-.09,.81,.27-.02,.53-.03,.79-.04,.26,0,.52-.02,.79-.04v1.02h-5.1v-.75Zm2.43-14.48c-.35,0-.66-.14-.93-.42-.27-.28-.4-.63-.4-1.05s.14-.77,.41-1.06c.28-.29,.59-.44,.94-.44,.38,0,.7,.15,.96,.44,.26,.29,.39,.65,.39,1.06s-.14,.77-.41,1.05c-.27,.28-.6,.42-.96,.42Z"/>
    <path d="M592.32,477.21v-.75c.52,0,.88-.13,1.08-.39,.2-.26,.32-.62,.35-1.07,.03-.46,.05-.99,.05-1.59l.02-5.7c0-.27,0-.53,.01-.8s.04-.54,.09-.83c-.3,.02-.6,.03-.89,.05-.29,.02-.59,.03-.89,.05v-1.05c.73,0,1.29-.03,1.66-.1s.65-.15,.84-.25c.18-.1,.33-.21,.45-.33h.72c.02,.12,.03,.25,.04,.4,0,.15,.02,.32,.04,.5,.02,.18,.03,.39,.03,.62,.37-.32,.77-.6,1.21-.85s.91-.45,1.4-.6c.49-.15,.98-.23,1.46-.23,1.45,0,2.51,.45,3.17,1.36,.67,.91,1,2.32,1,4.24v4.65c0,.33,0,.63-.01,.89,0,.26-.04,.53-.09,.81,.27-.02,.53-.03,.79-.04,.26,0,.52-.02,.79-.04v1.02h-5.1v-.75c.52,0,.88-.13,1.08-.39,.2-.26,.32-.62,.35-1.07s.05-.99,.05-1.59v-3.5c-.02-1.43-.25-2.52-.71-3.25-.46-.73-1.18-1.09-2.16-1.08-.6,.02-1.19,.17-1.76,.48-.57,.3-1.05,.68-1.44,1.15,.02,.13,.03,.28,.03,.45v.52l-.03,6.38c0,.33,0,.63-.01,.89,0,.26-.04,.53-.09,.81,.27-.02,.53-.03,.79-.04,.26,0,.52-.02,.79-.04v1.02h-5.1Z"/>
    <path d="M613.54,477.61c-1.15,0-2.19-.27-3.11-.81-.92-.54-1.65-1.31-2.19-2.3s-.8-2.16-.8-3.51c0-1.17,.26-2.26,.79-3.27,.52-1.02,1.26-1.84,2.21-2.46s2.05-.94,3.3-.94c.7,0,1.35,.11,1.96,.34s1.15,.57,1.61,1.02c.47,.46,.83,1.03,1.1,1.73,.27,.69,.4,1.5,.4,2.44l-8.8,.15c0,1.27,.14,2.38,.41,3.34,.28,.96,.72,1.7,1.34,2.23,.62,.52,1.41,.79,2.38,.79,.52,0,1.05-.09,1.59-.27,.54-.18,1.04-.43,1.51-.75,.47-.32,.84-.67,1.12-1.05l.6,.5c-.45,.7-.99,1.26-1.62,1.68-.63,.42-1.28,.72-1.95,.9-.67,.18-1.28,.27-1.85,.27Zm-3.45-8.67h6.38c0-.6-.09-1.18-.26-1.74-.17-.56-.46-1.02-.86-1.38-.4-.36-.92-.54-1.58-.54-.97,0-1.77,.29-2.41,.86-.64,.58-1.06,1.5-1.26,2.79Z"/>
    <path d="M622.99,477.61c-.38,0-.72-.15-1.01-.46-.29-.31-.44-.69-.44-1.14s.15-.83,.45-1.15c.3-.32,.64-.48,1.03-.48,.42,0,.76,.16,1.04,.48,.28,.32,.41,.7,.41,1.15s-.15,.83-.45,1.14-.64,.46-1.03,.46Z"/>
  </g>
  <g>
    <g>
      <ellipse class="cls-1" cx="408.85" cy="370.12" rx="68.37" ry="22.22"/>
      <path class="cls-1" d="M319.97,98.36l66.35,125.87c3.51,6.66,9.33,10.76,15.69,12.33v131.85s13.67,0,13.67,0V236.04c5.68-1.85,10.79-5.75,13.98-11.81l66.35-125.87h-176.05Z"/>
    </g>
    <path class="cls-2" d="M435.13,206.99l-7.22,13.7c-2.84,5.39-7.4,8.87-12.45,10.52l-12.18,.46c-5.66-1.4-10.85-5.05-13.97-10.98l-7.76-14.73s17.9-1.71,23.89-1.64c7.45,.08,29.7,2.66,29.7,2.66Z"/>
  </g>
</svg>